<svg xmlns="http://www.w3.org/2000/svg" viewBox="0 0 557.12 202.36"><defs><style>.cls-1{opacity:0.9;}.cls-15,.cls-2{fill:#fff;}.cls-2{opacity:0.2;}.cls-3{fill:#a15679;}.cls-4{fill:#642f64;}.cls-5{fill:#a26b70;}.cls-6{fill:#a1493b;}.cls-7{fill:#bf5f51;}.cls-8{fill:#993837;}.cls-9{fill:#9b4154;}.cls-10{fill:#c46d5e;}.cls-11{fill:#6a264d;}.cls-12{fill:#f6f8ec;}.cls-13{fill:#9a4c76;}.cls-14{fill:#c08da1;}.cls-15{font-size:53.81px;font-family:Arial-Black, Arial;font-weight:800;opacity:0.3;}.cls-16{letter-spacing:0.02em;}</style></defs><g id="Шар_2" data-name="Шар 2"><g id="Шар_1-2" data-name="Шар 1"><g class="cls-1"><path class="cls-2" d="M97.71,202.36a111,111,0,0,1-28.13-5.29,101.57,101.57,0,0,1-44-29.18A98.26,98.26,0,0,1,2.33,122.38a96.41,96.41,0,0,1,.36-43.67c8-32.59,27.29-56,57.7-70.19A92.9,92.9,0,0,1,94.77.17c28.6-1.56,53.51,7.35,74.54,26.69A99.14,99.14,0,0,1,200.38,83.4a103.21,103.21,0,0,1,1.46,21.29c0,.22,0,.44,0,.67a107.84,107.84,0,0,1-4.33,24.75,101.58,101.58,0,0,1-38.15,53A98.4,98.4,0,0,1,114,201.44,138.41,138.41,0,0,1,97.71,202.36ZM170.5,165h0l.33-.35h0l.34-.36h0l.35-.37,6-7.4.36-.39,0,0c.65-.27.36-.84.43-1.3a1.85,1.85,0,0,0,.68-1.34.51.51,0,0,0,.28-.15l.41-.15c.49.19.24-.23.31-.39h0l.31-.45,2.05-3.43a74.55,74.55,0,0,0,7.13-14.88l1.19-2.5c1.65-1,.08-2,.09-3v0l.34-.41a10.81,10.81,0,0,0,1.23-2.15,75.88,75.88,0,0,0,2.93-16.57,5.14,5.14,0,0,0,.19-2.1,117.15,117.15,0,0,0,0-13.77,2.07,2.07,0,0,0-.2-1.42l-.12-1.3a58.71,58.71,0,0,0-1.9-11.47c-.09-.49-.14-1-.27-1.48-5.13-19.75-15.32-36.4-31-49.41-24.48-20.27-52.58-27-83.3-19.46C45.8,17.09,23.85,38,11.82,69.34A86.75,86.75,0,0,0,6.54,93.88c-.31,4-.74,8.07,0,12.1-.25,3.13.38,6.19.79,9.27.18,1.35.12,2.8,1.14,3.92l.33.34h0l.34.34h0l.32.34h0v.65a.72.72,0,0,0-.67.33c-.71.81-.36,3.14.66,4.39.57,1.78,1.12,3.58,1.74,5.34.11.31,0,1.23.85.69l.42-.37,0,0c.48.14.69.34.57.94a14.21,14.21,0,0,0-.12,2.27,3.53,3.53,0,0,0,.56,2.45,3.3,3.3,0,0,0,.73,1.69,5.75,5.75,0,0,0,1,2.31,2.11,2.11,0,0,0,.72,1.21c.26.44.68.36,1.09.32h.13l.13,0c.16.32.44.35.76.31l.59.06L19,143l.1,0,.1,0c1.51,1.26,3.65,1,5.2,2.27-1.48-.46-3,.12-4.47-.53a3.32,3.32,0,0,0-2.74-.13l-.32.14c-.25.11-.23.21,0,.3h0c0,.33.06.6.44.67l.85,1.1c.91,1.83,1.72,3.73,3.35,5.08l.07.88c0,.51-.06,1,.68,1h0l.31.37h0c0,.49,0,1,.68,1l.31.38a6.24,6.24,0,0,0,2.53,2.73c-.3.38.05.64.18.94s.18.6.58.6l.14,0,1.34,2,.34.42,0,0,.34.36h0l.33.36.32.36c0,.29.1.53.43.6l0,0,.35.36,0,0,.35.37,0,0,.42.35a.76.76,0,0,1,.26.06,1,1,0,0,0,0,.25l.33.38h0l.34.35h0l.34.34h0l.34.35h0l.35.34h0l.35.35h0l.34.34h0l.34.35h0l.35.34h0l.35.35h0l.35.34h0a.64.64,0,0,0,.64.38h0l.4.3a.86.86,0,0,1,.28,0l.34.32c0,.68.46.9,1,1.08s1.28.41,1.32,1.26c-.32.73.1.93.72,1H40l.14,0a.64.64,0,0,1,0,.23.42.42,0,0,0,.37.43v0c0,.37.33.42.63.41h0l.37.33,0,0,.37.34,0,0c.08.33.34.4.63.42h0l.37.32,0,0,.42.33,6.93,4.71c.77-.06.93.77,1.49,1,2.89,1.9,6,3.4,9,5.06a.6.6,0,0,0,.69.35h0a1.56,1.56,0,0,0,1.46.66.21.21,0,0,1,.22.07l.51.26.09,0,.07.06a.65.65,0,0,0,.7.33l0,0a.58.58,0,0,0,.72.32l0,0c.19.5.61.4,1,.4h0a1.85,1.85,0,0,0,1.7.69h0c.18.34.48.35.81.3h.1l.09.06c.19.33.5.33.82.29l.1,0,.09.06a.59.59,0,0,0,.74.28h0c2,1.47,1.39-.83,1.92-1.49.74.53.14,1.36.6,1.86l.48.66c.32.55.86.35,1.33.4h0a.73.73,0,0,0,.81.27c.82.17,1.65.32,2.46.52a71.65,71.65,0,0,0,15.18,2.52c.47-.16.94-.36,1.37.09.21.76.84.62,1.38.62,4.08,0,8.18.19,12.24-.06,2.46-.15,5-.14,7.34-1.25l1.71-.4c.88-.15,1.76-.29,2.64-.47a113.55,113.55,0,0,0,14.43-4.24.67.67,0,0,0,.74-.31l.09-.07h.1c.33,0,.65,0,.8-.34l0,0a.6.6,0,0,0,.72-.31l.38-.32a1.53,1.53,0,0,1,1.37-.72,70.37,70.37,0,0,0,15.09-8.41c3.07-2.09,6.23-4.08,8.7-6.92l.07-2.14c.69-.57,1.65-.07,2.35-.6l.39-.06c.79-.15.75-1.27,1.59-1.36l.42.06c.24.18.22,0,.21-.16v0a.36.36,0,0,0,.37-.35l0,0a.37.37,0,0,0,.37-.36l0,0a.36.36,0,0,0,.36-.36l0,0a.37.37,0,0,0,.36-.37l0,0a.37.37,0,0,0,.35-.37l0,0a.36.36,0,0,0,.36-.36l0,0c.34,0,.42-.29.44-.58l.34-.36Z"/><path class="cls-3" d="M6.52,106c-.72-4-.29-8.09,0-12.1a86.75,86.75,0,0,1,5.28-24.54c12-31.36,34-52.25,66.7-60.29,30.72-7.55,58.82-.81,83.3,19.46,15.71,13,25.9,29.66,31,49.41.13.48.18,1,.27,1.48-.86,0-1.25.71-1.72,1.23-2.09,2.25-4.13,4.56-6.2,6.82-2.84,3.09-5.73,6.14-8.54,9.25-5.92,6.55-11.79,13.15-17.73,19.68-4.25,4.68-8.66,9.21-12.82,14-1.41,1.62-3.28,2.89-4.17,5a3.32,3.32,0,0,1-.3-2.75,24.07,24.07,0,0,0,.85-5.47c.31-9.35-2.82-17.69-7.66-25.49-.75-1.21-.83-1.63.62-2.33,7.77-3.78,12.52-9.85,13.23-18.62.52-6.42-1.14-12.43-4-18.12a3.74,3.74,0,0,1-.73-1.88c1.31.5,2.48,1,3.69,1.4a10.28,10.28,0,0,0,5.43.68c3-.66,4-3.23,2.3-5.72-.54-.78-1.18-1.49-1.77-2.24.57-.52,1.27-.31,1.92-.31,6.08,0,12.16,0,18.24-.07.86,0,2,.34,2.08-1.18,1,0,1.38-.55,1.49-1.59a4.39,4.39,0,0,0-2.07-4.31c-1.51-1.06-3.16-1.73-5.05-1-1.31.52-2.28.41-2.87-1.14a4.2,4.2,0,0,0-2.05-2.13,7.34,7.34,0,0,0-8.09.33c-.82.54-1.19.68-1.56-.57a7.34,7.34,0,0,0-12-3.67,2.3,2.3,0,0,1-1.71.5,12.2,12.2,0,0,0-5.72-3.76,5,5,0,0,0-4.06-3.32,8.48,8.48,0,0,0-5.49.88c-.85.39-1.43.57-2.09-.63a19.09,19.09,0,0,0-3.69-4.53,27.22,27.22,0,0,0-14-7C98.12,19.69,90.92,22.35,85,28.71c-1.12,1.2-1.58,3.32-2.88,4s-3.39.13-5.12.24c-2.49.17-4.59,1.88-4.88,3.82l-3,2.57c-1.22-.25-1.85-1.38-2.84-2-2.71-1.6-5.44-2.51-8.55-1A8.52,8.52,0,0,0,53,42.84c-.2,1-.48,1.45-1.5.69a13.32,13.32,0,0,0-4.7-2.1c-4.06-1-7.87.46-9.75,4.14-.46.9-.82,1.24-1.9.73-3.55-1.67-6.69-.88-9,2.21A3.22,3.22,0,0,0,25.57,52a2.18,2.18,0,0,0,2.37,1.48c.36,1.22,1.4.95,2.24.95,8.41,0,16.83,0,25.24.07.65,0,1.35-.23,1.94.27-.54.57-1.11,1.12-1.62,1.71-1.15,1.35-2,2.82-.88,4.57s2.71,1.94,4.56,1.72a26.28,26.28,0,0,0,8-2.7c-.41.72-.65,1.12-.87,1.54-3.31,6.48-5.09,13.29-4,20.59a21.74,21.74,0,0,0,11.09,16c.82.48.87.79.33,1.49a26.53,26.53,0,0,0-1.8,2.63c-5,8.26-8,17-6.79,26.83a6,6,0,0,1,0,1.34,1.32,1.32,0,0,1-.59,1.14c-.55.26-.76-.32-1.07-.6-8.94-8-19.5-10.8-31.27-9.64a62.25,62.25,0,0,0-9.45,2.18c-.06-.54-.47-.86-.81-1.23-4.18-4.49-8.33-9-12.55-13.47C8.73,107.8,8,106.51,6.52,106ZM166.44,76.75c-.34,0-.67,0-1,0-3.31,0-6.63,0-9.94,0-.57,0-1.44,0-1.43.78s.86.51,1.36.69a.91.91,0,0,0,.33,0c9.37-.08,18.75.26,28.12-.19.48,0,1.07.06,1.09-.71a1.24,1.24,0,0,0,1.81-.6c.45-.8-.06-1.25-.56-1.72a3.43,3.43,0,0,1-1-1.31,5.4,5.4,0,0,0-5.44-3.7,6.18,6.18,0,0,0-5.68,3.25,1.63,1.63,0,0,1-1.7,1c-2-.15-3.44,1.39-5.3,1.66C166.83,76.05,166.65,76.5,166.44,76.75Zm-129,0c-.52-1.93-2.23-2.19-3.72-2.24a2.87,2.87,0,0,1-2.76-1.86,7.53,7.53,0,0,0-9.36-3.47c-2.93,1-4.34,3.58-5.84,6-.79,1.26.18,2.38,2,2.62a2.71,2.71,0,0,0,1.88.6c11.06,0,22.11,0,33.17,0,.71,0,2.07.26,2-.81s-1.3-.75-2.07-.75C47.63,76.68,42.52,76.7,37.42,76.71Zm7.39,28h0c3.2,0,6.4,0,9.6,0,.59,0,1.45.15,1.47-.68s-.88-.66-1.43-.66c-4.6,0-9.2,0-13.8,0-1.69,0-3.37,0-5,.06-.62,0-1.62-.08-1.61.73s1,.53,1.56.53C38.64,104.69,41.73,104.68,44.81,104.68Zm99.37-75.77c0-.54-.37-.75-.89-.71s-.82.31-.77.85a.74.74,0,0,0,.87.77A.84.84,0,0,0,144.18,28.91ZM63.3,28.42a.82.82,0,0,0-.77-.9c-.52-.06-.86.17-.87.73a.82.82,0,0,0,.74.93C62.94,29.24,63.19,28.9,63.3,28.42ZM40,66.32c.45,0,.75-.22.77-.7s-.17-.8-.65-.82a.8.8,0,0,0-.89.8C39.24,66.06,39.58,66.28,40,66.32Z"/><path class="cls-4" d="M69.13,39.33l3-2.57c4.33-2,8.5-.95,11.3,2.83.51.69.72.79,1.51.33a41.29,41.29,0,0,1,40.89.39c.49.28.88.61,1.38-.11a9.26,9.26,0,0,1,8.91-4.3,12.2,12.2,0,0,1,5.72,3.76C145.13,44.2,148.18,48.93,152,53l1.54,1.74c.59.75,1.23,1.46,1.77,2.24,1.71,2.49.67,5.06-2.3,5.72a10.28,10.28,0,0,1-5.43-.68c-1.21-.39-2.38-.9-3.69-1.4a3.74,3.74,0,0,0,.73,1.88c2.9,5.69,4.56,11.7,4,18.12-.71,8.77-5.46,14.84-13.23,18.62-1.45.7-1.37,1.12-.62,2.33,4.84,7.8,8,16.14,7.66,25.49a24.07,24.07,0,0,1-.85,5.47,3.32,3.32,0,0,0,.3,2.75,43,43,0,0,1,2,10.11c-.13,3-.27,6-.4,8.95l.32,0,.41-.88a.79.79,0,0,0,.25-.84l.06-.5c.4-.28.34-.67.27-1.06l0,0,.25-.1-.2-.18.1-.67c1-1.06,1-2.39.94-3.72h0c1.13-.2.55-1.09.67-1.69h0a.64.64,0,0,0,.34-.74l.21-.57a.46.46,0,0,0,.2,0l.3-.31,0,0,2.35,0h0l.34.36v0l.28.36a.17.17,0,0,1,.1.19l.29.48a3,3,0,0,1,.71,1.57.71.71,0,0,0,.29.79,2.69,2.69,0,0,1,.39,1.54c0,.64-.34,1.38.42,1.87l-.06.08c.09.31-.42.78.25.92l.38,0c.62-.11.18-.56.27-.84a.18.18,0,0,1,0-.23.77.77,0,0,0,.27-.85l0-.09.06-.06c.44-.27.36-.69.33-1.1a.25.25,0,0,1,.06-.26.67.67,0,0,0,.28-.71l0,0c.37-.18.37-.5.33-.83a.12.12,0,0,1,.06-.17c.05,0,.13-.05.13-.07a1.09,1.09,0,0,0,0-.25l.21-.37a.62.62,0,0,0,.36-.68v0a.64.64,0,0,0,.36-.66h0l.29-.4,0,0,.32-.41,0,0a.35.35,0,0,0,.36-.37l0,0,.42-.3,0,0,1.79-.07v0c0,.39.3.44.6.45h0c0,.3.07.58.44.61l0,0,.3.41,0,0,.27.37.47.71a.59.59,0,0,0-.05.23.68.68,0,0,0,.3.75.13.13,0,0,1,0,.19.72.72,0,0,0,.3.82.14.14,0,0,1,0,.19c0,.42-.16.87.33,1.14l0,0a.66.66,0,0,0,.27.7l.39.37c.48.24.25-.2.33-.34h0l.31-.37h0l.34-.37h0c.7.06.73-.43.75-.92l.35-.38c.72,0,1.29-.17,1.3-1h0c1.81-.28,3.57-.88,5.44-.67h0c.07,1.17.92,1,1.7,1h0l.43.34.59.09,1,1v.55l.34.43,0,0,.34.37v0l.31.37h0l.27.32a.19.19,0,0,1,.11.2l.33.46,0,0,.31.38h0c0,.29.08.54.41.63l0,0,.33.38h0c0,.31,0,.58.42.63h0l.31.39,0,0,.32.38h0v.36a1.85,1.85,0,0,1-.68,1.34l-.75-.29,0,0-.31-.4h0c0-.5,0-1-.68-1h0l-.3-.37v0c0-.28-.11-.52-.42-.61l0,0-.31-.39h0c0-.3-.06-.57-.43-.62l0,0-.33-.38,0,0-.33-.38h0l-.32-.36h0l-.31-.35,0,0c0-.29-.09-.54-.45-.58l0,0a.34.34,0,0,0-.35-.36l0,0c0-.34-.3-.42-.58-.44l-.37-.32-.38-.32v0c0-.85-.62-.7-1.16-.66a.1.1,0,0,1-.16,0c-.79-1.43-1.56-.6-2.34,0h0c-.31,0-.58,0-.69.37l0,0-.39.32-.38.31c-.29,0-.53.1-.58.44l0,0c-.56.07-.75.44-.76,1h0l-.32.38,0,0-.32.39,0,0c-.37.07-.42.35-.41.65h0a.64.64,0,0,0-.38.64h0l-.29.39,0,0a.61.61,0,0,0-.38.66h0l-.3.4,0,0c-.36.1-.41.37-.39.67v0a.64.64,0,0,0-.37.67h0c-.93-.19-1-.93-1-1.65s0-1.56-.74-2.08v-.13c.19-2.07-.13-3.95-2-5.22l-.57-.34-.37.36h0c-.83,0-.7.61-.66,1.14a.14.14,0,0,1,0,.18.65.65,0,0,0-.33.68h0c-.81.35-.69,1.05-.65,1.72v0c-.79.56-.74,1.37-.66,2.19l0,.07-.05.07c-.2.18-.55.34-.59.55-.3,1.52-.54,3-.8,4.58-.37,2.14-.84,4.26-1,6.47-.22-2.53-.64-5-1.06-7.47s-.06-5.23-1.69-7.47v0a.65.65,0,0,0-.25-.71l-.1-.51c0-.34,0-.66-.35-.82s-.34-.81-.9-.67c-.91,0-1.08.83-1.22,1.4-.85,3.61-2.26,7.11-2.19,10.9,0,.73-.16,1.21-1,1.14h0c0-.29-.08-.54-.4-.64l0,0-.3-.39h0c0-.33-.13-.59-.5-.63-.76-.69-.76.1-.92.5-.88,2.29-2,4.45-3.1,6.64a6.59,6.59,0,0,0,.13,5.73c.17.7.74.56,1.22.56h9.54a2.36,2.36,0,0,0,1.69-.6l.33-.09c.58-1.51,1.12-.07,1.67,0l0,0c2.87,1,5.84.52,8.77.64,0,.71,0,1.42-.07,2.14l-.54-.08a3.18,3.18,0,0,0-1.77-.38H140.28c-.51,0-1.15-.26-1.45.48l-.3.2-1.31.32a.78.78,0,0,0-.73-.62,11.33,11.33,0,0,0-6.45,0h-2a3,3,0,0,0-3.39.08,2.45,2.45,0,0,1-1.42,0,13.79,13.79,0,0,0-5.28.06l-.36.12a1.2,1.2,0,0,1-1.38,0l-.32-.17c-.22-.67-.8-.5-1.27-.5H97.07c-.53,0-1.17-.2-1.38.58l-.08.08-1.45.33a1.53,1.53,0,0,0-1.64-.57c-5.22.5-10.45-.24-15.67,0-1.49-1.07-3,.15-4.48,0l-.91,0a1,1,0,0,0-.9-.36H53.26c-.47,0-.92,0-1,.62l-.1.39a2,2,0,0,1-1.53-.38c-.11-.34-.3-.62-.69-.61-3.6.12-7.22-.37-10.81.3,0-.85-.71-1.07-1.32-1.26s-1-.4-1-1.08c3.91,0,7.82,0,11.73.31,1.5.13,3-.11,4.38.82a1.37,1.37,0,0,0,1.59-.06,6.14,6.14,0,0,1,3.71-.74c2.19,0,4.38.08,6.56,0,1.16-.05,2.48.15,3.34-1h0l.35-.33h0l.34-.35h0l.33-.35h0c.76,0,.71-.53.67-1.05a.67.67,0,0,1,.06-.28l.3-.35h0c.25-.1.26-.2,0-.33a.74.74,0,0,1,0-.26l-.3-.41h0a.61.61,0,0,0-.39-.65c-1.65-1.63-2.34-3.85-3.53-5.76-.38-1.67-1.35-1.08-2.3-.61-9.85.86-19.66-.42-29.5-.39.4-.46.93-.29,1.42-.33,2.86-.25,5.72-.18,8.59-.48a60.09,60.09,0,0,1,13.48-.25A9.8,9.8,0,0,0,64,155.85a1.48,1.48,0,0,0,.22-1.25A38.74,38.74,0,0,1,63,146.38c0-.48-.07-.9-.65-1-.26-.31-.48-.26-.66.07a.47.47,0,0,1-.26,0c-.4,0-.81-.12-1.09.28a.57.57,0,0,1-.29,0c-.56,0-1.12,0-1.68,0-3.28-.24-6.57.62-9.85,0-.45-.08-1.21.22-1.19-.52s.78-.45,1.23-.48c.94-.06,1.94.18,2.68-.65l.68,0a14.2,14.2,0,0,0,8.08-.67l.61-.05a.65.65,0,0,0,.74-.28.54.54,0,0,1,.28-.05.63.63,0,0,0,.73-.33l.68-.65c1.29-.4.56-1.53.76-2.28.37-1.46,1.06-3,.29-4.5-.06-.27-.13-.53-.47-.58l0,0A.82.82,0,0,0,63,134l-1-1-.33-.35-.34-.33L61,132h0a5.36,5.36,0,0,0-2.13-1.42,11.85,11.85,0,0,0-4.24-2.9,37.14,37.14,0,0,0-14.8-3.83,43,43,0,0,0-13.42,1.48A3.19,3.19,0,0,0,28.25,127l.11.44.36.42,0,0,.35.37h0l.35.36h0c0,.67-.19,1.12-1,1l0,0c0-.28-.14-.52-.45-.58l-.26-.32-.34-.38v0l-.34-.36h0l-.36-.33v0l-.3-.38-.52-.28a2.26,2.26,0,0,0-3-.34,24.45,24.45,0,0,1-2.5,1.27c-1.05.44-.9.86-.1,1.37l.41.32,0,0,.44.35a.58.58,0,0,1,.54.39c-.39,1-1.08.36-1.66.31h0l-.38-.3h-.35a1.58,1.58,0,0,0-2.58-.06,18.94,18.94,0,0,0-3.75,4.14,14.21,14.21,0,0,1,.12-2.27c.12-.6-.09-.8-.57-.94.47-1.22,1.76-1.63,2.5-2.58.66,0,.62-.55.63-1l.42,0c2.18-1.69,4.76-2.65,7.12-4a62.25,62.25,0,0,1,9.45-2.18C44.29,120.2,54.85,123,63.79,131c.31.28.52.86,1.07.6a1.32,1.32,0,0,0,.59-1.14,6,6,0,0,0,0-1.34c-1.17-9.81,1.81-18.57,6.79-26.83a26.53,26.53,0,0,1,1.8-2.63c.54-.7.49-1-.33-1.49a21.74,21.74,0,0,1-11.09-16c-1.13-7.3.65-14.11,4-20.59.22-.42.46-.82.87-1.54a26.28,26.28,0,0,1-8,2.7c-1.85.22-3.5,0-4.56-1.72s-.27-3.22.88-4.57c.51-.59,1.08-1.14,1.62-1.71l1.38-1.83c.47-.48,1-.93,1.4-1.44C63.38,47.61,66.07,43.33,69.13,39.33Zm65,128.31,0,0,.33-.45c1.07-1.76,2.12-3.52.29-5.44a6.25,6.25,0,0,0-3-1.81c-5.41-1.41-12,3.12-12.79,8.67-.15,1.07.21,1.37,1.24,1.36,3.8,0,7.6,0,11.41,0a1.85,1.85,0,0,0,1.86-1.61V168h.14l.17,0ZM76.5,169a.33.33,0,0,0,.32.36,2.86,2.86,0,0,0,2.18.55c3.26,0,6.51,0,9.76-.05,1.65,0,1.85-.34,1.27-2a12.48,12.48,0,0,0-7-7.56,7.75,7.75,0,0,0-8.13.76c-1.69,1.26-2,2.51-1,4.37a10.19,10.19,0,0,0,2.14,3C76.11,168.71,76.19,169,76.5,169Zm-6.75-8.7,0-.06a.69.69,0,0,0,.38.71l.58,1.39c2.15-4.31,5.63-5.79,10.06-5.47,1.71.12,3.17,1,4.78,1.42,3.4,2.23,6.2,5,7.23,9.07.18.7.8.75,1.33.84a61.57,61.57,0,0,0,20.54.1c1-.18,1.82-.56,2-1.8a8.87,8.87,0,0,1,1.54-3.33c1.92-2.91,4.8-4.57,7.87-6,3.46-.64,6.77-.4,9.75,1.72l2.06,1.76c3.51-5.94,4.57-18.21,1.88-22.59l-2.17,4c-1.08,1.37-2.16,2.93-4,3a14.93,14.93,0,0,0-3.68.83,7.18,7.18,0,0,1-2.15.36c-5.32.05-8.64-3.6-6.26-8.64a13.55,13.55,0,0,0,.89-2.88c.71-3.22-.16-6.22-1.41-9.14-.4-.92-.38-1.67.6-2.1s1.45.27,1.83,1a19.47,19.47,0,0,1,1.75,4.88c.85,3.93-.31,7.53-1.67,11.12,0,.25-.13.69-.06.72.38.17.29-.28.44-.43.45-.53.77-1.39,1.67-1.07,1.17.41.26,1.5.56,2.38.68-.77.85-1.9,2-1.87,1,0,.81.94,1.06,1.54.88-.62,1.46-1.54,2.59-1.13,0,.72.06,1.44.1,2.26a5.68,5.68,0,0,0,3.37-2.67,26.06,26.06,0,0,0,4.59-14c.13-9.09-3.27-17.06-8.05-24.56-.53-.83-1.08-.57-1.71-.38A80.09,80.09,0,0,1,115,103.88c-1.67.16-2.16-.38-2.08-2.13,2.15-.83,4.49-.53,6.68-1.13.5,0,1,.17,1.42-.3l.56,0c5.59-.58,11-2,15.66-5.11,4.35-2.91,7.46-6.92,8.32-12.17,1.71-10.4-2.11-19.1-8.77-26.82-.46-1.16-1.87-1.87-1.61-3.38,1.11-.75,1.92-.35,2.76.56,3.51,3.82,8.1,5.66,13,6.77.77.17,1.75.45,2.32-.42.38-.56-.17-1.09-.52-1.47-4.23-4.54-7.77-9.63-11.59-14.51.1-.33-.09-.53-.32-.7h0l-.33-.37h0a5.08,5.08,0,0,0-1.95-2.37c-2.64-3.09-7.17-2.27-9.22,1.68h0c-.62.69-.85,1.39,0,2.08h0c0,.55,1,1,.29,1.6-.52.42-1-.2-1.46-.46-.62-.34-1.2-.75-1.79-1.14-8.46-6.32-18-7.78-28.19-6.26-6,.89-11.19,3.68-16.26,6.78-.09-2-.2-3.94-2.32-5l-.4-.28,0,0c-3.1-2-6.17-.61-8.14,2-2.72,3.57-5.27,7.26-7.9,10.9-.47.18-.34.62-.43,1a1,1,0,0,0-.66.74c-.32.09-.76,0-.72.57h0c-.25,0-.34.11-.35.34h0a6.88,6.88,0,0,0-2,2c-.72,1-2.53,1.88-1.73,3s2.54.23,3.82-.23a8,8,0,0,0,1-.22,26.54,26.54,0,0,0,9.7-5.73c1.26-1.22,1.88-1,2.54.54-.23,1-1.27,1.59-1.17,2.7h0c-.22,0-.27.16-.27.35a33.72,33.72,0,0,0-7.75,17.35A20.87,20.87,0,0,0,78.18,97.44,63.87,63.87,0,0,0,96.4,101.3l.93.39c.21,1.11.1,2-1.23,2.36a126.25,126.25,0,0,1-16.61-2.89,3.26,3.26,0,0,1-.8-.25c-1.41-.93-2.21-.31-3,.93a48.41,48.41,0,0,0-6.1,12.23c-2.3,7.2-2.61,14.35,1,21.31l.19.33.14.34a16,16,0,0,0,4.86,6.43c.31.24.67.59,1,.36s.23-.7.13-1.09c.13-.44,0-1.05.71-1.13,1.25-.13,1.57,1,2.22,1.7.42-.61-.39-1.51.59-1.92s1.43.74,2.31,1.18c0-.8,0-1.39.62-1.79s1.08.43,1.83.55c-.43-1.09-.79-2-1.1-2.86a17.24,17.24,0,0,1,.65-12.61c.31-.73.66-1.45,1.83-1.05s.92,1.14.65,1.86a16.84,16.84,0,0,0,.33,13.21,5.15,5.15,0,0,1-3,6.77,9.86,9.86,0,0,1-4.28.63c-1.5,0-2.71-1.08-4.17-1.13a5.18,5.18,0,0,1-3.66-1.79,33.57,33.57,0,0,1-3.55-5.06l-1.66-3.82a37.27,37.27,0,0,0-1.57,9.78c-.11,5.55.87,10.87,3.86,15.67h0C69.46,160.12,69.48,160.33,69.75,160.33Zm1.07,9.48c1-.08,1-.63,1-1.46C71.36,168.85,70.85,169,70.82,169.81Zm11.92-28c0,.09-.14.17-.14.25s.08.19.12.28c0-.08.14-.17.14-.25S82.78,141.87,82.74,141.77Zm46.1.37s-.07.09-.06.12.15.16.22,0a.14.14,0,0,0-.05-.11S128.88,142.14,128.84,142.14Z"/><path class="cls-5" d="M153.34,151.23l-.38,0c0-.33,0-.67-.25-.92l.06-.08a4,4,0,0,0-.42-1.87,2.69,2.69,0,0,0-.39-1.54.83.83,0,0,0-.29-.79,3,3,0,0,0-.71-1.57l-.29-.48a.17.17,0,0,0-.1-.19l-.28-.36v0l-.34-.36h0a1.62,1.62,0,0,0-1.71-.61c1.82-2.35,4.07-4.29,6-6.5,5.28-5.93,10.71-11.72,16.12-17.53s10.78-11.36,16-17.16c2.81-3.11,5.9-6,8.68-9.1a2.07,2.07,0,0,1,.2,1.42c-.4.5-.24,1.08-.24,1.62,0,3.52,0,7,0,10.55,0,.54-.18,1.13.27,1.6a5.14,5.14,0,0,1-.19,2.1c-.66-.12-1,.36-1.4.76-1,1-2,2.14-3,3.21-5.51,5.95-11.1,11.83-16.65,17.76-1.41,1.51-2.7,3.13-4.12,4.63-2.94,3.13-5.93,6.22-8.9,9.32l-.47-.71-.27-.37,0,0-.3-.41,0,0a.76.76,0,0,0-.44-.61h0c-.09-.3-.33-.39-.6-.45v0a1.33,1.33,0,0,0-1.79.07l0,0-.42.3,0,0-.36.37,0,0c-.1.14-.21.27-.32.41l0,0-.29.4h0l-.36.66v0a.79.79,0,0,0-.36.68l-.21.37-.09.32a.12.12,0,0,0-.06.17,1,1,0,0,0-.33.83l0,0a.68.68,0,0,0-.28.71.25.25,0,0,0-.06.26,1.31,1.31,0,0,0-.33,1.1l-.06.06,0,.09a.92.92,0,0,0-.27.85.18.18,0,0,0,0,.23A.94.94,0,0,0,153.34,151.23Z"/><path class="cls-5" d="M143.92,145.43a43,43,0,0,0-2-10.11c.89-2.08,2.76-3.35,4.17-5,4.16-4.76,8.57-9.29,12.82-14,5.94-6.53,11.81-13.13,17.73-19.68,2.81-3.11,5.7-6.16,8.54-9.25,2.07-2.26,4.11-4.57,6.2-6.82.47-.52.86-1.22,1.72-1.23A58.71,58.71,0,0,1,195,90.87c-.73,0-1,.62-1.46,1-3.46,3.44-6.74,7-10,10.64-4,4.43-8.11,8.82-12.19,13.2-6.8,7.29-13.68,14.51-20.4,21.88-1.67,1.83-3.78,3.37-4.74,5.8A2.91,2.91,0,0,0,143.92,145.43Z"/><path class="cls-6" d="M161.15,145.14c3-3.1,6-6.19,8.9-9.32,1.42-1.5,2.71-3.12,4.12-4.63,5.55-5.93,11.14-11.81,16.65-17.76,1-1.07,1.93-2.18,3-3.21.38-.4.74-.88,1.4-.76A75.88,75.88,0,0,1,192.25,126a10.81,10.81,0,0,1-1.23,2.15l-.34.41v0c-5.71,5.9-11,12.17-16.47,18.28l-.59-.09-.43-.34h0a2.43,2.43,0,0,0-1.7-1h0c-2-1.14-3.76-.6-5.44.67h0a2.21,2.21,0,0,0-1.3,1l-.35.38a1.53,1.53,0,0,0-.75.92h0l-.34.37h0l-.31.37h0l-.33.34-.39-.37a.66.66,0,0,0-.27-.7l0,0a1.56,1.56,0,0,0-.33-1.14.14.14,0,0,0,0-.19.91.91,0,0,0-.3-.82.13.13,0,0,0,0-.19.77.77,0,0,0-.3-.75A.59.59,0,0,1,161.15,145.14Z"/><path class="cls-6" d="M160.67,150.35v.13c.19,1.22.36,2.44.6,3.65.06.33,0,.92.48.93s.58-.45.66-.85h0c.12-.22.25-.44.37-.67v0a.73.73,0,0,0,.39-.67l0,0,.3-.4h0a.74.74,0,0,0,.38-.66l0,0,.29-.39h0l.38-.64h0a.74.74,0,0,0,.41-.65l0,0,.32-.39,0,0c.1-.13.21-.25.32-.38h0a1.53,1.53,0,0,0,.76-1l0,0a.7.7,0,0,0,.58-.44l.38-.31.39-.32,0,0a.8.8,0,0,0,.69-.37h0l2.34,0a.1.1,0,0,0,.16,0l1.16.66v0l.38.32.37.32a.7.7,0,0,0,.58.44l0,0,.35.36,0,0,.45.58,0,0,.31.35h0l.32.36h0l.33.38,0,0,.33.38,0,0a.71.71,0,0,0,.43.62h0l.31.39,0,0a.72.72,0,0,0,.42.61v0l.3.37h0a1.62,1.62,0,0,0,.68,1h0l.31.4,0,0c.13.52.57,1,.32,1.59l0,0-.36.38-6,7.4-.35.37h0l-.34.36h0l-.33.35h0l-.33.34-.34.36a.69.69,0,0,0-.44.58l0,0-.36.36,0,0-.35.37,0,0-.36.37,0,0-.36.36,0,0-.37.36,0,0-.37.35v0a.21.21,0,0,0-.21.16l-.42-.06c-.09-2.19-.19-4.37-.27-6.56,0-1-.36-1.42-1.35-.83-.54.42-.33,1-.33,1.56,0,1.78-.08,3.57,0,5.36,0,1.2-.39,1.54-1.54,1.51q-3.94-.1-7.88,0c-1.12,0-1.42-.38-1.43-1.45,0-1.89.3-3.79-.19-5.65.11-3.77,1.05-7.42,1.62-11.13l.05-.07,0-.07a4.35,4.35,0,0,0,.66-2.19v0a3.06,3.06,0,0,0,.65-1.72h0a.79.79,0,0,0,.33-.68.14.14,0,0,0,0-.18,2,2,0,0,0,.66-1.14h0l.37-.36.57.34C159.59,146.77,159.92,148.64,160.67,150.35Z"/><path class="cls-7" d="M27.64,128.65l.26.32.45.58,0,0a25.16,25.16,0,0,1,3,6.53c.26,1,.86,1,1.61.52,1.12-.57,1.21-1.44.84-2.53a17.07,17.07,0,0,0-3.93-7c2.59-1.16,5.18-.91,7.75-.91s2.81.5,1.64,2.73c-.77,1.47-1.49,2.89-.71,4.58l-.1.47c-1.08.88-.85,1.91-.31,3a1.77,1.77,0,0,0,1.65.35l.31-.35,0,0c.74-.69.26-1.58.38-2.37h0c2-.91,2.2-3.08,3.34-4.59.47-.63.59-1.71,1.73-1.39s.61,1.27.73,2h0c-.37.16-.35.48-.34.8a21.71,21.71,0,0,0-.6,2.6c-.13,1.34-.9,2.75.24,4,.47.43.91.48,1.33-.07H46.8a.93.93,0,0,0,1.08-.8c.81-2.67,2.81-4.46,4.72-6.29.36-.35.94-1.14,1.49-.63s-.1,1.09-.5,1.56-1.17.82-1.24,1.73c1-.06,1.42-.83,2.08-1.16s1.13-1.64,2.22-.71c-.26.21-.51.42-.77.61a19.53,19.53,0,0,0-4.13,3.83c-.45.61-.79,1.3,0,1.88s1.19,0,1.65-.54,1.12-1.21,1.68-1.81l.49-.35h0a2.69,2.69,0,0,0,2.32-.63c1.56-1.51,2.76-1.57,4.18-.15.47.48.93,1,1.72.76h-.05c0,.38-.1.75.24,1L63,141.1c-4.84-1.08-9.78-1.16-14.68-1.29-8.63-.22-17.27-.1-25.9-.46a14.68,14.68,0,0,0-7.32,1.49,5.75,5.75,0,0,1-1-2.31c1.15-2.62,3.14-4.71,4.58-7.16.27-.46.76-.4,1.21-.4,2.42,1.36,3.7,3.64,4.89,6,.22.44.3,1,.93,1.08s.87-.58,1.1-1.08c.82-.71.45-1.5.12-2.25-1-2.27-2.22-4.37-4.64-5.56,1-.81,2.4-.39,2.91-1.6l.33-.08.69.12.37,0v0l.36.33h0l.34.36v0Z"/><path class="cls-6" d="M93.27,195.6a71.65,71.65,0,0,1-15.18-2.52c-.81-.2-1.64-.35-2.46-.52a.83.83,0,0,0-.81-.27h0a1.91,1.91,0,0,0-1.33-.4l-.48-.66q.42-7.23.85-14.46a9.09,9.09,0,0,0,2.8.36c2.94.13,5.88.3,8.83.46l8.31.43Q93.51,186.8,93.27,195.6Z"/><path class="cls-6" d="M135.31,189.52h-.1l-.09.07a.78.78,0,0,0-.74.31A113.55,113.55,0,0,1,120,194.13c-.88.18-1.76.32-2.64.47-.12-5.27.22-10.52.34-15.78a3.4,3.4,0,0,0,2,.3l17.45,0,.12,9.41-.38.32a.76.76,0,0,0-.72.31l0,0A1,1,0,0,0,135.31,189.52Z"/><path class="cls-6" d="M63,187.92a.21.21,0,0,0-.22-.07,2.35,2.35,0,0,0-1.46-.66h0a.79.79,0,0,0-.69-.35c-3-1.66-6.13-3.16-9-5.06.09-1.56.19-3.13.29-4.7.26-.2.29-.41,0-.63l.2-1.45,19.92,1.74c-.19,4.39-.39,8.78-.53,13.17,0,.86-.36,1.08-1.12.93h0a.75.75,0,0,0-.74-.28l-.09-.06-.1,0a.93.93,0,0,0-.82-.29l-.09-.06h-.1a.92.92,0,0,0-.81-.3h0a3,3,0,0,0-1.7-.69h0a1.24,1.24,0,0,0-1-.4l0,0a.75.75,0,0,0-.72-.32l0,0a.76.76,0,0,0-.7-.33l-.07-.06-.09,0Z"/><path class="cls-8" d="M15.14,140.84a14.68,14.68,0,0,1,7.32-1.49c8.63.36,17.27.24,25.9.46,4.9.13,9.84.21,14.68,1.29,0,.33,0,.65,0,1l-.68.65a.83.83,0,0,0-.73.33.54.54,0,0,0-.28.05.81.81,0,0,0-.74.28l-.61.05c-2.69.28-5.41.1-8.08.67l-.68,0a50.22,50.22,0,0,0-8.66.84,55.69,55.69,0,0,1-13,.23c-3.53-.37-6.86-1.54-10.32-2.16l-.1,0-.1,0-.46-.27-.59-.06a.82.82,0,0,0-.76-.31l-.13,0H17a1.22,1.22,0,0,0-1.09-.32A2.11,2.11,0,0,1,15.14,140.84Z"/><path class="cls-7" d="M63.55,158.63c1-.47,1.92-1.06,2.3.61-.79.72,0,1.33.2,1.91a6.8,6.8,0,0,1,.33,4.74c-.24.73-.58,1.31-1.4,1.07a20.62,20.62,0,0,0-3.5-.4c-4.65-.55-9.3-1.26-14-1.5A108.28,108.28,0,0,0,31.39,165a.76.76,0,0,0-.26-.06l-.42-.35,0,0c-.12-.12-.24-.24-.35-.37l0,0-.35-.36,0,0a.67.67,0,0,0-.43-.6l-.32-.36-.33-.36h0l-.34-.36,0,0-.34-.42-1.34-2a3.32,3.32,0,0,1,1-.18c9.74.94,19.51.7,29.27.47A11.53,11.53,0,0,0,63.55,158.63Z"/><path class="cls-8" d="M61.42,145.49a.47.47,0,0,0,.26,0l.66-.07c.58.09.65.51.65,1a38.74,38.74,0,0,0,1.26,8.22,1.48,1.48,0,0,1-.22,1.25,26,26,0,0,1-8.65.65c-4.79-.5-9.59-.25-14.39-.52-5.13-.29-10.29-.08-15.44-.08a3.67,3.67,0,0,1-2-.3l-.31-.38a1.11,1.11,0,0,0-.68-1h0l-.31-.37h0a1.27,1.27,0,0,0-.68-1c0-.29,0-.58-.07-.88.45-.63,1.12-.38,1.71-.41,4.52-.24,9-.26,13.57-.11,6,.2,12,.59,17.92.88,2.09.1,4.3-.2,6.31.63,1.41.58,1.5-.22,1.28-1.16a12.1,12.1,0,0,0-2.72-5.33.5.5,0,0,0,0-.27l.45-.35a.57.57,0,0,0,.29,0A1.14,1.14,0,0,0,61.42,145.49Z"/><path class="cls-7" d="M59.61,146.43a12.1,12.1,0,0,1,2.72,5.33c.22.94.13,1.74-1.28,1.16-2-.83-4.22-.53-6.31-.63-6-.29-11.94-.68-17.92-.88-4.54-.15-9-.13-13.57.11-.59,0-1.26-.22-1.71.41-1.63-1.35-2.44-3.25-3.35-5.08.06-.79.62-.49,1-.39A68.63,68.63,0,0,0,27.36,148a57.69,57.69,0,0,0,17.5.21c3.73-.56,7.39-1.87,11.25-1.46a.66.66,0,0,0,.81-.43l.78-.09C58.31,146.62,59,146.38,59.61,146.43Z"/><path class="cls-8" d="M31.39,165a108.28,108.28,0,0,1,16.11.05c4.68.24,9.33.95,14,1.5a20.62,20.62,0,0,1,3.5.4c.82.24,1.16-.34,1.4-1.07a6.8,6.8,0,0,0-.33-4.74c-.23-.58-1-1.19-.2-1.91,1.19,1.91,1.88,4.13,3.53,5.76a.76.76,0,0,0,.39.65h0l.3.41a.74.74,0,0,0,0,.26,1.83,1.83,0,0,0,0,.33h0l-.3.35a.67.67,0,0,0-.06.28,1.35,1.35,0,0,0-.67,1.05h0l-.33.35h0l-.34.35h0l-.35.33h0a13.74,13.74,0,0,1-4.14.39H36.41a.86.86,0,0,0-.28,0l-.4-.3h0a.65.65,0,0,0-.64-.38h0l-.35-.34h0c-.11-.12-.23-.23-.35-.35h0l-.35-.34h0l-.34-.35h0l-.34-.34h0l-.35-.35h0l-.35-.34h0l-.34-.35h0c-.12-.11-.23-.23-.34-.34h0l-.34-.35h0l-.33-.38A1,1,0,0,1,31.39,165Z"/><path class="cls-6" d="M23.07,123.54c-2.36,1.36-4.94,2.32-7.12,4-.06-.26,0-.57-.34-.72l-.31-.36-.35-.33-.32-.35a16.54,16.54,0,0,0-2.78-3v0l-.36-.36,0,0-.36-.36,0,0-.34-.37,0,0-.35-.37,0,0-.36-.41a.26.26,0,0,0-.14-.22.9.9,0,0,0-.58-.66h0l-.32-.34h0l-.34-.34h0l-.33-.34c-1-1.12-1-2.57-1.14-3.92-.41-3.08-1-6.14-.79-9.27,1.43.53,2.21,1.82,3.19,2.86,4.22,4.46,8.37,9,12.55,13.47C22.6,122.68,23,123,23.07,123.54Z"/><path class="cls-9" d="M138.53,172.75l.3-.2,22.51.07a1.46,1.46,0,0,0,.46-.18l.54.08c-2.47,2.84-5.63,4.83-8.7,6.92-.19-.09-.38-.28-.57-.28q-6.93.15-13.85.34c-.19,0-.38.2-.57.31Z"/><path class="cls-6" d="M175.25,148.37v-.55c.51-.51,1-1,1.53-1.52q6.14-6.83,12.25-13.66l.39,1.46A74.55,74.55,0,0,1,182.28,149l-2.05,3.43-.31.45h0l-.31.39-.41.15-.28-.21h0l-.32-.38,0,0-.31-.39h0a.73.73,0,0,0-.42-.63h0l-.33-.38,0,0c-.14-.21-.28-.42-.41-.63h0l-.31-.38,0,0-.33-.46a.19.19,0,0,0-.11-.2l-.27-.32h0l-.31-.37v0l-.34-.37,0,0C175.48,148.65,175.36,148.51,175.25,148.37Z"/><path class="cls-10" d="M146.21,143.43c1-2.43,3.07-4,4.74-5.8,6.72-7.37,13.6-14.59,20.4-21.88,4.08-4.38,8.16-8.77,12.19-13.2,3.28-3.61,6.56-7.2,10-10.64.42-.42.73-1,1.46-1l.12,1.3c-2.78,3.15-5.87,6-8.68,9.1-5.26,5.8-10.7,11.43-16,17.16S159.58,130,154.3,136c-2,2.21-4.22,4.15-6,6.5l-.64.64,0,0-.3.31a.46.46,0,0,1-.2,0Z"/><path class="cls-11" d="M57.7,146.26l-.78.09a156.81,156.81,0,0,0-17.18,1.39c-7.75.9-15.22-.59-22.53-3.09a3.32,3.32,0,0,1,2.74.13c1.43.65,3,.07,4.47.53-1.55-1.3-3.69-1-5.2-2.27,3.46.62,6.79,1.79,10.32,2.16a55.69,55.69,0,0,0,13-.23,50.22,50.22,0,0,1,8.66-.84c-.74.83-1.74.59-2.68.65-.45,0-1.2-.23-1.23.48s.74.44,1.19.52c3.28.62,6.57-.24,9.85,0,.56,0,1.12,0,1.68,0l-.45.35Z"/><path class="cls-6" d="M138.65,179.81c.19-.11.38-.3.57-.31q6.93-.19,13.85-.34c.19,0,.38.19.57.28a70.37,70.37,0,0,1-15.09,8.41c0-.34,0-.68,0-1a.61.61,0,0,0,0-.91v-.44a8.69,8.69,0,0,0,0-3.93C138.64,181,138.64,180.39,138.65,179.81Z"/><path class="cls-12" d="M63.55,158.63a11.53,11.53,0,0,1-6.29,1.51c-9.76.23-19.53.47-29.27-.47a3.32,3.32,0,0,0-1,.18l-.14,0-.58-.6c-.13-.3-.48-.56-.18-.94,2.2.71,4.39-.22,6.59-.09h1.34C43.89,158.21,53.7,159.49,63.55,158.63Z"/><path class="cls-11" d="M32.71,158.24c-2.2-.13-4.39.8-6.59.09a6.24,6.24,0,0,1-2.53-2.73,3.67,3.67,0,0,0,2,.3c5.15,0,10.31-.21,15.44.08,4.8.27,9.6,0,14.39.52a26,26,0,0,0,8.65-.65,9.8,9.8,0,0,1-6.49,1.33,60.09,60.09,0,0,0-13.48.25c-2.87.3-5.73.23-8.59.48-.49,0-1-.13-1.42.33h-1C32.93,158.05,32.82,158.05,32.71,158.24Z"/><path class="cls-11" d="M189,132.64q-6.12,6.83-12.25,13.66c-.48.53-1,1-1.53,1.52l-1-1c5.47-6.11,10.76-12.38,16.47-18.28,0,1,1.56,2.07-.09,3-.13-.15.32-.82-.27-.46A6.2,6.2,0,0,0,189,132.64Z"/><path class="cls-10" d="M50.17,180.78l-6.93-4.71-.42-.33,0,0-.37-.32h0a.75.75,0,0,0-.63-.42l0,0-.37-.34,0,0-.37-.33h0a.71.71,0,0,0-.63-.41v0c-.12-.14-.25-.28-.37-.43a.64.64,0,0,0,0-.23c0-.21,0-.42,0-.64h.74a.64.64,0,0,0,.62.65l9.12,1A29,29,0,0,1,50.17,180.78Z"/><path class="cls-13" d="M17.21,144.65c7.31,2.5,14.78,4,22.53,3.09a156.81,156.81,0,0,1,17.18-1.39.66.66,0,0,1-.81.43c-3.86-.41-7.52.9-11.25,1.46a57.69,57.69,0,0,1-17.5-.21,68.63,68.63,0,0,1-8.18-1.57c-.37-.1-.93-.4-1,.39-.29-.36-.57-.73-.85-1.1l-.44-.67h0c0-.1,0-.2,0-.3Z"/><path class="cls-11" d="M93.27,195.6q.26-8.79.5-17.59c.48-1.62,0-3.31.39-4.95l1.45-.33c.07,1.8-.45,3.58-.19,5.38q-.36,8.77-.73,17.54l0,0C94.21,195.24,93.74,195.44,93.27,195.6Z"/><path class="cls-11" d="M117.65,178.82c-.12,5.26-.46,10.51-.34,15.78l-1.71.4,0-.05c.49-5.38.33-10.78.36-16.17.11-2,.21-4,.32-6a1.2,1.2,0,0,0,1.38,0Z"/><path class="cls-11" d="M70.46,190.85c.76.15,1.09-.07,1.12-.93.14-4.39.34-8.78.53-13.17.08-1.43.17-2.86.26-4.29,1.49.15,3-1.07,4.48,0-.89.68-2.48-.52-2.94.8a11.33,11.33,0,0,0-.08,3.5Q73.4,184,73,191.22c-.46-.5.14-1.33-.6-1.86C71.85,190,72.48,192.32,70.46,190.85Z"/><path class="cls-10" d="M14.9,128.6c-.74,1-2,1.36-2.5,2.58l0,0-.42.37c-.88.54-.74-.38-.85-.69-.62-1.76-1.17-3.56-1.74-5.34-.22-1-.45-2-.65-3-.16-.79.23-.67.68-.38l.67.71.33.35h0l.34.34h0l.34.34h0a2.37,2.37,0,0,0,1,1h0A9.39,9.39,0,0,0,14.08,127l.48.53Z"/><path class="cls-11" d="M36.41,169.72H63.92a13.74,13.74,0,0,0,4.14-.39c-.86,1.16-2.18,1-3.34,1-2.18.11-4.37.06-6.56,0a6.14,6.14,0,0,0-3.71.74,1.37,1.37,0,0,1-1.59.06c-1.35-.93-2.88-.69-4.38-.82-3.91-.32-7.82-.32-11.73-.31Z"/><path class="cls-11" d="M138.65,179.81c0,.58,0,1.16,0,1.74a14.37,14.37,0,0,0,0,3.93c0,.15,0,.3,0,.44v.91c0,.34,0,.68,0,1a1.53,1.53,0,0,0-1.37.72l-.12-9.41c.05-2,.11-4.06.16-6.09l1.31-.32Z"/><path class="cls-12" d="M12.85,134.39a18.94,18.94,0,0,1,3.75-4.14,1.58,1.58,0,0,1,2.58.06,7.76,7.76,0,0,0-2,1.45,19.92,19.92,0,0,0-3.77,5.08A3.53,3.53,0,0,1,12.85,134.39Z"/><path class="cls-11" d="M165.12,161c1-.59,1.31-.12,1.35.83.08,2.19.18,4.37.27,6.56-.84.09-.8,1.21-1.59,1.36Z"/><path class="cls-11" d="M50.17,180.78a29,29,0,0,0,.38-6.38c0-.56,0-1.11,0-1.67l0,0a2,2,0,0,0,1.53.38c0,.65,0,1.29,0,1.94-.07.49-.14,1-.2,1.45,0,.21,0,.42,0,.63-.1,1.57-.2,3.14-.29,4.7C51.1,181.55,50.94,180.72,50.17,180.78Z"/><path class="cls-13" d="M13.41,136.84a19.92,19.92,0,0,1,3.77-5.08,7.76,7.76,0,0,1,2-1.45h.35l.38.3h0V131c-.45,0-.94-.06-1.21.4-1.44,2.45-3.43,4.54-4.58,7.16A3.3,3.3,0,0,1,13.41,136.84Z"/><path class="cls-13" d="M165.12,161l0,8.75-.39.06-11.12,0,0,0,.15-7.43c.49,1.86.16,3.76.19,5.65,0,1.07.31,1.48,1.43,1.45q3.93-.09,7.88,0c1.15,0,1.59-.31,1.54-1.51-.09-1.79,0-3.58,0-5.36C164.79,162,164.58,161.39,165.12,161Z"/><path class="cls-11" d="M115.6,195c-2.32,1.11-4.88,1.1-7.34,1.25-4.06.25-8.16.07-12.24.06-.54,0-1.17.14-1.38-.62l0,0c1,.11,2,.27,3,.31a96.38,96.38,0,0,0,17.88-1Z"/><path class="cls-11" d="M40.81,172.73h-.74c-.91-.09-.38.36-.24.66-.62-.07-1-.27-.72-1,3.59-.67,7.21-.18,10.81-.3.39,0,.58.27.69.61l0,0Z"/><path class="cls-11" d="M153.64,169.74l11.12,0c-.7.53-1.66,0-2.35.6C159.48,170.26,156.51,170.75,153.64,169.74Z"/><path class="cls-14" d="M195.37,107.36c-.45-.47-.27-1.06-.27-1.6,0-3.52,0-7,0-10.55,0-.54-.16-1.12.24-1.62A117.15,117.15,0,0,1,195.37,107.36Z"/><path class="cls-4" d="M10.14,122.87l-.67-.71c0-.51-.49-.63-.69-1a.72.72,0,0,1,.67-.33H10a.26.26,0,0,1,.14.22l.36.41,0,0,.35.37,0,0c.11.13.23.25.34.37l0,0,.36.36,0,0,.36.36v0c-.07.56.33.87.64,1.23s.22.76-.35.85h0a.91.91,0,0,0-1-1h0l-.34-.34h0l-.34-.34h0Z"/><path class="cls-11" d="M8.78,121.18c.2.35.72.47.69,1-.45-.29-.84-.41-.68.38.2,1,.43,2,.65,3C8.42,124.32,8.07,122,8.78,121.18Z"/><path class="cls-10" d="M189,132.64a6.2,6.2,0,0,1,1.31-1.5c.59-.36.14.31.27.46-.4.84-.79,1.67-1.19,2.5Z"/><path class="cls-11" d="M177.81,156.18c.25-.6-.19-1.07-.32-1.59l.75.29C178.17,155.34,178.46,155.91,177.81,156.18Z"/><path class="cls-11" d="M66.06,189.22a3,3,0,0,1,1.7.69A1.85,1.85,0,0,1,66.06,189.22Z"/><path class="cls-11" d="M22.6,154.21a1.11,1.11,0,0,1,.68,1C22.6,155.19,22.59,154.7,22.6,154.21Z"/><path class="cls-11" d="M61.35,187.19a2.35,2.35,0,0,1,1.46.66A1.56,1.56,0,0,1,61.35,187.19Z"/><path class="cls-11" d="M21.61,152.81a1.27,1.27,0,0,1,.68,1C21.55,153.84,21.58,153.32,21.61,152.81Z"/><path class="cls-11" d="M73.46,191.88a1.91,1.91,0,0,1,1.33.4C74.32,192.23,73.78,192.43,73.46,191.88Z"/><path class="cls-11" d="M65.08,188.83a1.24,1.24,0,0,1,1,.4C65.69,189.23,65.27,189.33,65.08,188.83Z"/><path class="cls-9" d="M39.83,173.38c-.14-.3-.67-.75.24-.66,0,.22,0,.43,0,.64l-.14,0Z"/><path class="cls-11" d="M10,120.86H9.45v-.65A.9.9,0,0,1,10,120.86Z"/><path class="cls-11" d="M15.86,142.05a1.22,1.22,0,0,1,1.09.32C16.54,142.41,16.12,142.49,15.86,142.05Z"/><path class="cls-11" d="M179.61,153.24l.31-.39C179.85,153,180.1,153.43,179.61,153.24Z"/><path class="cls-11" d="M26.3,159.27l.58.6C26.48,159.87,26.34,159.62,26.3,159.27Z"/><path class="cls-11" d="M29.66,163.33a.67.67,0,0,1,.43.6C29.76,163.86,29.68,163.62,29.66,163.33Z"/><path class="cls-11" d="M169.39,166.27a.69.69,0,0,1,.44-.58C169.81,166,169.73,166.23,169.39,166.27Z"/><path class="cls-11" d="M35.08,169a.65.65,0,0,1,.64.38A.64.64,0,0,1,35.08,169Z"/><path class="cls-11" d="M16.9,145.08l.44.67C17,145.68,16.88,145.41,16.9,145.08Z"/><path class="cls-11" d="M40.52,174a.71.71,0,0,1,.63.41C40.85,174.41,40.57,174.36,40.52,174Z"/><path class="cls-11" d="M41.84,175a.75.75,0,0,1,.63.42C42.18,175.42,41.92,175.35,41.84,175Z"/><path class="cls-11" d="M60.68,186.85a.79.79,0,0,1,.69.35A.6.6,0,0,1,60.68,186.85Z"/><path class="cls-11" d="M63.7,188.22a.76.76,0,0,1,.7.33A.65.65,0,0,1,63.7,188.22Z"/><path class="cls-11" d="M64.38,188.53a.75.75,0,0,1,.72.32A.58.58,0,0,1,64.38,188.53Z"/><path class="cls-11" d="M136.08,189.2a.76.76,0,0,1,.72-.31A.6.6,0,0,1,136.08,189.2Z"/><path class="cls-11" d="M135.31,189.52a1,1,0,0,1,.8-.34C136,189.56,135.64,189.57,135.31,189.52Z"/><path class="cls-11" d="M134.38,189.89a.78.78,0,0,1,.74-.31A.67.67,0,0,1,134.38,189.89Z"/><path class="cls-11" d="M67.75,189.9a.92.92,0,0,1,.81.3C68.23,190.25,67.93,190.24,67.75,189.9Z"/><path class="cls-11" d="M68.75,190.25a.93.93,0,0,1,.82.29C69.25,190.58,68.94,190.58,68.75,190.25Z"/><path class="cls-11" d="M69.76,190.58a.75.75,0,0,1,.74.28A.59.59,0,0,1,69.76,190.58Z"/><path class="cls-11" d="M17.21,142.4a.82.82,0,0,1,.76.31C17.65,142.75,17.37,142.72,17.21,142.4Z"/><path class="cls-11" d="M74.82,192.29a.83.83,0,0,1,.81.27A.73.73,0,0,1,74.82,192.29Z"/><path class="cls-11" d="M8.45,119.17l.33.34Z"/><path class="cls-11" d="M8.78,119.51l.34.34Z"/><path class="cls-11" d="M9.12,119.85l.32.34Z"/><path class="cls-11" d="M190.68,128.59l.34-.41Z"/><path class="cls-4" d="M12,131.6l.42-.37Z"/><path class="cls-11" d="M18.56,142.77,19,143Z"/><path class="cls-11" d="M31.39,165.26l.33.38Z"/><path class="cls-11" d="M31.71,165.63l.34.35Z"/><path class="cls-11" d="M32.05,166c.11.11.22.23.34.34C32.27,166.21,32.16,166.09,32.05,166Z"/><path class="cls-11" d="M32.38,166.31l.34.35Z"/><path class="cls-11" d="M169.06,166.61l.36-.36A.36.36,0,0,1,169.06,166.61Z"/><path class="cls-11" d="M32.71,166.66l.35.34Z"/><path class="cls-11" d="M22.28,153.84l.31.37Z"/><path class="cls-11" d="M168.73,167l.35-.37A.37.37,0,0,1,168.73,167Z"/><path class="cls-11" d="M33.05,167l.35.35Z"/><path class="cls-11" d="M168.39,167.29l.36-.37A.37.37,0,0,1,168.39,167.29Z"/><path class="cls-11" d="M33.39,167.33l.34.34Z"/><path class="cls-11" d="M168.05,167.62l.36-.36A.36.36,0,0,1,168.05,167.62Z"/><path class="cls-11" d="M33.73,167.66l.34.35Z"/><path class="cls-11" d="M167.71,168l.37-.36A.37.37,0,0,1,167.71,168Z"/><path class="cls-11" d="M34.06,168l.35.34Z"/><path class="cls-11" d="M167.37,168.28l.37-.35A.36.36,0,0,1,167.37,168.28Z"/><path class="cls-11" d="M34.4,168.33c.12.12.24.23.35.35C34.64,168.56,34.52,168.45,34.4,168.33Z"/><path class="cls-11" d="M179.92,152.86l.31-.45Z"/><path class="cls-11" d="M167.16,168.42a.21.21,0,0,1,.21-.16C167.38,168.42,167.4,168.6,167.16,168.42Z"/><path class="cls-11" d="M34.74,168.67l.35.34Z"/><path class="cls-11" d="M177.48,156.53l.36-.38Z"/><path class="cls-11" d="M35.73,169.38l.4.3Z"/><path class="cls-11" d="M178.92,153.18l.28.21a.51.51,0,0,1-.28.15Z"/><path class="cls-11" d="M28.36,161.86l.34.42Z"/><path class="cls-11" d="M28.68,162.26l.34.36Z"/><path class="cls-11" d="M16.89,144.79c0,.1,0,.2,0,.3C16.66,145,16.64,144.9,16.89,144.79Z"/><path class="cls-11" d="M29,162.61l.33.36Z"/><path class="cls-11" d="M40.16,173.59c.12.15.25.29.37.43A.42.42,0,0,1,40.16,173.59Z"/><path class="cls-11" d="M41.14,174.4l.37.33Z"/><path class="cls-11" d="M41.49,174.71l.37.34Z"/><path class="cls-11" d="M42.47,175.44l.37.32Z"/><path class="cls-11" d="M42.82,175.74l.42.33Z"/><path class="cls-11" d="M30.06,163.91l.35.36Z"/><path class="cls-11" d="M63,187.92l.51.26Z"/><path class="cls-11" d="M171.14,164.3l.35-.37Z"/><path class="cls-11" d="M170.82,164.65l.34-.36Z"/><path class="cls-11" d="M30.71,164.6l.42.35Z"/><path class="cls-11" d="M170.5,165l.33-.35Z"/><path class="cls-11" d="M170.17,165.33l.33-.34Z"/><path class="cls-11" d="M30.39,164.25c.11.13.23.25.35.37C30.62,164.5,30.5,164.38,30.39,164.25Z"/><path class="cls-12" d="M136.13,35.9a9.26,9.26,0,0,0-8.91,4.3c-.5.72-.89.39-1.38.11A41.29,41.29,0,0,0,85,39.92c-.79.46-1,.36-1.51-.33-2.8-3.78-7-4.8-11.3-2.83.29-1.94,2.39-3.65,4.88-3.82,1.73-.11,3.74.47,5.12-.24s1.76-2.79,2.88-4c5.9-6.36,13.1-9,21.78-7.43a27.22,27.22,0,0,1,14,7,19.09,19.09,0,0,1,3.69,4.53c.66,1.2,1.24,1,2.09.63a8.48,8.48,0,0,1,5.49-.88A5,5,0,0,1,136.13,35.9Z"/><path class="cls-12" d="M69.13,39.33c-3.06,4-5.75,8.28-9,12.14-.43.51-.93,1-1.4,1.44l-29.28,0a1.86,1.86,0,0,0-1.52.58A2.18,2.18,0,0,1,25.57,52a3.22,3.22,0,0,1,.51-3.46c2.35-3.09,5.49-3.88,9-2.21,1.08.51,1.44.17,1.9-.73,1.88-3.68,5.69-5.19,9.75-4.14a13.32,13.32,0,0,1,4.7,2.1c1,.76,1.3.34,1.5-.69a8.52,8.52,0,0,1,4.77-6.47c3.11-1.52,5.84-.61,8.55,1C67.28,38,67.91,39.08,69.13,39.33Z"/><path class="cls-12" d="M152,53c-3.84-4.11-6.89-8.84-10.17-13.38a2.3,2.3,0,0,0,1.71-.5,7.34,7.34,0,0,1,12,3.67c.37,1.25.74,1.11,1.56.57a7.34,7.34,0,0,1,8.09-.33,4.2,4.2,0,0,1,2.05,2.13c.59,1.55,1.56,1.66,2.87,1.14,1.89-.75,3.54-.08,5.05,1a4.39,4.39,0,0,1,2.07,4.31c-.11,1-.45,1.56-1.49,1.59a3.75,3.75,0,0,0-2.11-.39c-6.28,0-12.56,0-18.84,0A7.94,7.94,0,0,0,152,53Z"/><path class="cls-12" d="M17.7,77.72c-1.78-.24-2.75-1.36-2-2.62,1.5-2.38,2.91-4.94,5.84-6a7.53,7.53,0,0,1,9.36,3.47,2.87,2.87,0,0,0,2.76,1.86c1.49,0,3.2.31,3.72,2.24-.67,0-1.34,0-2,0-5,0-9.93,0-14.89.08C19.55,76.85,18.34,76.49,17.7,77.72Z"/><path class="cls-12" d="M166.44,76.75c.21-.25.39-.7.63-.73,1.86-.27,3.32-1.81,5.3-1.66a1.63,1.63,0,0,0,1.7-1,6.18,6.18,0,0,1,5.68-3.25,5.4,5.4,0,0,1,5.44,3.7,3.43,3.43,0,0,0,1,1.31c.5.47,1,.92.56,1.72a1.24,1.24,0,0,1-1.81.6l-.33-.35c-.14-.36-.38-.38-.67-.17l-11.11,0a.87.87,0,0,0-1,0Z"/><path class="cls-7" d="M17.7,77.72c.64-1.23,1.85-.87,2.82-.89,5-.08,9.93-.06,14.89-.08.67,0,1.34,0,2,0,5.1,0,10.21,0,15.31,0,.77,0,2.06-.37,2.07.75s-1.34.8-2,.81c-11.06.06-22.11,0-33.17,0A2.71,2.71,0,0,1,17.7,77.72Z"/><path class="cls-10" d="M27.94,53.45a1.86,1.86,0,0,1,1.52-.58l29.28,0-1.38,1.84c-.59-.51-1.29-.27-1.94-.28-8.41,0-16.83,0-25.24-.07C29.34,54.4,28.3,54.67,27.94,53.45Z"/><path class="cls-7" d="M172.85,76.86l11.11,0,.67.17.33.35c0,.77-.61.69-1.09.71-9.37.45-18.75.11-28.12.19a.91.91,0,0,1-.33,0c-.5-.18-1.36,0-1.36-.69s.86-.77,1.43-.78c3.31,0,6.63,0,9.94,0,.34,0,.67,0,1,0l5.4.1A1.09,1.09,0,0,0,172.85,76.86Z"/><path class="cls-10" d="M152,53a7.94,7.94,0,0,1,2.83-.19c6.28,0,12.56,0,18.84,0a3.75,3.75,0,0,1,2.11.39c0,1.52-1.22,1.18-2.08,1.18-6.08.05-12.16,0-18.24.07-.65,0-1.35-.21-1.92.31Z"/><path class="cls-7" d="M44.81,104.68c-3.08,0-6.17,0-9.26,0-.58,0-1.54.21-1.56-.53s1-.7,1.61-.73c1.68-.07,3.36-.06,5-.06,4.6,0,9.2,0,13.8,0,.55,0,1.46-.24,1.43.66s-.88.68-1.47.68c-3.2,0-6.4,0-9.6,0Z"/><path class="cls-7" d="M144.18,28.91a.84.84,0,0,1-.79.91.74.74,0,0,1-.87-.77c-.05-.54.26-.81.77-.85S144.14,28.37,144.18,28.91Z"/><path class="cls-7" d="M63.3,28.42c-.11.48-.36.82-.9.76a.82.82,0,0,1-.74-.93c0-.56.35-.79.87-.73A.82.82,0,0,1,63.3,28.42Z"/><path class="cls-7" d="M40,66.31c-.45,0-.79-.25-.77-.71a.8.8,0,0,1,.89-.8c.48,0,.67.37.65.82S40.48,66.3,40,66.31Z"/><path class="cls-14" d="M68.8,138.31a33.57,33.57,0,0,0,3.55,5.06A5.18,5.18,0,0,0,76,145.16c1.46.05,2.67,1.08,4.17,1.13a9.86,9.86,0,0,0,4.28-.63,5.15,5.15,0,0,0,3-6.77,16.84,16.84,0,0,1-.33-13.21c.27-.72.52-1.45-.65-1.86s-1.52.32-1.83,1.05A17.24,17.24,0,0,0,84,137.48c.31.9.67,1.77,1.1,2.86-.75-.12-1.1-1-1.83-.55s-.63,1-.62,1.79c-.88-.44-1.19-1.64-2.31-1.18s-.17,1.31-.59,1.92c-.65-.71-1-1.83-2.22-1.7-.76.08-.58.69-.71,1.13-1.53-.23-2.19-1.36-2.71-2.63a26.2,26.2,0,0,0,6.68-9.55c2.29-5,4.37-10,8.61-13.86a16.91,16.91,0,0,0,4.29-5.93,4.88,4.88,0,0,1,1.82.16,53.29,53.29,0,0,0,21.12.89,66.16,66.16,0,0,0,12.49-3.19c.93-.33,1.51-.3,2.08.65a37.69,37.69,0,0,1,4.13,9.69c2.05,8.09,1.27,15.74-3.6,22.74-1.13-.41-1.71.51-2.59,1.13-.25-.6-.08-1.51-1.06-1.54-1.2,0-1.37,1.1-2,1.87-.3-.88.61-2-.56-2.38-.9-.32-1.22.54-1.67,1.07l-.38-.29c1.36-3.59,2.52-7.19,1.67-11.12a19.47,19.47,0,0,0-1.75-4.88c-.38-.72-.86-1.42-1.83-1s-1,1.18-.6,2.1c1.25,2.92,2.12,5.92,1.41,9.14a13.55,13.55,0,0,1-.89,2.88c-2.38,5,.94,8.69,6.26,8.64a7.18,7.18,0,0,0,2.15-.36,14.93,14.93,0,0,1,3.68-.83c1.86-.12,2.94-1.68,4-3,1.43,3.8,1.18,7.67.36,11.52-.39,1.88-.57,3.9-2.13,5.33-3-2.12-6.29-2.36-9.75-1.72-.26-.39-.67-.35-1.06-.35a11.08,11.08,0,0,0-8,3.26,7.71,7.71,0,0,1-5,2.63c-.66.06-1.32.21-2,.33a31.4,31.4,0,0,1-20.77-3.35c-1.14-.59-2.19-1.61-3.66-1.44-1.61-.43-3.07-1.3-4.78-1.42-4.43-.32-7.91,1.16-10.06,5.47-.25-.6-.42-1-.58-1.39a.82.82,0,0,0-.38-.71l0,.06-.33-.4h0c-.32-2.87-1.26-5.62-1.51-8.53A42.07,42.07,0,0,1,68.8,138.31Z"/><path class="cls-14" d="M135.17,52.8c-.26,1.51,1.15,2.22,1.61,3.38.1,1.67,1.31,2.8,2,4.16,1.59,2.95,3.19,5.89,3.72,9.27a4.47,4.47,0,0,0-.17,2.41c.19,1.79,1.23,3.62-.1,5.39-.15-.15-.36-.28-.44-.47-2.29-4.74-8.88-4.9-11.9-2.52a5.65,5.65,0,0,0-2.18,3.47c-.64,3.51,2.16,6.65,6,6.93a10,10,0,0,0,7.85-3.06,3.62,3.62,0,0,1-.42,2.37c-2.15,5.69-6.45,9.18-11.87,11.43-7.35,3.07-15.16,3.71-23,4A91.72,91.72,0,0,1,90,98.33c-8-1.12-14.88-4.42-20.15-10.63a12.84,12.84,0,0,1-3-10A39.5,39.5,0,0,1,69.44,67.3a54.84,54.84,0,0,1,6-11.14c1-.79,1.47-2.18,2.94-2.36.67,2.47,2,3.31,4.16,2.68,2.83-.26,5.33-1.6,8-2.45A15.46,15.46,0,0,1,95,52.85c-.47,1.18-1.72,1.58-2.14,2.64a1.73,1.73,0,0,0-.77,2,2.08,2.08,0,0,0,2,1.3,15.11,15.11,0,0,0,4.34-.26c9.73-2.1,18.2-6.1,23.35-15.22,1.46-.13,2.6.89,4,1.12a8.9,8.9,0,0,0,4.07,2.11c.41.11,1,.13.85-.35-.23-.78.19-2.08-1.28-2.16h0V42h0c1.27-.06,1.67-1.39,2.71-1.85,1.64-.71,3.89-.71,4.74.21a5.43,5.43,0,0,0-2.86,4C133.31,47.35,134.09,50.1,135.17,52.8ZM108.53,95.61c.1-.33.37-.36.65-.37.83-1.14,2.4-1.34,3.21-2.54.48-.72,1.38-1.35.5-2.31s-1.62-.28-2.3.33a6.74,6.74,0,0,1-4,1.86c-2.65.19-5.15,0-7.18-2-.61-.61-1.33-.89-2-.12s-.28,1.38.24,1.93a9,9,0,0,0,5.25,3,25,25,0,0,0,5.67-.12s.11.07.1.11a1.1,1.1,0,0,1-.06.26,1.33,1.33,0,0,1-.19.14s0,0-.07-.08ZM90,76.42c-.2,8.06,8.49,13.16,14.57,9.19.7-.46,1.19-.23,1.8.18a7.38,7.38,0,0,0,6,.9A9.7,9.7,0,0,0,120,79.05a10.28,10.28,0,0,0-3.43-10.79C111.68,64,106,63.09,99.86,64.76S90,71,90,76.42ZM76.06,84.83A9.11,9.11,0,0,0,80.13,84a5.34,5.34,0,0,0,1.72-8.85,8.74,8.74,0,0,0-9.5-1.37c-3.92,2.13-4.41,6.42-1.07,9.4A7.36,7.36,0,0,0,76.06,84.83ZM86.31,72.68a4.94,4.94,0,0,0,5-5,5,5,0,0,0-5-5,5.16,5.16,0,0,0-5,5.06A4.87,4.87,0,0,0,86.31,72.68Zm42.8-4.92a4.88,4.88,0,0,0-4.92-5.05,5.32,5.32,0,0,0-5.13,5,5.12,5.12,0,0,0,5,4.92A4.9,4.9,0,0,0,129.11,67.76Z"/><path class="cls-13" d="M131.75,140.72c4.87-7,5.65-14.65,3.6-22.74a37.69,37.69,0,0,0-4.13-9.69c-.57-1-1.15-1-2.08-.65a66.16,66.16,0,0,1-12.49,3.19,53.29,53.29,0,0,1-21.12-.89,4.88,4.88,0,0,0-1.82-.16c0-.13,0-.26,0-.39a10.17,10.17,0,0,0,2.44-5.34c1.32-.31,1.43-1.25,1.22-2.36l.74-.08.15,0h.17c1.16.11,2.32.29,3.49.32a104.06,104.06,0,0,0,11-.21c-.08,1.75.41,2.29,2.08,2.13a80.09,80.09,0,0,0,15.06-2.55c.63-.19,1.18-.45,1.71.38,4.78,7.5,8.18,15.47,8.05,24.56a26.06,26.06,0,0,1-4.59,14,5.68,5.68,0,0,1-3.37,2.67C131.81,142.16,131.78,141.44,131.75,140.72Z"/><path class="cls-12" d="M112.91,101.75a104.06,104.06,0,0,1-11,.21c-1.17,0-2.33-.21-3.49-.32-.1-.17-.2-.19-.32,0l-.74.08-.93-.39c-.3-.6-.87-.63-1.43-.72a73.27,73.27,0,0,1-16-4c-1.07-.43-.71.46-.83.9A20.87,20.87,0,0,1,65.13,74.55,33.72,33.72,0,0,1,72.88,57.2c.22,0,.3-.14.27-.35h0c.76-.24,1-1.09,1.65-1.45.41.08.72.27.7.75a54.84,54.84,0,0,0-6,11.14A39.5,39.5,0,0,0,66.8,77.68a12.84,12.84,0,0,0,3,10C75.11,93.91,82,97.21,90,98.33a91.72,91.72,0,0,0,16.36,1.24c7.83-.3,15.64-.94,23-4,5.42-2.25,9.72-5.74,11.87-11.43a3.62,3.62,0,0,0,.42-2.37,9.78,9.78,0,0,0,.64-4.35c1.33-1.77.29-3.6.1-5.39a4.47,4.47,0,0,1,.17-2.41c.54.61.25,1.39.44,2.09,2.2,8.2,0,15.15-6.27,20.75-4,3.57-9,5.42-14,7.1-.44.15-1.07,0-1.16.73l-.56,0c-.61-.55-1,0-1.42.3C117.4,101.22,115.06,100.92,112.91,101.75ZM77.17,95.93,77,95.85l.14.07c.12.12.19.44.43.12Z"/><path class="cls-6" d="M139.16,169.81a6.59,6.59,0,0,1-.13-5.73c1.08-2.19,2.22-4.35,3.1-6.64.16-.4.16-1.19.92-.5l.5.63h0l.3.39,0,0,.4.64h0c1,1.27,1.25.61,1.41-.49.65-4.4,1.23-8.82,3-13,.56-.14.59.45.9.67.11.27.23.55.35.82l.1.51a.69.69,0,0,0,.25.71v0a90.17,90.17,0,0,1,1.71,21.87l-.33.09Z"/><path class="cls-13" d="M85.51,158.32c1.47-.17,2.52.85,3.66,1.44a31.4,31.4,0,0,0,20.77,3.35c.66-.12,1.32-.27,2-.33a7.71,7.71,0,0,0,5-2.63,11.08,11.08,0,0,1,8-3.26c.39,0,.8,0,1.06.35-3.07,1.39-6,3-7.87,6a8.87,8.87,0,0,0-1.54,3.33c-.2,1.24-1,1.62-2,1.8a61.57,61.57,0,0,1-20.54-.1c-.53-.09-1.15-.14-1.33-.84C91.71,163.27,88.91,160.55,85.51,158.32Z"/><path class="cls-10" d="M135.17,52.8c-1.08-2.7-1.86-5.45-1.22-8.41a5.43,5.43,0,0,1,2.86-4l1.65.37a2.92,2.92,0,0,0,2.07,2h0l.33.37h0a.68.68,0,0,0,.32.7c3.82,4.88,7.36,10,11.59,14.51.35.38.9.91.52,1.47-.57.87-1.55.59-2.32.42-4.93-1.11-9.52-3-13-6.77C137.09,52.45,136.28,52.05,135.17,52.8Z"/><path class="cls-10" d="M74.31,54.16c-.66-1.54-1.28-1.76-2.54-.54a26.54,26.54,0,0,1-9.7,5.73,8,8,0,0,1-1,.22,8.19,8.19,0,0,0-1.49,0c-.54.12-1.13.47-1.46-.22s.41-.81.66-1.21C59.53,57.06,61,56.37,61,54.8h0l.35-.34h0c.45.07.65-.18.72-.57a1,1,0,0,1,.66-.74,1,1,0,0,0,1-1,52.25,52.25,0,0,0,4.18-5.2c1.72-2.24,3-4.88,5.52-6.42,2.76.87,3.45,3,3.4,5.58a15.19,15.19,0,0,1-1,5c-.54.47-.32,1.11-.32,1.68C75.5,53.64,75.24,54.18,74.31,54.16Z"/><path class="cls-9" d="M137.22,173.07c-.05,2-.11,4.06-.16,6.09l-17.45,0a3.4,3.4,0,0,1-2-.3l0-6.07.36-.12a29.11,29.11,0,0,0,5.28-.06,2.45,2.45,0,0,0,1.42,0,6.61,6.61,0,0,0,3.39-.08h2a19.13,19.13,0,0,0,6.45,0A.78.78,0,0,1,137.22,173.07Z"/><path class="cls-9" d="M116.24,172.74c-.11,2-.21,4-.32,6-6.84.11-13.67-.27-20.5-.67-.26-1.8.26-3.58.19-5.38l.08-.08,20.23-.08Z"/><path class="cls-13" d="M121.57,100.28c.09-.72.72-.58,1.16-.73,5-1.68,10-3.53,14-7.1,6.3-5.6,8.47-12.55,6.27-20.75-.19-.7.1-1.48-.44-2.09-.53-3.38-2.13-6.32-3.72-9.27-.73-1.36-1.94-2.49-2-4.16,6.66,7.72,10.48,16.42,8.77,26.82-.86,5.25-4,9.26-8.32,12.17C132.52,98.32,127.16,99.7,121.57,100.28Z"/><path class="cls-12" d="M125.71,44.48c-1.37-.23-2.51-1.25-4-1.12a2.37,2.37,0,0,0-1.44-.78c-12.9-4.13-25.43-3.84-37.39,3.16-.19-.49-1-.48-1-1.14C87,41.5,92.22,38.71,98.2,37.82c10.18-1.52,19.73-.06,28.19,6.26Z"/><path class="cls-13" d="M131.58,170c-3.81,0-7.61,0-11.41,0-1,0-1.39-.29-1.24-1.36.74-5.55,7.38-10.08,12.79-8.67a6.25,6.25,0,0,1,3,1.81c1.83,1.92.78,3.68-.29,5.44l-.33.45,0,0-.33.37-.17,0h-.17a11.73,11.73,0,0,0,.41-3.23c0-.34-.11-.69-.46-.82a.75.75,0,0,0-.85.37c-.61.77-1.19,1.56-1.78,2.34.08-.66.2-1.31.22-2,0-.5-.08-1-.65-1.23s-.82.17-1.17.46c-.58.49-.68,1.39-1.44,1.73,0-.33.06-.66.06-1,0-.69,0-1.39-1-1.39-.82,0-2.12,1.73-2.16,2.86a1.18,1.18,0,0,0,1.1,1.38,1.5,1.5,0,0,0,.89-.38,6.76,6.76,0,0,0,.77-.83c0,.22,0,.44,0,.65-.05.67-.13,1.34.72,1.63s1.21-.25,1.68-.73.32-1.09,1-1.22a1.2,1.2,0,0,1,0,.33c-.31,1.11-1.18,2.44,1.06,2.5C132,169.48,131.66,169.81,131.58,170Z"/><path class="cls-9" d="M73.83,176.76a11.33,11.33,0,0,1,.08-3.5c.46-1.32,2-.12,2.94-.8,5.22-.21,10.45.53,15.67,0a1.53,1.53,0,0,1,1.64.57c-.35,1.64.09,3.33-.39,4.95l-8.31-.43c-2.95-.16-5.89-.33-8.83-.46A9.09,9.09,0,0,1,73.83,176.76Z"/><path class="cls-13" d="M76,168.48a10.34,10.34,0,0,1-2.13-3c-.91-1.86-.64-3.11,1-4.37a7.75,7.75,0,0,1,8.13-.76,12.48,12.48,0,0,1,7,7.56c.58,1.62.38,1.93-1.27,2-3.25.05-6.5.06-9.76.05a2.86,2.86,0,0,1-2.18-.55l.13-.15c1.9.15,1.9.15,1.9-2.24.51.13.59.62.79,1,.41.79,1,.75,1.71.46s.57-.76.34-1.35a5.44,5.44,0,0,1-.15-1.47c.66.2.74.93,1.21,1.33.78.65,1.61.61,1.89-.31.39-1.31-.59-2.31-1.32-3.29A1,1,0,0,0,82,163c-1,.64-.34,1.63-.4,2.48,0,.05,0,.11,0,.17-1,0-.83-1-1.35-1.46s-.83-.81-1.43-.54-.59.86-.47,1.43.43,1,.21,1.59c-.43-.64-.85-1.29-1.31-1.91-.32-.44-.61-1.05-1.31-.74s-.62.92-.61,1.45a7.91,7.91,0,0,0,.9,2.85Z"/><path class="cls-12" d="M70.84,136.05c0-.11-.09-.23-.14-.34l-.19-.33c-3.57-7-3.26-14.11-1-21.31a48.41,48.41,0,0,1,6.1-12.23c.83-1.24,1.63-1.86,3-.93a3.26,3.26,0,0,0,.8.25c-1,.07-.71,1-1,1.5a39.32,39.32,0,0,0-8.08,17.22,32.3,32.3,0,0,0,.45,14,.55.55,0,0,0,.24.73l0,0C71,135.14,71.28,135.67,70.84,136.05Z"/><path class="cls-9" d="M78.49,102.66c.29-.53,0-1.43,1-1.5a126.25,126.25,0,0,0,16.61,2.89,10.08,10.08,0,0,1-2.43,5.34,63.65,63.65,0,0,1-14.22-6.55A2.93,2.93,0,0,0,78.49,102.66Z"/><path class="cls-9" d="M52.19,175c0-.65,0-1.29,0-1.94,0-.13.07-.26.1-.39,5.81,0,11.62,0,17.42,0a3.09,3.09,0,0,0,1.8-.23l.91,0c-.09,1.43-.18,2.86-.26,4.29Z"/><path class="cls-14" d="M81.94,44.6c0,.66.77.65,1,1.14-2,2.14-3.89,4.37-4.47,7.38-.34-.3-.2-1-.93-1,0-.64,0-1.19-.89-.72-.37.21-.73.38-.78-.29a15.19,15.19,0,0,0,1-5c0-2.57-.64-4.71-3.4-5.58.26-.67.87-.74,1.47-.89a14.75,14.75,0,0,1,4.29-.31l0,0,.4.28C81.74,40.66,81.85,42.62,81.94,44.6Z"/><path class="cls-12" d="M28.25,127a3.19,3.19,0,0,1-1.84-1.73,43,43,0,0,1,13.42-1.48,37.14,37.14,0,0,1,14.8,3.83,11.72,11.72,0,0,1,4.23,2.9l-.82.13c-2.53-1.06-4.88-2.57-7.68-2.87-1-1.26-1.9-1.1-2.83,0a8.26,8.26,0,0,1-2.65-1.29c-.25-1.38-1.09-1.1-2-.67a1.82,1.82,0,0,0-.47-.18,44.85,44.85,0,0,0-13.58.6C28.49,126.4,28.35,126.71,28.25,127Z"/><path class="cls-13" d="M135.79,159c1.56-1.43,1.74-3.45,2.13-5.33.82-3.85,1.07-7.72-.36-11.52l2.17-4c2.69,4.38,1.63,16.65-1.88,22.59Z"/><path class="cls-12" d="M68.8,138.31a42.07,42.07,0,0,0-.88,13.1c.25,2.91,1.19,5.66,1.51,8.53-3-4.8-4-10.12-3.86-15.67a37.27,37.27,0,0,1,1.57-9.78Z"/><path class="cls-13" d="M28.25,127c.1-.33.24-.64.62-.72a44.85,44.85,0,0,1,13.58-.6,1.82,1.82,0,0,1,.47.18,19.78,19.78,0,0,0-4.38,7.65c-.78-1.69-.06-3.11.71-4.58,1.17-2.23.83-2.74-1.64-2.73s-5.16-.25-7.75.91a17.07,17.07,0,0,1,3.93,7c.37,1.09.28,2-.84,2.53a12.6,12.6,0,0,0-3.59-8.06h0l-.35-.36h0l-.35-.37,0,0-.36-.42Z"/><path class="cls-11" d="M151.94,169.69a90.17,90.17,0,0,0-1.71-21.87c1.63,2.24,1.26,5,1.69,7.47s.84,4.94,1.06,7.47c.17-2.21.64-4.33,1-6.47.26-1.53.5-3.06.8-4.58,0-.21.39-.37.59-.55-.57,3.71-1.51,7.36-1.62,11.13l-.15,7.43C153.06,169.62,152.52,168.18,151.94,169.69Z"/><path class="cls-11" d="M58,130.69l.82-.13A5.33,5.33,0,0,1,61,132c-2.3.3-3.91,1.74-5.44,3.32h0l-.49.35c-.56.6-1.15,1.18-1.68,1.81s-.9,1.08-1.65.54-.48-1.27,0-1.88a19.53,19.53,0,0,1,4.13-3.83c.26-.19.51-.4.77-.61A2.66,2.66,0,0,0,58,130.69Z"/><path class="cls-12" d="M79.17,39.31a14.75,14.75,0,0,0-4.29.31c-.6.15-1.21.22-1.47.89-2.54,1.54-3.8,4.18-5.52,6.42a52.25,52.25,0,0,1-4.18,5.2l-.58,0c2.63-3.64,5.18-7.33,7.9-10.9C73,38.7,76.07,37.34,79.17,39.31Z"/><path class="cls-3" d="M78.18,97.44c.12-.44-.24-1.33.83-.9a73.27,73.27,0,0,0,16,4c.56.09,1.13.12,1.43.72A63.87,63.87,0,0,1,78.18,97.44Z"/><path class="cls-11" d="M19.93,131v-.36c.58,0,1.27.66,1.66-.31A14.85,14.85,0,0,1,26.85,137c-.23.5-.38,1.12-1.1,1.08s-.71-.64-.93-1.08C23.63,134.61,22.35,132.33,19.93,131Z"/><path class="cls-5" d="M26.85,137a14.85,14.85,0,0,0-5.26-6.66.58.58,0,0,0-.54-.39c0-.11-.07-.21-.1-.31,1-1.66,2.7-1.69,4.29-2-.51,1.21-1.9.79-2.91,1.6,2.42,1.19,3.64,3.29,4.64,5.56C27.3,135.46,27.67,136.25,26.85,137Z"/><path class="cls-13" d="M146.21,143.43l.88,0-.21.57c-.11.25-.23.49-.34.74h0a2.69,2.69,0,0,0-.67,1.69h0a11.38,11.38,0,0,0-.94,3.72c0,.22-.07.44-.1.67a.26.26,0,0,0-.05.28l0,0c-.37.28-.28.68-.27,1.06l-.06.5a.87.87,0,0,0-.25.84l-.41.88-.32,0c.13-3,.27-6,.4-8.95A2.91,2.91,0,0,1,146.21,143.43Z"/><path class="cls-11" d="M29.36,128.58A12.6,12.6,0,0,1,33,136.64c-.75.49-1.35.53-1.61-.52a25.16,25.16,0,0,0-3-6.53C29.17,129.7,29.38,129.25,29.36,128.58Z"/><path class="cls-11" d="M115.92,172.57l-20.23.08c.21-.78.85-.58,1.38-.58h17.58C115.12,172.07,115.7,171.9,115.92,172.57Z"/><path class="cls-11" d="M130.74,166.68c.59-.78,1.17-1.57,1.78-2.34a.75.75,0,0,1,.85-.37c.35.13.42.48.46.82a11.73,11.73,0,0,1-.41,3.23h0l-.25.1.24.27a1.85,1.85,0,0,1-1.86,1.61c.08-.18.37-.51.23-.51-2.24-.06-1.37-1.39-1.06-2.5a1.2,1.2,0,0,0,0-.33Z"/><path class="cls-11" d="M161.8,172.44a1.46,1.46,0,0,1-.46.18l-22.51-.07c.3-.74.94-.48,1.45-.48H160A3.18,3.18,0,0,1,161.8,172.44Z"/><path class="cls-11" d="M71.46,172.42a3.09,3.09,0,0,1-1.8.23c-5.8,0-11.61,0-17.42,0,.1-.6.55-.62,1-.62h17.3A1,1,0,0,1,71.46,172.42Z"/><path class="cls-3" d="M138.46,40.72l-1.65-.37c-.85-.92-3.1-.92-4.74-.21-1,.46-1.44,1.79-2.71,1.85,2-4,6.58-4.77,9.22-1.68Z"/><path class="cls-13" d="M55.56,135.3c1.53-1.58,3.14-3,5.44-3.32h0l.34.34.34.33L62,133l1,1c.05.41.21.71.67.74l0,0c.05.18.1.37.16.56-.79.22-1.25-.28-1.72-.76-1.42-1.42-2.62-1.36-4.18.15A2.69,2.69,0,0,1,55.56,135.3Z"/><path class="cls-11" d="M148.64,145.14c-1.78,4.13-2.36,8.55-3,13-.16,1.1-.43,1.76-1.41.49.85.07,1-.41,1-1.14-.07-3.79,1.34-7.29,2.19-10.9C147.56,146,147.73,145.16,148.64,145.14Z"/><path class="cls-12" d="M25.24,127.55c-1.59.36-3.33.39-4.29,2l-.34,0,0,0a.38.38,0,0,0-.41-.32c-.8-.51-.95-.93.1-1.37a24.45,24.45,0,0,0,2.5-1.27,2.26,2.26,0,0,1,3,.34l.06.28-.3.23Z"/><path class="cls-3" d="M70.84,136.05c.44-.38.18-.91.28-1.36.23.55.45,1.1.69,1.64.51,1.15.89,2.41,2.32,2.79.52,1.27,1.18,2.4,2.71,2.63.1.39.2.88-.13,1.09s-.7-.12-1-.36A16,16,0,0,1,70.84,136.05Z"/><path class="cls-11" d="M139.16,169.81l12.45,0a2.36,2.36,0,0,1-1.69.6h-9.54C139.9,170.37,139.33,170.51,139.16,169.81Z"/><path class="cls-13" d="M75.83,51.12c0,.67.41.5.78.29.87-.47.92.08.89.72l-2.71,3.28c-.66.36-.89,1.21-1.65,1.45-.1-1.11.94-1.73,1.17-2.7.93,0,1.19-.52,1.2-1.36C75.51,52.23,75.29,51.59,75.83,51.12Z"/><path class="cls-13" d="M61,54.8c0,1.57-1.45,2.26-2.17,3.39-.25.4-.94.63-.66,1.21s.92.34,1.46.22a8.19,8.19,0,0,1,1.49,0c-1.28.46-3,1.43-3.82.23s1-2.06,1.73-3A6.88,6.88,0,0,1,61,54.8Z"/><path class="cls-3" d="M125.71,44.48l.68-.4c.59.39,1.17.8,1.79,1.14.45.26.94.88,1.46.46.67-.56-.25-1-.29-1.6,1.47.08,1.05,1.38,1.28,2.16.15.48-.44.46-.85.35A8.9,8.9,0,0,1,125.71,44.48Z"/><path class="cls-11" d="M51.91,144.11c2.67-.57,5.39-.39,8.08-.67A14.2,14.2,0,0,1,51.91,144.11Z"/><path class="cls-11" d="M136.49,172.45a19.13,19.13,0,0,1-6.45,0A11.33,11.33,0,0,1,136.49,172.45Z"/><path class="cls-11" d="M63,142.08c0-.33,0-.65,0-1l.93-4.77.06-1,0,0c.77,1.55.08,3-.29,4.5C63.59,140.55,64.32,141.68,63,142.08Z"/><path class="cls-11" d="M160.67,150.35c-.75-1.71-1.08-3.58-2-5.22C160.54,146.4,160.86,148.28,160.67,150.35Z"/><path class="cls-11" d="M166.09,146.1c1.68-1.27,3.46-1.81,5.44-.67C169.66,145.22,167.9,145.82,166.09,146.1Z"/><path class="cls-11" d="M162.41,154.21c-.08.4-.24.86-.66.85s-.42-.6-.48-.93c-.24-1.21-.41-2.43-.6-3.65.73.52.72,1.3.74,2.08S161.48,154,162.41,154.21Z"/><path class="cls-11" d="M128.07,172.45a6.61,6.61,0,0,1-3.39.08A3,3,0,0,1,128.07,172.45Z"/><path class="cls-5" d="M138.46,40.72l.12-.41a5.08,5.08,0,0,1,1.95,2.37A2.92,2.92,0,0,1,138.46,40.72Z"/><path class="cls-11" d="M123.26,172.57a29.11,29.11,0,0,1-5.28.06A13.79,13.79,0,0,1,123.26,172.57Z"/><path class="cls-11" d="M144.94,150.16a11.38,11.38,0,0,1,.94-3.72C145.94,147.77,146,149.1,144.94,150.16Z"/><path class="cls-11" d="M170.49,147.16l-2.34,0C168.93,146.56,169.7,145.73,170.49,147.16Z"/><path class="cls-11" d="M70.82,169.81c0-.77.54-1,1-1.46C71.83,169.18,71.8,169.73,70.82,169.81Z"/><path class="cls-11" d="M171.52,145.42a2.43,2.43,0,0,1,1.7,1C172.44,146.46,171.59,146.59,171.52,145.42Z"/><path class="cls-11" d="M147.62,143.1l.64-.64a1.62,1.62,0,0,1,1.71.61Z"/><path class="cls-3" d="M129.36,42v2.08C128.51,43.39,128.74,42.69,129.36,42Z"/><path class="cls-11" d="M164.8,147.14a2.21,2.21,0,0,1,1.3-1C166.09,147,165.52,147.15,164.8,147.14Z"/><path class="cls-13" d="M63.13,52.18l.58,0a1,1,0,0,1-1,1C62.79,52.8,62.66,52.36,63.13,52.18Z"/><path class="cls-11" d="M145.88,146.44a2.69,2.69,0,0,1,.67-1.69C146.43,145.35,147,146.24,145.88,146.44Z"/><path class="cls-11" d="M156.05,148.83a4.35,4.35,0,0,1-.66,2.19C155.31,150.2,155.26,149.39,156.05,148.83Z"/><path class="cls-11" d="M14.9,128.6l-.34-1.06h0l.94,0v0C15.52,128.05,15.56,128.55,14.9,128.6Z"/><path class="cls-11" d="M156.69,147.13a3.06,3.06,0,0,1-.65,1.72C156,148.18,155.88,147.48,156.69,147.13Z"/><path class="cls-13" d="M119.59,100.62c.44-.26.81-.85,1.42-.3C120.62,100.79,120.09,100.67,119.59,100.62Z"/><path class="cls-11" d="M171.81,147.85l-1.16-.66C171.19,147.15,171.78,147,171.81,147.85Z"/><path class="cls-11" d="M69.06,168.33a1.35,1.35,0,0,1,.67-1.05C69.77,167.8,69.82,168.33,69.06,168.33Z"/><path class="cls-11" d="M163.7,148.44a1.53,1.53,0,0,1,.75-.92C164.43,148,164.4,148.5,163.7,148.44Z"/><path class="cls-11" d="M157.73,145.14a2,2,0,0,1-.66,1.14C157,145.75,156.9,145.17,157.73,145.14Z"/><path class="cls-11" d="M152.35,148.33a4,4,0,0,1,.42,1.87C152,149.71,152.39,149,152.35,148.33Z"/><path class="cls-11" d="M177.22,154.22a1.62,1.62,0,0,1-.68-1C177.25,153.22,177.24,153.72,177.22,154.22Z"/><path class="cls-11" d="M157.32,142.73a1.33,1.33,0,0,1,1.79-.07Z"/><path class="cls-13" d="M62,53.89c-.07.39-.27.64-.72.57C61.28,53.91,61.72,54,62,53.89Z"/><path class="cls-11" d="M166.21,148.54a1.53,1.53,0,0,1-.76,1C165.46,149,165.65,148.61,166.21,148.54Z"/><path class="cls-11" d="M161.79,147.32a1.56,1.56,0,0,1,.33,1.14C161.63,148.19,161.76,147.74,161.79,147.32Z"/><path class="cls-11" d="M63.64,134.75c-.46,0-.62-.33-.67-.74A.82.82,0,0,1,63.64,134.75Z"/><path class="cls-11" d="M153.34,151.23a.94.94,0,0,1,.27-.84C153.52,150.67,154,151.12,153.34,151.23Z"/><path class="cls-11" d="M154,149.16a1.31,1.31,0,0,1,.33-1.1C154.32,148.47,154.4,148.89,154,149.16Z"/><path class="cls-11" d="M152.71,150.28c.3.25.26.59.25.92C152.29,151.06,152.8,150.59,152.71,150.28Z"/><path class="cls-11" d="M61.42,145.49a1.14,1.14,0,0,1-1.09.28C60.61,145.37,61,145.45,61.42,145.49Z"/><path class="cls-11" d="M144.56,152.19c0-.38-.1-.78.27-1.06C144.9,151.52,145,151.91,144.56,152.19Z"/><path class="cls-11" d="M144.25,153.53a.87.87,0,0,1,.25-.84A.79.79,0,0,1,144.25,153.53Z"/><path class="cls-5" d="M141.17,43.73a.68.68,0,0,1-.32-.7C141.08,43.2,141.27,43.4,141.17,43.73Z"/><path class="cls-11" d="M163.16,152.89a.73.73,0,0,1-.39.67C162.75,153.26,162.8,153,163.16,152.89Z"/><path class="cls-11" d="M162.78,153.54c-.12.23-.25.45-.37.67A.64.64,0,0,1,162.78,153.54Z"/><path class="cls-11" d="M151.67,146a.83.83,0,0,1,.29.79A.71.71,0,0,1,151.67,146Z"/><path class="cls-11" d="M143.55,157.57l-.5-.63C143.42,157,143.53,157.24,143.55,157.57Z"/><path class="cls-11" d="M144.22,158.58l-.4-.64C144.14,158,144.21,158.29,144.22,158.58Z"/><path class="cls-11" d="M149.89,146.63c-.12-.27-.24-.55-.35-.82C149.93,146,149.93,146.29,149.89,146.63Z"/><path class="cls-11" d="M161.1,145.37a.77.77,0,0,1,.3.75A.68.68,0,0,1,161.1,145.37Z"/><path class="cls-12" d="M69.71,160.27a.82.82,0,0,1,.38.71A.69.69,0,0,1,69.71,160.27Z"/><path class="cls-11" d="M164.86,150.21a.74.74,0,0,1-.41.65C164.44,150.56,164.49,150.28,164.86,150.21Z"/><path class="cls-11" d="M153.66,150.16a.92.92,0,0,1,.27-.85A.77.77,0,0,1,153.66,150.16Z"/><path class="cls-11" d="M69.77,165.65a.76.76,0,0,1-.39-.65A.61.61,0,0,1,69.77,165.65Z"/><path class="cls-11" d="M63.78,135.28c-.06-.19-.11-.38-.16-.56.33.05.4.31.46.58l0,0a.8.8,0,0,0-.3-.06Z"/><path class="cls-11" d="M173.87,149.8l-.45-.58C173.78,149.26,173.85,149.51,173.87,149.8Z"/><path class="cls-13" d="M76.5,169c-.31-.06-.39-.32-.5-.55l.19-.14a.52.52,0,0,1,.31.69Z"/><path class="cls-11" d="M15.61,126.83c.3.15.28.46.34.72l-.42,0v0c0-.21,0-.43,0-.65Z"/><path class="cls-11" d="M162.76,149.51l.33-.34C163,149.31,163.24,149.75,162.76,149.51Z"/><path class="cls-11" d="M173.13,148.91a.7.7,0,0,1-.58-.44C172.83,148.49,173.08,148.57,173.13,148.91Z"/><path class="cls-11" d="M62.34,145.39l-.66.07C61.86,145.13,62.08,145.08,62.34,145.39Z"/><path class="cls-11" d="M162.1,148.44a.66.66,0,0,1,.27.7A.66.66,0,0,1,162.1,148.44Z"/><path class="cls-11" d="M155.3,145.43a.79.79,0,0,1,.36-.68A.62.62,0,0,1,155.3,145.43Z"/><path class="cls-11" d="M166.75,148.13a.7.7,0,0,1-.58.44C166.22,148.23,166.46,148.15,166.75,148.13Z"/><path class="cls-11" d="M28.35,129.55,27.9,129C28.21,129,28.31,129.27,28.35,129.55Z"/><path class="cls-11" d="M155.65,144.77l.36-.66A.64.64,0,0,1,155.65,144.77Z"/><path class="cls-11" d="M146.54,144.76c.11-.25.23-.49.34-.74A.64.64,0,0,1,146.54,144.76Z"/><path class="cls-14" d="M123.82,140.87c-.15.15-.06.6-.44.43-.07,0,0-.47.06-.72Z"/><path class="cls-11" d="M61.62,143.06a.83.83,0,0,1,.73-.33A.63.63,0,0,1,61.62,143.06Z"/><path class="cls-11" d="M159.12,142.63c.27.06.51.15.6.45C159.42,143.07,159.14,143,159.12,142.63Z"/><path class="cls-11" d="M60.6,143.39a.81.81,0,0,1,.74-.28A.65.65,0,0,1,60.6,143.39Z"/><path class="cls-11" d="M159.72,143.08a.76.76,0,0,1,.44.61C159.79,143.66,159.73,143.38,159.72,143.08Z"/><path class="cls-11" d="M154.61,147.12a1,1,0,0,1,.33-.83C155,146.62,155,146.94,154.61,147.12Z"/><path class="cls-11" d="M157,146.46a.79.79,0,0,1-.33.68A.65.65,0,0,1,157,146.46Z"/><path class="cls-11" d="M161.45,146.31a.91.91,0,0,1,.3.82A.72.72,0,0,1,161.45,146.31Z"/><path class="cls-11" d="M150.24,147.85a.69.69,0,0,1-.25-.71A.65.65,0,0,1,150.24,147.85Z"/><path class="cls-11" d="M154.35,147.8a.68.68,0,0,1,.28-.71A.67.67,0,0,1,154.35,147.8Z"/><path class="cls-11" d="M168.18,147.17a.8.8,0,0,1-.69.37C167.6,147.19,167.87,147.14,168.18,147.17Z"/><path class="cls-11" d="M164.46,150.85l-.38.64A.64.64,0,0,1,164.46,150.85Z"/><path class="cls-11" d="M177.23,150.85c.13.21.27.42.41.63C177.31,151.39,177.24,151.14,177.23,150.85Z"/><path class="cls-14" d="M82.74,141.77c0,.1.12.19.12.28s-.09.17-.14.25c0-.09-.12-.18-.12-.28S82.69,141.86,82.74,141.77Z"/><path class="cls-11" d="M175.54,151.86a.71.71,0,0,1-.43-.62C175.48,151.29,175.53,151.56,175.54,151.86Z"/><path class="cls-11" d="M163.8,151.87a.74.74,0,0,1-.38.66A.61.61,0,0,1,163.8,151.87Z"/><path class="cls-11" d="M177.93,151.82a.73.73,0,0,1,.42.63C178,152.4,177.92,152.13,177.93,151.82Z"/><path class="cls-11" d="M176.24,152.82a.72.72,0,0,1-.42-.61C176.13,152.3,176.21,152.54,176.24,152.82Z"/><path class="cls-5" d="M140.85,43l-.33-.37Z"/><path class="cls-13" d="M61.33,54.47l-.35.34C61,54.58,61.08,54.45,61.33,54.47Z"/><path class="cls-13" d="M73.15,56.85c0,.21-.05.33-.27.35C72.88,57,72.93,56.86,73.15,56.85Z"/><path class="cls-11" d="M25.87,127.24l-.06-.28.52.28-.09.08Z"/><path class="cls-11" d="M26.63,127.62l-.37,0a2.45,2.45,0,0,0,0-.27l.09-.08Z"/><path class="cls-11" d="M27,127.93l-.36-.33Z"/><path class="cls-11" d="M28.36,127.48l.36.42Z"/><path class="cls-11" d="M27.31,128.29l-.34-.36Z"/><path class="cls-11" d="M28.69,127.87l.35.37Z"/><path class="cls-11" d="M27.64,128.65l-.34-.38Z"/><path class="cls-11" d="M29,128.23l.35.36Z"/><path class="cls-11" d="M20.22,129.26a.38.38,0,0,1,.41.32Z"/><path class="cls-11" d="M20.61,129.56l.34,0c0,.1.07.2.1.31Z"/><path class="cls-11" d="M19.91,130.6l-.38-.3Z"/><path class="cls-11" d="M61.34,132.31,61,132Z"/><path class="cls-11" d="M62,133l-.33-.35Z"/><path class="cls-12" d="M79.62,39.62l-.4-.28Z"/><path class="cls-3" d="M70.51,135.38l.19.33Z"/><path class="cls-14" d="M128.84,142.14s.09,0,.11,0a.14.14,0,0,1,.05.11c-.07.16-.16.16-.22,0S128.82,142.18,128.84,142.14Z"/><path class="cls-11" d="M70.07,166.07l-.3-.41Z"/><path class="cls-11" d="M177.53,154.61l-.31-.4Z"/><path class="cls-11" d="M178.61,152.81l.32.38Z"/><path class="cls-11" d="M70.07,166.66a1.83,1.83,0,0,1,0-.33C70.33,166.46,70.32,166.56,70.07,166.66Z"/><path class="cls-11" d="M69.79,167l.3-.35Z"/><path class="cls-11" d="M163.43,152.52l-.3.4Z"/><path class="cls-11" d="M134.07,167.66l.33-.45Z"/><path class="cls-11" d="M133.76,168l.33-.37Z"/><path class="cls-13" d="M133.44,168.38l-.24-.27.25-.1Z"/><path class="cls-11" d="M68.74,168.68l.33-.35Z"/><path class="cls-11" d="M175.85,152.24l-.31-.39Z"/><path class="cls-11" d="M68.4,169l.34-.35Z"/><path class="cls-11" d="M177.61,151.45l.33.38Z"/><path class="cls-11" d="M68.05,169.34l.35-.33Z"/><path class="cls-13" d="M76.82,169.39a.33.33,0,0,1-.32-.36h0c.22-.09.34,0,.45.21Z"/><path class="cls-12" d="M69.42,159.93l.33.4C69.48,160.33,69.46,160.12,69.42,159.93Z"/><path class="cls-11" d="M175.57,148.77l.34.37Z"/><path class="cls-11" d="M173.45,149.24l-.35-.36A.34.34,0,0,1,173.45,149.24Z"/><path class="cls-11" d="M163.1,149.16l.31-.37Z"/><path class="cls-11" d="M164.07,151.5l-.29.39Z"/><path class="cls-11" d="M175.14,151.26l-.33-.38Z"/><path class="cls-11" d="M175.25,148.37c.11.14.23.28.34.43C175.48,148.65,175.36,148.51,175.25,148.37Z"/><path class="cls-11" d="M144.79,151.11a.26.26,0,0,1,.05-.28l.2.18Z"/><path class="cls-11" d="M176.55,153.22l-.3-.37Z"/><path class="cls-11" d="M176.91,150.46l.31.38Z"/><path class="cls-11" d="M163.39,148.8l.34-.37Z"/><path class="cls-11" d="M174.52,150.53l-.32-.36Z"/><path class="cls-11" d="M174.83,150.9l-.33-.38Z"/><path class="cls-11" d="M156.28,143.73c.11-.14.22-.27.32-.41Z"/><path class="cls-11" d="M176.6,150l.33.46Z"/><path class="cls-11" d="M158.08,144.79l-.37.36Z"/><path class="cls-11" d="M172.18,148.15l-.38-.32Z"/><path class="cls-11" d="M167.52,147.5l-.39.32Z"/><path class="cls-11" d="M174.2,150.17l-.31-.35Z"/><path class="cls-11" d="M143.85,158l-.3-.39Z"/><path class="cls-11" d="M160.41,144.06l.27.37Z"/><path class="cls-11" d="M165.15,149.85l-.32.39Z"/><path class="cls-11" d="M176.22,149.5l.27.32Z"/><path class="cls-11" d="M150.67,144l.29.48Z"/><path class="cls-11" d="M165.45,149.49c-.11.13-.22.25-.32.38C165.23,149.74,165.34,149.62,165.45,149.49Z"/><path class="cls-11" d="M160.13,143.67l.3.41Z"/><path class="cls-11" d="M173.2,146.42l.43.34Z"/><path class="cls-11" d="M156,144.1l.29-.4Z"/><path class="cls-11" d="M150.29,143.4l.28.36Z"/><path class="cls-11" d="M175.9,149.12l.31.37Z"/><path class="cls-11" d="M156.58,143.35l.36-.37A.35.35,0,0,1,156.58,143.35Z"/><path class="cls-11" d="M150,143.06l.34.36Z"/><path class="cls-11" d="M178.32,152.44l.31.39Z"/><path class="cls-11" d="M155,146.12l.09-.32a1.09,1.09,0,0,1,0,.25S155.05,146.1,155,146.12Z"/><path class="cls-11" d="M147.29,143.43l.3-.31Z"/><path class="cls-11" d="M156.92,143l.42-.3Z"/><path class="cls-10" d="M58,130.69a2.66,2.66,0,0,1-1.39,1c-1.09-.93-1.55.37-2.22.71s-1.08,1.1-2.08,1.16c.07-.91.81-1.22,1.24-1.73s1-1,.5-1.56-1.13.28-1.49.63c-1.91,1.83-3.91,3.62-4.72,6.29a.93.93,0,0,1-1.08.8c.46-3.64,1.15-7.2,3.56-10.16C53.16,128.12,55.51,129.63,58,130.69Z"/><path class="cls-11" d="M50.36,127.82c-2.41,3-3.1,6.52-3.56,10.16h.05l-1.33.07c-1.14-1.27-.37-2.68-.24-4a21.71,21.71,0,0,1,.6-2.6c.11-.27.22-.54.34-.8h0c.45-.93.89-1.86,1.33-2.79C48.46,126.72,49.4,126.56,50.36,127.82Z"/><path class="cls-11" d="M38.54,133.55a19.78,19.78,0,0,1,4.38-7.65c.87-.43,1.71-.71,2,.67a15.42,15.42,0,0,0-4.48,8.08h0a3.75,3.75,0,0,0-.38,2.37l0,0-.31.35a1.77,1.77,0,0,1-1.65-.35,10.54,10.54,0,0,1,.31-3Z"/><path class="cls-13" d="M40.4,134.65a15.42,15.42,0,0,1,4.48-8.08,8.26,8.26,0,0,0,2.65,1.29c-.44.93-.88,1.86-1.33,2.79-.12-.71.33-1.68-.73-2s-1.26.76-1.73,1.39C42.6,131.57,42.36,133.74,40.4,134.65Z"/><path class="cls-13" d="M38.44,134a10.54,10.54,0,0,0-.31,3C37.59,135.93,37.36,134.9,38.44,134Z"/><path class="cls-13" d="M40.06,137a3.75,3.75,0,0,1,.38-2.37C40.32,135.43,40.8,136.32,40.06,137Z"/><path class="cls-10" d="M45.52,138.06l1.33-.07C46.43,138.54,46,138.49,45.52,138.06Z"/><path class="cls-13" d="M63.73,135.29a.8.8,0,0,1,.3.06l-.06,1C63.63,136,63.69,135.67,63.73,135.29Z"/><path class="cls-5" d="M26.24,127.32a2.45,2.45,0,0,1,0,.27l-.69-.12.3-.23Z"/><path class="cls-13" d="M46.22,130.64c-.12.26-.23.53-.34.8C45.87,131.12,45.85,130.8,46.22,130.64Z"/><path class="cls-13" d="M55.11,135.65l.49-.35Z"/><path class="cls-13" d="M39.78,137.33l.31-.35Z"/><path class="cls-9" d="M52,177.09c0-.21,0-.42,0-.63C52.24,176.68,52.21,176.89,52,177.09Z"/><path class="cls-13" d="M57.7,146.26l1.89-.1a.5.5,0,0,1,0,.27C59,146.38,58.31,146.62,57.7,146.26Z"/><path class="cls-11" d="M12.14,124.92c.57-.09.78-.35.35-.85s-.71-.67-.64-1.23a16.54,16.54,0,0,1,2.78,3,.64.64,0,0,0-.13.15c-.39.23-.31.61-.3,1l-.12.11A9.39,9.39,0,0,1,12.14,124.92Z"/><path class="cls-11" d="M10.53,121.49l-.36-.41Z"/><path class="cls-11" d="M11.18,122.18c-.11-.12-.23-.24-.34-.37C11,121.94,11.07,122.06,11.18,122.18Z"/><path class="cls-11" d="M11.52,122.52l-.36-.36Z"/><path class="cls-11" d="M11.86,122.86l-.36-.36Z"/><path class="cls-11" d="M14.63,125.79l.32.35-.11.12-.34-.32A.64.64,0,0,1,14.63,125.79Z"/><path class="cls-11" d="M15,126.14l.35.33-.13.13-.33-.34Z"/><path class="cls-11" d="M15.3,126.47l.31.36-.11.1-.33-.33Z"/><path class="cls-11" d="M10.86,121.84l-.35-.37Z"/><path class="cls-9" d="M138.61,185.48a14.37,14.37,0,0,1,0-3.93A8.55,8.55,0,0,1,138.61,185.48Z"/><path class="cls-9" d="M138.6,186.83v-.91A.61.61,0,0,1,138.6,186.83Z"/><path class="cls-4" d="M32.71,158.24c.11-.19.22-.19.34,0Z"/><path class="cls-9" d="M40.81,172.73h9.76c0,.56,0,1.11,0,1.67l-9.12-1A.64.64,0,0,1,40.81,172.73Z"/><path class="cls-6" d="M95.42,178.11c6.83.4,13.66.78,20.5.67,0,5.39.13,10.79-.36,16.17a96.38,96.38,0,0,1-17.88,1c-1,0-2-.2-3-.31Q95.05,186.88,95.42,178.11Z"/><path class="cls-11" d="M11.13,123.9a.91.91,0,0,1,1,1A2.37,2.37,0,0,1,11.13,123.9Z"/><path class="cls-11" d="M14.56,127.54l-.48-.53.12-.11c.12.21.25.42.38.63Z"/><path class="cls-11" d="M10.14,122.87l.33.35Z"/><path class="cls-11" d="M10.46,123.22l.34.34Z"/><path class="cls-11" d="M10.8,123.56l.34.34Z"/><path class="cls-3" d="M172.85,76.86a1.09,1.09,0,0,1-1,0A.87.87,0,0,1,172.85,76.86Z"/><path class="cls-3" d="M184.63,77.06l-.67-.17C184.25,76.68,184.49,76.7,184.63,77.06Z"/><path class="cls-10" d="M74.13,139.12c-1.43-.38-1.81-1.64-2.32-2.79-.24-.54-.46-1.09-.69-1.64l0,0a.75.75,0,0,0-.24-.73,32.3,32.3,0,0,1-.45-14,39.32,39.32,0,0,1,8.08-17.22,2.93,2.93,0,0,1,1,.18,63.65,63.65,0,0,0,14.22,6.55c0,.13,0,.26,0,.39a16.91,16.91,0,0,1-4.29,5.93c-4.24,3.83-6.32,8.87-8.61,13.86A26.2,26.2,0,0,1,74.13,139.12Z"/><path class="cls-10" d="M78.43,53.12c.58-3,2.45-5.24,4.47-7.38,12-7,24.49-7.29,37.39-3.16a2.37,2.37,0,0,1,1.44.78c-5.14,9.12-13.61,13.12-23.34,15.22a15.11,15.11,0,0,1-4.34.26,2.08,2.08,0,0,1-2-1.3,1.73,1.73,0,0,1,.77-2,18.6,18.6,0,0,0,6.94-3.88c.32-.28.75-.59.58-1.11s-.75-.63-1.24-.69a3.8,3.8,0,0,0-1,0A32.66,32.66,0,0,0,89.71,52c-2.58,1.13-5.38,2-7.12,4.47-2.2.63-3.49-.21-4.16-2.68Z"/><path class="cls-4" d="M90,76.42c0-5.4,3.74-10,9.89-11.66s11.82-.81,16.67,3.5A10.28,10.28,0,0,1,120,79.05a9.7,9.7,0,0,1-7.65,7.64,7.38,7.38,0,0,1-6-.9c-.61-.41-1.1-.64-1.8-.18C98.46,89.58,89.77,84.48,90,76.42Zm3.71,4.2c1.37,2.66,4.09,3.92,7.44,3.43a6,6,0,0,0,2.69-1.3,2.2,2.2,0,0,1,3.27.11,5,5,0,0,0,5.17,1A7.62,7.62,0,0,0,117.06,74,7.92,7.92,0,0,0,113.17,69c-5-3.62-13.91-2.94-18.19,1.37A8.39,8.39,0,0,0,93.68,80.62Z"/><path class="cls-13" d="M142.27,77.41a9.78,9.78,0,0,1-.64,4.35,10,10,0,0,1-7.85,3.06c-3.87-.28-6.67-3.42-6-6.93a5.65,5.65,0,0,1,2.18-3.47c3-2.38,9.61-2.22,11.9,2.52C141.91,77.13,142.12,77.26,142.27,77.41Z"/><path class="cls-13" d="M76.06,84.83a7.36,7.36,0,0,1-4.78-1.68c-3.34-3-2.85-7.27,1.07-9.4a8.74,8.74,0,0,1,9.5,1.37A5.34,5.34,0,0,1,80.13,84,9.11,9.11,0,0,1,76.06,84.83Z"/><path class="cls-4" d="M86.31,72.68a4.87,4.87,0,0,1-5-4.92,5.16,5.16,0,0,1,5-5.06,5,5,0,0,1,5,5A4.94,4.94,0,0,1,86.31,72.68Z"/><path class="cls-4" d="M129.11,67.76a4.9,4.9,0,0,1-5.07,4.9,5.12,5.12,0,0,1-5-4.92,5.32,5.32,0,0,1,5.13-5A4.88,4.88,0,0,1,129.11,67.76Z"/><path class="cls-4" d="M108.51,95.23a25,25,0,0,1-5.67.12,9,9,0,0,1-5.25-3c-.52-.55-.9-1.21-.24-1.93s1.42-.49,2,.12c2,2,4.53,2.23,7.18,2a6.74,6.74,0,0,0,4-1.86c.68-.61,1.42-1.28,2.3-.33s0,1.59-.5,2.31c-.81,1.2-2.38,1.4-3.21,2.54v0c-.23-.64-.47-.3-.7,0Z"/><path class="cls-8" d="M82.59,56.48C84.33,54,87.13,53.14,89.71,52a32.66,32.66,0,0,1,8.38-2.19,3.8,3.8,0,0,1,1,0c.49.06,1.05.13,1.24.69s-.26.83-.58,1.11a18.6,18.6,0,0,1-6.94,3.88c.42-1.06,1.67-1.46,2.14-2.64A15.46,15.46,0,0,0,90.57,54C87.92,54.88,85.42,56.22,82.59,56.48Z"/><path class="cls-3" d="M78.43,53.12v.68c-1.47.18-2,1.57-2.94,2.36,0-.48-.29-.67-.7-.75l2.71-3.28C78.23,52.07,78.09,52.82,78.43,53.12Z"/><path class="cls-4" d="M108.55,95.6a1.1,1.1,0,0,0,.06-.26s-.06-.08-.1-.11l0,0c.23.28.47.19.7,0v0c-.28,0-.55,0-.65.37Z"/><path class="cls-4" d="M108.53,95.61l-.24,0s.07.09.07.08a1.33,1.33,0,0,0,.19-.14Z"/><path class="cls-3" d="M98.07,101.61c.12-.16.22-.14.32,0h-.17Z"/><path class="cls-3" d="M77.17,95.93l.44.11c-.24.32-.31,0-.43-.12Z"/><path class="cls-3" d="M77.18,95.92,77,95.85l.13.08Z"/><path class="cls-11" d="M127.7,165.67c.76-.34.86-1.24,1.44-1.73.35-.29.67-.64,1.17-.46s.66.73.65,1.23c0,.66-.14,1.31-.22,2l0,0c-.67.13-.61.84-1,1.22s-.88,1-1.68.73-.77-1-.72-1.63c0-.21,0-.43,0-.65l0,0c.41-.09.4-.39.36-.71Z"/><path class="cls-11" d="M127.38,166.32a6.76,6.76,0,0,1-.77.83,1.5,1.5,0,0,1-.89.38,1.18,1.18,0,0,1-1.1-1.38c0-1.13,1.34-2.86,2.16-2.86,1,0,1,.7,1,1.39,0,.33,0,.66-.06,1l0,0c-.34.13-.35.42-.36.71Z"/><path class="cls-11" d="M77,169.24c-.11-.17-.23-.3-.45-.21a.52.52,0,0,0-.31-.69,7.91,7.91,0,0,1-.9-2.85c0-.53,0-1.18.61-1.45s1,.3,1.31.74c.46.62.88,1.27,1.31,1.91v0c0,.2,0,.44.37.36l0,0C78.85,169.39,78.85,169.39,77,169.24Z"/><path class="cls-4" d="M81.54,165.64a5.44,5.44,0,0,0,.15,1.47c.23.59.4,1-.34,1.35s-1.3.33-1.71-.46c-.2-.38-.28-.87-.79-1l0,0c0-.23-.07-.42-.37-.36v0c.22-.57-.1-1.07-.21-1.59s-.13-1.16.47-1.43,1,.19,1.43.54.4,1.45,1.35,1.46Z"/><path class="cls-4" d="M81.56,165.67c0-.06,0-.12,0-.17.06-.85-.55-1.84.4-2.48a1,1,0,0,1,1.35.35c.73,1,1.71,2,1.32,3.29-.28.92-1.11,1-1.89.31-.47-.4-.55-1.13-1.21-1.33Z"/><path class="cls-3" d="M70.86,133.92a.75.75,0,0,1,.24.73A.55.55,0,0,1,70.86,133.92Z"/><path class="cls-4" d="M14.58,127.53c-.13-.21-.26-.42-.38-.63s-.09-.73.3-1l.34.32.33.34.33.33c0,.22,0,.44,0,.65Z"/><path class="cls-13" d="M101.12,84.05c-3.35.49-6.07-.77-7.44-3.43-.06-.49-.1-1-.2-1.48A8.23,8.23,0,0,1,100,69.07a41.48,41.48,0,0,1,4.33-.42c3-.27,5.9.46,8.86.3A7.92,7.92,0,0,1,117.06,74c-.81.59-.39,1.45-.43,2.18a5.77,5.77,0,0,1-3.92,5.29c-2.08.78-3.81-.07-5.59-.89C104.81,79.52,101.37,81.5,101.12,84.05Zm1.36-9.71A2.5,2.5,0,0,0,100,71.73a2.61,2.61,0,0,0-2.6,2.53,2.56,2.56,0,0,0,2.61,2.5A2.44,2.44,0,0,0,102.48,74.34Zm10.43,0a2.52,2.52,0,0,0-2.48-2.61A2.58,2.58,0,0,0,108,74.2a2.49,2.49,0,0,0,2.5,2.56A2.38,2.38,0,0,0,112.91,74.36Z"/><path class="cls-12" d="M113.17,69c-3,.16-5.89-.57-8.86-.3a41.48,41.48,0,0,0-4.33.42,8.23,8.23,0,0,0-6.5,10.07c.1.48.14,1,.2,1.48A8.39,8.39,0,0,1,95,70.32C99.26,66,108.19,65.33,113.17,69Z"/><path class="cls-7" d="M101.12,84.05c.25-2.55,3.69-4.53,6-3.46,1.78.82,3.51,1.67,5.59.89a5.77,5.77,0,0,0,3.92-5.29c0-.73-.38-1.59.43-2.18a7.62,7.62,0,0,1-4.81,9.82,5,5,0,0,1-5.17-1,2.2,2.2,0,0,0-3.27-.11A6,6,0,0,1,101.12,84.05Z"/><path class="cls-14" d="M109.19,95.26c-.23.19-.47.28-.7,0C108.72,95,109,94.62,109.19,95.26Z"/><path class="cls-13" d="M127.36,166.35c0-.29,0-.58.36-.71C127.76,166,127.77,166.26,127.36,166.35Z"/><path class="cls-13" d="M78.51,166.66c.3-.06.34.13.37.36C78.56,167.1,78.55,166.86,78.51,166.66Z"/><path class="cls-11" d="M102.48,74.34A2.44,2.44,0,0,1,100,76.76a2.56,2.56,0,0,1-2.61-2.5,2.61,2.61,0,0,1,2.6-2.53A2.5,2.5,0,0,1,102.48,74.34Z"/><path class="cls-11" d="M112.91,74.36a2.38,2.38,0,0,1-2.46,2.4A2.49,2.49,0,0,1,108,74.2a2.58,2.58,0,0,1,2.48-2.45A2.52,2.52,0,0,1,112.91,74.36Z"/></g><text class="cls-15" transform="translate(210.46 120.44)">Pig&amp;B<tspan class="cls-16" x="182.36" y="0">r</tspan><tspan x="207.1" y="0">ead</tspan></text></g></g></svg>