<svg xmlns="http://www.w3.org/2000/svg" viewBox="0 0 1196.74 434.69"><defs><style>.cls-1{opacity:0.9;}.cls-15,.cls-2{fill:#fff;}.cls-2{opacity:0.2;}.cls-3{fill:#a15679;}.cls-4{fill:#642f64;}.cls-5{fill:#a26b70;}.cls-6{fill:#a1493b;}.cls-7{fill:#bf5f51;}.cls-8{fill:#993837;}.cls-9{fill:#9b4154;}.cls-10{fill:#c46d5e;}.cls-11{fill:#6a264d;}.cls-12{fill:#f6f8ec;}.cls-13{fill:#9a4c76;}.cls-14{fill:#c08da1;}.cls-15{font-size:115.58px;font-family:Arial-Black, Arial;font-weight:800;opacity:0.3;}.cls-16{letter-spacing:0.02em;}</style></defs><g id="Шар_2" data-name="Шар 2"><g id="layer1"><g class="cls-1"><path class="cls-2" d="M209.89,434.69c-20.59-1.39-40.8-4.76-60.43-11.36-37.11-12.48-68.5-33.55-94.55-62.7A211,211,0,0,1,5,262.89c-6.73-31.32-6.85-62.7.77-93.81,17.15-70,58.64-120.37,124-150.78C153,7.45,177.83,1.78,203.57.38q92.16-5,160.13,57.32c35.77,32.9,58,73.59,66.72,121.46a220.68,220.68,0,0,1,3.16,45.71c0,.48.07,1,.1,1.44-1.27,18.05-3.88,35.85-9.31,53.17Q402.26,350,342.42,393.42a211.31,211.31,0,0,1-97.58,39.3C233.23,434.27,221.56,434.49,209.89,434.69Zm156.35-80.27h0l.7-.75v0l.72-.77,0,0,.74-.81,12.88-15.88.77-.84-.06.08c1.4-.57.77-1.81.92-2.79a4,4,0,0,0,1.45-2.88,1.18,1.18,0,0,0,.61-.33l.88-.32c1.06.4.52-.5.67-.83h0l.66-1q2.22-3.67,4.42-7.37c6.1-10.17,11.58-20.64,15.3-32q1.29-2.69,2.57-5.37c3.54-2.07.16-4.33.18-6.5l0,0c.25-.29.49-.58.73-.88.83-1.56,2.16-2.79,2.65-4.62,3.15-11.68,5.77-23.45,6.3-35.59a11.28,11.28,0,0,0,.4-4.51,249.33,249.33,0,0,0-.07-29.57,4.43,4.43,0,0,0-.42-3.05l-.27-2.8a125.3,125.3,0,0,0-4.07-24.63c-.19-1.07-.3-2.15-.57-3.2-11-42.41-32.92-78.18-66.67-106.13C295,17.7,234.66,3.21,168.66,19.44,98.38,36.71,51.23,81.59,25.4,149A186.24,186.24,0,0,0,14,201.67c-.66,8.61-1.59,17.32,0,26-.54,6.73.83,13.3,1.71,19.91.39,2.92.24,6,2.45,8.42l.7.74h0l.72.71h0l.69.73,0,0v1.4a1.55,1.55,0,0,0-1.45.71c-1.52,1.74-.78,6.73,1.41,9.42,1.23,3.84,2.41,7.69,3.75,11.48.23.66-.06,2.63,1.83,1.48l.9-.79-.11-.12c1,.31,1.49.74,1.22,2a30.4,30.4,0,0,0-.25,4.88A7.55,7.55,0,0,0,28.8,294a7.17,7.17,0,0,0,1.58,3.63,12.29,12.29,0,0,0,2.13,4.95,4.73,4.73,0,0,0,1.55,2.6c.57,1,1.48.79,2.36.69h.28l.26.08a1.4,1.4,0,0,0,1.63.66l1.27.14,1,.56.22-.05.22.07c3.23,2.7,7.83,2.09,11.17,4.86-3.18-1-6.53.27-9.61-1.12a7.07,7.07,0,0,0-5.88-.29l-.69.29c-.55.26-.48.47,0,.66l0,0c0,.71.14,1.29,1,1.45l1.83,2.36c2,3.93,3.7,8,7.2,10.92l.16,1.88c-.07,1.11-.14,2.21,1.46,2.23h0l.67.78h0c0,1.05,0,2.1,1.46,2.16l.68.82c1,2.69,3.22,4.27,5.42,5.87-.64.82.11,1.38.39,2,.09.75.39,1.28,1.24,1.3l.31-.06q1.44,2.16,2.87,4.32c.25.3.49.6.74.89l0,0,.73.78,0,0,.72.76.69.79c0,.61.2,1.14.91,1.29l-.06-.05.75.79,0-.05c.25.26.51.52.76.79l-.06-.05.89.76a1.94,1.94,0,0,1,.58.12,3.25,3.25,0,0,0,0,.54l.73.82,0,0c.24.25.48.51.73.76l0,0,.73.75v0l.73.75,0,0,.74.74h0l.74.73h0l.74.74v0l.74.74,0,0,.75.74,0,0,.75.73,0,0,.75.74,0,0a1.37,1.37,0,0,0,1.38.82h0l.85.64a1.59,1.59,0,0,1,.61.09l.72.69c0,1.44,1,1.91,2.23,2.3s2.77.9,2.84,2.71c-.68,1.57.22,2,1.54,2.16h.31l.3,0a1.17,1.17,0,0,1,.11.49,1,1,0,0,0,.79.93v-.08c.1.81.69.9,1.34.9l0,0,.79.72,0,0,.8.73,0,0c.18.7.72.85,1.34.88h0l.78.68,0,0,.89.71,14.9,10.12c1.64-.13,2,1.65,3.18,2.17,6.22,4.06,12.9,7.29,19.39,10.86.27.69.84.79,1.48.75l0,0a3.31,3.31,0,0,0,3.14,1.42.41.41,0,0,1,.46.15l1.1.56.2-.05.15.14a1.38,1.38,0,0,0,1.51.69l0,0a1.24,1.24,0,0,0,1.55.68l-.06,0c.41,1.06,1.32.86,2.15.85h0a3.88,3.88,0,0,0,3.63,1.47h0c.39.71,1,.74,1.74.64l.23,0,.19.13a1.53,1.53,0,0,0,1.75.63l.22,0,.19.13a1.29,1.29,0,0,0,1.58.6l-.07,0c4.34,3.18,3-1.77,4.11-3.18,1.6,1.14.31,2.91,1.29,4l1,1.43c.68,1.19,1.85.76,2.86.85l.06,0a1.55,1.55,0,0,0,1.75.58c1.75.37,3.52.69,5.26,1.13,10.73,2.69,21.52,5,32.63,5.42,1-.36,2-.78,2.94.19.45,1.63,1.79,1.33,2.95,1.33,8.77,0,17.57.39,26.31-.14,5.27-.32,10.77-.3,15.75-2.69L252,418c1.89-.33,3.79-.63,5.67-1,10.61-2.08,20.78-5.67,31-9.12a1.42,1.42,0,0,0,1.59-.67l.18-.14.23,0c.72.1,1.39.07,1.72-.73l-.06,0a1.27,1.27,0,0,0,1.53-.67l.82-.69a3.3,3.3,0,0,1,2.95-1.53A152.53,152.53,0,0,0,330,385.46c6.6-4.49,13.37-8.76,18.68-14.88l.15-4.6c1.48-1.21,3.54-.13,5-1.27l.84-.14c1.7-.31,1.62-2.72,3.42-2.92l.9.13c.53.38.47,0,.45-.35v.06a.75.75,0,0,0,.78-.76l-.05,0a.79.79,0,0,0,.79-.76l-.06.05a.79.79,0,0,0,.78-.78l0,.06a.8.8,0,0,0,.77-.78l-.05.05a.77.77,0,0,0,.76-.78l0,0a.75.75,0,0,0,.76-.77l-.06.05c.74-.08.9-.62,1-1.24l.72-.78Z"/><path class="cls-3" d="M14,227.64c-1.55-8.65-.62-17.36,0-26A186.24,186.24,0,0,1,25.4,149c25.83-67.37,73-112.25,143.26-129.52C234.66,3.21,295,17.7,347.6,61.24c33.75,27.95,55.65,63.72,66.67,106.13.27,1,.38,2.13.57,3.2-1.85,0-2.68,1.51-3.7,2.62-4.48,4.85-8.86,9.8-13.32,14.66-6.09,6.64-12.29,13.18-18.34,19.86C366.76,221.78,354.15,236,341.4,250c-9.13,10.05-18.61,19.78-27.54,30-3,3.48-7.06,6.22-8.95,10.67a7.12,7.12,0,0,1-.65-5.91A52.31,52.31,0,0,0,306.09,273c.66-20.09-6.06-38-16.46-54.76-1.62-2.6-1.78-3.5,1.32-5,16.69-8.11,26.9-21.15,28.42-40,1.12-13.79-2.43-26.69-8.68-38.93-.62-1.21-1.61-2.33-1.55-4,2.81,1.07,5.32,2.17,7.92,3,3.78,1.2,7.61,2.37,11.66,1.47,6.38-1.42,8.62-7,4.94-12.29-1.16-1.68-2.53-3.22-3.8-4.82,1.22-1.12,2.74-.67,4.12-.67,13.07-.07,26.13,0,39.19-.13,1.85,0,4.37.71,4.47-2.55,2.23-.06,3-1.19,3.19-3.42a9.48,9.48,0,0,0-4.44-9.26c-3.25-2.26-6.78-3.7-10.84-2.1-2.82,1.11-4.91.89-6.18-2.45a9.13,9.13,0,0,0-4.4-4.58c-6-3.25-11.74-3-17.37.71-1.77,1.16-2.56,1.47-3.35-1.21-3.61-12.25-17.07-15.36-25.87-7.9a4.92,4.92,0,0,1-3.66,1.08,26.38,26.38,0,0,0-12.31-8.08c-1.42-4.19-4.59-6.18-8.72-7.11s-8,.17-11.79,1.88c-1.82.83-3.06,1.22-4.49-1.36a41.23,41.23,0,0,0-7.91-9.73,58.71,58.71,0,0,0-30.09-15.08c-18.65-3.41-34.1,2.3-46.79,16-2.4,2.59-3.39,7.13-6.18,8.56-3,1.53-7.28.28-11,.54-5.35.36-9.87,4-10.48,8.19l-6.48,5.53c-2.62-.55-4-3-6.1-4.23-5.81-3.45-11.69-5.4-18.35-2.13C118.14,81,115,85.78,113.77,92c-.42,2.21-1,3.12-3.22,1.48A28.34,28.34,0,0,0,100.47,89c-8.72-2.26-16.9,1-21,8.87-1,2-1.77,2.68-4.08,1.59-7.63-3.6-14.38-1.9-19.43,4.74-1.66,2.19-2.34,4.74-1.08,7.43,1,2.13,2.53,3.49,5.08,3.18.78,2.61,3,2,4.81,2,18.08.08,36.15.07,54.23.15,1.38,0,2.91-.49,4.16.59-1.16,1.21-2.38,2.38-3.47,3.66-2.48,2.9-4.22,6.07-1.9,9.81s5.82,4.17,9.81,3.71c5.91-.68,11.26-3,17.28-5.81-.88,1.55-1.4,2.41-1.86,3.3-7.11,13.93-10.94,28.56-8.51,44.24,2.36,15.2,10.59,26.62,23.82,34.36,1.76,1,1.87,1.7.7,3.2a58.71,58.71,0,0,0-3.85,5.66c-10.71,17.73-17.1,36.56-14.59,57.64a12.54,12.54,0,0,1-.06,2.87,2.79,2.79,0,0,1-1.26,2.46c-1.18.55-1.62-.7-2.29-1.3-19.22-17.2-41.88-23.2-67.17-20.7-7,.68-13.58,2.94-20.3,4.69-.13-1.18-1-1.86-1.74-2.65-9-9.66-17.91-19.37-27-29C18.75,231.57,17.08,228.79,14,227.64Zm343.52-62.77c-.72,0-1.44.1-2.16.1-7.12,0-14.23,0-21.35,0-1.24,0-3.09-.08-3.08,1.67,0,1.5,1.86,1.11,2.92,1.49a2.15,2.15,0,0,0,.72.05c20.13-.17,40.27.56,60.4-.4,1-.05,2.3.13,2.34-1.52a2.67,2.67,0,0,0,3.89-1.3c1-1.71-.13-2.69-1.2-3.7a7.19,7.19,0,0,1-2.19-2.81c-1.91-5.55-6.44-7.85-11.68-7.94a13.28,13.28,0,0,0-12.21,7c-.89,1.56-1.85,2.35-3.66,2.21-4.24-.33-7.38,3-11.37,3.56C358.37,163.37,358,164.33,357.52,164.87Zm-277.14-.09c-1.11-4.15-4.79-4.7-8-4.82s-4.51-1.37-5.93-4c-4-7.38-12.17-10.21-20.11-7.46-6.29,2.19-9.32,7.7-12.53,12.8-1.71,2.71.37,5.12,4.21,5.62a5.73,5.73,0,0,0,4,1.29c23.74,0,47.49,0,71.24-.11,1.52,0,4.44.57,4.42-1.72s-2.81-1.62-4.45-1.63C102.31,164.71,91.35,164.76,80.38,164.78Zm15.88,60.08v0c6.87,0,13.74,0,20.61,0,1.27,0,3.13.31,3.18-1.47,0-1.94-1.91-1.42-3.08-1.42-9.89,0-19.77,0-29.66.06-3.61,0-7.23,0-10.85.14-1.31.05-3.48-.18-3.44,1.56s2.1,1.13,3.35,1.14C83,224.88,89.63,224.86,96.26,224.86ZM309.72,62.09c-.09-1.15-.8-1.6-1.91-1.52s-1.77.66-1.67,1.84A1.62,1.62,0,0,0,308,64.06,1.83,1.83,0,0,0,309.72,62.09ZM136,61.05a1.74,1.74,0,0,0-1.66-1.93c-1.12-.13-1.85.36-1.88,1.56a1.74,1.74,0,0,0,1.59,2C135.2,62.81,135.73,62.07,136,61.05Zm-50,81.4c1,0,1.61-.47,1.66-1.5s-.37-1.7-1.39-1.74a1.7,1.7,0,0,0-1.92,1.7C84.29,141.89,85,142.38,86,142.45Z"/><path class="cls-4" d="M148.49,84.49,155,79c9.29-4.22,18.25-2,24.26,6.09,1.09,1.47,1.54,1.68,3.26.7,17.34-9.88,36-12.94,55.7-10.32a87,87,0,0,1,32.12,11.16c1.06.61,1.9,1.31,3-.23,4.62-6.65,10.92-10,19.13-9.25a26.38,26.38,0,0,1,12.31,8.08c7,9.76,13.57,19.91,21.83,28.74l3.3,3.74c1.28,1.6,2.65,3.14,3.81,4.82,3.68,5.33,1.44,10.87-4.94,12.29-4.05.9-7.88-.27-11.66-1.47-2.6-.83-5.11-1.93-7.92-3-.06,1.69.93,2.81,1.55,4,6.25,12.24,9.8,25.14,8.68,38.93-1.52,18.85-11.73,31.89-28.42,40-3.1,1.5-2.94,2.4-1.32,5C300,235,306.75,252.93,306.09,273a52.31,52.31,0,0,1-1.83,11.74,7.12,7.12,0,0,0,.65,5.91,93,93,0,0,1,4.25,21.73q-.44,9.62-.86,19.22l.67.06.89-1.89a1.69,1.69,0,0,0,.54-1.8c0-.36.09-.72.13-1.08.85-.59.72-1.43.57-2.28l-.08,0,.53-.21-.42-.39.21-1.43c2.17-2.29,2.14-5.13,2-8h0c2.43-.44,1.19-2.34,1.44-3.64l0,0c.71-.31.79-.92.74-1.59l.45-1.22a1.21,1.21,0,0,0,.42,0l.65-.67,0,0,5.06-.06,0,0,.74.76,0,0,.6.76a.36.36,0,0,1,.21.41l.62,1.05a6.25,6.25,0,0,1,1.53,3.36,1.53,1.53,0,0,0,.62,1.7,5.55,5.55,0,0,1,.83,3.3c.09,1.38-.72,3,.91,4l-.13.2c.2.65-.9,1.66.54,2l.81.05c1.33-.23.39-1.2.58-1.8a.4.4,0,0,1,.12-.5,1.67,1.67,0,0,0,.58-1.83l-.07-.17.13-.14c.94-.58.77-1.49.71-2.36a.56.56,0,0,1,.14-.57,1.43,1.43,0,0,0,.58-1.52l0,.06c.78-.37.79-1.06.72-1.78a.24.24,0,0,1,.12-.36c.1-.05.27-.1.27-.15a2.61,2.61,0,0,0-.08-.55l.45-.77a1.38,1.38,0,0,0,.77-1.47l0,0a1.42,1.42,0,0,0,.78-1.42h0l.62-.87-.06.07.71-.87-.06.06a.77.77,0,0,0,.79-.79l-.05.06.9-.64,0,0,3.84-.15,0-.06c.05.83.64.95,1.3,1h0c0,.65.14,1.24,1,1.32l-.08-.06.64.89,0-.05.58.8,1,1.52a1.72,1.72,0,0,0-.11.51,1.43,1.43,0,0,0,.64,1.59.34.34,0,0,1,.13.42,1.53,1.53,0,0,0,.62,1.76.29.29,0,0,1,.09.41c-.06.9-.34,1.87.71,2.45l0,0a1.39,1.39,0,0,0,.56,1.49l.84.81c1,.52.54-.43.71-.74l0,0,.66-.79,0,0,.73-.8-.06,0c1.5.11,1.57-.92,1.6-2l.76-.81c1.54,0,2.77-.36,2.78-2.24h0c3.88-.6,7.67-1.89,11.67-1.45h0c.15,2.52,2,2.22,3.65,2.17l0,0,.91.72,1.27.19,2.2,2.09c0,.39,0,.79,0,1.18l.74.92-.05-.06.73.8,0,0,.68.79v0l.59.68a.44.44,0,0,1,.24.43l.71,1,0-.05.66.82h0c0,.63.19,1.17.89,1.35l-.07-.06.7.83,0,0c0,.66.08,1.26.91,1.36l-.07,0,.68.84-.05-.05.68.82h0c0,.26,0,.51,0,.77a4,4,0,0,1-1.45,2.88l-1.61-.63.07,0-.66-.85v0c0-1.08.06-2.16-1.47-2.17h0l-.63-.79,0-.05c-.05-.61-.22-1.13-.88-1.32l.06.06-.68-.82h0c0-.65-.12-1.23-.92-1.33l.07.05-.72-.82.05,0-.7-.83,0,0-.69-.78h0l-.66-.74,0-.05c-.06-.62-.21-1.16-1-1.23l.06,0a.73.73,0,0,0-.75-.77l.05.06c-.09-.74-.63-.91-1.25-1l-.79-.68-.8-.7,0,0c-.07-1.81-1.35-1.5-2.49-1.41a.22.22,0,0,1-.35-.06c-1.7-3.07-3.36-1.3-5,0l.05,0c-.67-.06-1.24,0-1.47.79l.06-.07-.84.69-.82.65c-.61.06-1.14.23-1.24,1l.08-.07a1.79,1.79,0,0,0-1.63,2.05h0l-.69.8,0-.05-.69.85.07-.06c-.79.15-.9.74-.88,1.4l0,0a1.38,1.38,0,0,0-.82,1.38l0,0-.63.83.06,0a1.31,1.31,0,0,0-.82,1.43h0l-.65.85.07-.06c-.77.2-.87.78-.84,1.44l0,0a1.33,1.33,0,0,0-.79,1.43h0c-2-.39-2.12-2-2.16-3.54s0-3.34-1.59-4.46V323c.39-4.45-.29-8.48-4.34-11.21l-1.23-.73-.79.77,0,0c-1.78.06-1.5,1.32-1.41,2.46a.28.28,0,0,1-.12.37,1.44,1.44,0,0,0-.71,1.47h0c-1.73.75-1.49,2.25-1.4,3.69l0-.05c-1.71,1.19-1.61,2.94-1.44,4.71l.1.15-.11.15c-.44.39-1.17.72-1.26,1.18-.65,3.26-1.17,6.56-1.73,9.84-.79,4.6-1.8,9.16-2.17,13.9-.47-5.45-1.37-10.77-2.28-16.05s-.12-11.23-3.63-16.05l0,.06a1.42,1.42,0,0,0-.55-1.52c-.07-.36-.14-.72-.22-1.09.08-.73.08-1.43-.75-1.78-.66-.46-.72-1.72-1.93-1.44-2,.07-2.33,1.8-2.62,3-1.82,7.75-4.86,15.26-4.69,23.4,0,1.58-.35,2.61-2.18,2.46h0a1.27,1.27,0,0,0-.85-1.38l.06.06-.64-.84h0c0-.7-.26-1.25-1.06-1.34-1.65-1.49-1.65.2-2,1.06-1.89,4.92-4.35,9.56-6.66,14.28a14.11,14.11,0,0,0,.28,12.3c.37,1.5,1.59,1.2,2.62,1.2,6.84,0,13.67,0,20.5,0a5,5,0,0,0,3.62-1.29l.71-.19c1.26-3.25,2.4-.16,3.59.06l.07,0c6.15,2.18,12.54,1.12,18.83,1.37l-.15,4.6-1.16-.16a6.85,6.85,0,0,0-3.8-.83c-14.14,0-28.28,0-42.42,0-1.1,0-2.48-.56-3.12,1l-.65.44-2.82.68a1.67,1.67,0,0,0-1.56-1.33,24.45,24.45,0,0,0-13.85,0h-4.23c-2.46-1.21-4.9-1.6-7.29.17a5.28,5.28,0,0,1-3.05.08,29.84,29.84,0,0,0-11.34.14l-.78.25a2.57,2.57,0,0,1-3,0l-.7-.37c-.47-1.45-1.71-1.08-2.72-1.08q-18.89,0-37.77,0c-1.13,0-2.51-.42-3,1.25l-.17.16-3.12.73c-.83-1.35-2.19-1.37-3.5-1.24-11.23,1.07-22.45-.51-33.67-.07-3.21-2.28-6.42.34-9.63,0l-1.95-.08a2.14,2.14,0,0,0-1.92-.76H114.41c-1,0-2,0-2.19,1.33l-.23.83a4.22,4.22,0,0,1-3.27-.82c-.24-.72-.64-1.32-1.49-1.29-7.74.26-15.52-.8-23.22.63-.07-1.81-1.52-2.29-2.84-2.71s-2.18-.86-2.23-2.3c8.4,0,16.8,0,25.2.66,3.22.27,6.5-.23,9.4,1.75a3,3,0,0,0,3.42-.11c2.45-1.63,5.18-1.65,8-1.61,4.7.08,9.4.19,14.09,0,2.48-.12,5.33.32,7.17-2.18l0,0,.76-.73,0,0,.74-.73h0l.72-.75h0c1.64,0,1.53-1.14,1.45-2.25a1.48,1.48,0,0,1,.12-.59l.64-.77,0,0c.54-.2.55-.43,0-.69a1.14,1.14,0,0,1,0-.58l-.65-.87v0a1.35,1.35,0,0,0-.83-1.4c-3.55-3.49-5-8.26-7.59-12.36-.81-3.6-2.91-2.33-4.94-1.32-21.15,1.84-42.23-.91-63.36-.85.84-1,2-.61,3-.7,6.14-.54,12.28-.39,18.46-1,9.5-1,19.25-1.71,28.95-.54a21.05,21.05,0,0,0,13.93-2.85,3.11,3.11,0,0,0,.48-2.69c-1.33-5.82-2.64-11.65-2.69-17.66,0-1-.16-1.92-1.41-2.12-.55-.67-1-.55-1.43.16a.91.91,0,0,1-.54,0c-.85-.07-1.74-.26-2.34.62a1.45,1.45,0,0,1-.62.07c-1.21,0-2.42,0-3.62-.06-7-.53-14.1,1.34-21.15,0-1-.18-2.6.46-2.55-1.13s1.66-1,2.64-1c2-.14,4.15.38,5.74-1.41l1.48,0c5.94,1.47,11.68.47,17.34-1.43l1.32-.11a1.42,1.42,0,0,0,1.58-.61,1.29,1.29,0,0,1,.61-.1,1.38,1.38,0,0,0,1.56-.72l1.47-1.39c2.76-.85,1.2-3.28,1.62-4.9.8-3.12,2.29-6.33.62-9.66-.11-.59-.28-1.14-1-1.26l.06.08a1.74,1.74,0,0,0-1.44-1.6l-2.06-2.19c-.23-.25-.47-.49-.71-.74l-.73-.73-.75-.71v0c-1.17-1.56-2.91-2.26-4.58-3.06-2.4-3-5.81-4.59-9.1-6.22A79.57,79.57,0,0,0,85.56,266a91.81,91.81,0,0,0-28.83,3.16,6.88,6.88,0,0,0,4,3.72l.24.95.76.91,0-.06.73.79,0,0,.74.76v0c0,1.45-.4,2.43-2.11,2.18l-.05-.09c-.09-.6-.3-1.11-1-1.25l-.56-.68-.74-.8,0,0-.72-.76h0l-.77-.72,0,0-.65-.8-1.11-.6c-1.94-2-4.08-2.05-6.43-.74a54.06,54.06,0,0,1-5.36,2.74c-2.26.93-1.94,1.84-.21,2.94l.87.68,0,0,.94.74c.52.1,1,.26,1.16.84-.83,2.09-2.31.79-3.56.68l0,0-.81-.66-.77,0c-1.81-1.85-3.46-2.07-5.54-.12-2.93,2.76-6,5.35-8,8.89a30.4,30.4,0,0,1,.25-4.88c.27-1.28-.2-1.71-1.22-2,1-2.61,3.78-3.5,5.37-5.53,1.41-.12,1.32-1.18,1.35-2.16l.91-.1c4.67-3.63,10.21-5.7,15.29-8.6,6.72-1.75,13.33-4,20.3-4.69,25.29-2.5,48,3.5,67.17,20.7.67.6,1.11,1.85,2.29,1.3a2.79,2.79,0,0,0,1.26-2.46,12.54,12.54,0,0,0,.06-2.87c-2.51-21.08,3.88-39.91,14.59-57.64a58.71,58.71,0,0,1,3.85-5.66c1.17-1.5,1.06-2.17-.7-3.2-13.23-7.74-21.46-19.16-23.82-34.36-2.43-15.68,1.4-30.31,8.51-44.24.46-.89,1-1.75,1.86-3.3-6,2.8-11.37,5.13-17.28,5.81-4,.46-7.54-.06-9.81-3.71s-.58-6.91,1.9-9.81c1.09-1.28,2.31-2.45,3.47-3.66l3-3.95c1-1,2.08-2,3-3.09C136.15,102.27,141.92,93.08,148.49,84.49ZM288,360.11l0,0,.72-1c2.29-3.79,4.55-7.57.61-11.68a13.47,13.47,0,0,0-6.37-3.9c-11.61-3-25.89,6.7-27.49,18.62-.3,2.3.46,2.95,2.67,2.93,8.17-.08,16.34,0,24.52,0,2.3,0,3.45-1.37,4-3.44l0-.81-.06,0H287l.36,0Zm-123.7,3a.7.7,0,0,0,.68.77c1.33,1.3,3.07,1.19,4.7,1.19q10.48,0,21-.11c3.54-.06,4-.73,2.71-4.21a26.83,26.83,0,0,0-15-16.25c-5.94-2.54-12-2.44-17.47,1.64-3.62,2.72-4.21,5.39-2.25,9.38a21.63,21.63,0,0,0,4.59,6.41C163.49,362.41,163.67,363,164.33,363.09ZM149.84,344.4l-.1-.13a1.53,1.53,0,0,0,.81,1.54l1.27,3c4.6-9.26,12.08-12.44,21.61-11.76,3.66.26,6.8,2.12,10.24,3.06,7.32,4.79,13.32,10.63,15.55,19.48.38,1.51,1.7,1.6,2.84,1.8a131.81,131.81,0,0,0,44.13.22c2.24-.38,3.9-1.2,4.34-3.87a19,19,0,0,1,3.3-7.15c4.13-6.26,10.31-9.82,16.92-12.81,7.44-1.36,14.54-.85,20.93,3.7l4.43,3.79c7.54-12.76,9.83-39.12,4-48.52-1.57,2.87-3.11,5.7-4.65,8.53-2.32,3-4.65,6.31-8.65,6.56a31.42,31.42,0,0,0-7.9,1.79,15.85,15.85,0,0,1-4.62.76c-11.42.1-18.56-7.73-13.45-18.56a28.43,28.43,0,0,0,1.92-6.18c1.52-6.92-.35-13.37-3-19.64-.85-2-.81-3.57,1.29-4.51s3.11.59,3.93,2.13a40.67,40.67,0,0,1,3.76,10.47c1.84,8.45-.66,16.2-3.59,23.9,0,.54-.27,1.47-.11,1.54.82.36.61-.6.94-.92,1-1.14,1.65-3,3.59-2.3,2.5.89.55,3.23,1.2,5.12,1.46-1.66,1.81-4.09,4.41-4,2.1.06,1.74,2,2.26,3.3,1.9-1.33,3.14-3.31,5.57-2.42.07,1.54.13,3.09.21,4.85,3.4-.86,5.53-3.12,7.25-5.74,6-9.15,9.69-19.17,9.85-30.16.28-19.51-7-36.63-17.29-52.75-1.13-1.78-2.32-1.21-3.68-.82-10.56,3.08-21.42,4.48-32.33,5.49-3.6.34-4.65-.83-4.47-4.59,4.61-1.78,9.63-1.14,14.33-2.42,1.09.12,2.22.37,3.07-.65l1.2-.08c12-1.24,23.52-4.21,33.62-11,9.35-6.25,16-14.87,17.89-26.15,3.68-22.33-4.54-41-18.84-57.6-1-2.49-4-4-3.46-7.25,2.38-1.63,4.12-.77,5.92,1.18,7.55,8.22,17.4,12.18,28,14.56,1.65.37,3.76,1,5-.9.8-1.21-.39-2.35-1.14-3.16-9.07-9.77-16.68-20.7-24.88-31.17.21-.71-.2-1.13-.7-1.52v0l-.72-.77,0,0a11,11,0,0,0-4.2-5.1c-5.67-6.64-15.39-4.88-19.8,3.6v0c-1.34,1.49-1.82,3,0,4.48h0c.09,1.19,2.07,2.23.62,3.42-1.11.92-2.16-.42-3.13-1-1.33-.74-2.57-1.62-3.85-2.45C253.33,81.11,232.82,78,210.94,81.24c-12.84,1.92-24,7.9-34.92,14.56-.19-4.25-.44-8.47-5-10.69l-.87-.6-.11-.06c-6.66-4.23-13.25-1.33-17.49,4.23-5.84,7.66-11.32,15.59-17,23.4-1,.39-.74,1.34-.94,2.09a2.09,2.09,0,0,0-1.39,1.58c-.69.21-1.65.06-1.56,1.24h0c-.53,0-.73.25-.74.74v0a14.43,14.43,0,0,0-4.23,4.26c-1.56,2-5.44,4-3.72,6.47s5.44.5,8.2-.49a15.93,15.93,0,0,0,2.07-.47c7.72-2.79,14.86-6.51,20.85-12.31,2.7-2.61,4.05-2.15,5.45,1.16-.49,2.08-2.71,3.42-2.5,5.81l0,0c-.48,0-.58.35-.59.74-9.27,10.77-14.49,23.3-16.64,37.28-3.26,21.29,8.08,41.34,28,49.17,12.57,5,25.74,7.13,39.13,8.29l2,.84c.44,2.37.2,4.4-2.64,5.08a275.07,275.07,0,0,1-35.7-6.22,6.7,6.7,0,0,1-1.71-.54c-3-2-4.73-.65-6.52,2A103.29,103.29,0,0,0,149.41,245c-4.94,15.46-5.61,30.84,2,45.78l.42.71.3.73a34.29,34.29,0,0,0,10.44,13.82c.66.5,1.44,1.25,2.17.77s.49-1.51.28-2.35c.28-.95-.11-2.26,1.51-2.43,2.7-.27,3.38,2.12,4.79,3.65.89-1.3-.85-3.23,1.27-4.11,2.39-1,3.07,1.57,4.94,2.52,0-1.71,0-3,1.35-3.83,1.56-1,2.31.91,3.92,1.18-.91-2.34-1.7-4.22-2.36-6.14-3.2-9.22-2.24-18.25,1.41-27.09.65-1.58,1.4-3.12,3.91-2.26s2,2.45,1.4,4a36.2,36.2,0,0,0,.72,28.38c2.53,5.83-.63,12-6.5,14.53a21,21,0,0,1-9.18,1.37c-3.24-.11-5.82-2.32-9-2.43a11.13,11.13,0,0,1-7.86-3.84c-3.12-3.23-5.17-7.18-7.63-10.87-1.12-2.57-2.24-5.14-3.57-8.22a79.1,79.1,0,0,0-3.36,21c-.24,11.93,1.87,23.34,8.28,33.67l0,0C149.2,344,149.24,344.41,149.84,344.4Zm2.28,20.37c2.12-.17,2.17-1.36,2.2-3.14C153.29,362.71,152.19,363.12,152.12,364.77Zm25.61-60.24c-.11.19-.29.37-.29.55a1.71,1.71,0,0,0,.25.6c.11-.18.29-.37.3-.55S177.83,304.74,177.73,304.53Zm99,.8c-.05.08-.15.19-.13.25.14.35.32.36.48,0,0-.06-.05-.19-.12-.25S276.84,305.34,276.76,305.33Z"/><path class="cls-5" d="M329.38,324.85l-.81-.05c0-.71.11-1.44-.54-2l.13-.2c-.24-1.35,0-2.81-.91-4a5.55,5.55,0,0,0-.83-3.3,1.78,1.78,0,0,0-.62-1.7,6.25,6.25,0,0,0-1.53-3.36l-.62-1.05a.36.36,0,0,0-.21-.41l-.6-.76,0,0-.74-.76,0,0a3.49,3.49,0,0,0-3.68-1.31c3.91-5,8.74-9.22,13-14,11.35-12.72,23-25.16,34.64-37.64,11.46-12.31,23.16-24.4,34.45-36.86,6.05-6.69,12.69-12.79,18.65-19.54a4.43,4.43,0,0,1,.42,3.05c-.84,1.06-.51,2.3-.51,3.47q0,11.34,0,22.66c0,1.16-.38,2.43.58,3.44a11.28,11.28,0,0,1-.4,4.51c-1.43-.25-2.19.78-3,1.63-2.2,2.21-4.23,4.6-6.34,6.89-11.84,12.79-23.86,25.43-35.77,38.16-3,3.24-5.81,6.72-8.85,9.95-6.32,6.72-12.75,13.35-19.13,20l-1-1.52-.58-.8,0,.05-.64-.89.07.06a1.56,1.56,0,0,0-1-1.32h0a1.49,1.49,0,0,0-1.3-1l0,.06a2.88,2.88,0,0,0-3.84.15l0,0-.9.64.05-.06c-.26.27-.53.53-.79.79l.06-.06-.71.87.06-.07-.62.87h0l-.78,1.42,0,0a1.68,1.68,0,0,0-.77,1.47l-.45.77c-.07.23-.13.47-.19.7a.24.24,0,0,0-.12.36,2,2,0,0,0-.72,1.78l0-.06a1.42,1.42,0,0,0-.59,1.52.56.56,0,0,0-.14.57,2.83,2.83,0,0,0-.71,2.36l-.13.14.07.18a2,2,0,0,0-.58,1.82.4.4,0,0,0-.12.5A2,2,0,0,0,329.38,324.85Z"/><path class="cls-5" d="M309.16,312.4a93,93,0,0,0-4.25-21.73c1.89-4.45,5.91-7.19,8.95-10.67,8.93-10.22,18.41-19.95,27.54-30,12.75-14,25.36-28.22,38.08-42.29,6-6.68,12.25-13.22,18.34-19.86,4.46-4.86,8.84-9.81,13.32-14.66,1-1.11,1.85-2.62,3.7-2.62a125.3,125.3,0,0,1,4.07,24.63c-1.55,0-2.22,1.33-3.13,2.23-7.42,7.39-14.48,15.11-21.52,22.86q-13,14.28-26.19,28.36c-14.61,15.66-29.39,31.16-43.81,47-3.6,3.94-8.12,7.24-10.19,12.47C311.71,308.71,309.9,310,309.16,312.4Z"/><path class="cls-6" d="M346.16,311.77c6.38-6.66,12.81-13.29,19.13-20,3-3.23,5.82-6.71,8.85-9.95,11.91-12.73,23.93-25.37,35.77-38.16,2.11-2.29,4.14-4.68,6.34-6.89.83-.85,1.59-1.88,3-1.63-.53,12.14-3.15,23.91-6.3,35.59-.49,1.83-1.82,3.06-2.65,4.62-.24.3-.48.59-.73.88l0,0c-12.26,12.66-23.62,26.13-35.37,39.25l-1.27-.19-.91-.72,0,0a5.19,5.19,0,0,0-3.65-2.17h0c-4.25-2.43-8.06-1.29-11.67,1.45h0a4.74,4.74,0,0,0-2.78,2.24l-.76.81a3.25,3.25,0,0,0-1.6,2l.06,0-.73.8,0,0-.66.79,0,0-.71.74-.84-.81a1.4,1.4,0,0,0-.56-1.49l0,0a3.19,3.19,0,0,0-.71-2.45.29.29,0,0,0-.09-.41,1.92,1.92,0,0,0-.62-1.76.34.34,0,0,0-.13-.42,1.58,1.58,0,0,0-.64-1.59A1.72,1.72,0,0,1,346.16,311.77Z"/><path class="cls-6" d="M345.14,323v.29c.41,2.62.76,5.24,1.28,7.83.14.72-.08,2,1,2,.9,0,1.25-1,1.42-1.84h0c.26-.48.52-1,.79-1.43l0,0a1.59,1.59,0,0,0,.84-1.44l-.07.06.65-.85h0a1.68,1.68,0,0,0,.82-1.43l-.06,0,.63-.83,0,0c.27-.46.54-.92.82-1.38l0,0a1.58,1.58,0,0,0,.88-1.4l-.07.06.69-.85,0,.05.69-.8h0a3.14,3.14,0,0,0,1.63-2.05l-.08.07a1.53,1.53,0,0,0,1.24-1l.82-.65.84-.69-.06.07a1.7,1.7,0,0,0,1.47-.79l-.05,0,5,0a.22.22,0,0,0,.35.06l2.49,1.41,0,0,.8.7.79.68a1.53,1.53,0,0,0,1.25,1l-.05-.06.75.77-.06,0,1,1.23,0,.05.66.74h0l.69.78,0,0,.7.83-.05,0,.72.82-.07-.05a1.56,1.56,0,0,0,.92,1.33h0l.68.82-.06-.06a1.56,1.56,0,0,0,.88,1.32l0,.05.63.79h0a3.54,3.54,0,0,0,1.47,2.17v0l.66.85-.07,0c.27,1.13,1.21,2.13.69,3.42l.06-.08-.77.84-12.88,15.88-.74.81,0,0-.72.77v0l-.7.75h0l-.7.72-.72.78a1.45,1.45,0,0,0-1,1.24l.06-.05-.76.77,0,0-.76.78.05-.05-.77.78,0-.06-.78.78.06-.05-.79.76.05,0-.78.76v-.06a.47.47,0,0,0-.45.35l-.9-.13q-.3-7-.58-14.09c-.08-2.05-.77-3.05-2.89-1.79-1.17.92-.71,2.21-.73,3.35-.05,3.84-.16,7.69,0,11.52.12,2.57-.84,3.3-3.31,3.24-5.64-.15-11.28-.14-16.92,0-2.4.06-3-.83-3.07-3.13-.06-4,.64-8.12-.42-12.13.24-8.1,2.26-15.94,3.49-23.9l.11-.15-.09-.16a9.44,9.44,0,0,0,1.43-4.7l0,.05a6.59,6.59,0,0,0,1.4-3.69h0a1.65,1.65,0,0,0,.71-1.47.28.28,0,0,0,.12-.37,4.33,4.33,0,0,0,1.41-2.46l0,0,.79-.77,1.23.73C342.8,315.27,343.52,319.29,345.14,323Z"/><path class="cls-7" d="M59.37,276.35l.56.68,1,1.25.05.09c2.61,4.46,5.1,9,6.36,14,.57,2.26,1.85,2.17,3.47,1.12,2.39-1.23,2.6-3.09,1.79-5.44-1.88-5.55-4.24-10.82-8.43-15,5.56-2.47,11.13-1.95,16.64-1.95,5.31,0,6,1.08,3.53,5.86-1.66,3.17-3.21,6.21-1.52,9.84l-.23,1c-2.31,1.9-1.82,4.1-.67,6.37a3.84,3.84,0,0,0,3.55.75l.68-.76-.08.08c1.6-1.49.56-3.4.81-5.1l-.08,0c4.21-2,4.73-6.61,7.17-9.86,1-1.36,1.28-3.68,3.73-3,2.27.64,1.3,2.74,1.57,4.26l0,0c-.78.35-.74,1.05-.73,1.73a43.79,43.79,0,0,0-1.27,5.59c-.3,2.87-2,5.89.5,8.62,1,.93,2,1,2.85-.15l-.11,0c1.32.16,2-.53,2.34-1.72,1.73-5.73,6-9.58,10.13-13.51.78-.75,2-2.45,3.2-1.34s-.21,2.33-1.07,3.34-2.51,1.77-2.67,3.73c2.15-.14,3.06-1.79,4.46-2.5s2.43-3.53,4.77-1.53c-.55.44-1.08.9-1.65,1.32a40.82,40.82,0,0,0-8.87,8.23c-1,1.29-1.7,2.78.06,4,1.61,1.15,2.57,0,3.55-1.15,1.14-1.36,2.41-2.61,3.62-3.91l1-.74h-.08a5.75,5.75,0,0,0,5-1.35c3.35-3.23,5.92-3.37,9-.31,1,1,2,2.09,3.7,1.61l-.1,0c-.1.8-.21,1.61.51,2.22q-1,5.13-2,10.26c-10.38-2.33-21-2.5-31.53-2.78-18.54-.48-37.1-.2-55.64-1a31.69,31.69,0,0,0-15.73,3.2,12.29,12.29,0,0,1-2.13-4.95c2.47-5.64,6.75-10.13,9.83-15.38.58-1,1.64-.86,2.61-.86,5.18,2.92,7.93,7.82,10.5,12.87.47.93.63,2.23,2,2.31,1.56.09,1.87-1.24,2.36-2.33,1.77-1.51,1-3.21.26-4.82-2.14-4.87-4.76-9.39-10-11.94,2.18-1.74,5.16-.84,6.25-3.44l.72-.18,1.48.27.79.05,0,0,.77.72h0l.72.76,0,0C58.88,275.81,59.12,276.08,59.37,276.35Z"/><path class="cls-6" d="M200.36,420.18c-11.11-.39-21.9-2.73-32.63-5.42-1.74-.44-3.51-.76-5.26-1.13a1.83,1.83,0,0,0-1.75-.58l-.06,0a4.1,4.1,0,0,0-2.86-.85c-.35-.47-.69-.95-1-1.43q.92-15.53,1.82-31.05a19.72,19.72,0,0,0,6,.77c6.33.27,12.65.65,19,1l17.85.93Q200.9,401.28,200.36,420.18Z"/><path class="cls-6" d="M290.66,407.11l-.23,0-.18.14a1.72,1.72,0,0,0-1.59.67c-10.22,3.45-20.39,7-31,9.12-1.88.37-3.78.67-5.67,1-.26-11.31.47-22.6.74-33.9,1.3.83,2.77.65,4.2.66l37.49.08.25,20.2-.82.69a1.61,1.61,0,0,0-1.53.67l.06,0A2.08,2.08,0,0,0,290.66,407.11Z"/><path class="cls-6" d="M135.39,403.67a.42.42,0,0,0-.47-.15,5,5,0,0,0-3.13-1.42l0,0a1.71,1.71,0,0,0-1.48-.75c-6.49-3.57-13.17-6.8-19.39-10.86l.63-10.11c.56-.42.63-.87.08-1.35.15-1,.29-2.07.44-3.11l42.78,3.74c-.39,9.43-.83,18.86-1.14,28.29-.06,1.83-.77,2.31-2.39,2l.07,0a1.58,1.58,0,0,0-1.58-.6l-.19-.13-.22,0a2,2,0,0,0-1.75-.63l-.19-.13-.24,0a1.92,1.92,0,0,0-1.73-.64h0a6.22,6.22,0,0,0-3.63-1.47h0a2.64,2.64,0,0,0-2.15-.85l.06,0a1.62,1.62,0,0,0-1.55-.68l0,0a1.67,1.67,0,0,0-1.51-.69l-.15-.14-.2,0Z"/><path class="cls-8" d="M32.51,302.53a31.69,31.69,0,0,1,15.73-3.2c18.54.79,37.1.51,55.64,1,10.52.28,21.15.45,31.53,2.78,0,.7,0,1.4,0,2.1l-1.47,1.39a1.79,1.79,0,0,0-1.56.72,1.29,1.29,0,0,0-.61.1,1.73,1.73,0,0,0-1.58.61l-1.32.11c-5.77.6-11.62.2-17.34,1.43l-1.48,0c-6.28-.28-12.43,1-18.59,1.81a119.31,119.31,0,0,1-28,.49c-7.56-.79-14.72-3.31-22.15-4.63l-.22-.07-.22.05-1-.56-1.27-.14a1.79,1.79,0,0,0-1.63-.66l-.26-.08h-.29a2.7,2.7,0,0,0-2.35-.69A4.73,4.73,0,0,1,32.51,302.53Z"/><path class="cls-7" d="M136.51,340.75c2-1,4.13-2.28,4.94,1.32-1.7,1.54-.07,2.84.42,4.1,1.3,3.35,1.88,6.66.72,10.18-.51,1.57-1.24,2.81-3,2.29-2.47-.73-5-.56-7.51-.86-10-1.18-20-2.7-30-3.22-11.51-.61-23.07-1.21-34.6-.11a1.94,1.94,0,0,0-.58-.12l-.89-.76.06.05c-.25-.27-.51-.53-.76-.79l0,.05-.75-.79.06.05a1.45,1.45,0,0,0-.91-1.29l-.7-.79-.71-.76,0,0-.73-.78,0,0c-.25-.29-.49-.59-.74-.89q-1.42-2.16-2.87-4.32a7.44,7.44,0,0,1,2.08-.38c20.93,2,41.91,1.5,62.87,1C127.65,343.89,132.39,343.45,136.51,340.75Z"/><path class="cls-8" d="M131.94,312.52a.91.91,0,0,0,.54,0l1.43-.16c1.25.2,1.4,1.09,1.41,2.12.05,6,1.36,11.84,2.69,17.66a3.11,3.11,0,0,1-.48,2.69,55.9,55.9,0,0,1-18.57,1.4c-10.28-1.09-20.61-.53-30.91-1.11-11-.63-22.11-.17-33.16-.18-1.45,0-2.89.12-4.21-.65l-.68-.82a2.38,2.38,0,0,0-1.46-2.16h0l-.67-.78h0a2.8,2.8,0,0,0-1.46-2.23c0-.63-.1-1.25-.16-1.88,1-1.36,2.41-.82,3.67-.89,9.71-.52,19.4-.56,29.14-.23,12.85.43,25.68,1.25,38.52,1.89,4.48.22,9.21-.43,13.55,1.34,3,1.24,3.22-.47,2.73-2.49a26,26,0,0,0-5.83-11.44,1,1,0,0,0,0-.58l1-.76a1.45,1.45,0,0,0,.62-.07A2.48,2.48,0,0,0,131.94,312.52Z"/><path class="cls-7" d="M128.05,314.55A26,26,0,0,1,133.88,326c.49,2,.29,3.73-2.73,2.49-4.34-1.77-9.07-1.12-13.55-1.34-12.84-.64-25.67-1.46-38.52-1.89-9.74-.33-19.43-.29-29.14.23-1.26.07-2.71-.47-3.67.89-3.5-2.91-5.23-7-7.2-10.92.13-1.7,1.33-1.05,2.12-.83A149.49,149.49,0,0,0,58.78,318a124,124,0,0,0,37.58.45c8-1.2,15.87-4,24.17-3.13.74.07,1.46,0,1.73-.92l1.69-.2C125.26,314.94,126.68,314.43,128.05,314.55Z"/><path class="cls-8" d="M67.44,354.45c11.53-1.1,23.09-.5,34.6.11,10,.52,20,2,30,3.22,2.5.3,5,.13,7.51.86,1.77.52,2.5-.72,3-2.29,1.16-3.52.58-6.83-.72-10.18-.49-1.26-2.12-2.56-.42-4.1,2.57,4.1,4,8.87,7.59,12.36a1.6,1.6,0,0,0,.83,1.4v0l.65.87a1.14,1.14,0,0,0,0,.58,2.68,2.68,0,0,0,0,.69l0,0-.64.77a1.48,1.48,0,0,0-.12.59,2.91,2.91,0,0,0-1.45,2.25h0l-.72.75h0l-.74.73,0,0-.76.73,0,0a29.66,29.66,0,0,1-8.9.85H78.22a1.59,1.59,0,0,0-.61-.09l-.85-.64h0a1.44,1.44,0,0,0-1.38-.82l0,0-.75-.74,0,0-.75-.73,0,0-.75-.74,0,0c-.25-.25-.49-.5-.74-.74v0l-.74-.74h0l-.74-.73h0l-.74-.74,0,0-.73-.75v0l-.73-.75,0,0c-.25-.25-.49-.51-.73-.76l0,0c-.25-.27-.49-.55-.73-.82A3.25,3.25,0,0,1,67.44,354.45Z"/><path class="cls-6" d="M49.56,265.39c-5.08,2.9-10.62,5-15.29,8.6-.13-.57-.1-1.22-.74-1.54l-.67-.78-.75-.7-.69-.77a34.77,34.77,0,0,0-6-6.33l0,0-.77-.76,0,0-.76-.76,0,0-.74-.79,0,.05-.76-.8.05.06-.78-.88a.54.54,0,0,0-.29-.48,2,2,0,0,0-1.25-1.42l0,0-.69-.73h0l-.72-.71h0l-.7-.74c-2.21-2.4-2.06-5.5-2.45-8.42-.88-6.61-2.25-13.18-1.71-19.91,3.08,1.14,4.75,3.92,6.85,6.14,9.06,9.58,18,19.29,27,29C48.56,263.53,49.43,264.21,49.56,265.39Z"/><path class="cls-9" d="M297.57,371.08l.65-.43q24.18.09,48.35.16a3.14,3.14,0,0,0,1-.39l1.16.16C343.41,376.7,336.64,381,330,385.46c-.41-.21-.83-.61-1.23-.6q-14.88.31-29.74.73c-.42,0-.83.42-1.24.65Q297.7,378.67,297.57,371.08Z"/><path class="cls-6" d="M376.45,318.71c0-.39,0-.79,0-1.18,1.1-1.09,2.26-2.12,3.29-3.27q13.17-14.65,26.3-29.35c.28,1,.55,2.1.83,3.16-3.72,11.31-9.2,21.78-15.3,31.95q-2.21,3.69-4.42,7.37l-.66,1h0l-.67.83-.88.32-.59-.44h0l-.68-.82.05.05-.68-.84.06,0a1.58,1.58,0,0,0-.9-1.37l0,0-.7-.83.07.06c-.3-.45-.6-.9-.89-1.35h0l-.66-.82,0,.05c-.24-.33-.48-.66-.71-1a.44.44,0,0,0-.24-.43l-.59-.68v0l-.68-.79,0,0-.73-.8.05.06Z"/><path class="cls-10" d="M314.07,308.1c2.07-5.23,6.59-8.53,10.19-12.47,14.42-15.82,29.2-31.32,43.81-47q13.15-14.11,26.19-28.36c7-7.75,14.1-15.47,21.52-22.86.91-.9,1.58-2.21,3.13-2.23l.27,2.8c-6,6.75-12.6,12.85-18.65,19.54-11.29,12.46-23,24.55-34.45,36.86-11.62,12.48-23.29,24.92-34.64,37.64-4.23,4.76-9.06,8.94-13,14l-1.38,1.37,0,0c-.21.23-.43.45-.65.67a1.21,1.21,0,0,1-.42,0Z"/><path class="cls-11" d="M124,314.18l-1.69.2c-12.37.08-24.62,1.55-36.9,3-16.65,1.94-32.69-1.27-48.39-6.64a7.07,7.07,0,0,1,5.88.29c3.08,1.39,6.43.13,9.61,1.12-3.34-2.77-7.94-2.16-11.17-4.86,7.43,1.32,14.59,3.84,22.15,4.63a119.31,119.31,0,0,0,28-.49c6.16-.8,12.31-2.09,18.59-1.81-1.59,1.79-3.73,1.27-5.74,1.41-1,.06-2.6-.51-2.64,1s1.58,1,2.55,1.13c7.05,1.33,14.1-.54,21.15,0,1.2.08,2.41,0,3.62.06l-1,.76Z"/><path class="cls-6" d="M297.83,386.24c.41-.23.82-.64,1.24-.65q14.87-.42,29.74-.73c.4,0,.82.39,1.23.6a152.53,152.53,0,0,1-32.42,18.07c0-.74.07-1.47.11-2.21a1.3,1.3,0,0,0,0-1.94l0-.95a18.69,18.69,0,0,0,.05-8.45Z"/><path class="cls-12" d="M136.51,340.75c-4.12,2.7-8.86,3.14-13.52,3.25-21,.49-41.94,1-62.87-1a7.44,7.44,0,0,0-2.08.38l-.31.05-1.24-1.29c-.28-.64-1-1.2-.39-2,4.74,1.53,9.43-.48,14.15-.2h2.9C94.28,339.84,115.36,342.59,136.51,340.75Z"/><path class="cls-11" d="M70.25,339.91c-4.72-.28-9.41,1.73-14.15.2-2.2-1.6-4.41-3.18-5.42-5.87,1.32.77,2.76.65,4.21.65,11,0,22.14-.45,33.16.18,10.3.58,20.63,0,30.91,1.11a55.9,55.9,0,0,0,18.57-1.4,21.05,21.05,0,0,1-13.93,2.85c-9.7-1.17-19.45-.44-28.95.54-6.18.64-12.32.49-18.46,1-1,.09-2.2-.28-3,.7H71C70.74,339.5,70.5,339.5,70.25,339.91Z"/><path class="cls-11" d="M406,284.91q-13.15,14.68-26.3,29.35c-1,1.15-2.19,2.18-3.29,3.27l-2.2-2.09c11.75-13.12,23.11-26.59,35.37-39.25,0,2.17,3.36,4.43-.18,6.5-.27-.32.69-1.76-.58-1S407,283.81,406,284.91Z"/><path class="cls-10" d="M107.78,388.34l-14.9-10.12-.89-.71,0,0-.78-.68h0a1.57,1.57,0,0,0-1.34-.88l0,0-.8-.73,0,0-.79-.72,0,0a1.49,1.49,0,0,0-1.34-.9v.08l-.79-.93a1.17,1.17,0,0,0-.11-.49c0-.46,0-.92-.08-1.38l1.58,0a1.38,1.38,0,0,0,1.34,1.4q9.8,1.08,19.58,2.19A62.33,62.33,0,0,1,107.78,388.34Z"/><path class="cls-13" d="M37,310.72c15.7,5.37,31.74,8.58,48.39,6.64,12.28-1.43,24.53-2.9,36.9-3-.27.88-1,1-1.73.92-8.3-.87-16.14,1.93-24.17,3.13A124,124,0,0,1,58.78,318a149.49,149.49,0,0,1-17.59-3.36c-.79-.22-2-.87-2.12.83l-1.83-2.36-1-1.45,0,0c0-.22,0-.44,0-.66Z"/><path class="cls-11" d="M200.36,420.18q.52-18.9,1.06-37.8c1-3.48.08-7.12.84-10.62l3.11-.73c.17,3.87-1,7.69-.4,11.57q-.78,18.84-1.58,37.67l-.09.1C202.38,419.4,201.37,419.82,200.36,420.18Z"/><path class="cls-11" d="M252.73,384.12c-.27,11.3-1,22.59-.74,33.9l-3.68.85-.07-.1c1-11.56.69-23.16.77-34.74l.69-13a2.57,2.57,0,0,0,3,0Q252.7,377.59,252.73,384.12Z"/><path class="cls-11" d="M151.36,410c1.62.33,2.33-.15,2.39-2,.31-9.43.75-18.86,1.14-28.29.19-3.08.37-6.15.56-9.23,3.21.34,6.42-2.28,9.63,0-1.92,1.47-5.33-1.1-6.31,1.73-.78,2.26-.18,5-.19,7.52q-.9,15.53-1.82,31.05c-1-1.07.31-2.84-1.29-4C154.34,408.18,155.7,413.13,151.36,410Z"/><path class="cls-10" d="M32,276.25c-1.59,2-4.36,2.92-5.37,5.53l.11.12-.9.79c-1.89,1.15-1.6-.82-1.83-1.48-1.34-3.79-2.52-7.64-3.75-11.48-.47-2.16-1-4.33-1.4-6.5-.33-1.69.5-1.43,1.48-.82L21.78,264l.7.74h0l.73.74h0l.74.73h0a4.9,4.9,0,0,0,2.15,2.19h0a20.21,20.21,0,0,0,4.17,4.49c.35.38.69.77,1,1.16C31.53,274.73,31.77,275.49,32,276.25Z"/><path class="cls-11" d="M78.22,364.58H137.3a29.66,29.66,0,0,0,8.9-.85c-1.84,2.5-4.69,2.06-7.17,2.18-4.69.24-9.39.13-14.09,0-2.8,0-5.53,0-8,1.61a3,3,0,0,1-3.42.11c-2.9-2-6.18-1.48-9.4-1.75-8.4-.69-16.8-.7-25.2-.66Z"/><path class="cls-11" d="M297.83,386.24l0,3.74a30.28,30.28,0,0,0-.05,8.45c0,.31,0,.63,0,.95v1.94c0,.74-.08,1.47-.11,2.21a3.3,3.3,0,0,0-2.95,1.53q-.12-10.1-.25-20.2l.33-13.1,2.82-.68Q297.69,378.66,297.83,386.24Z"/><path class="cls-12" d="M27.61,288.68c2.05-3.54,5.11-6.13,8-8.89,2.08-2,3.73-1.73,5.54.12A17.13,17.13,0,0,0,36.9,283c-3.42,3.11-5.83,6.95-8.1,10.91A7.55,7.55,0,0,1,27.61,288.68Z"/><path class="cls-11" d="M354.7,345.77c2.12-1.26,2.81-.26,2.89,1.79q.27,7.05.58,14.09c-1.8.2-1.72,2.61-3.42,2.92Z"/><path class="cls-11" d="M107.78,388.34a62.33,62.33,0,0,0,.8-13.71c0-1.2,0-2.39,0-3.59l.1-.1a4.22,4.22,0,0,0,3.27.82l.12,4.18c-.15,1-.29,2.08-.44,3.11,0,.45,0,.9-.08,1.35L111,390.51C109.76,390,109.42,388.21,107.78,388.34Z"/><path class="cls-13" d="M28.8,294c2.27-4,4.68-7.8,8.1-10.91a17.13,17.13,0,0,1,4.29-3.13l.77,0,.81.66,0,0v.77c-1,0-2-.13-2.61.86-3.08,5.25-7.36,9.74-9.83,15.38A7.17,7.17,0,0,1,28.8,294Z"/><path class="cls-13" d="M354.7,345.77l.05,18.8-.84.14-23.87-.1-.07,0q.16-8,.31-16c1.06,4,.36,8.09.42,12.13,0,2.3.67,3.19,3.07,3.13,5.64-.13,11.28-.14,16.92,0,2.47.06,3.43-.67,3.31-3.24-.19-3.83-.08-7.68,0-11.52C354,348,353.53,346.69,354.7,345.77Z"/><path class="cls-11" d="M248.31,418.87c-5,2.39-10.48,2.37-15.75,2.69-8.74.53-17.54.15-26.31.14-1.16,0-2.5.3-2.95-1.33l.09-.1c2.15.23,4.28.58,6.43.67a207.49,207.49,0,0,0,38.42-2.17Z"/><path class="cls-11" d="M87.66,371l-1.58,0c-2-.2-.83.77-.53,1.42-1.32-.14-2.22-.59-1.54-2.16,7.7-1.43,15.48-.37,23.22-.63.85,0,1.25.57,1.49,1.29l-.1.1Z"/><path class="cls-11" d="M330,364.61l23.87.1c-1.5,1.14-3.56.06-5,1.27C342.58,365.73,336.19,366.79,330,364.61Z"/><path class="cls-14" d="M419.67,230.62c-1-1-.58-2.28-.58-3.44q0-11.33,0-22.66c0-1.17-.33-2.41.51-3.47A249.33,249.33,0,0,1,419.67,230.62Z"/><path class="cls-4" d="M21.78,264l-1.43-1.54c0-1.09-1.06-1.35-1.49-2.1a1.55,1.55,0,0,1,1.45-.71l1.24,0a.54.54,0,0,1,.29.48l.78.88-.05-.06.76.8,0-.05.74.79,0,0,.76.76,0,0,.77.76,0,0c-.15,1.2.71,1.87,1.38,2.65.93,1.08.47,1.62-.76,1.81h0a1.94,1.94,0,0,0-2.15-2.19h0l-.74-.73h0l-.73-.74h0Z"/><path class="cls-11" d="M18.86,260.31c.43.75,1.54,1,1.49,2.1-1-.61-1.81-.87-1.48.82.44,2.17.93,4.34,1.4,6.5C18.08,267,17.34,262.05,18.86,260.31Z"/><path class="cls-10" d="M406,284.91c.92-1.1,1.65-2.51,2.82-3.22s.31.68.58,1q-1.28,2.69-2.57,5.37C406.58,287,406.31,286,406,284.91Z"/><path class="cls-11" d="M382,335.49c.52-1.29-.42-2.29-.69-3.42l1.61.63C382.73,333.68,383.36,334.92,382,335.49Z"/><path class="cls-11" d="M141.91,406.47a6.22,6.22,0,0,1,3.63,1.47A3.88,3.88,0,0,1,141.91,406.47Z"/><path class="cls-11" d="M48.54,331.26A2.38,2.38,0,0,1,50,333.42C48.54,333.36,48.53,332.31,48.54,331.26Z"/><path class="cls-11" d="M131.79,402.1a5,5,0,0,1,3.13,1.42A3.31,3.31,0,0,1,131.79,402.1Z"/><path class="cls-11" d="M46.43,328.25a2.8,2.8,0,0,1,1.46,2.23C46.29,330.46,46.36,329.36,46.43,328.25Z"/><path class="cls-11" d="M157.8,412.18a4.1,4.1,0,0,1,2.86.85C159.65,412.94,158.48,413.37,157.8,412.18Z"/><path class="cls-11" d="M139.79,405.63a2.64,2.64,0,0,1,2.15.85C141.11,406.49,140.2,406.69,139.79,405.63Z"/><path class="cls-9" d="M85.55,372.44c-.3-.65-1.43-1.62.53-1.42,0,.46,0,.92.08,1.38l-.3,0Z"/><path class="cls-11" d="M21.55,259.62l-1.24,0c0-.46,0-.93,0-1.4A2,2,0,0,1,21.55,259.62Z"/><path class="cls-11" d="M34.06,305.13a2.7,2.7,0,0,1,2.35.69C35.54,305.92,34.63,306.09,34.06,305.13Z"/><path class="cls-11" d="M385.82,329.17l.67-.83C386.34,328.67,386.88,329.57,385.82,329.17Z"/><path class="cls-11" d="M56.49,342.13l1.24,1.29C56.88,343.41,56.58,342.88,56.49,342.13Z"/><path class="cls-11" d="M63.72,350.85a1.45,1.45,0,0,1,.91,1.29C63.92,352,63.76,351.46,63.72,350.85Z"/><path class="cls-11" d="M363.86,357.16a1.45,1.45,0,0,1,1-1.24C364.76,356.54,364.6,357.08,363.86,357.16Z"/><path class="cls-11" d="M75.35,363a1.44,1.44,0,0,1,1.38.82A1.37,1.37,0,0,1,75.35,363Z"/><path class="cls-11" d="M36.29,311.64l1,1.45C36.43,312.93,36.27,312.35,36.29,311.64Z"/><path class="cls-11" d="M87.05,373.74a1.49,1.49,0,0,1,1.34.9C87.74,374.64,87.15,374.55,87.05,373.74Z"/><path class="cls-11" d="M89.88,376a1.57,1.57,0,0,1,1.34.88C90.6,376.82,90.06,376.67,89.88,376Z"/><path class="cls-11" d="M130.35,401.37a1.71,1.71,0,0,1,1.48.75C131.19,402.16,130.62,402.06,130.35,401.37Z"/><path class="cls-11" d="M136.84,404.32a1.67,1.67,0,0,1,1.51.69A1.38,1.38,0,0,1,136.84,404.32Z"/><path class="cls-11" d="M138.3,405a1.62,1.62,0,0,1,1.55.68A1.24,1.24,0,0,1,138.3,405Z"/><path class="cls-11" d="M292.32,406.42a1.61,1.61,0,0,1,1.53-.67A1.27,1.27,0,0,1,292.32,406.42Z"/><path class="cls-11" d="M290.66,407.11a2.08,2.08,0,0,1,1.72-.73C292.05,407.18,291.38,407.21,290.66,407.11Z"/><path class="cls-11" d="M288.66,407.9a1.72,1.72,0,0,1,1.59-.67A1.42,1.42,0,0,1,288.66,407.9Z"/><path class="cls-11" d="M145.53,407.93a1.92,1.92,0,0,1,1.73.64A1.47,1.47,0,0,1,145.53,407.93Z"/><path class="cls-11" d="M147.69,408.67a2,2,0,0,1,1.75.63A1.53,1.53,0,0,1,147.69,408.67Z"/><path class="cls-11" d="M149.85,409.39a1.58,1.58,0,0,1,1.58.6A1.29,1.29,0,0,1,149.85,409.39Z"/><path class="cls-11" d="M37,305.89a1.79,1.79,0,0,1,1.63.66A1.4,1.4,0,0,1,37,305.89Z"/><path class="cls-11" d="M160.72,413.05a1.83,1.83,0,0,1,1.75.58A1.55,1.55,0,0,1,160.72,413.05Z"/><path class="cls-11" d="M18.16,256l.7.74Z"/><path class="cls-11" d="M18.87,256.73l.72.71Z"/><path class="cls-11" d="M19.59,257.45l.69.73Z"/><path class="cls-11" d="M409.59,276.22c.25-.29.49-.58.73-.88C410.08,275.64,409.84,275.93,409.59,276.22Z"/><path class="cls-4" d="M25.85,282.69l.9-.79Z"/><path class="cls-11" d="M39.86,306.69l1,.56Z"/><path class="cls-11" d="M67.42,355c.24.27.48.55.73.82C67.9,355.54,67.66,355.26,67.42,355Z"/><path class="cls-11" d="M68.13,355.79c.24.25.48.51.73.76C68.61,356.3,68.37,356,68.13,355.79Z"/><path class="cls-11" d="M68.84,356.53l.73.75Z"/><path class="cls-11" d="M69.56,357.26l.73.75Z"/><path class="cls-11" d="M363.16,357.88l.76-.77A.75.75,0,0,1,363.16,357.88Z"/><path class="cls-11" d="M70.27,358l.74.74Z"/><path class="cls-11" d="M47.86,330.47l.67.78Z"/><path class="cls-11" d="M362.44,358.62l.76-.78A.77.77,0,0,1,362.44,358.62Z"/><path class="cls-11" d="M71,358.72l.74.73Z"/><path class="cls-11" d="M361.72,359.35l.77-.78A.8.8,0,0,1,361.72,359.35Z"/><path class="cls-11" d="M71.72,359.44l.74.74Z"/><path class="cls-11" d="M361,360.07l.78-.78A.79.79,0,0,1,361,360.07Z"/><path class="cls-11" d="M72.45,360.16c.25.24.49.49.74.74C72.94,360.65,72.7,360.4,72.45,360.16Z"/><path class="cls-11" d="M360.26,360.78l.79-.76A.79.79,0,0,1,360.26,360.78Z"/><path class="cls-11" d="M73.17,360.88l.75.74Z"/><path class="cls-11" d="M359.53,361.49l.78-.76A.75.75,0,0,1,359.53,361.49Z"/><path class="cls-11" d="M73.9,361.6l.75.73Z"/><path class="cls-11" d="M386.48,328.35l.66-1Z"/><path class="cls-11" d="M359.07,361.78a.47.47,0,0,1,.45-.35C359.54,361.78,359.6,362.16,359.07,361.78Z"/><path class="cls-11" d="M74.63,362.31l.75.74Z"/><path class="cls-11" d="M381.25,336.25l.77-.84Z"/><path class="cls-11" d="M76.76,363.85l.85.64Z"/><path class="cls-11" d="M384.35,329.05l.59.44a1.18,1.18,0,0,1-.61.33C384.34,329.56,384.34,329.31,384.35,329.05Z"/><path class="cls-11" d="M60.91,347.69c.25.3.49.6.74.89C61.4,348.29,61.16,348,60.91,347.69Z"/><path class="cls-11" d="M61.61,348.54l.73.78Z"/><path class="cls-11" d="M36.28,311c0,.22,0,.44,0,.66C35.8,311.48,35.73,311.27,36.28,311Z"/><path class="cls-11" d="M62.31,349.3l.71.76Z"/><path class="cls-11" d="M86.27,372.89l.79.93A1,1,0,0,1,86.27,372.89Z"/><path class="cls-11" d="M88.37,374.62l.79.72Z"/><path class="cls-11" d="M89.12,375.29l.8.73Z"/><path class="cls-11" d="M91.23,376.86l.78.68Z"/><path class="cls-11" d="M92,377.51l.89.71Z"/><path class="cls-11" d="M64.57,352.09l.75.79Z"/><path class="cls-11" d="M135.39,403.67l1.1.55Z"/><path class="cls-11" d="M367.63,352.94l.74-.81Z"/><path class="cls-11" d="M366.94,353.68l.72-.77Z"/><path class="cls-11" d="M66,353.57l.89.76Z"/><path class="cls-11" d="M366.25,354.41l.7-.75Z"/><path class="cls-11" d="M365.54,355.14l.7-.72Z"/><path class="cls-11" d="M65.27,352.83c.25.26.51.52.76.79C65.78,353.35,65.52,353.09,65.27,352.83Z"/><path class="cls-12" d="M292.41,77.11c-8.21-.72-14.51,2.6-19.13,9.25-1.07,1.54-1.91.84-3,.23a87,87,0,0,0-32.12-11.16c-19.7-2.62-38.36.44-55.7,10.32-1.72,1-2.17.77-3.26-.7-6-8.13-15-10.31-24.26-6.09.61-4.16,5.13-7.83,10.48-8.19,3.71-.26,8,1,11-.54,2.79-1.43,3.78-6,6.18-8.56,12.69-13.66,28.14-19.37,46.79-16A58.71,58.71,0,0,1,259.5,60.79a41.23,41.23,0,0,1,7.91,9.73c1.43,2.58,2.67,2.19,4.49,1.36,3.76-1.71,7.57-2.83,11.79-1.88S291,72.92,292.41,77.11Z"/><path class="cls-12" d="M148.49,84.49c-6.57,8.59-12.34,17.78-19.31,26.07-.92,1.1-2,2.07-3,3.09l-62.9-.07A4,4,0,0,0,60,114.82c-2.55.31-4.08-1-5.08-3.18-1.26-2.69-.58-5.24,1.08-7.43,5.05-6.64,11.8-8.34,19.43-4.74,2.31,1.09,3.08.36,4.08-1.59,4-7.9,12.23-11.13,21-8.87a28.34,28.34,0,0,1,10.08,4.49c2.21,1.64,2.8.73,3.22-1.48C115,85.78,118.14,81,124,78.13c6.66-3.27,12.54-1.32,18.35,2.13C144.53,81.52,145.87,83.94,148.49,84.49Z"/><path class="cls-12" d="M326.55,113.93c-8.26-8.83-14.79-19-21.83-28.74a4.92,4.92,0,0,0,3.66-1.08c8.8-7.46,22.26-4.35,25.87,7.9.79,2.68,1.58,2.37,3.35,1.21,5.63-3.68,11.38-4,17.37-.71a9.13,9.13,0,0,1,4.4,4.58c1.27,3.34,3.36,3.56,6.18,2.45,4.06-1.6,7.59-.16,10.84,2.1a9.48,9.48,0,0,1,4.44,9.26c-.23,2.23-1,3.36-3.19,3.42-1.41-.89-3-.83-4.55-.83-13.48,0-27,0-40.45,0C330.61,113.53,328.54,113.2,326.55,113.93Z"/><path class="cls-12" d="M38,166.94c-3.84-.5-5.92-2.91-4.21-5.62,3.21-5.1,6.24-10.61,12.53-12.8,7.94-2.75,16.07.08,20.11,7.46,1.42,2.61,2.75,3.86,5.93,4s6.88.67,8,4.82c-1.44,0-2.87.08-4.31.09-10.66,0-21.33,0-32,.17C42,165.07,39.4,164.31,38,166.94Z"/><path class="cls-12" d="M357.52,164.88c.45-.55.85-1.51,1.37-1.59,4-.58,7.13-3.89,11.37-3.56,1.81.14,2.77-.65,3.66-2.21a13.28,13.28,0,0,1,12.21-7c5.24.09,9.77,2.39,11.68,7.94a7.19,7.19,0,0,0,2.19,2.81c1.07,1,2.16,2,1.2,3.7a2.67,2.67,0,0,1-3.89,1.3l-.7-.75c-.31-.79-.82-.82-1.46-.38l-23.85-.06a1.9,1.9,0,0,0-2.17,0Z"/><path class="cls-7" d="M38,166.94c1.37-2.63,4-1.87,6-1.9,10.66-.17,21.33-.13,32-.17,1.44,0,2.87-.06,4.31-.09,11,0,21.93-.07,32.9,0,1.64,0,4.42-.79,4.45,1.63s-2.9,1.72-4.42,1.72c-23.75.14-47.5.12-71.24.11A5.73,5.73,0,0,1,38,166.94Z"/><path class="cls-10" d="M60,114.82a4,4,0,0,1,3.27-1.24l62.9.07-3,3.95c-1.25-1.08-2.78-.58-4.16-.59-18.08-.08-36.15-.07-54.23-.15C63,116.85,60.79,117.43,60,114.82Z"/><path class="cls-7" d="M371.3,165.1l23.85.06,1.46.38.7.75c0,1.65-1.3,1.47-2.34,1.52-20.13,1-40.27.23-60.4.4a2.15,2.15,0,0,1-.72-.05c-1.06-.38-2.91,0-2.92-1.49,0-1.75,1.84-1.66,3.08-1.67,7.12-.06,14.23,0,21.35,0,.72,0,1.44-.06,2.16-.1l11.61.22A2.34,2.34,0,0,0,371.3,165.1Z"/><path class="cls-10" d="M326.55,113.93c2-.73,4.06-.4,6.09-.4,13.48,0,27,0,40.45,0,1.57,0,3.14-.06,4.55.83-.1,3.26-2.62,2.53-4.47,2.55-13.06.08-26.12.06-39.19.13-1.38,0-2.9-.45-4.12.67Q328.2,115.81,326.55,113.93Z"/><path class="cls-7" d="M96.26,224.86c-6.63,0-13.26,0-19.89,0-1.25,0-3.31.46-3.35-1.14s2.13-1.51,3.44-1.56c3.62-.15,7.24-.13,10.85-.14,9.89,0,19.77-.09,29.66-.06,1.17,0,3.13-.52,3.08,1.42,0,1.78-1.91,1.46-3.18,1.47-6.87,0-13.74,0-20.61,0Z"/><path class="cls-7" d="M309.72,62.09a1.83,1.83,0,0,1-1.7,2,1.62,1.62,0,0,1-1.88-1.65c-.1-1.18.56-1.75,1.67-1.84S309.63,60.94,309.72,62.09Z"/><path class="cls-7" d="M136,61.05c-.25,1-.78,1.76-1.95,1.62a1.74,1.74,0,0,1-1.59-2c0-1.2.76-1.69,1.88-1.56A1.74,1.74,0,0,1,136,61.05Z"/><path class="cls-7" d="M86,142.45c-1-.07-1.69-.56-1.65-1.54a1.7,1.7,0,0,1,1.92-1.7c1,0,1.43.77,1.39,1.74S87,142.41,86,142.45Z"/><path class="cls-14" d="M147.79,297.11c2.46,3.69,4.51,7.64,7.63,10.87a11.13,11.13,0,0,0,7.86,3.84c3.14.11,5.72,2.32,9,2.43a21,21,0,0,0,9.18-1.37c5.87-2.51,9-8.7,6.5-14.53A36.2,36.2,0,0,1,187.2,270c.58-1.54,1.13-3.12-1.4-4s-3.26.68-3.91,2.26c-3.65,8.84-4.61,17.87-1.41,27.09.66,1.92,1.45,3.8,2.36,6.14-1.61-.27-2.36-2.18-3.92-1.18-1.33.84-1.37,2.12-1.35,3.83-1.87-.95-2.55-3.51-4.94-2.52-2.12.88-.38,2.81-1.27,4.11-1.41-1.53-2.09-3.92-4.79-3.65-1.62.17-1.23,1.48-1.51,2.43-3.28-.5-4.71-2.91-5.81-5.66,6.61-5.55,10.84-12.84,14.35-20.51,4.9-10.72,9.38-21.55,18.48-29.75a36.87,36.87,0,0,0,9.23-12.75,10.14,10.14,0,0,1,3.9.35,115.19,115.19,0,0,0,45.37,1.91,144.6,144.6,0,0,0,26.82-6.86c2-.71,3.26-.65,4.46,1.4a80,80,0,0,1,8.88,20.82c4.4,17.38,2.74,33.81-7.73,48.84-2.43-.89-3.67,1.09-5.57,2.42-.52-1.29-.16-3.24-2.26-3.3-2.6-.07-2.95,2.36-4.41,4-.65-1.89,1.3-4.23-1.2-5.12-1.94-.69-2.62,1.16-3.59,2.3l-.83-.62c2.93-7.7,5.43-15.45,3.59-23.9A40.67,40.67,0,0,0,265,267.61c-.82-1.54-1.85-3.05-3.93-2.13s-2.14,2.53-1.29,4.51c2.69,6.27,4.56,12.72,3,19.64a28.43,28.43,0,0,1-1.92,6.18c-5.11,10.83,2,18.66,13.45,18.56a15.85,15.85,0,0,0,4.62-.76,31.42,31.42,0,0,1,7.9-1.79c4-.25,6.33-3.6,8.65-6.56,3.06,8.16,2.52,16.48.77,24.76-.85,4-1.22,8.37-4.59,11.44-6.39-4.55-13.49-5.06-20.93-3.7-.56-.84-1.44-.74-2.28-.74a23.83,23.83,0,0,0-17.26,7c-3.11,3.15-6.38,5.29-10.79,5.65-1.43.12-2.84.45-4.26.71-15.72,2.84-30.51.2-44.62-7.19-2.45-1.29-4.71-3.47-7.87-3.1-3.44-.94-6.58-2.8-10.24-3.06-9.53-.68-17,2.5-21.61,11.76l-1.27-3a1.72,1.72,0,0,0-.81-1.54l.1.13-.72-.86,0,0c-.69-6.17-2.7-12.08-3.24-18.33A90.38,90.38,0,0,1,147.79,297.11Z"/><path class="cls-14" d="M290.36,113.43c-.56,3.23,2.46,4.76,3.46,7.25.21,3.59,2.81,6,4.38,8.94,3.42,6.34,6.85,12.65,8,19.9a9.81,9.81,0,0,0-.36,5.19c.41,3.84,2.64,7.78-.21,11.58a4.81,4.81,0,0,1-1-1c-4.9-10.19-19.06-10.54-25.56-5.42a12.11,12.11,0,0,0-4.67,7.45c-1.38,7.55,4.64,14.29,13,14.89,6.71.47,12.13-2.1,16.86-6.57.52,1.84-.29,3.46-.91,5.1-4.61,12.21-13.84,19.7-25.49,24.55-15.79,6.58-32.57,8-49.39,8.62-11.78.46-23.47-1.06-35.15-2.68-17.25-2.4-32-9.49-43.27-22.84a27.48,27.48,0,0,1-6.53-21.53,83.81,83.81,0,0,1,5.66-22.27,117,117,0,0,1,13-23.94c2.08-1.71,3.16-4.68,6.3-5.08,1.45,5.32,4.23,7.11,8.95,5.76,6.08-.56,11.45-3.44,17.15-5.26,3-1,5.94-2.45,9.41-2.53-1,2.52-3.68,3.39-4.59,5.68a3.72,3.72,0,0,0-1.65,4.4c.65,1.91,2.45,2.65,4.3,2.79a32.52,32.52,0,0,0,9.32-.57c20.9-4.51,39.1-13.09,50.15-32.68,3.15-.3,5.6,1.91,8.53,2.39a19.34,19.34,0,0,0,8.74,4.54c.89.23,2.15.28,1.84-.75-.51-1.69.41-4.48-2.76-4.64h0c0-1.49,0-3,0-4.48v0c2.73-.12,3.58-3,5.83-4,3.51-1.53,8.35-1.52,10.18.45-3.63,1.77-5.32,4.92-6.14,8.68C286.36,101.7,288,107.61,290.36,113.43Zm-57.23,91.94c.23-.69.8-.77,1.41-.78,1.77-2.46,5.15-2.9,6.88-5.46,1.05-1.56,3-2.9,1.07-5s-3.47-.6-4.93.7a14.37,14.37,0,0,1-8.67,4c-5.68.42-11.06-.07-15.4-4.38-1.31-1.3-2.87-1.9-4.38-.24s-.6,3,.53,4.13c3.12,3.22,6.5,5.77,11.27,6.45,4.14.6,8.12.07,12.17-.27.08.09.24.17.23.25a2.7,2.7,0,0,1-.14.56,3.9,3.9,0,0,1-.4.31,2.44,2.44,0,0,1-.16-.19Zm-39.87-41.22c-.43,17.32,18.24,28.27,31.3,19.75,1.51-1,2.56-.5,3.87.38,3.94,2.62,8.29,3,12.83,1.94,8.94-2,14.25-7.83,16.43-16.4,2.3-9.09-.42-17-7.36-23.19-10.43-9.26-22.71-11.1-35.82-7.51S193.21,152.56,193.26,164.15Zm-29.87,18.06a19.64,19.64,0,0,0,8.74-1.83,11.48,11.48,0,0,0,3.7-19c-4.85-4.85-14.4-6.23-20.42-3-8.42,4.59-9.47,13.8-2.3,20.19C156.05,181.23,159.61,182,163.39,182.21Zm22-26.09a10.61,10.61,0,0,0,10.8-10.69,10.79,10.79,0,0,0-10.8-10.74,11.09,11.09,0,0,0-10.83,10.86A10.47,10.47,0,0,0,185.4,156.12Zm91.94-10.56a10.5,10.5,0,0,0-10.57-10.85c-5.71,0-11,5.15-11,10.8s4.93,10.45,10.68,10.57A10.51,10.51,0,0,0,277.34,145.56Z"/><path class="cls-13" d="M283,302.28c10.47-15,12.13-31.46,7.73-48.84a80,80,0,0,0-8.88-20.82c-1.2-2.05-2.47-2.11-4.46-1.4a144.6,144.6,0,0,1-26.82,6.86,115.19,115.19,0,0,1-45.37-1.91,10.14,10.14,0,0,0-3.9-.35l-.09-.83c3.1-3.2,4.38-7.24,5.22-11.47,2.84-.68,3.08-2.71,2.64-5.08l1.58-.17.33.09.35,0c2.5.23,5,.62,7.5.68a218.08,218.08,0,0,0,23.71-.45c-.18,3.76.87,4.93,4.47,4.59,10.91-1,21.77-2.41,32.33-5.49,1.36-.39,2.55-1,3.68.82,10.28,16.12,17.57,33.24,17.29,52.75-.16,11-3.83,21-9.85,30.16-1.72,2.62-3.85,4.88-7.25,5.74C283.14,305.37,283.08,303.82,283,302.28Z"/><path class="cls-12" d="M242.55,218.56a218.08,218.08,0,0,1-23.71.45c-2.5-.06-5-.45-7.5-.68-.2-.37-.42-.41-.68-.06l-1.58.17-2-.84c-.64-1.28-1.86-1.35-3.06-1.54-11.7-1.86-23.25-4.26-34.3-8.68-2.29-.92-1.51,1-1.77,1.93-19.95-7.83-31.29-27.88-28-49.17,2.15-14,7.37-26.51,16.64-37.28.47,0,.64-.29.59-.74l0,0c1.63-.53,2.12-2.35,3.53-3.13.89.19,1.55.58,1.51,1.62a117,117,0,0,0-13,23.94,83.81,83.81,0,0,0-5.66,22.27A27.48,27.48,0,0,0,150,188.38c11.32,13.35,26,20.44,43.27,22.84,11.68,1.62,23.37,3.14,35.15,2.68,16.82-.66,33.6-2,49.39-8.62,11.65-4.85,20.88-12.34,25.49-24.55.62-1.64,1.43-3.26.91-5.1a21.13,21.13,0,0,0,1.37-9.34c2.85-3.8.62-7.74.21-11.58a9.81,9.81,0,0,1,.36-5.19c1.17,1.31.55,3,.95,4.5,4.72,17.61.06,32.53-13.45,44.57-8.62,7.68-19.27,11.65-30,15.25-.95.32-2.3,0-2.49,1.57l-1.2.08c-1.33-1.19-2.12.09-3.07.65C252.18,217.42,247.16,216.78,242.55,218.56Zm-76.78-12.49-.28-.18.3.15c.26.27.4.94.92.26Z"/><path class="cls-6" d="M298.93,364.77a14.11,14.11,0,0,1-.28-12.3c2.31-4.72,4.77-9.36,6.66-14.28.33-.86.33-2.55,2-1.06l1.06,1.34h0l.64.84-.06-.06c.29.46.57.92.85,1.38h0c2.1,2.73,2.68,1.31,3-1.07,1.39-9.44,2.64-18.93,6.45-27.82,1.21-.28,1.27,1,1.93,1.44L322,315c.08.37.15.73.22,1.09a1.47,1.47,0,0,0,.55,1.52l0-.06a193.85,193.85,0,0,1,3.67,47l-.71.19Z"/><path class="cls-13" d="M183.67,340.09c3.16-.37,5.42,1.81,7.87,3.1,14.11,7.39,28.9,10,44.62,7.19,1.42-.26,2.83-.59,4.26-.71,4.41-.36,7.68-2.5,10.79-5.65a23.83,23.83,0,0,1,17.26-7c.84,0,1.72-.1,2.28.74-6.61,3-12.79,6.55-16.92,12.81a19,19,0,0,0-3.3,7.15c-.44,2.67-2.1,3.49-4.34,3.87a131.81,131.81,0,0,1-44.13-.22c-1.14-.2-2.46-.29-2.84-1.8C197,350.72,191,344.88,183.67,340.09Z"/><path class="cls-10" d="M290.36,113.43c-2.32-5.82-4-11.73-2.61-18.07.82-3.76,2.51-6.91,6.14-8.68l3.54.8c.88,2,2.1,3.71,4.45,4.21l0,0,.72.77v0c0,.62.07,1.2.7,1.52,8.2,10.47,15.81,21.4,24.88,31.17.75.81,1.94,2,1.14,3.16-1.23,1.86-3.34,1.27-5,.9-10.6-2.38-20.45-6.34-28-14.56C294.48,112.66,292.74,111.8,290.36,113.43Z"/><path class="cls-10" d="M159.62,116.34c-1.4-3.31-2.75-3.77-5.45-1.16-6,5.8-13.13,9.52-20.85,12.31a15.93,15.93,0,0,1-2.07.47,17.09,17.09,0,0,0-3.21.12c-1.16.25-2.43,1-3.13-.48-.59-1.26.89-1.75,1.43-2.6,1.53-2.44,4.58-3.91,4.66-7.28v0l.74-.74h0c1,.14,1.39-.38,1.56-1.24a2.09,2.09,0,0,1,1.39-1.58,2.12,2.12,0,0,0,2.19-2.18c3.4-3.41,6.06-7.39,9-11.19,3.69-4.8,6.39-10.48,11.84-13.77,5.94,1.85,7.41,6.46,7.31,12a32.77,32.77,0,0,1-2.09,10.8c-1.18,1-.7,2.39-.71,3.61C162.18,115.22,161.63,116.38,159.62,116.34Z"/><path class="cls-9" d="M294.75,371.76l-.33,13.1-37.49-.08c-1.43,0-2.9.17-4.2-.66q0-6.53-.08-13l.78-.25a63.18,63.18,0,0,0,11.34-.14,5.28,5.28,0,0,0,3.05-.08c2.44.4,4.88.71,7.29-.17h4.23a41,41,0,0,0,13.85,0A1.67,1.67,0,0,1,294.75,371.76Z"/><path class="cls-9" d="M249.7,371.07,249,384c-14.7.23-29.37-.57-44-1.43-.56-3.88.57-7.7.4-11.57l.17-.16L249,370.7Z"/><path class="cls-13" d="M261.15,215.41c.19-1.54,1.54-1.25,2.49-1.57,10.77-3.6,21.42-7.57,30-15.25,13.51-12,18.17-27,13.45-44.57-.4-1.5.22-3.19-.95-4.5-1.13-7.25-4.56-13.56-8-19.9-1.57-2.92-4.17-5.35-4.38-8.94,14.3,16.58,22.52,35.27,18.84,57.6-1.86,11.28-8.54,19.9-17.89,26.15C284.67,211.2,273.15,214.17,261.15,215.41Z"/><path class="cls-12" d="M270,95.54c-2.93-.48-5.38-2.69-8.53-2.39-.74-1.1-2-1.32-3.1-1.69-27.71-8.88-54.62-8.23-80.32,6.79-.42-1-2.09-1-2.06-2.45,10.88-6.66,22.08-12.64,34.92-14.56,21.88-3.27,42.39-.13,60.55,13.45C271,95,270.52,95.26,270,95.54Z"/><path class="cls-13" d="M282.64,365.14c-8.17,0-16.34-.07-24.51,0-2.21,0-3-.63-2.67-2.93,1.6-11.92,15.88-21.64,27.49-18.62a13.47,13.47,0,0,1,6.37,3.9c3.94,4.11,1.68,7.89-.61,11.68l-.72,1,0,0-.71.79-.36,0h-.36c.4-2.3,1.14-4.57.88-6.95-.08-.72-.24-1.48-1-1.76a1.63,1.63,0,0,0-1.83.79c-1.3,1.65-2.55,3.35-3.82,5,.17-1.41.44-2.82.48-4.23,0-1.06-.18-2.21-1.41-2.65-1.07-.38-1.75.37-2.5,1-1.26,1.07-1.47,3-3.11,3.72.05-.71.15-1.42.14-2.13,0-1.47,0-3-2.11-3-1.77,0-4.54,3.72-4.63,6.14-.07,1.69.69,2.8,2.36,3a3.24,3.24,0,0,0,1.91-.82,14.81,14.81,0,0,0,1.66-1.78c0,.46,0,.94,0,1.4-.1,1.44-.28,2.88,1.56,3.49s2.59-.53,3.62-1.56c.8-.81.68-2.34,2.11-2.62a2.8,2.8,0,0,1,0,.71c-.67,2.38-2.55,5.23,2.26,5.36C283.44,364.06,282.81,364.76,282.64,365.14Z"/><path class="cls-9" d="M158.58,379.7c0-2.52-.59-5.26.19-7.52,1-2.83,4.39-.26,6.31-1.73,11.22-.44,22.44,1.14,33.67.07,1.31-.13,2.67-.11,3.5,1.24-.75,3.5.2,7.14-.83,10.62l-17.85-.93c-6.32-.33-12.64-.71-19-1A19.72,19.72,0,0,1,158.58,379.7Z"/><path class="cls-13" d="M163.24,361.92a22,22,0,0,1-4.58-6.42c-2-4-1.37-6.66,2.25-9.38,5.46-4.08,11.53-4.18,17.47-1.64a26.83,26.83,0,0,1,15,16.25c1.26,3.48.83,4.15-2.71,4.21q-10.48.15-21,.11c-1.63,0-3.37.11-4.7-1.19l.28-.32c4.08.33,4.08.33,4.08-4.81,1.11.29,1.27,1.34,1.7,2.16.88,1.68,2.17,1.6,3.67,1s1.22-1.64.74-2.91a12.11,12.11,0,0,1-.33-3.16c1.43.42,1.6,2,2.61,2.85,1.67,1.4,3.45,1.32,4.05-.66.85-2.82-1.25-5-2.83-7.06a2.16,2.16,0,0,0-2.9-.75c-2,1.37-.73,3.5-.86,5.31,0,.12,0,.24,0,.36-2,0-1.78-2.2-2.9-3.12-.94-.76-1.78-1.75-3.07-1.17s-1.27,1.86-1,3.07.93,2.2.46,3.42c-.93-1.37-1.83-2.77-2.82-4.1-.68-.94-1.3-2.26-2.81-1.59-1.32.58-1.33,2-1.32,3.11,0,2.2,1.15,4.12,1.94,6.12Z"/><path class="cls-12" d="M152.17,292.25l-.3-.73-.42-.71c-7.65-14.94-7-30.32-2-45.78a103.29,103.29,0,0,1,13.1-26.27c1.79-2.65,3.5-4,6.52-2a6.7,6.7,0,0,0,1.71.54c-2.11.15-1.51,2.09-2.14,3.22-9,10.84-14.43,23.32-17.34,37-2.16,10.12-1.33,20.18,1,30.17a1.17,1.17,0,0,0,.51,1.56l0,.09C152.56,290.3,153.13,291.43,152.17,292.25Z"/><path class="cls-9" d="M168.6,220.52c.63-1.13,0-3.07,2.14-3.22a275.07,275.07,0,0,0,35.7,6.22c-.84,4.23-2.12,8.27-5.22,11.47-10.66-3.66-21.05-7.91-30.56-14.08A5.81,5.81,0,0,0,168.6,220.52Z"/><path class="cls-9" d="M112.11,375.94l-.12-4.18c.08-.28.16-.56.23-.83q18.72,0,37.42-.07c1.3,0,2.66.32,3.86-.49l1.95.08c-.19,3.08-.37,6.15-.56,9.23Z"/><path class="cls-14" d="M176,95.8c0,1.42,1.64,1.4,2.06,2.45-4.34,4.59-8.36,9.39-9.6,15.85-.73-.65-.44-2.24-2-2.12,0-1.37-.05-2.56-1.92-1.54-.81.44-1.58.8-1.67-.63A32.77,32.77,0,0,0,165,99c.1-5.52-1.37-10.13-7.31-12,.57-1.46,1.88-1.6,3.17-1.91a31,31,0,0,1,9.21-.67l.1.06.88.6C175.58,87.33,175.83,91.55,176,95.8Z"/><path class="cls-12" d="M60.69,272.89a6.88,6.88,0,0,1-4-3.72A91.81,91.81,0,0,1,85.56,266a79.57,79.57,0,0,1,31.79,8.22c3.29,1.63,6.7,3.23,9.1,6.22l-1.79.28c-5.42-2.26-10.47-5.52-16.49-6.17-2.06-2.69-4.08-2.35-6.06.09-2-.74-4-1.32-5.69-2.76-.56-3-2.35-2.36-4.23-1.44a4,4,0,0,0-1-.4A96.86,96.86,0,0,0,62,271.35C61.2,271.51,60.9,272.18,60.69,272.89Z"/><path class="cls-13" d="M291.68,341.46c3.37-3.07,3.74-7.41,4.59-11.44,1.75-8.28,2.29-16.6-.77-24.76,1.54-2.83,3.08-5.66,4.65-8.53,5.79,9.4,3.5,35.76-4,48.52Z"/><path class="cls-12" d="M147.79,297.11a90.38,90.38,0,0,0-1.89,28.13c.54,6.25,2.55,12.16,3.24,18.33-6.41-10.33-8.52-21.74-8.28-33.67a79.1,79.1,0,0,1,3.36-21C145.55,292,146.67,294.54,147.79,297.11Z"/><path class="cls-13" d="M60.69,272.89c.21-.71.51-1.38,1.32-1.54a96.86,96.86,0,0,1,29.18-1.3,4,4,0,0,1,1,.4,42.34,42.34,0,0,0-9.39,16.42c-1.69-3.63-.14-6.67,1.52-9.84,2.51-4.78,1.78-5.87-3.53-5.86-5.51,0-11.08-.52-16.64,1.95,4.19,4.14,6.55,9.41,8.43,15,.81,2.35.6,4.21-1.79,5.44-.19-6.84-3.35-12.35-7.72-17.33v0l-.74-.76,0,0c-.24-.27-.49-.53-.73-.79l0,.06-.76-.91Z"/><path class="cls-11" d="M326.38,364.51a193.85,193.85,0,0,0-3.67-47c3.5,4.82,2.7,10.66,3.62,16.05s1.81,10.6,2.28,16.05c.37-4.74,1.38-9.3,2.17-13.9.56-3.28,1.08-6.58,1.73-9.84.09-.46.82-.79,1.26-1.18-1.23,8-3.25,15.8-3.49,23.9q-.15,8-.31,16C328.78,364.35,327.64,361.26,326.38,364.51Z"/><path class="cls-11" d="M124.66,280.73l1.79-.28c1.67.8,3.41,1.5,4.58,3.06-4.94.65-8.39,3.74-11.67,7.12h.08l-1,.74c-1.21,1.3-2.48,2.55-3.62,3.91-1,1.15-1.94,2.3-3.55,1.15-1.76-1.25-1-2.74-.06-4a40.82,40.82,0,0,1,8.87-8.23c.57-.42,1.1-.88,1.65-1.32A5.67,5.67,0,0,0,124.66,280.73Z"/><path class="cls-12" d="M170.06,84.45a31,31,0,0,0-9.21.67c-1.29.31-2.6.45-3.17,1.91-5.45,3.29-8.15,9-11.84,13.77-2.92,3.8-5.58,7.78-9,11.19l-1.25.09c5.64-7.81,11.12-15.74,17-23.4C156.81,83.12,163.4,80.22,170.06,84.45Z"/><path class="cls-3" d="M167.94,209.31c.26-.94-.52-2.85,1.77-1.93,11,4.42,22.6,6.82,34.3,8.68,1.2.19,2.42.26,3.06,1.54C193.68,216.44,180.51,214.3,167.94,209.31Z"/><path class="cls-11" d="M42.82,281.34v-.77c1.25.11,2.73,1.41,3.56-.68,5.29,3.56,8.79,8.54,11.3,14.3-.49,1.09-.8,2.42-2.36,2.33-1.36-.08-1.52-1.38-2-2.31C50.75,289.16,48,284.26,42.82,281.34Z"/><path class="cls-5" d="M57.67,294.19c-2.51-5.76-6-10.74-11.3-14.3-.17-.58-.64-.74-1.16-.84-.06-.22-.13-.44-.21-.65,2.07-3.57,5.81-3.63,9.21-4.41-1.09,2.6-4.07,1.7-6.25,3.44,5.21,2.55,7.83,7.07,10,11.94C58.64,291,59.44,292.68,57.67,294.19Z"/><path class="cls-13" d="M314.07,308.1l1.9,0-.45,1.22-.74,1.59,0,0a5.75,5.75,0,0,0-1.44,3.64h0a24.37,24.37,0,0,0-2,8l-.21,1.43a.58.58,0,0,0-.11.6l.08,0c-.79.61-.59,1.47-.57,2.28,0,.36-.09.72-.13,1.08a1.89,1.89,0,0,0-.54,1.8l-.89,1.89-.67-.06q.42-9.62.86-19.22C309.9,310,311.71,308.71,314.07,308.1Z"/><path class="cls-11" d="M63.07,276.19c4.37,5,7.53,10.49,7.72,17.33-1.62,1.05-2.9,1.14-3.47-1.12-1.26-5.07-3.75-9.57-6.36-14C62.67,278.62,63.11,277.64,63.07,276.19Z"/><path class="cls-11" d="M249,370.7l-43.46.17c.46-1.67,1.84-1.25,3-1.25q18.88,0,37.77,0C247.29,369.62,248.53,369.25,249,370.7Z"/><path class="cls-11" d="M280.84,358c1.27-1.68,2.52-3.38,3.82-5a1.63,1.63,0,0,1,1.83-.79c.75.28.91,1,1,1.76.26,2.38-.48,4.65-.88,6.95l.06,0-.52.22.5.59c-.54,2.07-1.69,3.42-4,3.44.17-.38.8-1.08.49-1.09-4.81-.13-2.93-3-2.26-5.36a2.73,2.73,0,0,0,0-.7Z"/><path class="cls-11" d="M347.56,370.42a3.14,3.14,0,0,1-1,.39q-24.18-.06-48.35-.16c.64-1.58,2-1,3.12-1,14.14,0,28.28,0,42.42,0A6.85,6.85,0,0,1,347.56,370.42Z"/><path class="cls-11" d="M153.5,370.37c-1.2.81-2.56.48-3.86.49q-18.7.06-37.42.07c.22-1.29,1.18-1.33,2.19-1.33h37.17A2.14,2.14,0,0,1,153.5,370.37Z"/><path class="cls-3" d="M297.43,87.48l-3.54-.8c-1.83-2-6.67-2-10.18-.45-2.25,1-3.1,3.84-5.83,4,4.41-8.48,14.13-10.24,19.8-3.6C297.6,86.89,297.51,87.18,297.43,87.48Z"/><path class="cls-13" d="M119.36,290.63c3.28-3.38,6.73-6.47,11.67-7.12v0l.75.71.73.73c.24.25.48.49.71.74l2.06,2.19c.09.88.44,1.54,1.44,1.6l-.06-.08c.12.4.23.8.35,1.2-1.68.48-2.67-.58-3.7-1.61-3.05-3.06-5.62-2.92-9,.31A5.75,5.75,0,0,1,119.36,290.63Z"/><path class="cls-11" d="M319.29,311.76c-3.81,8.89-5.06,18.38-6.45,27.82-.36,2.38-.94,3.8-3,1.07,1.83.15,2.21-.88,2.18-2.46-.17-8.14,2.87-15.65,4.69-23.4C317,313.56,317.34,311.83,319.29,311.76Z"/><path class="cls-12" d="M54.21,274c-3.4.78-7.14.84-9.21,4.41l-.73-.09,0,0a.79.79,0,0,0-.87-.68c-1.73-1.1-2-2,.21-2.94A54.06,54.06,0,0,0,49,272c2.35-1.31,4.49-1.22,6.43.74a5.61,5.61,0,0,1,.13.59l-.64.49Z"/><path class="cls-3" d="M152.17,292.25c1-.82.39-1.95.59-2.92.5,1.18,1,2.36,1.49,3.53,1.09,2.46,1.91,5.17,5,6,1.1,2.75,2.53,5.16,5.81,5.66.21.84.42,1.89-.28,2.35s-1.51-.27-2.17-.77A34.29,34.29,0,0,1,152.17,292.25Z"/><path class="cls-11" d="M298.93,364.77l26.74-.07a5,5,0,0,1-3.62,1.29c-6.83,0-13.66,0-20.5,0C300.52,366,299.3,366.27,298.93,364.77Z"/><path class="cls-13" d="M162.9,109.81c.09,1.43.86,1.07,1.67.63,1.87-1,2,.17,1.92,1.54l-5.83,7c-1.42.78-1.91,2.6-3.54,3.13-.21-2.39,2-3.73,2.5-5.81,2,0,2.56-1.12,2.57-2.92C162.2,112.2,161.72,110.83,162.9,109.81Z"/><path class="cls-13" d="M131,117.72c-.08,3.37-3.13,4.84-4.66,7.28-.54.85-2,1.34-1.43,2.6.7,1.48,2,.73,3.13.48a17.09,17.09,0,0,1,3.21-.12c-2.76,1-6.38,3.08-8.2.49s2.16-4.43,3.72-6.47A14.43,14.43,0,0,1,131,117.72Z"/><path class="cls-3" d="M270,95.54c.49-.28,1-.56,1.46-.85,1.28.83,2.52,1.71,3.85,2.45,1,.55,2,1.89,3.13,1,1.45-1.19-.53-2.23-.62-3.42,3.17.16,2.25,3,2.76,4.64.31,1-.95,1-1.84.75A19.34,19.34,0,0,1,270,95.54Z"/><path class="cls-11" d="M111.52,309.56c5.72-1.23,11.57-.83,17.34-1.43C123.2,310,117.46,311,111.52,309.56Z"/><path class="cls-11" d="M293.19,370.43a41,41,0,0,1-13.85,0A24.45,24.45,0,0,1,293.19,370.43Z"/><path class="cls-11" d="M135.4,305.2c0-.7,0-1.4,0-2.1q1-5.13,2-10.26l.12-2.1.11-.1c1.67,3.33.18,6.54-.62,9.66C136.6,301.92,138.16,304.35,135.4,305.2Z"/><path class="cls-11" d="M345.14,323c-1.62-3.67-2.34-7.69-4.34-11.21C344.85,314.48,345.53,318.51,345.14,323Z"/><path class="cls-11" d="M356.78,313.84c3.61-2.74,7.42-3.88,11.67-1.45C364.45,312,360.66,313.24,356.78,313.84Z"/><path class="cls-11" d="M348.88,331.25c-.17.86-.52,1.86-1.42,1.84-1.12,0-.9-1.29-1-2-.52-2.59-.87-5.21-1.28-7.83,1.57,1.12,1.53,2.78,1.58,4.46S346.88,330.86,348.88,331.25Z"/><path class="cls-11" d="M275.11,370.44c-2.41.88-4.85.57-7.29.17C270.21,368.84,272.65,369.23,275.11,370.44Z"/><path class="cls-5" d="M297.43,87.48c.08-.3.17-.59.25-.89a11,11,0,0,1,4.2,5.1C299.53,91.19,298.31,89.51,297.43,87.48Z"/><path class="cls-11" d="M264.77,370.69a63.18,63.18,0,0,1-11.34.14A29.84,29.84,0,0,1,264.77,370.69Z"/><path class="cls-11" d="M311.34,322.56a24.37,24.37,0,0,1,2-8C313.48,317.43,313.51,320.27,311.34,322.56Z"/><path class="cls-11" d="M366.23,316.12l-5,0C362.87,314.82,364.53,313.05,366.23,316.12Z"/><path class="cls-11" d="M152.12,364.77c.07-1.65,1.17-2.06,2.2-3.14C154.29,363.41,154.24,364.6,152.12,364.77Z"/><path class="cls-11" d="M368.44,312.38a5.19,5.19,0,0,1,3.65,2.17C370.42,314.6,368.59,314.9,368.44,312.38Z"/><path class="cls-11" d="M317.09,307.39l1.38-1.37a3.49,3.49,0,0,1,3.68,1.31Z"/><path class="cls-3" d="M277.88,90.21c0,1.5,0,3,0,4.48C276.06,93.2,276.54,91.7,277.88,90.21Z"/><path class="cls-11" d="M354,316.07a4.74,4.74,0,0,1,2.78-2.24C356.78,315.71,355.55,316.1,354,316.07Z"/><path class="cls-13" d="M135.61,112.08l1.25-.09a2.12,2.12,0,0,1-2.19,2.18C134.87,113.42,134.6,112.47,135.61,112.08Z"/><path class="cls-11" d="M313.36,314.57a5.75,5.75,0,0,1,1.44-3.64C314.55,312.23,315.79,314.13,313.36,314.57Z"/><path class="cls-11" d="M335.22,319.7a9.44,9.44,0,0,1-1.43,4.7C333.61,322.64,333.51,320.89,335.22,319.7Z"/><path class="cls-11" d="M32,276.25c-.24-.76-.48-1.52-.73-2.27l0,0,2,.12,0,0C33.33,275.07,33.42,276.13,32,276.25Z"/><path class="cls-11" d="M336.58,316.06a6.59,6.59,0,0,1-1.4,3.69C335.09,318.31,334.85,316.81,336.58,316.06Z"/><path class="cls-13" d="M256.88,216.14c.95-.56,1.74-1.84,3.07-.65C259.1,216.51,258,216.26,256.88,216.14Z"/><path class="cls-11" d="M369.07,317.59l-2.49-1.41C367.72,316.09,369,315.78,369.07,317.59Z"/><path class="cls-11" d="M148.34,361.58a2.91,2.91,0,0,1,1.45-2.25C149.87,360.44,150,361.58,148.34,361.58Z"/><path class="cls-11" d="M351.65,318.87a3.25,3.25,0,0,1,1.6-2C353.22,318,353.15,319,351.65,318.87Z"/><path class="cls-11" d="M338.82,311.77a4.33,4.33,0,0,1-1.41,2.46C337.32,313.09,337,311.83,338.82,311.77Z"/><path class="cls-11" d="M327.25,318.62c.89,1.2.67,2.66.91,4C326.53,321.59,327.34,320,327.25,318.62Z"/><path class="cls-11" d="M380.69,331.28a3.54,3.54,0,0,1-1.47-2.17C380.75,329.12,380.72,330.2,380.69,331.28Z"/><path class="cls-11" d="M337.94,306.59a2.88,2.88,0,0,1,3.84-.15Z"/><path class="cls-13" d="M133.28,115.75c-.17.86-.6,1.38-1.56,1.24C131.63,115.81,132.59,116,133.28,115.75Z"/><path class="cls-11" d="M357,319.08a3.14,3.14,0,0,1-1.63,2.05A1.79,1.79,0,0,1,357,319.08Z"/><path class="cls-11" d="M347.53,316.46a3.19,3.19,0,0,1,.71,2.45C347.19,318.33,347.47,317.36,347.53,316.46Z"/><path class="cls-11" d="M136.71,289.46c-1-.06-1.35-.72-1.44-1.6A1.74,1.74,0,0,1,136.71,289.46Z"/><path class="cls-11" d="M329.38,324.85a2,2,0,0,1,.58-1.8C329.77,323.65,330.71,324.62,329.38,324.85Z"/><path class="cls-11" d="M330.72,320.41a2.83,2.83,0,0,1,.71-2.36C331.49,318.92,331.66,319.83,330.72,320.41Z"/><path class="cls-11" d="M328,322.83c.65.53.56,1.26.54,2C327.13,324.49,328.23,323.48,328,322.83Z"/><path class="cls-11" d="M131.94,312.52a2.48,2.48,0,0,1-2.34.62C130.2,312.26,131.09,312.45,131.94,312.52Z"/><path class="cls-11" d="M310.53,326.91c0-.81-.22-1.67.57-2.28C311.25,325.48,311.38,326.32,310.53,326.91Z"/><path class="cls-11" d="M309.86,329.79a1.89,1.89,0,0,1,.54-1.8A1.69,1.69,0,0,1,309.86,329.79Z"/><path class="cls-5" d="M303.25,93.94c-.63-.32-.7-.9-.7-1.52C303.05,92.81,303.46,93.23,303.25,93.94Z"/><path class="cls-11" d="M350.48,328.43a1.59,1.59,0,0,1-.84,1.44C349.61,329.21,349.71,328.63,350.48,328.43Z"/><path class="cls-11" d="M349.67,329.83c-.27.47-.53.95-.79,1.43A1.33,1.33,0,0,1,349.67,329.83Z"/><path class="cls-11" d="M325.8,313.62a1.78,1.78,0,0,1,.62,1.7A1.53,1.53,0,0,1,325.8,313.62Z"/><path class="cls-11" d="M308.35,338.47l-1.06-1.34C308.09,337.22,308.31,337.77,308.35,338.47Z"/><path class="cls-11" d="M309.79,340.64c-.28-.46-.56-.92-.85-1.38A1.27,1.27,0,0,1,309.79,340.64Z"/><path class="cls-11" d="M322,315l-.75-1.78C322.05,313.55,322.05,314.25,322,315Z"/><path class="cls-11" d="M346.05,312.28a1.58,1.58,0,0,1,.64,1.59A1.43,1.43,0,0,1,346.05,312.28Z"/><path class="cls-12" d="M149.74,344.27a1.72,1.72,0,0,1,.81,1.54A1.53,1.53,0,0,1,149.74,344.27Z"/><path class="cls-11" d="M354.13,322.67a1.58,1.58,0,0,1-.88,1.4C353.23,323.41,353.34,322.82,354.13,322.67Z"/><path class="cls-11" d="M330.08,322.55a2,2,0,0,1,.58-1.82A1.66,1.66,0,0,1,330.08,322.55Z"/><path class="cls-11" d="M149.87,355.83a1.6,1.6,0,0,1-.83-1.4A1.35,1.35,0,0,1,149.87,355.83Z"/><path class="cls-11" d="M137,290.58c-.12-.4-.23-.8-.35-1.2.71.12.88.67,1,1.26l-.11.1a1.68,1.68,0,0,0-.63-.12Z"/><path class="cls-11" d="M373.5,321.78l-1-1.23C373.29,320.62,373.44,321.16,373.5,321.78Z"/><path class="cls-13" d="M164.33,363.09c-.66-.12-.84-.68-1.08-1.17l.41-.32a1.14,1.14,0,0,1,.67,1.49Z"/><path class="cls-11" d="M33.53,272.45c.64.32.61,1,.74,1.54l-.91.1,0,0,0-1.39Z"/><path class="cls-11" d="M349.62,321.17l.71-.74C350.16,320.74,350.65,321.69,349.62,321.17Z"/><path class="cls-11" d="M371.89,319.88a1.53,1.53,0,0,1-1.25-1C371.26,319,371.8,319.14,371.89,319.88Z"/><path class="cls-11" d="M133.91,312.31l-1.43.16C132.89,311.76,133.36,311.64,133.91,312.31Z"/><path class="cls-11" d="M348.22,318.87a1.4,1.4,0,0,1,.56,1.49A1.39,1.39,0,0,1,348.22,318.87Z"/><path class="cls-11" d="M333.6,312.41a1.68,1.68,0,0,1,.77-1.47A1.38,1.38,0,0,1,333.6,312.41Z"/><path class="cls-11" d="M358.19,318.19a1.53,1.53,0,0,1-1.24,1C357.05,318.42,357.58,318.25,358.19,318.19Z"/><path class="cls-11" d="M60.91,278.28l-1-1.25C60.61,277.17,60.82,277.68,60.91,278.28Z"/><path class="cls-11" d="M334.35,311l.78-1.42A1.42,1.42,0,0,1,334.35,311Z"/><path class="cls-11" d="M314.78,311l.74-1.59C315.57,310,315.49,310.65,314.78,311Z"/><path class="cls-14" d="M266,302.6c-.33.32-.12,1.28-.94.92-.16-.07.07-1,.11-1.54Z"/><path class="cls-11" d="M132.37,307.31a1.79,1.79,0,0,1,1.56-.72A1.38,1.38,0,0,1,132.37,307.31Z"/><path class="cls-11" d="M341.8,306.38a1.49,1.49,0,0,1,1.3,1C342.44,307.33,341.85,307.21,341.8,306.38Z"/><path class="cls-11" d="M130.18,308a1.73,1.73,0,0,1,1.58-.61A1.42,1.42,0,0,1,130.18,308Z"/><path class="cls-11" d="M343.09,307.35a1.56,1.56,0,0,1,1,1.32C343.23,308.59,343.11,308,343.09,307.35Z"/><path class="cls-11" d="M332.12,316a2,2,0,0,1,.72-1.78C332.91,315,332.9,315.65,332.12,316Z"/><path class="cls-11" d="M337.29,314.6a1.65,1.65,0,0,1-.71,1.47A1.44,1.44,0,0,1,337.29,314.6Z"/><path class="cls-11" d="M346.82,314.29a1.92,1.92,0,0,1,.62,1.76A1.53,1.53,0,0,1,346.82,314.29Z"/><path class="cls-11" d="M322.74,317.59a1.47,1.47,0,0,1-.55-1.52A1.42,1.42,0,0,1,322.74,317.59Z"/><path class="cls-11" d="M331.57,317.48a1.42,1.42,0,0,1,.59-1.52A1.45,1.45,0,0,1,331.57,317.48Z"/><path class="cls-11" d="M361.26,316.13a1.7,1.7,0,0,1-1.47.79C360,316.17,360.59,316.07,361.26,316.13Z"/><path class="cls-11" d="M353.28,324c-.28.46-.55.92-.82,1.38A1.38,1.38,0,0,1,353.28,324Z"/><path class="cls-11" d="M380.7,324c.29.45.59.9.89,1.35C380.89,325.2,380.73,324.66,380.7,324Z"/><path class="cls-14" d="M177.73,304.53c.1.21.27.41.26.6s-.19.37-.3.55a1.71,1.71,0,0,1-.25-.6C177.44,304.9,177.62,304.72,177.73,304.53Z"/><path class="cls-11" d="M377.07,326.2a1.56,1.56,0,0,1-.92-1.33C377,325,377.06,325.55,377.07,326.2Z"/><path class="cls-11" d="M351.87,326.22a1.68,1.68,0,0,1-.82,1.43A1.31,1.31,0,0,1,351.87,326.22Z"/><path class="cls-11" d="M382.2,326.12a1.58,1.58,0,0,1,.9,1.37C382.28,327.38,382.19,326.78,382.2,326.12Z"/><path class="cls-11" d="M378.57,328.28a1.56,1.56,0,0,1-.88-1.32C378.35,327.15,378.52,327.67,378.57,328.28Z"/><path class="cls-5" d="M302.56,92.44l-.72-.77Z"/><path class="cls-13" d="M131.73,117l-.74.74C131,117.25,131.2,117,131.73,117Z"/><path class="cls-13" d="M157.14,122.12c.05.45-.12.72-.59.74C156.56,122.47,156.66,122.15,157.14,122.12Z"/><path class="cls-11" d="M55.57,273.32a5.61,5.61,0,0,0-.13-.59l1.11.6-.18.16Z"/><path class="cls-11" d="M57.2,274.13l-.79-.05c0-.19,0-.39,0-.59l.18-.16C56.77,273.59,57,273.86,57.2,274.13Z"/><path class="cls-11" d="M58,274.82l-.77-.72Z"/><path class="cls-11" d="M60.93,273.84l.76.91Z"/><path class="cls-11" d="M58.66,275.57l-.72-.76Z"/><path class="cls-11" d="M61.64,274.69c.24.26.49.52.73.79C62.13,275.21,61.88,275,61.64,274.69Z"/><path class="cls-11" d="M59.37,276.35c-.25-.27-.49-.54-.74-.8C58.88,275.81,59.12,276.08,59.37,276.35Z"/><path class="cls-11" d="M62.34,275.45l.74.76Z"/><path class="cls-11" d="M43.44,277.67a.79.79,0,0,1,.87.68Z"/><path class="cls-11" d="M44.27,278.31l.73.09c.08.21.15.43.21.65Z"/><path class="cls-11" d="M42.77,280.55l-.81-.66Z"/><path class="cls-11" d="M131.77,284.2l-.75-.71Z"/><path class="cls-11" d="M133.21,285.67l-.71-.74Z"/><path class="cls-12" d="M171,85.11l-.88-.6Z"/><path class="cls-3" d="M151.45,290.81l.42.71Z"/><path class="cls-14" d="M276.76,305.33c.08,0,.19,0,.23,0s.14.19.12.25c-.16.35-.34.34-.48,0C276.61,305.52,276.71,305.41,276.76,305.33Z"/><path class="cls-11" d="M150.53,356.72l-.65-.87Z"/><path class="cls-11" d="M381.34,332.11l-.66-.85Z"/><path class="cls-11" d="M383.67,328.24l.68.82Z"/><path class="cls-11" d="M150.52,358a2.68,2.68,0,0,1,0-.69C151.07,357.56,151.06,357.79,150.52,358Z"/><path class="cls-11" d="M149.91,358.74l.64-.77Z"/><path class="cls-11" d="M351.06,327.64l-.65.85Z"/><path class="cls-11" d="M288,360.15l.72-1Z"/><path class="cls-11" d="M287.32,360.9l.71-.79Z"/><path class="cls-13" d="M286.64,361.7l-.5-.59.52-.22Z"/><path class="cls-11" d="M147.65,362.34l.72-.75Z"/><path class="cls-11" d="M377.75,327l-.68-.82Z"/><path class="cls-11" d="M146.92,363.06l.74-.73Z"/><path class="cls-11" d="M381.52,325.32l.7.83Z"/><path class="cls-11" d="M146.18,363.77l.76-.73Z"/><path class="cls-13" d="M165,363.86a.7.7,0,0,1-.68-.77h0c.48-.19.74.1,1,.45Z"/><path class="cls-12" d="M149.12,343.54l.72.86C149.24,344.41,149.2,344,149.12,343.54Z"/><path class="cls-11" d="M377.14,319.57l.73.8Z"/><path class="cls-11" d="M372.59,320.59l-.75-.77A.73.73,0,0,1,372.59,320.59Z"/><path class="cls-11" d="M350.35,320.4l.66-.79Z"/><path class="cls-11" d="M352.44,325.44l-.63.83Z"/><path class="cls-11" d="M376.22,324.92l-.72-.82Z"/><path class="cls-11" d="M376.45,318.71l.74.92Z"/><path class="cls-11" d="M311,324.59a.58.58,0,0,1,.11-.6l.42.39Z"/><path class="cls-11" d="M379.24,329.12l-.63-.79Z"/><path class="cls-11" d="M380,323.2l.66.82Z"/><path class="cls-11" d="M351,319.64l.73-.8Z"/><path class="cls-11" d="M374.88,323.35l-.69-.78Z"/><path class="cls-11" d="M375.55,324.15l-.7-.83Z"/><path class="cls-11" d="M335.69,308.74l.71-.87Z"/><path class="cls-11" d="M379.36,322.25c.23.34.47.67.71,1C379.83,322.92,379.59,322.59,379.36,322.25Z"/><path class="cls-11" d="M339.57,311l-.79.77Z"/><path class="cls-11" d="M369.85,318.24l-.8-.7C369.31,317.78,369.58,318,369.85,318.24Z"/><path class="cls-11" d="M359.85,316.85l-.84.69Z"/><path class="cls-11" d="M374.19,322.57l-.66-.74Z"/><path class="cls-11" d="M309,339.32l-.64-.84Z"/><path class="cls-11" d="M344.57,309.45l.58.8Z"/><path class="cls-11" d="M354.75,321.88l-.69.85Z"/><path class="cls-11" d="M378.53,321.14l.59.68Z"/><path class="cls-11" d="M323.65,309.21l.62,1.05Z"/><path class="cls-11" d="M355.4,321.13l-.69.8Z"/><path class="cls-11" d="M344,308.61l.64.89Z"/><path class="cls-11" d="M372.06,314.53l.91.72Z"/><path class="cls-11" d="M335.13,309.54l.62-.87Z"/><path class="cls-11" d="M322.84,308l.6.76Z"/><path class="cls-11" d="M377.84,320.33l.68.79Z"/><path class="cls-11" d="M336.34,307.93c.26-.26.53-.52.79-.79A.77.77,0,0,1,336.34,307.93Z"/><path class="cls-11" d="M322.12,307.31l.74.76Z"/><path class="cls-11" d="M383,327.45l.68.84Z"/><path class="cls-11" d="M333,313.88c.06-.23.12-.47.19-.7a2.61,2.61,0,0,1,.08.55S333.06,313.83,333,313.88Z"/><path class="cls-11" d="M316.39,308.1c.22-.22.44-.44.65-.67Z"/><path class="cls-11" d="M337.08,307.2l.9-.64Z"/><path class="cls-10" d="M124.66,280.73a5.67,5.67,0,0,1-3,2.13c-2.34-2-3.32.79-4.77,1.53s-2.31,2.36-4.46,2.5c.16-2,1.74-2.64,2.67-3.73s2.24-2.24,1.07-3.34-2.42.59-3.2,1.34c-4.11,3.93-8.4,7.78-10.13,13.51-.36,1.19-1,1.88-2.34,1.72,1-7.82,2.47-15.47,7.65-21.83C114.19,275.21,119.24,278.47,124.66,280.73Z"/><path class="cls-11" d="M108.17,274.56c-5.18,6.36-6.64,14-7.65,21.83l.11,0-2.85.15c-2.45-2.73-.8-5.75-.5-8.62a43.79,43.79,0,0,1,1.27-5.59c.25-.58.49-1.16.73-1.73l0,0,2.86-6C104.09,272.21,106.11,271.87,108.17,274.56Z"/><path class="cls-11" d="M82.8,286.87a42.34,42.34,0,0,1,9.39-16.42c1.88-.92,3.67-1.54,4.22,1.44-4.76,4.92-8.42,10.46-9.63,17.35l.08,0c-1.16,1.56-.75,3.36-.81,5.1l.08-.08-.68.76a3.84,3.84,0,0,1-3.55-.75c-.41-2.19.48-4.25.67-6.37Z"/><path class="cls-13" d="M86.78,289.24c1.21-6.89,4.87-12.43,9.63-17.35,1.65,1.44,3.71,2,5.7,2.76l-2.86,6c-.27-1.52.7-3.62-1.57-4.26-2.45-.69-2.71,1.63-3.73,3C91.51,282.63,91,287.28,86.78,289.24Z"/><path class="cls-13" d="M82.57,287.88c-.19,2.12-1.08,4.18-.67,6.37C80.75,292,80.26,289.78,82.57,287.88Z"/><path class="cls-13" d="M86.05,294.32c.06-1.74-.35-3.54.81-5.1C86.61,290.92,87.65,292.83,86.05,294.32Z"/><path class="cls-10" d="M97.78,296.56l2.85-.15C99.74,297.6,98.78,297.49,97.78,296.56Z"/><path class="cls-13" d="M136.9,290.62a1.68,1.68,0,0,1,.63.12l-.12,2.1C136.69,292.23,136.8,291.42,136.9,290.62Z"/><path class="cls-5" d="M56.37,273.49c0,.2,0,.4,0,.59l-1.48-.27.64-.49Z"/><path class="cls-13" d="M99.28,280.62c-.24.57-.48,1.15-.73,1.73C98.54,281.67,98.5,281,99.28,280.62Z"/><path class="cls-13" d="M118.39,291.38l1-.74Z"/><path class="cls-13" d="M85.45,295l.68-.76Z"/><path class="cls-9" d="M111.59,380.4c0-.45,0-.9.08-1.35C112.22,379.53,112.15,380,111.59,380.4Z"/><path class="cls-13" d="M124,314.18,128,314a1,1,0,0,1,0,.58C126.68,314.43,125.26,314.94,124,314.18Z"/><path class="cls-11" d="M26.07,268.33c1.23-.19,1.69-.73.76-1.81-.67-.78-1.53-1.45-1.38-2.65a34.77,34.77,0,0,1,6,6.33l-.27.32c-.85.5-.66,1.32-.65,2.08l-.26.22A20.21,20.21,0,0,1,26.07,268.33Z"/><path class="cls-11" d="M22.62,261l-.78-.88Z"/><path class="cls-11" d="M24,262.46l-.74-.79Z"/><path class="cls-11" d="M24.74,263.18l-.76-.76Z"/><path class="cls-11" d="M25.47,263.91l-.77-.76Z"/><path class="cls-11" d="M31.42,270.2l.69.77-.24.25-.72-.7Z"/><path class="cls-11" d="M32.11,271l.75.7-.26.27-.73-.72Z"/><path class="cls-11" d="M32.86,271.67l.67.78-.23.22c-.23-.25-.47-.49-.71-.73Z"/><path class="cls-11" d="M23.33,261.72l-.76-.8Z"/><path class="cls-9" d="M297.75,398.43a30.28,30.28,0,0,1,.05-8.45A18.69,18.69,0,0,1,297.75,398.43Z"/><path class="cls-9" d="M297.73,401.32v-1.94A1.3,1.3,0,0,1,297.73,401.32Z"/><path class="cls-4" d="M70.25,339.91c.25-.41.49-.41.74,0Z"/><path class="cls-9" d="M87.66,371h21c0,1.2,0,2.39,0,3.59q-9.8-1.1-19.58-2.19A1.38,1.38,0,0,1,87.66,371Z"/><path class="cls-6" d="M205,382.6c14.67.86,29.34,1.66,44,1.43-.08,11.58.28,23.18-.77,34.74a207.49,207.49,0,0,1-38.42,2.17c-2.15-.09-4.28-.44-6.43-.67Q204.19,401.45,205,382.6Z"/><path class="cls-11" d="M23.92,266.14a1.94,1.94,0,0,1,2.15,2.19A4.9,4.9,0,0,1,23.92,266.14Z"/><path class="cls-11" d="M31.28,274c-.35-.39-.69-.78-1-1.16l.26-.22.81,1.34Z"/><path class="cls-11" d="M21.78,264l.7.74Z"/><path class="cls-11" d="M22.47,264.68l.73.74Z"/><path class="cls-11" d="M23.19,265.41l.74.73Z"/><path class="cls-3" d="M371.3,165.1a2.34,2.34,0,0,1-2.17,0A1.9,1.9,0,0,1,371.3,165.1Z"/><path class="cls-3" d="M396.61,165.54l-1.46-.38C395.79,164.72,396.3,164.75,396.61,165.54Z"/><path class="cls-10" d="M159.25,298.83c-3.09-.8-3.91-3.51-5-6-.51-1.17-1-2.35-1.49-3.53l0-.09a1.59,1.59,0,0,0-.51-1.56c-2.29-10-3.12-20.05-1-30.17,2.91-13.67,8.37-26.15,17.34-37a5.81,5.81,0,0,1,2.06.39c9.51,6.17,19.9,10.42,30.56,14.08l.09.83a36.87,36.87,0,0,1-9.23,12.75c-9.1,8.2-13.58,19-18.48,29.75C170.09,286,165.86,293.28,159.25,298.83Z"/><path class="cls-10" d="M168.48,114.1c1.24-6.46,5.26-11.26,9.6-15.85,25.7-15,52.61-15.67,80.32-6.79,1.14.37,2.36.59,3.1,1.69-11.05,19.59-29.25,28.17-50.15,32.68a32.52,32.52,0,0,1-9.32.57c-1.85-.14-3.65-.88-4.3-2.79a3.72,3.72,0,0,1,1.65-4.4,39.94,39.94,0,0,0,14.9-8.35c.7-.6,1.63-1.28,1.25-2.39s-1.59-1.34-2.66-1.47a7.81,7.81,0,0,0-2.16,0c-6.16.94-12.29,2.18-18,4.69-5.54,2.44-11.55,4.26-15.3,9.61-4.72,1.35-7.5-.44-8.94-5.76C168.47,115.08,168.47,114.59,168.48,114.1Z"/><path class="cls-4" d="M193.26,164.15c0-11.59,8-21.41,21.25-25s25.39-1.75,35.82,7.51c6.94,6.16,9.66,14.1,7.36,23.19-2.18,8.57-7.49,14.4-16.43,16.4-4.54,1-8.89.68-12.83-1.94-1.31-.88-2.36-1.37-3.87-.38C211.5,192.42,192.83,181.47,193.26,164.15Zm8,9c2.94,5.72,8.78,8.41,16,7.36a12.89,12.89,0,0,0,5.77-2.78c2.48-2,4.72-1.93,7,.24,3.24,3,7.07,3.28,11.11,2.07,8.66-2.59,13.3-12.11,10.33-21.09a17,17,0,0,0-8.36-10.86c-10.69-7.78-29.89-6.33-39.08,2.94A18,18,0,0,0,201.24,173.18Z"/><path class="cls-13" d="M305.61,166.29a21.13,21.13,0,0,1-1.37,9.34c-4.73,4.47-10.15,7-16.86,6.57-8.32-.6-14.34-7.34-13-14.89a12.11,12.11,0,0,1,4.67-7.45c6.5-5.12,20.66-4.77,25.56,5.42A4.81,4.81,0,0,0,305.61,166.29Z"/><path class="cls-13" d="M163.39,182.21c-3.78-.17-7.34-1-10.28-3.6-7.17-6.39-6.12-15.6,2.3-20.19,6-3.28,15.57-1.9,20.42,3a11.48,11.48,0,0,1-3.7,19A19.64,19.64,0,0,1,163.39,182.21Z"/><path class="cls-4" d="M185.4,156.12a10.47,10.47,0,0,1-10.83-10.57,11.09,11.09,0,0,1,10.83-10.86,10.79,10.79,0,0,1,10.8,10.74A10.61,10.61,0,0,1,185.4,156.12Z"/><path class="cls-4" d="M277.34,145.56a10.51,10.51,0,0,1-10.9,10.52c-5.75-.12-10.73-5-10.68-10.57s5.3-10.79,11-10.8A10.5,10.5,0,0,1,277.34,145.56Z"/><path class="cls-4" d="M233.08,204.55c-4.05.34-8,.87-12.17.27-4.77-.68-8.15-3.23-11.27-6.45-1.13-1.17-1.95-2.6-.53-4.13s3.07-1.06,4.38.24c4.34,4.31,9.72,4.8,15.4,4.38a14.37,14.37,0,0,0,8.67-4c1.46-1.3,3.06-2.74,4.93-.7s0,3.4-1.07,5c-1.73,2.56-5.11,3-6.88,5.46l0,0c-.5-1.37-1-.65-1.52,0Z"/><path class="cls-8" d="M177.41,121.32c3.75-5.35,9.76-7.17,15.3-9.61,5.71-2.51,11.84-3.75,18-4.69a7.81,7.81,0,0,1,2.16,0c1.07.13,2.25.29,2.66,1.47s-.55,1.79-1.25,2.39a39.94,39.94,0,0,1-14.9,8.35c.91-2.29,3.59-3.16,4.59-5.68-3.47.08-6.38,1.57-9.41,2.53C188.86,117.88,183.49,120.76,177.41,121.32Z"/><path class="cls-3" d="M168.48,114.1c0,.49,0,1,0,1.46-3.15.4-4.23,3.37-6.31,5.08,0-1-.62-1.43-1.51-1.62q2.92-3.51,5.84-7C168,111.86,167.75,113.45,168.48,114.1Z"/><path class="cls-4" d="M233.17,205.36a2.7,2.7,0,0,0,.14-.56c0-.08-.15-.16-.23-.25l0,.07c.5.61,1,.41,1.52,0l0,0c-.61,0-1.18.09-1.41.78Z"/><path class="cls-4" d="M233.13,205.37l-.52.11a2.44,2.44,0,0,0,.16.19,3.9,3.9,0,0,0,.4-.31Z"/><path class="cls-3" d="M210.66,218.27c.26-.35.48-.31.68.06l-.35,0Z"/><path class="cls-3" d="M165.77,206.07l.94.23c-.52.68-.66,0-.92-.26Z"/><path class="cls-3" d="M165.79,206l-.3-.15.28.18Z"/><path class="cls-11" d="M274.3,355.87c1.64-.73,1.85-2.65,3.11-3.72.75-.62,1.43-1.37,2.5-1,1.23.44,1.43,1.59,1.41,2.65,0,1.41-.31,2.82-.48,4.23l0-.05c-1.43.27-1.31,1.8-2.11,2.61-1,1-1.9,2.13-3.62,1.56s-1.66-2.05-1.56-3.49c0-.46,0-.94,0-1.4l-.05.06c.87-.19.86-.83.77-1.51Z"/><path class="cls-11" d="M273.63,357.27a14.81,14.81,0,0,1-1.66,1.78,3.24,3.24,0,0,1-1.91.82c-1.67-.17-2.43-1.28-2.36-3,.09-2.42,2.86-6.13,4.63-6.14,2.11,0,2.11,1.51,2.11,3,0,.71-.09,1.42-.14,2.13l.05-.05c-.73.26-.75.89-.77,1.51Z"/><path class="cls-11" d="M165.29,363.54c-.22-.35-.48-.64-1-.45a1.14,1.14,0,0,0-.67-1.49c-.79-2-1.92-3.92-1.94-6.12,0-1.13,0-2.53,1.32-3.11,1.51-.67,2.13.65,2.81,1.59,1,1.33,1.89,2.73,2.82,4.1l0-.06c.09.42.1.94.78.76l-.06,0C169.37,363.87,169.37,363.87,165.29,363.54Z"/><path class="cls-4" d="M175.15,355.81a12.11,12.11,0,0,0,.33,3.16c.48,1.27.85,2.25-.74,2.91s-2.79.69-3.67-1c-.43-.82-.59-1.87-1.7-2.16l.06,0c-.05-.47-.15-.89-.78-.76l0,.06c.47-1.22-.22-2.29-.46-3.42s-.28-2.48,1-3.07,2.13.41,3.07,1.17c1.12.92.86,3.1,2.9,3.12Z"/><path class="cls-4" d="M175.2,355.86c0-.12,0-.24,0-.36.13-1.81-1.18-3.94.86-5.31a2.16,2.16,0,0,1,2.9.75c1.58,2.1,3.68,4.24,2.83,7.06-.6,2-2.38,2.06-4.05.66-1-.85-1.18-2.43-2.61-2.85Z"/><path class="cls-3" d="M152.22,287.68a1.59,1.59,0,0,1,.51,1.56A1.17,1.17,0,0,1,152.22,287.68Z"/><path class="cls-4" d="M31.31,273.94l-.81-1.34c0-.76-.2-1.58.65-2.08l.72.7.73.72c.23.24.47.48.7.73l0,1.39Z"/><path class="cls-13" d="M217.21,180.54c-7.19,1.05-13-1.64-16-7.36-.14-1.06-.21-2.14-.43-3.19-2.14-10.28,3.75-19.56,14-21.62a86.69,86.69,0,0,1,9.29-.9c6.38-.58,12.67,1,19,.65A17,17,0,0,1,251.46,159c-1.74,1.27-.85,3.11-.93,4.68A12.38,12.38,0,0,1,242.11,175c-4.46,1.68-8.19-.15-12-1.92C225.14,170.82,217.76,175.07,217.21,180.54Zm2.93-20.84a5.39,5.39,0,0,0-5.32-5.62,5.63,5.63,0,0,0-5.58,5.44,5.52,5.52,0,0,0,5.6,5.37A5.25,5.25,0,0,0,220.14,159.7Zm22.41,0a5.43,5.43,0,0,0-5.33-5.61,5.54,5.54,0,0,0-5.34,5.25,5.35,5.35,0,0,0,5.38,5.5A5.12,5.12,0,0,0,242.55,159.74Z"/><path class="cls-12" d="M243.1,148.12c-6.37.34-12.66-1.23-19-.65a86.69,86.69,0,0,0-9.29.9c-10.21,2.06-16.1,11.34-14,21.62.22,1,.29,2.13.43,3.19A18,18,0,0,1,204,151.06C213.21,141.79,232.41,140.34,243.1,148.12Z"/><path class="cls-7" d="M217.21,180.54c.55-5.47,7.93-9.72,12.89-7.43,3.82,1.77,7.55,3.6,12,1.92a12.38,12.38,0,0,0,8.42-11.37c.08-1.57-.81-3.41.93-4.68,3,9-1.67,18.5-10.33,21.09-4,1.21-7.87,1-11.11-2.07-2.32-2.17-4.56-2.25-7-.24A12.89,12.89,0,0,1,217.21,180.54Z"/><path class="cls-14" d="M234.56,204.63c-.51.4-1,.6-1.52,0C233.55,204,234.06,203.26,234.56,204.63Z"/><path class="cls-13" d="M273.58,357.33c0-.62,0-1.25.77-1.51C274.44,356.5,274.45,357.14,273.58,357.33Z"/><path class="cls-13" d="M168.65,358c.63-.13.73.29.78.76C168.75,358.94,168.74,358.42,168.65,358Z"/><path class="cls-11" d="M220.14,159.7a5.25,5.25,0,0,1-5.3,5.19,5.52,5.52,0,0,1-5.6-5.37,5.63,5.63,0,0,1,5.58-5.44A5.39,5.39,0,0,1,220.14,159.7Z"/><path class="cls-11" d="M242.55,159.74a5.12,5.12,0,0,1-5.29,5.14,5.35,5.35,0,0,1-5.38-5.5,5.54,5.54,0,0,1,5.34-5.25A5.43,5.43,0,0,1,242.55,159.74Z"/></g><text class="cls-15" transform="translate(452.09 258.72)">Pig&amp;B<tspan class="cls-16" x="391.72" y="0">r</tspan><tspan x="444.88" y="0">ead</tspan></text></g></g></svg>