<svg xmlns="http://www.w3.org/2000/svg" viewBox="0 0 217.44 78.98"><defs><style>.cls-1{opacity:0.9;}.cls-15,.cls-2{fill:#fff;}.cls-2{opacity:0.2;}.cls-3{fill:#a15679;}.cls-4{fill:#642f64;}.cls-5{fill:#a26b70;}.cls-6{fill:#a1493b;}.cls-7{fill:#bf5f51;}.cls-8{fill:#993837;}.cls-9{fill:#9b4154;}.cls-10{fill:#c46d5e;}.cls-11{fill:#6a264d;}.cls-12{fill:#f6f8ec;}.cls-13{fill:#9a4c76;}.cls-14{fill:#c08da1;}.cls-15{font-size:21px;font-family:Arial-Black, Arial;font-weight:800;opacity:0.3;}.cls-16{letter-spacing:0.02em;}</style></defs><g id="Шар_2" data-name="Шар 2"><g id="layer1"><g class="cls-1"><path class="cls-2" d="M38.14,79a43.13,43.13,0,0,1-11-2.06A39.6,39.6,0,0,1,10,65.52,38.23,38.23,0,0,1,.91,47.76a37.57,37.57,0,0,1,.14-17C4.16,18,11.7,8.85,23.57,3.33A36,36,0,0,1,37,.07,38.3,38.3,0,0,1,66.08,10.48,38.64,38.64,0,0,1,78.2,32.55a39.85,39.85,0,0,1,.58,8.31,2.28,2.28,0,0,0,0,.26,41.74,41.74,0,0,1-1.7,9.66,39.58,39.58,0,0,1-14.88,20.7,38.4,38.4,0,0,1-17.74,7.14A55.88,55.88,0,0,1,38.14,79ZM66.54,64.4h0l.12-.13h0l.13-.14h0l.13-.15,2.34-2.89.14-.15v0c.25-.11.14-.33.17-.51a.71.71,0,0,0,.26-.52.24.24,0,0,0,.11-.06l.16-.06c.19.07.09-.09.12-.15h0l.12-.18.8-1.33a28.71,28.71,0,0,0,2.78-5.81l.47-1c.64-.37,0-.78,0-1.18h0l.13-.16a4.35,4.35,0,0,0,.48-.84,29.57,29.57,0,0,0,1.15-6.47,2.06,2.06,0,0,0,.07-.82,45.81,45.81,0,0,0,0-5.37.81.81,0,0,0-.08-.55l0-.51A22.65,22.65,0,0,0,75.37,31a5.86,5.86,0,0,0-.1-.58A36.21,36.21,0,0,0,63.16,11.13C53.6,3.22,42.64.58,30.64,3.53,17.88,6.67,9.31,14.82,4.61,27.06a34.17,34.17,0,0,0-2.06,9.58,18.64,18.64,0,0,0,0,4.72A17.59,17.59,0,0,0,2.85,45a2.54,2.54,0,0,0,.45,1.53l.13.13h0l.13.13h0l.12.13h0v.26a.26.26,0,0,0-.26.13c-.28.31-.14,1.22.25,1.71.23.7.44,1.39.68,2.08,0,.12,0,.48.34.27l.16-.14,0,0c.19,0,.27.13.22.36a5.26,5.26,0,0,0,0,.89,1.36,1.36,0,0,0,.21,1,1.32,1.32,0,0,0,.29.66,2.13,2.13,0,0,0,.39.9.82.82,0,0,0,.28.47c.1.17.27.14.43.13h0l0,0A.24.24,0,0,0,7,55.7l.23,0,.18.11H7.5c.59.49,1.42.38,2,.88-.58-.18-1.18,0-1.75-.2a1.23,1.23,0,0,0-1.06,0l-.13,0c-.1,0-.09.08,0,.12h0c0,.13,0,.24.18.27l.33.43a5.71,5.71,0,0,0,1.31,2l0,.34c0,.2,0,.4.26.41h0l.13.15h0c0,.19,0,.38.26.39l.13.15a2.42,2.42,0,0,0,1,1.07c-.11.14,0,.25.07.36s.07.24.23.24h.06l.52.78.13.17h0l.14.14h0l.13.14.13.15c0,.11,0,.2.16.23h0l.14.15h0l.14.14h0l.16.14.1,0v.1l.13.15h0l.13.14h0l.13.13h0l.13.14h0l.13.14h0l.13.13h0l.14.13h0l.14.13h0l.13.13h0l.13.13h0l.14.13h0a.26.26,0,0,0,.25.15h0l.15.12a.2.2,0,0,1,.11,0l.13.13c0,.26.18.34.41.42s.5.16.51.49,0,.36.28.39h.11a.32.32,0,0,1,0,.09.16.16,0,0,0,.14.17h0c0,.14.12.16.24.16h0l.14.13h0l.15.13h0c0,.13.13.16.24.16h0l.14.13h0l.17.13,2.7,1.84c.3,0,.36.3.58.39,1.13.74,2.34,1.33,3.52,2a.24.24,0,0,0,.27.13h0a.6.6,0,0,0,.57.26.08.08,0,0,1,.08,0l.2.1h0l0,0a.26.26,0,0,0,.28.13h0a.22.22,0,0,0,.28.13h0c.07.19.24.16.39.15h0a.71.71,0,0,0,.66.27h0c.07.13.19.13.32.11h0l0,0a.3.3,0,0,0,.32.12h0l0,0a.22.22,0,0,0,.28.11h0c.79.57.54-.33.75-.58.29.2.05.53.23.72l.19.26c.13.22.34.14.52.16h0a.28.28,0,0,0,.32.1c.32.07.64.13,1,.21a28.27,28.27,0,0,0,5.92,1c.19-.06.37-.14.54,0s.32.24.53.24c1.6,0,3.2.07,4.78,0a7.44,7.44,0,0,0,2.87-.48l.67-.16c.34-.06.68-.11,1-.18a44.43,44.43,0,0,0,5.64-1.66.26.26,0,0,0,.29-.12l0,0h0c.13,0,.25,0,.31-.13h0a.23.23,0,0,0,.28-.12l.15-.12a.58.58,0,0,1,.53-.28A28.13,28.13,0,0,0,60,70a17,17,0,0,0,3.39-2.71l0-.83c.27-.22.64,0,.91-.23l.16,0c.31-.06.29-.49.62-.53l.16,0c.1.07.09,0,.08-.06h0a.15.15,0,0,0,.15-.14h0a.14.14,0,0,0,.14-.14h0a.14.14,0,0,0,.14-.14h0a.14.14,0,0,0,.14-.14h0A.14.14,0,0,0,66,65h0a.14.14,0,0,0,.14-.15h0c.14,0,.16-.11.18-.22l.13-.14Z"/><path class="cls-3" d="M2.54,41.36a18.64,18.64,0,0,1,0-4.72,34.17,34.17,0,0,1,2.06-9.58c4.7-12.24,13.27-20.39,26-23.53,12-2.95,23-.31,32.52,7.6A36.21,36.21,0,0,1,75.27,30.41a5.86,5.86,0,0,1,.1.58c-.33,0-.48.28-.67.48-.81.88-1.61,1.78-2.42,2.66-1.11,1.21-2.23,2.4-3.33,3.61-2.31,2.56-4.6,5.13-6.92,7.68-1.66,1.83-3.38,3.6-5,5.45a7.76,7.76,0,0,0-1.63,1.94,1.3,1.3,0,0,1-.12-1.07,9.09,9.09,0,0,0,.33-2.13,17.52,17.52,0,0,0-3-10c-.29-.48-.32-.64.24-.91A8.5,8.5,0,0,0,58,31.48a13,13,0,0,0-1.58-7.07,1.47,1.47,0,0,1-.28-.73c.51.19,1,.39,1.44.54a4,4,0,0,0,2.12.27,1.35,1.35,0,0,0,.89-2.23c-.21-.31-.46-.59-.69-.88.23-.2.5-.12.75-.12,2.38,0,4.75,0,7.12,0,.34,0,.8.13.81-.46.41,0,.54-.22.58-.62a1.7,1.7,0,0,0-.8-1.68,2,2,0,0,0-2-.38c-.52.2-.89.16-1.13-.45a1.59,1.59,0,0,0-.79-.83,2.88,2.88,0,0,0-3.16.13c-.32.21-.47.27-.61-.22A2.87,2.87,0,0,0,56,15.28a.88.88,0,0,1-.67.2A4.73,4.73,0,0,0,53.13,14a2,2,0,0,0-1.59-1.29,3.32,3.32,0,0,0-2.14.34c-.33.15-.55.22-.81-.25a7.6,7.6,0,0,0-1.44-1.76,10.6,10.6,0,0,0-5.47-2.74,8.8,8.8,0,0,0-8.5,2.89c-.44.48-.62,1.3-1.12,1.56s-1.32.05-2,.1a2,2,0,0,0-1.9,1.49l-1.18,1c-.48-.1-.72-.54-1.11-.77a3.25,3.25,0,0,0-5.2,2.14c-.07.4-.18.57-.58.27a5.13,5.13,0,0,0-1.83-.82,3.19,3.19,0,0,0-3.81,1.61c-.18.36-.32.49-.74.29a2.66,2.66,0,0,0-3.53.86,1.24,1.24,0,0,0-.2,1.35.84.84,0,0,0,.92.58c.14.48.55.37.88.37,3.28,0,6.57,0,9.85,0,.25,0,.53-.09.76.11-.21.22-.44.43-.63.66-.45.53-.77,1.1-.35,1.78a1.64,1.64,0,0,0,1.78.68,10.32,10.32,0,0,0,3.14-1.06L26,24a13,13,0,0,0-1.54,8,8.46,8.46,0,0,0,4.33,6.24c.32.19.34.31.12.59a12.24,12.24,0,0,0-.7,1A16.25,16.25,0,0,0,25.55,50.4a2.26,2.26,0,0,1,0,.52.47.47,0,0,1-.23.44c-.21.1-.29-.12-.41-.23a15.18,15.18,0,0,0-12.21-3.76A23.74,23.74,0,0,0,9,48.22c0-.22-.18-.34-.31-.48C7.06,46,5.44,44.22,3.79,42.48A3.64,3.64,0,0,0,2.54,41.36ZM65,30H60.69c-.23,0-.56,0-.56.3s.34.2.53.27a.29.29,0,0,0,.13,0c3.66,0,7.32.1,11-.07.19,0,.42,0,.43-.28A.49.49,0,0,0,72.9,30c.17-.31,0-.49-.22-.67a1.32,1.32,0,0,1-.4-.51,2.12,2.12,0,0,0-2.12-1.45,2.43,2.43,0,0,0-2.22,1.27.64.64,0,0,1-.67.4c-.77-.06-1.34.54-2.06.65C65.11,29.68,65,29.86,65,30Zm-50.36,0c-.2-.75-.87-.86-1.45-.88a1.13,1.13,0,0,1-1.08-.72A2.93,2.93,0,0,0,8.42,27a4.72,4.72,0,0,0-2.28,2.32c-.31.49.07.93.77,1a1,1,0,0,0,.73.24q6.48,0,13,0c.27,0,.8.1.8-.32s-.51-.29-.81-.29C18.59,29.93,16.6,29.94,14.6,29.94Zm2.89,10.92h3.75c.23,0,.56.06.57-.27s-.34-.26-.56-.26l-5.39,0c-.65,0-1.31,0-2,0-.24,0-.63,0-.62.29s.38.2.61.2ZM56.27,11.28c0-.21-.14-.29-.34-.27a.29.29,0,0,0-.31.33.3.3,0,0,0,.35.3A.33.33,0,0,0,56.27,11.28Zm-31.56-.19a.32.32,0,0,0-.3-.35c-.21,0-.34.07-.35.28a.33.33,0,0,0,.29.37C24.56,11.41,24.66,11.28,24.71,11.09ZM15.62,25.88a.26.26,0,0,0,.3-.27c0-.18-.06-.31-.25-.32a.32.32,0,0,0-.35.31C15.31,25.78,15.45,25.87,15.62,25.88Z"/><path class="cls-4" d="M27,15.35l1.18-1a3.41,3.41,0,0,1,4.41,1.1c.19.27.28.31.59.13A15.72,15.72,0,0,1,43.28,13.7a15.9,15.9,0,0,1,5.83,2c.2.11.35.24.54,0A3.62,3.62,0,0,1,53.13,14a4.73,4.73,0,0,1,2.23,1.47,51.62,51.62,0,0,0,4,5.22l.6.68c.23.29.48.57.69.88a1.35,1.35,0,0,1-.89,2.23,4,4,0,0,1-2.12-.27c-.47-.15-.93-.35-1.44-.54a1.47,1.47,0,0,0,.28.73A13,13,0,0,1,58,31.48a8.5,8.5,0,0,1-5.17,7.27c-.56.27-.53.43-.24.91a17.52,17.52,0,0,1,3,10,9.09,9.09,0,0,1-.33,2.13,1.3,1.3,0,0,0,.12,1.07,16.74,16.74,0,0,1,.77,3.95L56,60.25h.12l.16-.34c.12-.08.11-.2.1-.33l0-.19c.16-.11.13-.26.11-.42h0l.1,0-.08-.07,0-.26a1.87,1.87,0,0,0,.37-1.46h0c.45-.08.22-.43.27-.67h0a.26.26,0,0,0,.14-.29l.08-.22h.08l.11-.12h.93l.13.13h0l.11.14a.05.05,0,0,1,0,.07l.12.19a1.27,1.27,0,0,1,.28.61.27.27,0,0,0,.11.31,1.05,1.05,0,0,1,.15.6c0,.25-.13.54.16.73l0,0c0,.11-.16.3.1.35h.15c.24,0,.07-.22.1-.32s0-.07,0-.09.12-.21.11-.34v0l0,0c.17-.11.14-.27.13-.43a.14.14,0,0,1,0-.11.24.24,0,0,0,.11-.27h0c.15-.07.15-.19.13-.32a.05.05,0,0,1,0-.07l0,0a.44.44,0,0,0,0-.1l.08-.14a.23.23,0,0,0,.14-.26h0a.26.26,0,0,0,.14-.26h0l.11-.16v0l.13-.16h0a.14.14,0,0,0,.14-.14h0l.17-.12h0l.7,0h0c0,.15.12.17.24.17h0c0,.12,0,.23.17.24h0l.11.16h0l.1.14.18.28s0,.06,0,.09A.26.26,0,0,0,63,57s0,0,0,.07,0,.25.12.32a.06.06,0,0,1,0,.08c0,.16-.06.34.13.44h0a.26.26,0,0,0,.1.27l.15.14c.19.1.1-.07.13-.13h0l.12-.14h0l.13-.15h0c.27,0,.29-.17.29-.36l.14-.15c.28,0,.5-.07.51-.41h0A8.07,8.07,0,0,1,67,56.76h0c0,.45.36.4.67.39h0l.17.13.23,0,.4.38v.22l.13.16h0l.14.15h0l.12.15h0l.1.12a.1.1,0,0,1,.05.08l.13.18h0l.12.15h0c0,.12,0,.22.16.25h0l.13.15h0c0,.12,0,.23.17.25h0l.12.16h0l.12.15h0v.14a.71.71,0,0,1-.26.52l-.3-.12h0l-.12-.15h0c0-.2,0-.39-.27-.39h0l-.11-.14h0c0-.11,0-.21-.16-.24h0l-.12-.15h0c0-.12,0-.22-.17-.24h0l-.13-.14h0l-.13-.14h0L68,58.61h0l-.12-.14h0c0-.12,0-.22-.17-.23h0a.14.14,0,0,0-.14-.14h0c0-.14-.11-.16-.23-.17l-.14-.13-.15-.12h0c0-.33-.25-.27-.46-.25,0,0,0,0-.06,0-.31-.56-.61-.24-.91,0h0c-.12,0-.23,0-.27.14h0l-.15.12-.15.12c-.11,0-.21,0-.22.18v0c-.22,0-.29.18-.3.38h0l-.12.14h0l-.13.16h0c-.14,0-.16.13-.16.25h0a.26.26,0,0,0-.15.25h0l-.12.15h0a.25.25,0,0,0-.15.26h0l-.11.15h0c-.14,0-.16.14-.15.26h0c-.12,0-.14.14-.14.26h0c-.36-.08-.39-.37-.39-.65a.92.92,0,0,0-.29-.81v0a2,2,0,0,0-.79-2l-.22-.13-.15.14h0c-.32,0-.27.24-.26.44,0,0,0,0,0,.07a.29.29,0,0,0-.13.27h0c-.31.13-.27.4-.25.67h0c-.31.21-.29.53-.26.85v0l0,0c-.08.07-.21.13-.23.21-.11.6-.21,1.19-.31,1.79-.14.83-.33,1.66-.39,2.52-.09-1-.25-2-.42-2.91s0-2-.66-2.92h0a.26.26,0,0,0-.1-.27l0-.2c0-.13,0-.26-.14-.32s-.13-.32-.35-.26-.42.32-.47.55a17.07,17.07,0,0,0-.86,4.25c0,.28-.06.47-.39.44h0c0-.11,0-.21-.16-.25h0L56,61.5h0c0-.13-.05-.23-.2-.25-.3-.27-.3,0-.36.2-.34.89-.79,1.73-1.21,2.59a2.59,2.59,0,0,0,.05,2.24c.07.27.29.21.48.21h3.72a.89.89,0,0,0,.66-.24l.13,0c.23-.59.44,0,.65,0h0a11.52,11.52,0,0,0,3.42.25l0,.83-.21,0a1.27,1.27,0,0,0-.69-.15H54.75c-.2,0-.45-.1-.56.18l-.12.08-.52.13a.3.3,0,0,0-.28-.25,4.41,4.41,0,0,0-2.52,0H50a1.19,1.19,0,0,0-1.33,0,1,1,0,0,1-.55,0,5.49,5.49,0,0,0-2.06,0l-.14,0a.48.48,0,0,1-.54,0l-.13-.07c-.08-.26-.31-.19-.49-.19H37.88c-.2,0-.45-.08-.53.22l0,0-.56.14a.6.6,0,0,0-.64-.23c-2,.2-4.08-.09-6.12,0-.58-.42-1.16.06-1.75,0l-.35,0a.38.38,0,0,0-.35-.13H20.79c-.19,0-.36,0-.4.24l0,.16a.8.8,0,0,1-.6-.15c0-.13-.11-.24-.27-.24a28.34,28.34,0,0,0-4.22.12c0-.33-.27-.42-.51-.49s-.4-.16-.41-.42c1.53,0,3.06,0,4.58.12a3.25,3.25,0,0,1,1.71.31.53.53,0,0,0,.62,0,2.44,2.44,0,0,1,1.45-.29c.85,0,1.71,0,2.56,0,.45,0,1,.06,1.3-.39h0L26.7,66h0l.14-.14h0L27,65.7h0c.3,0,.28-.21.27-.41a.14.14,0,0,1,0-.11l.11-.14h0c.1,0,.1-.07,0-.12a.21.21,0,0,1,0-.11l-.12-.15h0a.23.23,0,0,0-.15-.25,11,11,0,0,1-1.38-2.25c-.15-.65-.53-.42-.9-.24-3.84.34-7.67-.16-11.51-.15.15-.18.36-.11.55-.13,1.12-.1,2.23-.07,3.36-.19a24.29,24.29,0,0,1,5.26-.1A3.84,3.84,0,0,0,25,60.83a.6.6,0,0,0,.09-.49,14.58,14.58,0,0,1-.49-3.21c0-.19,0-.35-.26-.38s-.19-.11-.26,0a.11.11,0,0,1-.1,0c-.15,0-.31,0-.42.11a.25.25,0,0,1-.12,0h-.65a35.32,35.32,0,0,1-3.85,0c-.17,0-.47.08-.46-.21s.3-.17.48-.18c.36,0,.75.07,1-.26h.27A5.47,5.47,0,0,0,23.41,56h.24a.26.26,0,0,0,.29-.12.21.21,0,0,1,.11,0c.12,0,.23,0,.28-.14l.27-.25c.5-.15.22-.59.3-.89A2.4,2.4,0,0,0,25,52.81c0-.11-.05-.21-.18-.23h0a.32.32,0,0,0-.26-.29l-.38-.4-.13-.13-.13-.13-.13-.13h0A2,2,0,0,0,23,51a4.35,4.35,0,0,0-1.65-1.13,14.44,14.44,0,0,0-5.77-1.5,16.78,16.78,0,0,0-5.24.58,1.25,1.25,0,0,0,.72.67l0,.17.14.17h0l.13.14h0l.13.14h0c0,.27-.07.44-.38.4v0a.25.25,0,0,0-.18-.23l-.1-.12-.14-.15h0l-.13-.14h0l-.14-.13h0l-.11-.15-.21-.11a.88.88,0,0,0-1.16-.13,9,9,0,0,1-1,.5c-.41.17-.35.33,0,.53l.16.12H8l.17.13a.26.26,0,0,1,.22.15c-.16.38-.42.15-.65.13h0l-.15-.12H7.48a.61.61,0,0,0-1,0A7.2,7.2,0,0,0,5,52.45a5.26,5.26,0,0,1,0-.89c.05-.23,0-.31-.22-.36.18-.48.69-.64,1-1,.25,0,.24-.21.24-.39l.17,0A22.12,22.12,0,0,1,9,48.22a23.74,23.74,0,0,1,3.69-.85A15.18,15.18,0,0,1,24.9,51.13c.12.11.2.33.41.23a.47.47,0,0,0,.23-.44,2.26,2.26,0,0,0,0-.52A16.25,16.25,0,0,1,28.2,39.92a12.24,12.24,0,0,1,.7-1c.22-.28.2-.4-.12-.59a8.46,8.46,0,0,1-4.33-6.24A13,13,0,0,1,26,24l.34-.6a10.32,10.32,0,0,1-3.14,1.06,1.64,1.64,0,0,1-1.78-.68c-.42-.68-.1-1.25.35-1.78.19-.23.42-.44.63-.66l.54-.72c.18-.19.37-.36.54-.56C24.74,18.58,25.79,16.91,27,15.35ZM52.33,65.43h0l.13-.18c.41-.69.82-1.37.11-2.12a2.46,2.46,0,0,0-1.16-.71,4.32,4.32,0,0,0-5,3.38c-.06.42.08.54.48.54,1.48,0,3,0,4.45,0a.72.72,0,0,0,.73-.62v-.15h.12ZM29.86,66a.13.13,0,0,0,.12.14,1.1,1.1,0,0,0,.85.22c1.27,0,2.54,0,3.81,0,.65,0,.72-.14.5-.77a4.91,4.91,0,0,0-2.73-3,3,3,0,0,0-3.17.3,1.17,1.17,0,0,0-.41,1.7,4,4,0,0,0,.83,1.17C29.71,65.85,29.74,66,29.86,66Zm-2.64-3.39v0a.28.28,0,0,0,.14.28l.23.54a3.68,3.68,0,0,1,3.93-2.13,9.06,9.06,0,0,1,1.86.55,6,6,0,0,1,2.83,3.54c.07.27.31.29.51.33a24,24,0,0,0,8,0c.41-.07.71-.22.79-.7a3.36,3.36,0,0,1,.6-1.3,6.74,6.74,0,0,1,3.07-2.33A4.79,4.79,0,0,1,53,62l.8.69c1.37-2.32,1.79-7.11.73-8.82l-.84,1.55c-.42.54-.85,1.15-1.57,1.19a6.17,6.17,0,0,0-1.44.33,2.64,2.64,0,0,1-.84.14c-2.07,0-3.37-1.41-2.44-3.37a5.3,5.3,0,0,0,.35-1.13,5.78,5.78,0,0,0-.55-3.56c-.16-.36-.15-.65.23-.82s.57.1.72.38a7.9,7.9,0,0,1,.68,1.91,7.54,7.54,0,0,1-.65,4.34c0,.1,0,.27,0,.28s.11-.11.17-.17.3-.54.65-.42.1.59.22.93c.26-.3.33-.74.8-.73s.31.37.41.6c.34-.24.57-.6,1-.44l0,.88a2.2,2.2,0,0,0,1.32-1,10.16,10.16,0,0,0,1.79-5.48,17.21,17.21,0,0,0-3.15-9.58c-.2-.33-.42-.22-.66-.15a31.71,31.71,0,0,1-5.88,1c-.65.06-.84-.16-.81-.84a25.66,25.66,0,0,1,2.6-.44c.2,0,.41.07.56-.12h.22a13.24,13.24,0,0,0,6.11-2,7,7,0,0,0,3.25-4.75c.67-4.06-.83-7.45-3.43-10.46-.18-.46-.73-.73-.62-1.32.43-.3.75-.14,1.07.21a9.32,9.32,0,0,0,5.09,2.65c.3.07.68.17.91-.16s-.07-.43-.21-.58C58,21,56.59,19,55.1,17.07c0-.13,0-.21-.13-.28h0l-.13-.14h0a2.1,2.1,0,0,0-.76-.93,2.14,2.14,0,0,0-3.6.66h0c-.24.27-.33.54,0,.82h0c0,.22.38.41.12.63s-.4-.08-.57-.18-.47-.3-.7-.44a14.1,14.1,0,0,0-11-2.45A17.1,17.1,0,0,0,32,17.41c0-.78-.08-1.54-.9-1.95l-.16-.11h0a2.3,2.3,0,0,0-3.18.77c-1.06,1.39-2.06,2.83-3.08,4.25-.18.07-.13.25-.17.38a.37.37,0,0,0-.25.29c-.13,0-.3,0-.29.23h0c-.09,0-.13,0-.13.13h0a2.69,2.69,0,0,0-.77.77c-.28.37-1,.73-.67,1.18s1,.09,1.49-.09a2.49,2.49,0,0,0,.37-.09A10.25,10.25,0,0,0,28,20.93c.49-.48.74-.39,1,.21-.09.38-.49.62-.45,1.05h0c-.09,0-.1.06-.11.13a13.25,13.25,0,0,0-3,6.78A8.15,8.15,0,0,0,30.51,38a24.81,24.81,0,0,0,7.11,1.51l.37.15c.08.43,0,.8-.48.92A49.21,49.21,0,0,1,31,39.48a1.12,1.12,0,0,1-.31-.1c-.55-.36-.86-.12-1.18.37a18.36,18.36,0,0,0-2.38,4.77,10.52,10.52,0,0,0,.37,8.32l.07.13.06.13a6.26,6.26,0,0,0,1.9,2.51c.12.09.26.23.39.14s.09-.27,0-.43,0-.41.28-.44c.49-.05.61.39.87.67.16-.24-.16-.59.23-.75s.55.28.89.46c0-.31,0-.55.25-.7s.42.17.71.22c-.16-.43-.31-.77-.43-1.12a6.7,6.7,0,0,1,.26-4.92c.12-.29.25-.57.71-.41s.36.44.25.72a6.65,6.65,0,0,0,.13,5.16A2,2,0,0,1,33,56.85a3.93,3.93,0,0,1-1.67.25c-.58,0-1.05-.43-1.62-.44a2,2,0,0,1-1.43-.7,13.56,13.56,0,0,1-1.39-2l-.65-1.49a14.76,14.76,0,0,0-.61,3.82,10.85,10.85,0,0,0,1.51,6.11h0C27.11,62.5,27.12,62.58,27.22,62.58Zm.42,3.7c.38,0,.39-.25.4-.58C27.85,65.9,27.65,66,27.64,66.28Zm4.65-11s0,.07,0,.1,0,.07,0,.11a.24.24,0,0,0,.05-.1S32.31,55.37,32.29,55.33Zm18,.15s0,0,0,0,.06.07.09,0a.08.08,0,0,0,0,0Z"/><path class="cls-5" d="M59.85,59H59.7c0-.13,0-.26-.1-.35l0,0a1.53,1.53,0,0,0-.16-.73,1.05,1.05,0,0,0-.15-.6A.33.33,0,0,0,59.2,57a1.27,1.27,0,0,0-.28-.61l-.12-.19a.05.05,0,0,0,0-.07L58.66,56h0l-.13-.13h0a.64.64,0,0,0-.67-.24c.71-.91,1.59-1.67,2.36-2.54,2.06-2.31,4.18-4.57,6.29-6.84s4.21-4.43,6.26-6.7c1.1-1.21,2.31-2.32,3.39-3.55a.84.84,0,0,1,.08.56c-.15.19-.09.42-.09.63,0,1.37,0,2.75,0,4.12,0,.21-.07.44.1.62a2.06,2.06,0,0,1-.07.82c-.26,0-.4.14-.55.3-.4.4-.77.83-1.15,1.25-2.15,2.32-4.34,4.62-6.5,6.93-.55.59-1.06,1.22-1.61,1.81-1.15,1.22-2.32,2.43-3.48,3.64l-.18-.28-.1-.14h0l-.11-.16h0a.29.29,0,0,0-.17-.24h0a.27.27,0,0,0-.24-.17h0a.52.52,0,0,0-.7,0h0l-.17.12h0l-.14.14h0L61,56.1v0l-.11.16h0l-.14.26h0a.3.3,0,0,0-.14.26l-.08.14,0,.13a.05.05,0,0,0,0,.07.39.39,0,0,0-.13.32h0a.26.26,0,0,0-.11.27.14.14,0,0,0,0,.11.51.51,0,0,0-.13.43l0,0v0a.36.36,0,0,0-.11.34s0,0,0,.09A.34.34,0,0,0,59.85,59Z"/><path class="cls-5" d="M56.17,56.76a16.74,16.74,0,0,0-.77-3.95A7.76,7.76,0,0,1,57,50.87c1.62-1.85,3.34-3.62,5-5.45,2.32-2.55,4.61-5.12,6.92-7.68,1.1-1.21,2.22-2.4,3.33-3.61.81-.88,1.61-1.78,2.42-2.66.19-.2.34-.48.67-.48a22.65,22.65,0,0,1,.74,4.48c-.28,0-.4.24-.57.4-1.34,1.34-2.63,2.75-3.91,4.15-1.57,1.73-3.16,3.45-4.75,5.16-2.66,2.84-5.34,5.66-8,8.53A8.13,8.13,0,0,0,57.06,56,1.15,1.15,0,0,0,56.17,56.76Z"/><path class="cls-6" d="M62.89,56.65c1.16-1.21,2.33-2.42,3.48-3.64.55-.59,1.06-1.22,1.61-1.81,2.16-2.31,4.35-4.61,6.5-6.93.38-.42.75-.85,1.15-1.25.15-.16.29-.34.55-.3A29.57,29.57,0,0,1,75,49.19a4.35,4.35,0,0,1-.48.84l-.13.16h0c-2.22,2.3-4.29,4.75-6.42,7.13l-.23,0-.17-.13h0a.93.93,0,0,0-.67-.39h0a1.8,1.8,0,0,0-2.13.26h0a.87.87,0,0,0-.51.41l-.14.15a.56.56,0,0,0-.29.36h0l-.13.15h0l-.12.14h0l-.13.13-.15-.14a.24.24,0,0,0-.1-.27h0a.54.54,0,0,0-.13-.44.06.06,0,0,0,0-.08A.36.36,0,0,0,63,57.1s0-.05,0-.07a.28.28,0,0,0-.12-.29S62.88,56.68,62.89,56.65Z"/><path class="cls-6" d="M62.71,58.68v0c.07.48.14,1,.23,1.42,0,.14,0,.37.19.37s.23-.18.26-.33h0l.14-.26h0a.28.28,0,0,0,.15-.26h0l.11-.15h0a.28.28,0,0,0,.15-.26h0l.12-.15h0l.15-.25h0a.27.27,0,0,0,.16-.25h0l.13-.16h0l.12-.14h0a.6.6,0,0,0,.3-.38v0a.29.29,0,0,0,.22-.18l.15-.12.15-.12h0a.32.32,0,0,0,.27-.14h.9s0,0,.06,0l.46.25h0l.15.12.14.13a.29.29,0,0,0,.23.17h0l.14.14h0l.17.23h0l.12.14h0l.12.14h0l.13.14h0l.13.14h0a.31.31,0,0,0,.17.24h0l.12.15h0a.31.31,0,0,0,.16.24h0l.11.14h0a.67.67,0,0,0,.27.39h0l.12.15h0c0,.21.22.39.13.63v0l-.14.15L66.93,64l-.13.15h0l-.13.14h0l-.12.13h0l-.12.13-.13.14a.24.24,0,0,0-.18.22h0L66,65h0l-.14.14h0l-.14.14h0l-.14.14h0l-.14.14h0l-.15.14h0a.08.08,0,0,0-.08.06l-.16,0C65,64.86,65,64,65,63.15c0-.37-.14-.56-.52-.33-.22.17-.13.41-.14.61,0,.7,0,1.4,0,2.1,0,.46-.15.6-.6.58-1,0-2,0-3.08,0-.43,0-.55-.15-.56-.57a9,9,0,0,0-.07-2.2A35.17,35.17,0,0,1,60.64,59l0,0v0a1.84,1.84,0,0,0,.26-.85h0a1.13,1.13,0,0,0,.25-.67h0a.3.3,0,0,0,.13-.27s0,0,0-.07a.77.77,0,0,0,.26-.44h0l.15-.14.22.13A18.69,18.69,0,0,1,62.71,58.68Z"/><path class="cls-7" d="M10.79,50.21l.1.12.18.23v0a9.93,9.93,0,0,1,1.15,2.55c.1.41.34.39.63.2.44-.22.47-.56.33-1a6.74,6.74,0,0,0-1.53-2.72,7,7,0,0,1,3-.35c1,0,1.1.2.64,1.07A1.9,1.9,0,0,0,15,52.12l0,.19c-.42.34-.33.74-.12,1.15a.7.7,0,0,0,.65.14l.12-.14,0,0c.29-.28.11-.62.15-.93h0c.76-.35.86-1.2,1.3-1.79.19-.25.23-.67.68-.54s.23.5.28.77h0c-.14.06-.14.19-.13.31a8.89,8.89,0,0,0-.24,1c-.05.52-.35,1.07.1,1.56.18.17.35.19.51,0h0c.24,0,.36-.09.43-.31a5.88,5.88,0,0,1,1.84-2.46c.14-.13.37-.44.58-.24s0,.42-.19.61-.46.32-.49.68c.39,0,.56-.33.81-.46s.44-.64.87-.28l-.3.24a7.18,7.18,0,0,0-1.61,1.5c-.18.23-.31.5,0,.73s.46,0,.64-.21.44-.47.66-.71l.19-.13h0a1,1,0,0,0,.9-.24c.61-.59,1.08-.61,1.63-.06.19.19.37.38.67.3h0c0,.15,0,.3.1.41l-.37,1.86a29.71,29.71,0,0,0-5.73-.5c-3.36-.09-6.74,0-10.1-.18A5.64,5.64,0,0,0,5.91,55a2.13,2.13,0,0,1-.39-.9,28.26,28.26,0,0,1,1.79-2.8c.1-.18.29-.15.47-.15a5.09,5.09,0,0,1,1.91,2.34c.08.16.11.4.36.42s.34-.23.43-.43c.32-.27.17-.58,0-.87a3.92,3.92,0,0,0-1.82-2.17c.4-.32.94-.16,1.14-.63l.13,0,.27,0h.14l.14.13h0l.13.14h0Z"/><path class="cls-6" d="M36.4,76.34a28.27,28.27,0,0,1-5.92-1c-.32-.08-.64-.14-1-.21a.34.34,0,0,0-.32-.1h0a.71.71,0,0,0-.52-.16l-.19-.26L28.81,69a3.73,3.73,0,0,0,1.1.14c1.15.05,2.29.12,3.44.18l3.25.17Z"/><path class="cls-6" d="M52.81,74h0l0,0a.32.32,0,0,0-.29.12,44.43,44.43,0,0,1-5.64,1.66c-.34.07-.68.12-1,.18,0-2,.08-4.11.13-6.16a1.33,1.33,0,0,0,.76.12l6.81,0,0,3.67-.15.12a.31.31,0,0,0-.28.12h0A.34.34,0,0,0,52.81,74Z"/><path class="cls-6" d="M24.6,73.34a.09.09,0,0,0-.09,0,.91.91,0,0,0-.56-.26h0a.29.29,0,0,0-.27-.13c-1.18-.65-2.39-1.24-3.52-2l.12-1.83c.1-.08.11-.16,0-.25l.08-.56,7.77.67c-.07,1.72-.15,3.43-.2,5.15,0,.33-.14.41-.44.36h0a.3.3,0,0,0-.28-.11l0,0h0a.37.37,0,0,0-.32-.12l0,0h0a.37.37,0,0,0-.32-.11h0a1.21,1.21,0,0,0-.66-.27h0a.48.48,0,0,0-.39-.15h0c-.06-.11-.17-.12-.28-.13h0a.32.32,0,0,0-.28-.13l0,0h0Z"/><path class="cls-8" d="M5.91,55a5.64,5.64,0,0,1,2.86-.58c3.36.14,6.74.09,10.1.18a29.71,29.71,0,0,1,5.73.5v.38l-.27.25a.35.35,0,0,0-.28.14.21.21,0,0,0-.11,0,.31.31,0,0,0-.29.12h-.24a30.17,30.17,0,0,0-3.15.26H20a20,20,0,0,0-3.37.33,21.68,21.68,0,0,1-5.09.09c-1.38-.14-2.68-.6-4-.84H7.42l-.18-.11L7,55.7a.3.3,0,0,0-.29-.12l0,0h0a.46.46,0,0,0-.43-.13A.82.82,0,0,1,5.91,55Z"/><path class="cls-7" d="M24.8,61.91c.37-.18.75-.41.9.24-.31.28,0,.52.08.75a2.68,2.68,0,0,1,.13,1.85c-.09.28-.23.51-.55.41A7.86,7.86,0,0,0,24,65c-1.82-.22-3.64-.49-5.46-.59a42.6,42.6,0,0,0-6.29,0l-.1,0L12,64.24h0l-.14-.14h0L11.73,64h0a.25.25,0,0,0-.16-.23l-.13-.15-.13-.14h0l-.14-.14h0l-.13-.17-.52-.78a1.21,1.21,0,0,1,.37-.07,94.79,94.79,0,0,0,11.43.18A4.5,4.5,0,0,0,24.8,61.91Z"/><path class="cls-8" d="M24,56.78a.11.11,0,0,0,.1,0l.26,0c.23,0,.25.19.26.38a14.58,14.58,0,0,0,.49,3.21.6.6,0,0,1-.09.49,10.1,10.1,0,0,1-3.37.25c-1.87-.2-3.75-.1-5.62-.2s-4,0-6,0a1.42,1.42,0,0,1-.76-.12l-.13-.15a.41.41,0,0,0-.26-.39h0L8.69,60h0a.53.53,0,0,0-.26-.41l0-.34c.17-.25.43-.15.66-.16,1.77-.1,3.53-.1,5.3,0,2.33.07,4.66.22,7,.34a7.31,7.31,0,0,1,2.46.24c.55.23.58-.08.5-.45a4.85,4.85,0,0,0-1.06-2.08.34.34,0,0,0,0-.1l.17-.14a.25.25,0,0,0,.12,0A.41.41,0,0,0,24,56.78Z"/><path class="cls-7" d="M23.27,57.15a4.85,4.85,0,0,1,1.06,2.08c.08.37.05.68-.5.45a7.31,7.31,0,0,0-2.46-.24c-2.34-.12-4.67-.27-7-.34-1.77-.06-3.53-.06-5.3,0-.23,0-.49-.09-.66.16a5.71,5.71,0,0,1-1.31-2c0-.31.24-.2.38-.16a25.07,25.07,0,0,0,3.2.61,22.35,22.35,0,0,0,6.83.09,17.12,17.12,0,0,1,4.39-.57c.13,0,.26,0,.31-.17l.31,0C22.76,57.22,23,57.13,23.27,57.15Z"/><path class="cls-8" d="M12.25,64.4a42.6,42.6,0,0,1,6.29,0c1.82.1,3.64.37,5.46.59a7.86,7.86,0,0,1,1.36.15c.32.1.46-.13.55-.41a2.68,2.68,0,0,0-.13-1.85c-.09-.23-.39-.47-.08-.75a11,11,0,0,0,1.38,2.25.29.29,0,0,0,.15.25h0l.12.15a.21.21,0,0,0,0,.11.49.49,0,0,0,0,.12h0l-.11.14a.14.14,0,0,0,0,.11.54.54,0,0,0-.27.41h0l-.13.13h0l-.14.14h0l-.14.13h0a5.47,5.47,0,0,1-1.61.15H14.21a.2.2,0,0,0-.11,0L14,66.11h0a.25.25,0,0,0-.25-.15h0l-.14-.13h0l-.13-.13h0l-.13-.13h0l-.14-.13h0L13,65.31h0l-.13-.13h0L12.77,65h0l-.13-.14h0l-.13-.13h0l-.13-.14h0l-.13-.15Z"/><path class="cls-6" d="M9,48.22a22.12,22.12,0,0,0-2.77,1.56c0-.1,0-.22-.14-.28L6,49.36l-.14-.13-.12-.14a6.58,6.58,0,0,0-1.09-1.15h0l-.14-.14h0l-.14-.14h0l-.13-.15h0l-.14-.14h0L4,47.26a.1.1,0,0,0-.06-.09.36.36,0,0,0-.22-.26h0l-.12-.13h0l-.13-.13h0l-.13-.13A2.54,2.54,0,0,1,2.85,45a17.59,17.59,0,0,1-.31-3.62,3.64,3.64,0,0,1,1.25,1.12c1.65,1.74,3.27,3.5,4.9,5.26C8.82,47.88,9,48,9,48.22Z"/><path class="cls-9" d="M54.07,67.42l.12-.08c2.92,0,5.85,0,8.78,0a.45.45,0,0,0,.18-.07l.21,0A17,17,0,0,1,60,70c-.08,0-.15-.12-.23-.11-1.8,0-3.6.08-5.4.13-.08,0-.15.08-.23.12Z"/><path class="cls-6" d="M68.4,57.91v-.22A8.21,8.21,0,0,0,69,57.1l4.78-5.33.15.57a28.71,28.71,0,0,1-2.78,5.81l-.8,1.34-.12.17h0l-.12.15-.16.06-.11-.08h0l-.12-.15h0l-.12-.16h0a.3.3,0,0,0-.17-.25h0l-.13-.15h0c0-.08-.11-.16-.16-.25h0l-.12-.15h0l-.13-.18a.1.1,0,0,0-.05-.08l-.1-.12h0l-.12-.15h0l-.14-.15h0Z"/><path class="cls-10" d="M57.06,56a8.13,8.13,0,0,1,1.85-2.27c2.63-2.87,5.31-5.69,8-8.53,1.59-1.71,3.18-3.43,4.75-5.16,1.28-1.4,2.57-2.81,3.91-4.15.17-.16.29-.4.57-.4l0,.5c-1.08,1.23-2.29,2.34-3.39,3.55-2,2.27-4.17,4.47-6.26,6.7s-4.23,4.53-6.29,6.84c-.77.87-1.65,1.63-2.36,2.54l-.25.25h0l-.11.12h-.43Z"/><path class="cls-11" d="M22.52,57.08l-.31,0a60.29,60.29,0,0,0-6.7.54,19.94,19.94,0,0,1-8.79-1.2,1.23,1.23,0,0,1,1.06,0c.57.25,1.17,0,1.75.2-.61-.5-1.44-.39-2-.88,1.35.24,2.65.7,4,.84a21.68,21.68,0,0,0,5.09-.09A20,20,0,0,1,20,56.25c-.29.33-.68.23-1,.26-.18,0-.47-.09-.48.18s.29.18.46.21a35.32,35.32,0,0,0,3.85,0h.65l-.17.14Z"/><path class="cls-6" d="M54.11,70.18c.08,0,.15-.12.23-.12,1.8,0,3.6-.1,5.4-.13.08,0,.15.07.23.11a28.13,28.13,0,0,1-5.9,3.28l0-.4a.25.25,0,0,0,0-.36v-.17a3.3,3.3,0,0,0,0-1.53Z"/><path class="cls-12" d="M24.8,61.91a4.5,4.5,0,0,1-2.45.59,94.79,94.79,0,0,1-11.43-.18,1.21,1.21,0,0,0-.37.07h-.06l-.23-.24c0-.11-.18-.22-.07-.36a10,10,0,0,0,2.57,0h.53C17.13,61.75,21,62.25,24.8,61.91Z"/><path class="cls-11" d="M12.76,61.76a10,10,0,0,1-2.57,0,2.42,2.42,0,0,1-1-1.07,1.42,1.42,0,0,0,.76.12c2,0,4-.08,6,0s3.75,0,5.62.2A10.1,10.1,0,0,0,25,60.83a3.84,3.84,0,0,1-2.53.51,24.29,24.29,0,0,0-5.26.1c-1.13.12-2.24.09-3.36.19-.19,0-.4-.05-.55.13H12.9C12.85,61.68,12.81,61.69,12.76,61.76Z"/><path class="cls-11" d="M73.77,51.77,69,57.1a8.21,8.21,0,0,1-.59.59l-.4-.38c2.13-2.38,4.2-4.83,6.42-7.13,0,.4.61.81,0,1.18,0-.06.13-.32-.11-.18A2.68,2.68,0,0,0,73.77,51.77Z"/><path class="cls-10" d="M19.58,70.56l-2.7-1.84-.17-.13h0l-.14-.13h0a.28.28,0,0,0-.24-.16h0l-.15-.13h0l-.14-.13h0a.26.26,0,0,0-.24-.16h0l-.14-.17a.32.32,0,0,0,0-.09,2.18,2.18,0,0,0,0-.25h.29a.25.25,0,0,0,.24.25l3.56.4A11.58,11.58,0,0,1,19.58,70.56Z"/><path class="cls-13" d="M6.72,56.46a19.94,19.94,0,0,0,8.79,1.2,60.29,60.29,0,0,1,6.7-.54c-.05.16-.18.18-.31.17a17.12,17.12,0,0,0-4.39.57,22.35,22.35,0,0,1-6.83-.09,25.07,25.07,0,0,1-3.2-.61c-.14,0-.36-.15-.38.16l-.33-.43-.18-.27h0a.49.49,0,0,0,0-.12Z"/><path class="cls-11" d="M36.4,76.34c.07-2.29.13-4.58.2-6.86.18-.64,0-1.3.15-1.93l.56-.14c0,.71-.17,1.4-.07,2.11-.09,2.28-.19,4.56-.28,6.84l0,0C36.77,76.2,36.59,76.28,36.4,76.34Z"/><path class="cls-11" d="M45.92,69.79c-.05,2-.18,4.11-.13,6.16l-.67.16,0,0c.19-2.1.13-4.21.14-6.31l.13-2.36a.48.48,0,0,0,.54,0Z"/><path class="cls-11" d="M27.5,74.49c.3.05.43,0,.44-.36,0-1.72.13-3.43.2-5.14,0-.56.07-1.12.1-1.68.59.06,1.17-.42,1.75,0-.34.27-1-.2-1.14.31a4.79,4.79,0,0,0,0,1.37l-.33,5.64c-.18-.19.06-.52-.23-.72C28,74.16,28.29,75.06,27.5,74.49Z"/><path class="cls-10" d="M5.82,50.19c-.29.37-.8.53-1,1l0,0-.16.14c-.35.21-.29-.15-.34-.27-.24-.69-.45-1.38-.68-2.08-.08-.4-.17-.79-.25-1.18s.09-.26.27-.15L4,48l.12.13h0l.14.14h0l.14.14h0a.82.82,0,0,0,.39.39h0a3.66,3.66,0,0,0,.75.82l.19.21Z"/><path class="cls-11" d="M14.21,66.24H25a5.47,5.47,0,0,0,1.61-.15c-.33.45-.85.37-1.3.39-.85,0-1.71,0-2.56,0a2.44,2.44,0,0,0-1.45.29.53.53,0,0,1-.62,0,3.25,3.25,0,0,0-1.71-.31c-1.52-.13-3.05-.13-4.58-.12Z"/><path class="cls-11" d="M54.11,70.18v.68a5.6,5.6,0,0,0,0,1.53v.53l0,.4a.58.58,0,0,0-.53.28c0-1.23,0-2.45,0-3.67l.06-2.38.52-.13C54.08,68.34,54.1,69.26,54.11,70.18Z"/><path class="cls-12" d="M5,52.45a7.2,7.2,0,0,1,1.46-1.61.61.61,0,0,1,1,0,3.06,3.06,0,0,0-.78.57,8,8,0,0,0-1.47,2A1.36,1.36,0,0,1,5,52.45Z"/><path class="cls-11" d="M64.45,62.82c.38-.23.51,0,.52.33,0,.85.07,1.71.11,2.56-.33,0-.31.47-.62.53Z"/><path class="cls-11" d="M19.58,70.56a11.58,11.58,0,0,0,.15-2.49V67.4a.8.8,0,0,0,.6.15c0,.25,0,.5,0,.76s-.05.37-.08.56v.25L20.16,71C19.94,70.86,19.88,70.53,19.58,70.56Z"/><path class="cls-13" d="M5.23,53.41a8,8,0,0,1,1.47-2,3.06,3.06,0,0,1,.78-.57h.14l.15.12h0v.14c-.18,0-.37,0-.47.15a28.26,28.26,0,0,0-1.79,2.8A1.32,1.32,0,0,1,5.23,53.41Z"/><path class="cls-13" d="M64.45,62.82v3.42l-.16,0-4.33,0h0l.06-2.9a9,9,0,0,1,.07,2.2c0,.42.13.58.56.57,1,0,2,0,3.08,0,.45,0,.62-.12.6-.58,0-.7,0-1.4,0-2.1C64.32,63.23,64.23,63,64.45,62.82Z"/><path class="cls-11" d="M45.12,76.11a7.44,7.44,0,0,1-2.87.48c-1.58.1-3.18,0-4.78,0-.21,0-.45,0-.53-.24l0,0c.38,0,.77.11,1.16.12a37.88,37.88,0,0,0,7-.39Z"/><path class="cls-11" d="M15.93,67.42h-.29c-.36,0-.15.14-.1.26-.24,0-.4-.11-.28-.39a28.34,28.34,0,0,1,4.22-.12c.16,0,.23.11.27.24v0Z"/><path class="cls-11" d="M60,66.25l4.33,0c-.27.2-.64,0-.91.23A11.52,11.52,0,0,1,60,66.25Z"/><path class="cls-14" d="M76.25,41.9c-.17-.18-.1-.41-.1-.62,0-1.37,0-2.75,0-4.12,0-.21-.06-.44.09-.63A45.81,45.81,0,0,1,76.25,41.9Z"/><path class="cls-4" d="M4,48l-.26-.28c0-.2-.2-.25-.27-.38a.26.26,0,0,1,.26-.13h.22a.1.1,0,0,1,.06.09l.14.16h0l.14.14h0l.13.15h0l.14.14h0l.14.14h0c0,.22.13.34.26.48s.08.3-.14.33h0a.35.35,0,0,0-.39-.39h0l-.14-.14h0l-.14-.14h0Z"/><path class="cls-11" d="M3.43,47.3c.07.13.28.18.27.38-.18-.11-.33-.16-.27.15s.17.78.25,1.18C3.29,48.52,3.15,47.61,3.43,47.3Z"/><path class="cls-10" d="M73.77,51.77a2.68,2.68,0,0,1,.51-.59c.24-.14.06.12.11.18-.15.33-.31.65-.47,1Z"/><path class="cls-11" d="M69.4,61c.09-.24-.08-.42-.13-.63l.3.12C69.54,60.63,69.65,60.85,69.4,61Z"/><path class="cls-11" d="M25.78,73.85a1.21,1.21,0,0,1,.66.27A.71.71,0,0,1,25.78,73.85Z"/><path class="cls-11" d="M8.82,60.19a.41.41,0,0,1,.26.39C8.82,60.57,8.82,60.38,8.82,60.19Z"/><path class="cls-11" d="M24,73.06a.91.91,0,0,1,.56.26A.59.59,0,0,1,24,73.06Z"/><path class="cls-11" d="M8.44,59.64a.53.53,0,0,1,.26.41C8.41,60,8.42,59.84,8.44,59.64Z"/><path class="cls-11" d="M28.67,74.89a.71.71,0,0,1,.52.16C29,75,28.8,75.11,28.67,74.89Z"/><path class="cls-11" d="M25.4,73.7a.48.48,0,0,1,.39.15C25.64,73.86,25.47,73.89,25.4,73.7Z"/><path class="cls-9" d="M15.54,67.67c0-.12-.26-.29.1-.26a2.18,2.18,0,0,1,0,.25h-.11Z"/><path class="cls-11" d="M3.91,47.17H3.69v-.26A.36.36,0,0,1,3.91,47.17Z"/><path class="cls-11" d="M6.19,55.44a.46.46,0,0,1,.43.13C6.46,55.58,6.29,55.61,6.19,55.44Z"/><path class="cls-11" d="M70.1,59.81l.12-.15C70.19,59.72,70.29,59.88,70.1,59.81Z"/><path class="cls-11" d="M10.26,62.16l.23.24C10.33,62.4,10.28,62.3,10.26,62.16Z"/><path class="cls-11" d="M11.58,63.75a.25.25,0,0,1,.16.23C11.61,64,11.59,63.86,11.58,63.75Z"/><path class="cls-11" d="M66.11,64.89a.24.24,0,0,1,.18-.22C66.27,64.78,66.25,64.88,66.11,64.89Z"/><path class="cls-11" d="M13.69,66a.25.25,0,0,1,.25.15A.26.26,0,0,1,13.69,66Z"/><path class="cls-11" d="M6.59,56.62l.18.27C6.62,56.86,6.59,56.75,6.59,56.62Z"/><path class="cls-11" d="M15.82,67.91a.26.26,0,0,1,.24.16C15.94,68.07,15.84,68.05,15.82,67.91Z"/><path class="cls-11" d="M16.33,68.31a.28.28,0,0,1,.24.16C16.46,68.47,16.36,68.44,16.33,68.31Z"/><path class="cls-11" d="M23.68,72.93a.29.29,0,0,1,.27.13A.24.24,0,0,1,23.68,72.93Z"/><path class="cls-11" d="M24.86,73.46a.32.32,0,0,1,.28.13A.26.26,0,0,1,24.86,73.46Z"/><path class="cls-11" d="M25.13,73.58c.11,0,.22,0,.28.13A.22.22,0,0,1,25.13,73.58Z"/><path class="cls-11" d="M53.11,73.84a.31.31,0,0,1,.28-.12A.23.23,0,0,1,53.11,73.84Z"/><path class="cls-11" d="M52.81,74a.34.34,0,0,1,.31-.13C53.06,74,52.94,74,52.81,74Z"/><path class="cls-11" d="M52.45,74.11a.32.32,0,0,1,.29-.12A.26.26,0,0,1,52.45,74.11Z"/><path class="cls-11" d="M26.44,74.12a.37.37,0,0,1,.32.11C26.63,74.25,26.51,74.25,26.44,74.12Z"/><path class="cls-11" d="M26.83,74.25a.37.37,0,0,1,.32.12A.3.3,0,0,1,26.83,74.25Z"/><path class="cls-11" d="M27.23,74.38a.3.3,0,0,1,.28.11A.22.22,0,0,1,27.23,74.38Z"/><path class="cls-11" d="M6.72,55.58A.3.3,0,0,1,7,55.7.24.24,0,0,1,6.72,55.58Z"/><path class="cls-11" d="M29.2,75.05a.34.34,0,0,1,.32.1A.28.28,0,0,1,29.2,75.05Z"/><path class="cls-11" d="M3.3,46.51l.13.13Z"/><path class="cls-11" d="M3.43,46.65l.13.13Z"/><path class="cls-11" d="M3.56,46.78l.12.13Z"/><path class="cls-11" d="M74.42,50.19l.13-.16Z"/><path class="cls-4" d="M4.7,51.36l.16-.14Z"/><path class="cls-11" d="M7.24,55.72l.18.11Z"/><path class="cls-11" d="M12.25,64.5l.13.15Z"/><path class="cls-11" d="M12.38,64.64l.13.14Z"/><path class="cls-11" d="M12.51,64.78l.13.13Z"/><path class="cls-11" d="M12.64,64.91l.13.14Z"/><path class="cls-11" d="M66,65l.14-.15A.14.14,0,0,1,66,65Z"/><path class="cls-11" d="M12.77,65l.13.14Z"/><path class="cls-11" d="M8.69,60l.13.15Z"/><path class="cls-11" d="M65.85,65.16,66,65A.14.14,0,0,1,65.85,65.16Z"/><path class="cls-11" d="M12.9,65.18l.13.13Z"/><path class="cls-11" d="M65.72,65.29l.14-.14A.14.14,0,0,1,65.72,65.29Z"/><path class="cls-11" d="M13,65.31l.14.13Z"/><path class="cls-11" d="M65.59,65.42l.14-.14A.14.14,0,0,1,65.59,65.42Z"/><path class="cls-11" d="M13.16,65.44l.14.13Z"/><path class="cls-11" d="M65.46,65.55l.14-.14A.14.14,0,0,1,65.46,65.55Z"/><path class="cls-11" d="M13.3,65.57l.13.13Z"/><path class="cls-11" d="M65.32,65.68l.15-.14A.15.15,0,0,1,65.32,65.68Z"/><path class="cls-11" d="M13.43,65.7l.13.13Z"/><path class="cls-11" d="M70.22,59.66l.12-.17Z"/><path class="cls-11" d="M65.24,65.73a.08.08,0,0,1,.08-.06C65.33,65.73,65.34,65.8,65.24,65.73Z"/><path class="cls-11" d="M13.56,65.83l.14.13Z"/><path class="cls-11" d="M69.27,61.09l.14-.15Z"/><path class="cls-11" d="M14,66.11l.15.12Z"/><path class="cls-11" d="M69.83,59.79l.11.08a.24.24,0,0,1-.11.06Z"/><path class="cls-11" d="M11.07,63.17l.13.17Z"/><path class="cls-11" d="M11.19,63.33l.14.14Z"/><path class="cls-11" d="M6.59,56.51a.49.49,0,0,1,0,.12C6.5,56.59,6.49,56.55,6.59,56.51Z"/><path class="cls-11" d="M11.32,63.46l.13.14Z"/><path class="cls-11" d="M15.68,67.75l.14.17A.16.16,0,0,1,15.68,67.75Z"/><path class="cls-11" d="M16.06,68.07l.14.13Z"/><path class="cls-11" d="M16.19,68.19l.15.13Z"/><path class="cls-11" d="M16.58,68.47l.14.13Z"/><path class="cls-11" d="M16.71,68.59l.17.13Z"/><path class="cls-11" d="M11.73,64l.14.15Z"/><path class="cls-11" d="M24.6,73.34l.2.1Z"/><path class="cls-11" d="M66.8,64.13l.13-.15Z"/><path class="cls-11" d="M66.67,64.26l.13-.14Z"/><path class="cls-11" d="M12,64.24l.16.14Z"/><path class="cls-11" d="M66.55,64.39l.12-.13Z"/><path class="cls-11" d="M66.42,64.53l.12-.13Z"/><path class="cls-11" d="M11.86,64.11l.14.14Z"/><path class="cls-12" d="M53.13,14a3.62,3.62,0,0,0-3.48,1.68c-.19.28-.34.15-.54,0a15.9,15.9,0,0,0-5.83-2,15.72,15.72,0,0,0-10.12,1.88c-.31.18-.4.14-.59-.13a3.41,3.41,0,0,0-4.41-1.1,2,2,0,0,1,1.9-1.49c.68,0,1.46.18,2-.1s.68-1.08,1.12-1.56a8.8,8.8,0,0,1,8.5-2.89,10.6,10.6,0,0,1,5.47,2.74,7.6,7.6,0,0,1,1.44,1.76c.26.47.48.4.81.25a3.32,3.32,0,0,1,2.14-.34A2,2,0,0,1,53.13,14Z"/><path class="cls-12" d="M27,15.35c-1.19,1.56-2.24,3.23-3.51,4.74-.17.2-.36.37-.54.56H11.5a.74.74,0,0,0-.6.22.84.84,0,0,1-.92-.58,1.24,1.24,0,0,1,.2-1.35,2.66,2.66,0,0,1,3.53-.86c.42.2.56.07.74-.29a3.19,3.19,0,0,1,3.81-1.61,5.13,5.13,0,0,1,1.83.82c.4.3.51.13.58-.27a3.25,3.25,0,0,1,5.2-2.14C26.26,14.81,26.5,15.25,27,15.35Z"/><path class="cls-12" d="M59.33,20.7a51.62,51.62,0,0,1-4-5.22.88.88,0,0,0,.67-.2,2.87,2.87,0,0,1,4.7,1.44c.14.49.29.43.61.22a2.88,2.88,0,0,1,3.16-.13,1.59,1.59,0,0,1,.79.83c.24.61.61.65,1.13.45a2,2,0,0,1,2,.38,1.7,1.7,0,0,1,.8,1.68c0,.4-.17.61-.58.62a1.45,1.45,0,0,0-.82-.15H60.44A3.19,3.19,0,0,0,59.33,20.7Z"/><path class="cls-12" d="M6.91,30.33c-.7-.09-1.08-.53-.77-1A4.72,4.72,0,0,1,8.42,27a2.93,2.93,0,0,1,3.65,1.35,1.13,1.13,0,0,0,1.08.72c.58,0,1.25.13,1.45.88l-.78,0C11.88,30,10,30,8,30,7.63,30,7.16,29.85,6.91,30.33Z"/><path class="cls-12" d="M65,30c.08-.1.15-.28.25-.29.72-.11,1.29-.71,2.06-.65a.64.64,0,0,0,.67-.4,2.43,2.43,0,0,1,2.22-1.27,2.12,2.12,0,0,1,2.12,1.45,1.32,1.32,0,0,0,.4.51c.19.18.39.36.22.67a.49.49,0,0,1-.71.23l-.13-.13c-.06-.15-.15-.15-.26-.07H67.46a.32.32,0,0,0-.39,0Z"/><path class="cls-7" d="M6.91,30.33c.25-.48.72-.34,1.1-.34,1.94,0,3.87,0,5.81,0l.78,0c2,0,4,0,6,0,.3,0,.81-.15.81.29s-.53.32-.8.32q-6.48,0-12.95,0A1,1,0,0,1,6.91,30.33Z"/><path class="cls-10" d="M10.9,20.86a.74.74,0,0,1,.6-.22H22.93l-.54.72c-.23-.2-.51-.11-.76-.11-3.28,0-6.57,0-9.85,0C11.45,21.23,11,21.34,10.9,20.86Z"/><path class="cls-7" d="M67.46,30H71.8l.26.07.13.13c0,.3-.24.27-.43.28-3.65.17-7.31,0-11,.07a.29.29,0,0,1-.13,0c-.19-.07-.53,0-.53-.27s.33-.3.56-.3H65l2.11,0A.44.44,0,0,0,67.46,30Z"/><path class="cls-10" d="M59.33,20.7a3.19,3.19,0,0,1,1.11-.07h7.35a1.45,1.45,0,0,1,.82.15c0,.59-.47.46-.81.46-2.37,0-4.74,0-7.12,0-.25,0-.52-.08-.75.12Z"/><path class="cls-7" d="M17.49,40.86H13.88c-.23,0-.61.09-.61-.2s.38-.28.62-.29c.66,0,1.32,0,2,0l5.39,0c.22,0,.57-.09.56.26s-.34.27-.57.27H17.49Z"/><path class="cls-7" d="M56.27,11.28a.33.33,0,0,1-.3.36.3.3,0,0,1-.35-.3.29.29,0,0,1,.31-.33C56.13,11,56.26,11.07,56.27,11.28Z"/><path class="cls-7" d="M24.71,11.09c-.05.19-.15.32-.36.3a.33.33,0,0,1-.29-.37c0-.21.14-.3.35-.28A.32.32,0,0,1,24.71,11.09Z"/><path class="cls-7" d="M15.62,25.88c-.17,0-.31-.1-.3-.28a.32.32,0,0,1,.35-.31c.19,0,.26.14.25.32A.26.26,0,0,1,15.62,25.88Z"/><path class="cls-14" d="M26.85,54a13.56,13.56,0,0,0,1.39,2,2,2,0,0,0,1.43.7c.57,0,1,.42,1.62.44A3.93,3.93,0,0,0,33,56.85a2,2,0,0,0,1.18-2.64A6.65,6.65,0,0,1,34,49.05c.11-.28.21-.57-.25-.72s-.59.12-.71.41a6.7,6.7,0,0,0-.26,4.92c.12.35.27.69.43,1.12-.29-.05-.43-.4-.71-.22s-.25.39-.25.7c-.34-.18-.46-.64-.89-.46s-.07.51-.23.75c-.26-.28-.38-.72-.87-.67-.3,0-.23.27-.28.44-.6-.09-.86-.53-1.06-1a10.22,10.22,0,0,0,2.61-3.73,15.39,15.39,0,0,1,3.36-5.41,6.81,6.81,0,0,0,1.68-2.31,1.72,1.72,0,0,1,.71.06,20.79,20.79,0,0,0,8.24.35A26.18,26.18,0,0,0,50.4,42c.36-.13.59-.12.81.26a14.73,14.73,0,0,1,1.62,3.78,10.35,10.35,0,0,1-1.41,8.87c-.44-.16-.67.2-1,.44-.1-.23,0-.59-.41-.6s-.54.43-.8.73c-.12-.34.23-.77-.22-.93s-.48.21-.65.42l-.15-.11a7.54,7.54,0,0,0,.65-4.34,7.9,7.9,0,0,0-.68-1.91c-.15-.28-.34-.55-.72-.38s-.39.46-.23.82a5.78,5.78,0,0,1,.55,3.56,5.3,5.3,0,0,1-.35,1.13c-.93,2,.37,3.39,2.44,3.37a2.64,2.64,0,0,0,.84-.14,6.17,6.17,0,0,1,1.44-.33c.72,0,1.15-.65,1.57-1.19a7.84,7.84,0,0,1,.14,4.5A3.5,3.5,0,0,1,53,62a4.79,4.79,0,0,0-3.81-.67c-.1-.15-.26-.14-.41-.14a4.37,4.37,0,0,0-3.14,1.28,3,3,0,0,1-2,1,6.88,6.88,0,0,0-.77.13,12.24,12.24,0,0,1-8.11-1.31c-.44-.23-.85-.62-1.43-.56a9.06,9.06,0,0,0-1.86-.55,3.68,3.68,0,0,0-3.93,2.13l-.23-.54a.31.31,0,0,0-.14-.28v0a1,1,0,0,0-.13-.16h0c-.13-1.12-.49-2.19-.59-3.33A16.55,16.55,0,0,1,26.85,54Z"/><path class="cls-14" d="M52.76,20.61c-.11.59.44.86.63,1.32,0,.65.51,1.09.79,1.62a11.27,11.27,0,0,1,1.45,3.62,1.76,1.76,0,0,0-.06.94c.07.7.48,1.41,0,2.1a1,1,0,0,1-.18-.18,3.21,3.21,0,0,0-4.64-1,2.16,2.16,0,0,0-.85,1.35,2.38,2.38,0,0,0,2.36,2.7,3.9,3.9,0,0,0,3.06-1.19,1.43,1.43,0,0,1-.17.93,7.76,7.76,0,0,1-4.63,4.46,25.67,25.67,0,0,1-9,1.56,36.05,36.05,0,0,1-6.39-.48,12.12,12.12,0,0,1-7.86-4.15,5,5,0,0,1-1.19-3.91,15.36,15.36,0,0,1,1-4.05,21.52,21.52,0,0,1,2.36-4.35c.38-.31.58-.85,1.15-.92.26,1,.77,1.29,1.62,1a14.79,14.79,0,0,0,3.12-.95,5.69,5.69,0,0,1,1.71-.46c-.18.46-.67.61-.83,1a.67.67,0,0,0-.3.8.81.81,0,0,0,.78.51,6,6,0,0,0,1.69-.11c3.8-.82,7.11-2.38,9.11-5.94.57-.05,1,.35,1.55.44a3.47,3.47,0,0,0,1.59.82c.16.05.39.05.33-.13s.08-.82-.5-.85h0v-.82h0c.5,0,.65-.55,1.06-.72a1.85,1.85,0,0,1,1.85.08,2.1,2.1,0,0,0-1.12,1.58A5.55,5.55,0,0,0,52.76,20.61Zm-10.4,16.7c0-.12.14-.14.25-.14.33-.44.94-.52,1.25-1,.19-.28.54-.53.2-.9s-.63-.11-.9.13a2.57,2.57,0,0,1-1.57.72,3.33,3.33,0,0,1-2.8-.79c-.24-.24-.52-.35-.8-.05s-.11.54.1.75a3.44,3.44,0,0,0,2,1.17,9.6,9.6,0,0,0,2.21,0l0,0a.3.3,0,0,1,0,.1l-.08.06,0,0Zm-7.25-7.48C35,33,38.43,35,40.8,33.41a.54.54,0,0,1,.7.07,2.9,2.9,0,0,0,2.33.36,3.8,3.8,0,0,0,3-3,4,4,0,0,0-1.34-4.21A6.61,6.61,0,0,0,39,25.28,4.79,4.79,0,0,0,35.11,29.83Zm-5.42,3.28a3.61,3.61,0,0,0,1.59-.34A2.09,2.09,0,0,0,32,29.32a3.43,3.43,0,0,0-3.71-.54,2.13,2.13,0,0,0-.42,3.67A2.89,2.89,0,0,0,29.69,33.11Zm4-4.74a2,2,0,1,0,0-3.9,2,2,0,0,0-2,2A1.91,1.91,0,0,0,33.69,28.37Zm16.7-1.92a1.91,1.91,0,0,0-1.92-2,2.07,2.07,0,0,0-2,2,2,2,0,0,0,1.94,1.92A1.91,1.91,0,0,0,50.39,26.45Z"/><path class="cls-13" d="M51.42,54.92a10.35,10.35,0,0,0,1.41-8.87,14.73,14.73,0,0,0-1.62-3.78c-.22-.38-.45-.39-.81-.26a26.18,26.18,0,0,1-4.87,1.25,20.79,20.79,0,0,1-8.24-.35,1.72,1.72,0,0,0-.71-.06l0-.15a4,4,0,0,0,.95-2.09c.52-.12.56-.49.48-.92l.28,0h.13c.45,0,.91.11,1.36.12a38.71,38.71,0,0,0,4.31-.08c0,.68.16.9.81.84a31.71,31.71,0,0,0,5.88-1c.24-.07.46-.18.66.15a17.21,17.21,0,0,1,3.15,9.58,10.16,10.16,0,0,1-1.79,5.48,2.2,2.2,0,0,1-1.32,1Z"/><path class="cls-12" d="M44.07,39.71a38.71,38.71,0,0,1-4.31.08c-.45,0-.91-.08-1.36-.12,0-.07-.08-.07-.13,0l-.28,0-.37-.15c-.11-.24-.34-.25-.55-.28a28.91,28.91,0,0,1-6.23-1.58c-.42-.17-.28.18-.33.35a8.15,8.15,0,0,1-5.09-8.93,13.25,13.25,0,0,1,3-6.78c.09,0,.12-.05.11-.13h0c.29-.09.38-.42.64-.56.16,0,.28.1.27.29a21.52,21.52,0,0,0-2.36,4.35,15.36,15.36,0,0,0-1,4.05,5,5,0,0,0,1.19,3.91,12.12,12.12,0,0,0,7.86,4.15,36.05,36.05,0,0,0,6.39.48,25.67,25.67,0,0,0,9-1.56,7.76,7.76,0,0,0,4.63-4.46,1.43,1.43,0,0,0,.17-.93,3.93,3.93,0,0,0,.25-1.7c.52-.69.11-1.4,0-2.1a1.76,1.76,0,0,1,.06-.94c.21.23.1.54.17.81a7.54,7.54,0,0,1-2.44,8.1,14.94,14.94,0,0,1-5.46,2.77c-.17.06-.42,0-.45.29h-.22c-.24-.21-.38,0-.56.12A25.66,25.66,0,0,0,44.07,39.71ZM30.12,37.44l-.05,0,.05,0c.05.05.08.17.17,0Z"/><path class="cls-6" d="M54.31,66.28A2.59,2.59,0,0,1,54.26,64c.42-.86.87-1.7,1.21-2.59.06-.16.06-.47.36-.2l.2.25h0l.11.15h0l.16.25h0c.38.5.49.24.55-.19A19.84,19.84,0,0,1,58,56.65c.22-.06.23.17.35.26l.14.32,0,.2a.25.25,0,0,0,.1.27h0a35,35,0,0,1,.67,8.54l-.13,0Z"/><path class="cls-13" d="M33.37,61.79c.58-.06,1,.33,1.43.56a12.24,12.24,0,0,0,8.11,1.31,6.88,6.88,0,0,1,.77-.13,3,3,0,0,0,2-1,4.37,4.37,0,0,1,3.14-1.28c.15,0,.31,0,.41.14a6.74,6.74,0,0,0-3.07,2.33,3.36,3.36,0,0,0-.6,1.3c-.08.48-.38.63-.79.7a24,24,0,0,1-8,0c-.2,0-.44-.06-.51-.33A6,6,0,0,0,33.37,61.79Z"/><path class="cls-10" d="M52.76,20.61a5.55,5.55,0,0,1-.48-3.28,2.1,2.1,0,0,1,1.12-1.58l.64.14a1.14,1.14,0,0,0,.81.77h0l.13.14h0a.27.27,0,0,0,.13.28C56.59,19,58,21,59.62,22.73c.14.15.35.36.21.58s-.61.23-.91.16a9.32,9.32,0,0,1-5.09-2.65C53.51,20.47,53.19,20.31,52.76,20.61Z"/><path class="cls-10" d="M29,21.14c-.25-.6-.5-.69-1-.21a10.25,10.25,0,0,1-3.79,2.23,2.49,2.49,0,0,1-.37.09,2.89,2.89,0,0,0-.59,0c-.21.05-.44.18-.56-.09s.16-.31.25-.47c.28-.44.84-.71.85-1.32h0l.13-.13h0c.18,0,.26-.07.29-.23a.37.37,0,0,1,.25-.29.38.38,0,0,0,.4-.39,22.62,22.62,0,0,0,1.63-2,8.64,8.64,0,0,1,2.15-2.51A1.94,1.94,0,0,1,30,18a6,6,0,0,1-.38,2c-.22.19-.13.44-.13.66S29.37,21.15,29,21.14Z"/><path class="cls-9" d="M53.55,67.55l-.06,2.38-6.81,0a1.33,1.33,0,0,1-.76-.12c0-.79,0-1.58,0-2.37l.14,0a10.92,10.92,0,0,0,2.06,0,1,1,0,0,0,.55,0,2.61,2.61,0,0,0,1.33,0h.77a7.3,7.3,0,0,0,2.51,0A.3.3,0,0,1,53.55,67.55Z"/><path class="cls-9" d="M45.37,67.42l-.13,2.36c-2.67,0-5.33-.11-8-.26-.1-.71.1-1.4.07-2.11l0,0,7.89,0Z"/><path class="cls-13" d="M47.45,39.14c0-.28.28-.23.45-.29a14.94,14.94,0,0,0,5.46-2.77A7.54,7.54,0,0,0,55.8,28c-.07-.27,0-.58-.17-.81a11.27,11.27,0,0,0-1.45-3.62c-.28-.53-.76-1-.79-1.62,2.59,3,4.09,6.4,3.42,10.46a7,7,0,0,1-3.25,4.75A13.24,13.24,0,0,1,47.45,39.14Z"/><path class="cls-12" d="M49.06,17.36c-.53-.09-1-.49-1.55-.44a.86.86,0,0,0-.56-.3c-5-1.61-9.93-1.5-14.59,1.23-.08-.19-.38-.19-.38-.44a17.1,17.1,0,0,1,6.35-2.65,14.1,14.1,0,0,1,11,2.45Z"/><path class="cls-13" d="M51.35,66.34c-1.48,0-3,0-4.45,0-.4,0-.54-.12-.48-.54a4.32,4.32,0,0,1,5-3.38,2.46,2.46,0,0,1,1.16.71c.71.75.3,1.43-.11,2.12l-.13.18h0l-.13.14h-.13a4.15,4.15,0,0,0,.16-1.26c0-.13,0-.27-.18-.32s-.25,0-.33.14c-.24.3-.46.61-.69.91a6.48,6.48,0,0,0,.08-.77.43.43,0,0,0-.25-.48c-.2-.06-.32.07-.46.18s-.26.55-.56.68c0-.13,0-.26,0-.39s0-.54-.38-.54-.82.68-.84,1.12a.47.47,0,0,0,.43.54.58.58,0,0,0,.34-.15,2.42,2.42,0,0,0,.31-.33c0,.09,0,.17,0,.26,0,.26-.05.52.28.63s.47-.09.66-.28.13-.43.38-.48a.56.56,0,0,1,0,.13c-.12.43-.46,1,.41,1C51.5,66.15,51.39,66.27,51.35,66.34Z"/><path class="cls-9" d="M28.81,69a4.79,4.79,0,0,1,0-1.37c.17-.51.8,0,1.14-.31,2-.08,4.08.21,6.12,0a.6.6,0,0,1,.64.23c-.14.63,0,1.29-.15,1.93l-3.25-.17c-1.15-.06-2.29-.13-3.44-.18A3.73,3.73,0,0,1,28.81,69Z"/><path class="cls-13" d="M29.66,65.76a4,4,0,0,1-.83-1.17,1.17,1.17,0,0,1,.41-1.7,3,3,0,0,1,3.17-.3,4.91,4.91,0,0,1,2.73,3c.22.63.15.76-.5.77-1.27,0-2.54,0-3.81,0a1.1,1.1,0,0,1-.85-.22l.05-.06c.74.06.74.06.74-.87.21,0,.23.24.31.39.16.31.4.29.67.18s.22-.3.13-.53a2.62,2.62,0,0,1-.06-.57c.26.08.3.36.48.52s.63.24.73-.12c.16-.52-.22-.91-.51-1.29a.39.39,0,0,0-.53-.13c-.37.25-.13.63-.15,1v.07c-.37,0-.32-.4-.52-.57s-.33-.32-.56-.21-.23.34-.19.56.17.39.09.62c-.17-.25-.34-.51-.52-.75s-.23-.41-.51-.29-.24.36-.24.57a3.15,3.15,0,0,0,.36,1.11Z"/><path class="cls-12" d="M27.65,53.1,27.59,53l-.07-.13a10.52,10.52,0,0,1-.37-8.32,18.36,18.36,0,0,1,2.38-4.77c.32-.49.63-.73,1.18-.37a1.12,1.12,0,0,0,.31.1c-.38,0-.27.38-.39.59a15.32,15.32,0,0,0-3.15,6.72,12.52,12.52,0,0,0,.18,5.48c0,.12,0,.22.09.28v0C27.72,52.75,27.82,53,27.65,53.1Z"/><path class="cls-9" d="M30.63,40.07c.12-.21,0-.56.39-.59a49.21,49.21,0,0,0,6.49,1.13,4,4,0,0,1-.95,2.09A25.17,25.17,0,0,1,31,40.14.92.92,0,0,0,30.63,40.07Z"/><path class="cls-9" d="M20.37,68.31c0-.26,0-.51,0-.76l0-.16h6.8a1.13,1.13,0,0,0,.7-.09l.35,0c0,.56-.06,1.12-.1,1.68Z"/><path class="cls-14" d="M32,17.41c0,.25.3.25.38.44a6,6,0,0,0-1.75,2.88c-.13-.12-.08-.41-.36-.38,0-.25,0-.47-.35-.28-.15.08-.29.14-.3-.12A6,6,0,0,0,30,18a1.94,1.94,0,0,0-1.33-2.18c.1-.26.34-.29.58-.35a5.86,5.86,0,0,1,1.67-.12h0l.16.11C31.9,15.87,32,16.63,32,17.41Z"/><path class="cls-12" d="M11,49.58a1.25,1.25,0,0,1-.72-.67,16.78,16.78,0,0,1,5.24-.58,14.44,14.44,0,0,1,5.77,1.5A4.35,4.35,0,0,1,23,51l-.32,0a10.64,10.64,0,0,0-3-1.12c-.37-.49-.74-.43-1.1,0a3.08,3.08,0,0,1-1-.5c-.1-.54-.43-.43-.77-.26a.45.45,0,0,0-.18-.07,17.45,17.45,0,0,0-5.3.23C11.12,49.33,11.07,49.45,11,49.58Z"/><path class="cls-13" d="M53,62A3.5,3.5,0,0,0,53.83,60a7.84,7.84,0,0,0-.14-4.5l.84-1.55c1.06,1.71.64,6.5-.73,8.82Z"/><path class="cls-12" d="M26.85,54a16.55,16.55,0,0,0-.34,5.11c.1,1.14.46,2.21.59,3.33a10.85,10.85,0,0,1-1.51-6.11,14.76,14.76,0,0,1,.61-3.82Z"/><path class="cls-13" d="M11,49.58c0-.13.09-.25.24-.28a17.45,17.45,0,0,1,5.3-.23.45.45,0,0,1,.18.07,7.74,7.74,0,0,0-1.71,3,1.9,1.9,0,0,1,.28-1.78c.46-.87.32-1.07-.64-1.07a7,7,0,0,0-3,.35,6.74,6.74,0,0,1,1.53,2.72c.14.43.11.77-.33,1a4.94,4.94,0,0,0-1.4-3.15h0l-.13-.14h0l-.13-.14h0l-.14-.17Z"/><path class="cls-11" d="M59.3,66.23a35,35,0,0,0-.67-8.54c.64.88.49,1.94.66,2.92s.33,1.93.42,2.91c.06-.86.25-1.69.39-2.52.1-.6.2-1.19.31-1.79,0-.08.15-.14.23-.21A35.17,35.17,0,0,0,60,63.34L60,66.24C59.74,66.2,59.53,65.64,59.3,66.23Z"/><path class="cls-11" d="M22.65,51,23,51a2,2,0,0,1,.84.55,3.65,3.65,0,0,0-2.12,1.29h0l-.19.13c-.22.24-.45.47-.66.71s-.35.42-.64.21-.19-.5,0-.73a7.18,7.18,0,0,1,1.61-1.5l.3-.24A1,1,0,0,0,22.65,51Z"/><path class="cls-12" d="M30.9,15.34a5.86,5.86,0,0,0-1.67.12c-.24.06-.48.09-.58.35a8.64,8.64,0,0,0-2.15,2.51,22.62,22.62,0,0,1-1.63,2h-.23c1-1.42,2-2.86,3.08-4.25A2.3,2.3,0,0,1,30.9,15.34Z"/><path class="cls-3" d="M30.51,38c0-.17-.09-.52.33-.35a28.91,28.91,0,0,0,6.23,1.58c.21,0,.44,0,.55.28A24.81,24.81,0,0,1,30.51,38Z"/><path class="cls-11" d="M7.78,51.12V51c.23,0,.49.25.65-.13a5.88,5.88,0,0,1,2.05,2.6c-.09.2-.15.44-.43.43s-.28-.26-.36-.42A5.09,5.09,0,0,0,7.78,51.12Z"/><path class="cls-5" d="M10.48,53.45a5.88,5.88,0,0,0-2.05-2.6.26.26,0,0,0-.22-.15l0-.12c.37-.65,1.05-.66,1.67-.8-.2.47-.74.31-1.14.63a3.92,3.92,0,0,1,1.82,2.17C10.65,52.87,10.8,53.18,10.48,53.45Z"/><path class="cls-13" d="M57.06,56h.35l-.08.22-.14.29h0a1.08,1.08,0,0,0-.27.67h0a4.36,4.36,0,0,0-.37,1.46l0,.26a.11.11,0,0,0,0,.11h0c-.15.11-.11.27-.11.42l0,.19a.34.34,0,0,0-.1.33l-.16.34H56l.15-3.49A1.15,1.15,0,0,1,57.06,56Z"/><path class="cls-11" d="M11.46,50.18a4.94,4.94,0,0,1,1.4,3.15c-.29.19-.53.21-.63-.2a9.93,9.93,0,0,0-1.15-2.55C11.39,50.62,11.47,50.45,11.46,50.18Z"/><path class="cls-11" d="M45.24,67.35l-7.89,0c.08-.3.33-.22.53-.22h6.87C44.93,67.16,45.16,67.09,45.24,67.35Z"/><path class="cls-11" d="M51,65.05c.23-.3.45-.61.69-.91.08-.1.19-.2.33-.14s.17.19.18.32a4.15,4.15,0,0,1-.16,1.26h0l-.09,0,.09.11a.72.72,0,0,1-.73.62c0-.07.15-.19.09-.19-.87,0-.53-.55-.41-1A.56.56,0,0,0,51,65Z"/><path class="cls-11" d="M63.15,67.3a.45.45,0,0,1-.18.07c-2.93,0-5.86,0-8.78,0,.11-.28.36-.18.56-.18h7.71A1.27,1.27,0,0,1,63.15,67.3Z"/><path class="cls-11" d="M27.89,67.29a1.13,1.13,0,0,1-.7.09h-6.8c0-.23.21-.24.4-.24h6.75A.38.38,0,0,1,27.89,67.29Z"/><path class="cls-3" d="M54,15.89l-.64-.14a1.85,1.85,0,0,0-1.85-.08c-.41.17-.56.69-1.06.72a2.14,2.14,0,0,1,3.6-.66Z"/><path class="cls-13" d="M21.69,52.8a3.65,3.65,0,0,1,2.12-1.29h0l.13.13.13.13.13.13.38.4c0,.16.08.28.26.29h0l.06.22c-.3.08-.48-.11-.67-.3-.55-.55-1-.53-1.63.06A1,1,0,0,1,21.69,52.8Z"/><path class="cls-11" d="M58,56.65a19.84,19.84,0,0,0-1.17,5.05c-.06.43-.17.69-.55.19.33,0,.4-.16.39-.44a17.07,17.07,0,0,1,.86-4.25C57.59,57,57.66,56.66,58,56.65Z"/><path class="cls-12" d="M9.85,49.78c-.62.14-1.3.15-1.67.8H8.05a.15.15,0,0,0-.16-.12c-.31-.2-.37-.36,0-.53a9,9,0,0,0,1-.5.88.88,0,0,1,1.16.13l0,.11-.12.09Z"/><path class="cls-3" d="M27.65,53.1c.17-.15.07-.35.11-.53.09.21.17.43.27.64.19.45.34.94.9,1.09.2.49.46.93,1.06,1,0,.16.08.35,0,.43s-.27,0-.39-.14A6.26,6.26,0,0,1,27.65,53.1Z"/><path class="cls-11" d="M54.31,66.28l4.86,0a.89.89,0,0,1-.66.24H54.79C54.6,66.49,54.38,66.55,54.31,66.28Z"/><path class="cls-13" d="M29.6,20c0,.26.15.2.3.12.34-.19.36,0,.35.28l-1.06,1.28c-.26.14-.35.47-.64.56,0-.43.36-.67.45-1.05.37,0,.47-.21.47-.53S29.38,20.14,29.6,20Z"/><path class="cls-13" d="M23.8,21.39c0,.61-.57.88-.85,1.32-.09.16-.36.25-.25.47s.35.14.56.09a2.89,2.89,0,0,1,.59,0c-.5.18-1.16.56-1.49.09s.39-.81.67-1.18A2.69,2.69,0,0,1,23.8,21.39Z"/><path class="cls-3" d="M49.06,17.36l.27-.15c.23.14.46.31.7.44s.36.34.57.18-.1-.41-.12-.63c.58,0,.41.54.5.85s-.17.18-.33.13A3.47,3.47,0,0,1,49.06,17.36Z"/><path class="cls-11" d="M20.26,56.24A30.17,30.17,0,0,1,23.41,56,5.47,5.47,0,0,1,20.26,56.24Z"/><path class="cls-11" d="M53.27,67.3a7.3,7.3,0,0,1-2.51,0A4.38,4.38,0,0,1,53.27,67.3Z"/><path class="cls-11" d="M24.6,55.45v-.38L25,53.21l0-.38,0,0a2.4,2.4,0,0,1-.11,1.75C24.82,54.86,25.1,55.3,24.6,55.45Z"/><path class="cls-11" d="M62.71,58.68a18.69,18.69,0,0,0-.79-2A2,2,0,0,1,62.71,58.68Z"/><path class="cls-11" d="M64.82,57A1.8,1.8,0,0,1,67,56.76,8.07,8.07,0,0,0,64.82,57Z"/><path class="cls-11" d="M63.39,60.19c0,.15-.09.33-.26.33s-.16-.23-.19-.37c-.09-.47-.16-.94-.23-1.42a.92.92,0,0,1,.29.81C63,59.82,63,60.11,63.39,60.19Z"/><path class="cls-11" d="M50,67.31a2.61,2.61,0,0,1-1.33,0A1.19,1.19,0,0,1,50,67.31Z"/><path class="cls-5" d="M54,15.89l.05-.16a2.1,2.1,0,0,1,.76.93A1.14,1.14,0,0,1,54,15.89Z"/><path class="cls-11" d="M48.11,67.35a10.92,10.92,0,0,1-2.06,0A5.49,5.49,0,0,1,48.11,67.35Z"/><path class="cls-11" d="M56.57,58.61a4.36,4.36,0,0,1,.37-1.46A1.87,1.87,0,0,1,56.57,58.61Z"/><path class="cls-11" d="M66.54,57.44h-.91C65.93,57.2,66.23,56.88,66.54,57.44Z"/><path class="cls-11" d="M27.64,66.28c0-.3.21-.38.4-.58C28,66,28,66.25,27.64,66.28Z"/><path class="cls-11" d="M66.94,56.76a.93.93,0,0,1,.67.39C67.3,57.16,67,57.21,66.94,56.76Z"/><path class="cls-11" d="M57.61,55.85l.25-.25a.64.64,0,0,1,.67.24Z"/><path class="cls-3" d="M50.49,16.39v.82C50.16,16.93,50.25,16.66,50.49,16.39Z"/><path class="cls-11" d="M64.32,57.43a.87.87,0,0,1,.51-.41C64.82,57.36,64.6,57.43,64.32,57.43Z"/><path class="cls-13" d="M24.64,20.36h.23a.38.38,0,0,1-.4.39C24.51,20.61,24.46,20.43,24.64,20.36Z"/><path class="cls-11" d="M56.93,57.16a1.08,1.08,0,0,1,.27-.67C57.15,56.73,57.38,57.08,56.93,57.16Z"/><path class="cls-11" d="M60.91,58.09a1.84,1.84,0,0,1-.26.85C60.62,58.62,60.6,58.3,60.91,58.09Z"/><path class="cls-11" d="M5.82,50.19l-.14-.41h0l.37,0h0C6.06,50,6.07,50.17,5.82,50.19Z"/><path class="cls-11" d="M61.15,57.43a1.13,1.13,0,0,1-.25.67C60.88,57.83,60.84,57.56,61.15,57.43Z"/><path class="cls-13" d="M46.67,39.27c.18-.1.32-.33.56-.12C47.08,39.34,46.87,39.29,46.67,39.27Z"/><path class="cls-11" d="M67.06,57.7l-.46-.25C66.81,57.43,67,57.37,67.06,57.7Z"/><path class="cls-11" d="M27,65.7a.54.54,0,0,1,.27-.41C27.23,65.49,27.25,65.7,27,65.7Z"/><path class="cls-11" d="M63.89,57.94a.56.56,0,0,1,.29-.36C64.18,57.77,64.16,58,63.89,57.94Z"/><path class="cls-11" d="M61.56,56.65a.77.77,0,0,1-.26.44C61.29,56.89,61.24,56.66,61.56,56.65Z"/><path class="cls-11" d="M59.46,57.89a1.53,1.53,0,0,1,.16.73C59.33,58.43,59.48,58.14,59.46,57.89Z"/><path class="cls-11" d="M69.17,60.19a.67.67,0,0,1-.27-.39C69.18,59.8,69.17,60,69.17,60.19Z"/><path class="cls-11" d="M61.4,55.71a.52.52,0,0,1,.7,0Z"/><path class="cls-13" d="M24.22,21c0,.16-.11.25-.29.23C23.92,21,24.09,21.07,24.22,21Z"/><path class="cls-11" d="M64.87,58a.6.6,0,0,1-.3.38C64.58,58.15,64.65,58,64.87,58Z"/><path class="cls-11" d="M63.14,57.5a.54.54,0,0,1,.13.44C63.08,57.84,63.13,57.66,63.14,57.5Z"/><path class="cls-11" d="M24.84,52.59c-.18,0-.25-.13-.26-.29A.32.32,0,0,1,24.84,52.59Z"/><path class="cls-11" d="M59.85,59a.34.34,0,0,1,.1-.32C59.92,58.8,60.09,59,59.85,59Z"/><path class="cls-11" d="M60.09,58.22a.51.51,0,0,1,.13-.43C60.23,58,60.26,58.11,60.09,58.22Z"/><path class="cls-11" d="M59.6,58.66c.12.09.1.22.1.35C59.44,59,59.64,58.77,59.6,58.66Z"/><path class="cls-11" d="M24,56.78a.41.41,0,0,1-.42.11C23.66,56.74,23.82,56.77,24,56.78Z"/><path class="cls-11" d="M56.42,59.4c0-.15,0-.31.11-.42C56.55,59.14,56.58,59.29,56.42,59.4Z"/><path class="cls-11" d="M56.3,59.92a.34.34,0,0,1,.1-.33C56.41,59.72,56.42,59.84,56.3,59.92Z"/><path class="cls-5" d="M55.1,17.07a.27.27,0,0,1-.13-.28C55.06,16.86,55.14,16.94,55.1,17.07Z"/><path class="cls-11" d="M63.68,59.67a.28.28,0,0,1-.15.26C63.52,59.81,63.54,59.71,63.68,59.67Z"/><path class="cls-11" d="M63.53,59.93l-.14.26C63.39,60.07,63.41,60,63.53,59.93Z"/><path class="cls-11" d="M59.2,57a.33.33,0,0,1,.11.31A.27.27,0,0,1,59.2,57Z"/><path class="cls-11" d="M56,61.5l-.2-.25C56,61.27,56,61.37,56,61.5Z"/><path class="cls-11" d="M56.29,61.89l-.16-.25C56.26,61.68,56.28,61.78,56.29,61.89Z"/><path class="cls-11" d="M58.5,57.23l-.14-.32C58.51,57,58.51,57.1,58.5,57.23Z"/><path class="cls-11" d="M62.87,56.74A.28.28,0,0,1,63,57,.26.26,0,0,1,62.87,56.74Z"/><path class="cls-12" d="M27.21,62.55a.31.31,0,0,1,.14.28A.28.28,0,0,1,27.21,62.55Z"/><path class="cls-11" d="M64.34,58.63a.27.27,0,0,1-.16.25C64.18,58.76,64.2,58.65,64.34,58.63Z"/><path class="cls-11" d="M60,58.61a.36.36,0,0,1,.11-.34C60.09,58.4,60.1,58.52,60,58.61Z"/><path class="cls-11" d="M27.23,64.65a.29.29,0,0,1-.15-.25A.23.23,0,0,1,27.23,64.65Z"/><path class="cls-11" d="M24.89,52.8l-.06-.22c.13,0,.16.12.18.23l0,0-.12,0Z"/><path class="cls-11" d="M67.86,58.47l-.17-.23C67.82,58.25,67.85,58.35,67.86,58.47Z"/><path class="cls-13" d="M29.86,66c-.12,0-.15-.12-.2-.21l.08-.06a.21.21,0,0,1,.12.27Z"/><path class="cls-11" d="M6.09,49.5c.12.06.11.18.14.28l-.17,0h0v-.25Z"/><path class="cls-11" d="M63.52,58.35l.13-.13C63.62,58.28,63.71,58.45,63.52,58.35Z"/><path class="cls-11" d="M67.57,58.12a.29.29,0,0,1-.23-.17C67.46,58,67.55,58,67.57,58.12Z"/><path class="cls-11" d="M24.33,56.75l-.26,0C24.14,56.64,24.23,56.62,24.33,56.75Z"/><path class="cls-11" d="M63.27,57.94a.24.24,0,0,1,.1.27A.26.26,0,0,1,63.27,57.94Z"/><path class="cls-11" d="M60.61,56.76a.3.3,0,0,1,.14-.26A.23.23,0,0,1,60.61,56.76Z"/><path class="cls-11" d="M65.08,57.81a.29.29,0,0,1-.22.18C64.87,57.85,65,57.82,65.08,57.81Z"/><path class="cls-11" d="M11.07,50.56l-.18-.23A.25.25,0,0,1,11.07,50.56Z"/><path class="cls-11" d="M60.75,56.5l.14-.26A.26.26,0,0,1,60.75,56.5Z"/><path class="cls-11" d="M57.19,56.5l.14-.29A.26.26,0,0,1,57.19,56.5Z"/><path class="cls-14" d="M48.33,55c-.06.06,0,.23-.17.17s0-.18,0-.28Z"/><path class="cls-11" d="M24.05,55.84a.35.35,0,0,1,.28-.14C24.28,55.83,24.17,55.85,24.05,55.84Z"/><path class="cls-11" d="M62.1,55.67a.27.27,0,0,1,.24.17C62.22,55.84,62.11,55.82,62.1,55.67Z"/><path class="cls-11" d="M23.65,56a.31.31,0,0,1,.29-.12A.26.26,0,0,1,23.65,56Z"/><path class="cls-11" d="M62.34,55.84a.29.29,0,0,1,.17.24C62.36,56.07,62.34,56,62.34,55.84Z"/><path class="cls-11" d="M60.34,57.42a.39.39,0,0,1,.13-.32C60.49,57.23,60.49,57.35,60.34,57.42Z"/><path class="cls-11" d="M61.28,57.16a.3.3,0,0,1-.13.27A.29.29,0,0,1,61.28,57.16Z"/><path class="cls-11" d="M63,57.1a.36.36,0,0,1,.12.32C63,57.35,63,57.23,63,57.1Z"/><path class="cls-11" d="M58.64,57.7a.25.25,0,0,1-.1-.27A.26.26,0,0,1,58.64,57.7Z"/><path class="cls-11" d="M60.24,57.68a.26.26,0,0,1,.11-.27A.24.24,0,0,1,60.24,57.68Z"/><path class="cls-11" d="M65.64,57.44a.32.32,0,0,1-.27.14C65.41,57.45,65.52,57.43,65.64,57.44Z"/><path class="cls-11" d="M64.19,58.87l-.15.25A.26.26,0,0,1,64.19,58.87Z"/><path class="cls-11" d="M69.17,58.87c0,.09.11.17.16.25C69.2,59.09,69.18,59,69.17,58.87Z"/><path class="cls-14" d="M32.29,55.33s.05.07.05.11a.24.24,0,0,1-.05.1s0-.07,0-.11S32.27,55.37,32.29,55.33Z"/><path class="cls-11" d="M68.51,59.27a.31.31,0,0,1-.17-.24C68.49,59.05,68.51,59.15,68.51,59.27Z"/><path class="cls-11" d="M63.93,59.27a.28.28,0,0,1-.15.26A.25.25,0,0,1,63.93,59.27Z"/><path class="cls-11" d="M69.44,59.25a.3.3,0,0,1,.17.25C69.46,59.48,69.44,59.37,69.44,59.25Z"/><path class="cls-11" d="M68.78,59.65a.31.31,0,0,1-.16-.24C68.74,59.44,68.77,59.54,68.78,59.65Z"/><path class="cls-5" d="M55,16.8l-.13-.14Z"/><path class="cls-13" d="M23.93,21.26l-.13.13C23.8,21.3,23.84,21.25,23.93,21.26Z"/><path class="cls-13" d="M28.55,22.19c0,.08,0,.13-.11.13S28.46,22.19,28.55,22.19Z"/><path class="cls-11" d="M10.1,49.66l0-.11.21.11,0,0Z"/><path class="cls-11" d="M10.39,49.81h-.14s0-.07,0-.11l0,0Z"/><path class="cls-11" d="M10.53,49.93l-.14-.13Z"/><path class="cls-11" d="M11.07,49.75l.14.17Z"/><path class="cls-11" d="M10.66,50.07l-.13-.14Z"/><path class="cls-11" d="M11.2,49.91l.13.14Z"/><path class="cls-11" d="M10.79,50.21l-.14-.15Z"/><path class="cls-11" d="M11.33,50.05l.13.14Z"/><path class="cls-11" d="M7.89,50.45a.15.15,0,0,1,.16.12Z"/><path class="cls-11" d="M8,50.57h.14l0,.12Z"/><path class="cls-11" d="M7.77,51l-.15-.12Z"/><path class="cls-11" d="M23.94,51.64l-.13-.13Z"/><path class="cls-11" d="M24.2,51.9l-.13-.13Z"/><path class="cls-12" d="M31.08,15.46l-.16-.11Z"/><path class="cls-3" d="M27.52,52.84l.07.13Z"/><path class="cls-14" d="M50.28,55.48h0a.08.08,0,0,1,0,0q0,.1-.09,0S50.28,55.49,50.28,55.48Z"/><path class="cls-11" d="M27.35,64.81l-.12-.15Z"/><path class="cls-11" d="M69.29,60.34l-.12-.15Z"/><path class="cls-11" d="M69.71,59.64l.12.15Z"/><path class="cls-11" d="M27.35,65a.49.49,0,0,1,0-.12C27.45,65,27.45,65,27.35,65Z"/><path class="cls-11" d="M27.24,65.18l.11-.14Z"/><path class="cls-11" d="M63.78,59.53l-.11.15Z"/><path class="cls-11" d="M52.33,65.44l.13-.18Z"/><path class="cls-11" d="M52.2,65.57l.13-.14Z"/><path class="cls-13" d="M52.08,65.72,52,65.61l.09,0Z"/><path class="cls-11" d="M26.83,65.83,27,65.7Z"/><path class="cls-11" d="M68.63,59.42l-.12-.15Z"/><path class="cls-11" d="M26.69,66l.14-.14Z"/><path class="cls-11" d="M69.32,59.11l.13.15Z"/><path class="cls-11" d="M26.56,66.09,26.7,66Z"/><path class="cls-13" d="M30,66.11a.13.13,0,0,1-.12-.14h0c.08,0,.13,0,.17.08Z"/><path class="cls-12" d="M27.09,62.42a1,1,0,0,1,.13.16C27.12,62.58,27.11,62.5,27.09,62.42Z"/><path class="cls-11" d="M68.52,58.06l.14.15Z"/><path class="cls-11" d="M67.7,58.25l-.14-.14A.14.14,0,0,1,67.7,58.25Z"/><path class="cls-11" d="M63.66,58.21l.12-.14Z"/><path class="cls-11" d="M64,59.13l-.12.15Z"/><path class="cls-11" d="M68.36,59l-.13-.14Z"/><path class="cls-11" d="M68.4,57.91l.13.16Z"/><path class="cls-11" d="M56.51,59a.11.11,0,0,1,0-.11l.08.07Z"/><path class="cls-11" d="M68.9,59.8l-.11-.14Z"/><path class="cls-11" d="M69.05,58.72l.12.15Z"/><path class="cls-11" d="M63.77,58.08l.13-.15Z"/><path class="cls-11" d="M68.11,58.75,68,58.61Z"/><path class="cls-11" d="M68.24,58.89l-.13-.14Z"/><path class="cls-11" d="M61,56.1l.13-.16Z"/><path class="cls-11" d="M68.93,58.55l.13.18Z"/><path class="cls-11" d="M61.7,56.51l-.15.14Z"/><path class="cls-11" d="M67.2,57.82l-.15-.12Z"/><path class="cls-11" d="M65.38,57.57l-.15.12Z"/><path class="cls-11" d="M68,58.61l-.12-.14Z"/><path class="cls-11" d="M56.14,61.65,56,61.5Z"/><path class="cls-11" d="M62.61,56.23l.1.14Z"/><path class="cls-11" d="M64.46,58.48l-.13.16Z"/><path class="cls-11" d="M68.78,58.35l.1.12Z"/><path class="cls-11" d="M58.8,56.18l.12.19Z"/><path class="cls-11" d="M64.57,58.35l-.12.14Z"/><path class="cls-11" d="M62.5,56.07l.11.16Z"/><path class="cls-11" d="M67.6,57.15l.17.13Z"/><path class="cls-11" d="M60.89,56.24l.11-.16Z"/><path class="cls-11" d="M58.66,56l.11.14Z"/><path class="cls-11" d="M68.65,58.2l.12.15Z"/><path class="cls-11" d="M61.11,56l.14-.14A.14.14,0,0,1,61.11,56Z"/><path class="cls-11" d="M58.53,55.84l.13.13Z"/><path class="cls-11" d="M69.6,59.49l.12.16Z"/><path class="cls-11" d="M60.5,57l0-.13a.44.44,0,0,1,0,.1Z"/><path class="cls-11" d="M57.49,56l.11-.12Z"/><path class="cls-11" d="M61.24,55.82l.17-.12Z"/><path class="cls-10" d="M22.65,51a1,1,0,0,1-.54.38c-.43-.36-.61.15-.87.28s-.42.43-.81.46c0-.36.32-.48.49-.68s.4-.41.19-.61-.44.11-.58.24a5.88,5.88,0,0,0-1.84,2.46c-.07.22-.19.34-.43.31a7.52,7.52,0,0,1,1.39-4A10.64,10.64,0,0,1,22.65,51Z"/><path class="cls-11" d="M19.65,49.89a7.52,7.52,0,0,0-1.39,4h0l-.51,0c-.45-.49-.15-1-.1-1.56a8.89,8.89,0,0,1,.24-1c0-.1.08-.21.13-.31h0c.18-.36.35-.72.52-1.09C18.91,49.46,19.28,49.4,19.65,49.89Z"/><path class="cls-11" d="M15,52.12a7.74,7.74,0,0,1,1.71-3c.34-.17.67-.28.77.26a6,6,0,0,0-1.75,3.15h0a1.49,1.49,0,0,0-.15.93l0,0-.12.14a.7.7,0,0,1-.65-.14A4.45,4.45,0,0,1,15,52.31Z"/><path class="cls-13" d="M15.77,52.55a6,6,0,0,1,1.75-3.15,3.08,3.08,0,0,0,1,.5c-.17.37-.34.73-.52,1.09-.05-.27.13-.66-.28-.77s-.49.29-.68.54C16.63,51.35,16.53,52.2,15.77,52.55Z"/><path class="cls-13" d="M15,52.31a4.45,4.45,0,0,0-.12,1.15C14.67,53.05,14.58,52.65,15,52.31Z"/><path class="cls-13" d="M15.63,53.48a1.49,1.49,0,0,1,.15-.93C15.74,52.86,15.92,53.2,15.63,53.48Z"/><path class="cls-10" d="M17.77,53.88l.51,0C18.12,54.07,18,54.05,17.77,53.88Z"/><path class="cls-13" d="M24.87,52.8l.12,0,0,.38C24.83,53.1,24.86,53,24.87,52.8Z"/><path class="cls-5" d="M10.24,49.69s0,.07,0,.11l-.27,0,.12-.09Z"/><path class="cls-13" d="M18,51c-.05.1-.09.21-.13.31C17.9,51.18,17.9,51.05,18,51Z"/><path class="cls-13" d="M21.51,52.94l.19-.13Z"/><path class="cls-13" d="M15.53,53.6l.12-.14Z"/><path class="cls-9" d="M20.28,69.12v-.25C20.39,69,20.38,69,20.28,69.12Z"/><path class="cls-13" d="M22.52,57.08l.74,0a.34.34,0,0,1,0,.1C23,57.13,22.76,57.22,22.52,57.08Z"/><path class="cls-11" d="M4.74,48.75c.22,0,.3-.13.14-.33s-.28-.26-.26-.48a6.58,6.58,0,0,1,1.09,1.15l0,.06c-.15.09-.12.24-.12.38l0,0A3.66,3.66,0,0,1,4.74,48.75Z"/><path class="cls-11" d="M4.11,47.42,4,47.26Z"/><path class="cls-11" d="M4.36,47.69l-.13-.15Z"/><path class="cls-11" d="M4.5,47.82l-.14-.14Z"/><path class="cls-11" d="M4.63,48l-.14-.14Z"/><path class="cls-11" d="M5.71,49.09l.12.14,0,.05-.13-.13Z"/><path class="cls-11" d="M5.83,49.23l.14.13,0,0-.13-.13Z"/><path class="cls-11" d="M6,49.36l.12.14,0,0-.13-.13Z"/><path class="cls-11" d="M4.24,47.55l-.14-.14Z"/><path class="cls-9" d="M54.1,72.39a5.6,5.6,0,0,1,0-1.53A3.3,3.3,0,0,1,54.1,72.39Z"/><path class="cls-9" d="M54.1,72.92v-.36A.25.25,0,0,1,54.1,72.92Z"/><path class="cls-4" d="M12.76,61.76c.05-.07.09-.08.14,0Z"/><path class="cls-9" d="M15.93,67.42h3.81v.65l-3.56-.4A.25.25,0,0,1,15.93,67.42Z"/><path class="cls-6" d="M37.24,69.52c2.67.15,5.33.3,8,.26,0,2.1,0,4.21-.14,6.31a37.88,37.88,0,0,1-7,.39c-.39,0-.78-.08-1.16-.12C37.05,74.08,37.15,71.8,37.24,69.52Z"/><path class="cls-11" d="M4.35,48.36a.35.35,0,0,1,.39.39A.82.82,0,0,1,4.35,48.36Z"/><path class="cls-11" d="M5.68,49.78l-.19-.21,0,0,.15.24Z"/><path class="cls-11" d="M4,48l.12.13Z"/><path class="cls-11" d="M4.08,48.09l.14.14Z"/><path class="cls-11" d="M4.21,48.22l.14.14Z"/><path class="cls-3" d="M67.46,30a.44.44,0,0,1-.39,0A.32.32,0,0,1,67.46,30Z"/><path class="cls-3" d="M72.06,30.08,71.8,30C71.91,29.93,72,29.93,72.06,30.08Z"/><path class="cls-10" d="M28.93,54.3c-.56-.15-.71-.64-.9-1.09-.1-.21-.18-.43-.27-.64v0a.27.27,0,0,0-.09-.28,12.52,12.52,0,0,1-.18-5.48,15.32,15.32,0,0,1,3.15-6.72.92.92,0,0,1,.38.07,25.17,25.17,0,0,0,5.55,2.56l0,.15a6.81,6.81,0,0,1-1.68,2.31,15.39,15.39,0,0,0-3.36,5.41A10.22,10.22,0,0,1,28.93,54.3Z"/><path class="cls-10" d="M30.61,20.73a6,6,0,0,1,1.75-2.88C37,15.12,41.91,15,47,16.62a.86.86,0,0,1,.56.3c-2,3.56-5.31,5.12-9.11,5.94a6,6,0,0,1-1.69.11.81.81,0,0,1-.78-.51.67.67,0,0,1,.3-.8,7.23,7.23,0,0,0,2.7-1.52c.13-.11.3-.23.23-.43s-.29-.25-.48-.27a1.27,1.27,0,0,0-.39,0A13.22,13.22,0,0,0,35,20.3,5.91,5.91,0,0,0,32.23,22c-.85.25-1.36-.08-1.62-1Z"/><path class="cls-4" d="M35.11,29.83A4.79,4.79,0,0,1,39,25.28a6.61,6.61,0,0,1,6.51,1.36,4,4,0,0,1,1.34,4.21,3.8,3.8,0,0,1-3,3,2.9,2.9,0,0,1-2.33-.36.54.54,0,0,0-.7-.07C38.43,35,35,33,35.11,29.83Zm1.45,1.64a2.65,2.65,0,0,0,2.91,1.33,2.24,2.24,0,0,0,1-.5.86.86,0,0,1,1.28,0,2,2,0,0,0,2,.38,3,3,0,0,0,1.88-3.83,3.11,3.11,0,0,0-1.52-2,6,6,0,0,0-7.1.54A3.28,3.28,0,0,0,36.56,31.47Z"/><path class="cls-13" d="M55.53,30.21a3.93,3.93,0,0,1-.25,1.7,3.9,3.9,0,0,1-3.06,1.19,2.38,2.38,0,0,1-2.36-2.7,2.16,2.16,0,0,1,.85-1.35,3.21,3.21,0,0,1,4.64,1A1,1,0,0,0,55.53,30.21Z"/><path class="cls-13" d="M29.69,33.11a2.89,2.89,0,0,1-1.87-.66,2.13,2.13,0,0,1,.42-3.67,3.43,3.43,0,0,1,3.71.54,2.09,2.09,0,0,1-.67,3.45A3.61,3.61,0,0,1,29.69,33.11Z"/><path class="cls-4" d="M33.69,28.37a1.91,1.91,0,0,1-2-1.92,2,2,0,0,1,2-2,2,2,0,1,1,0,3.9Z"/><path class="cls-4" d="M50.39,26.45a1.91,1.91,0,0,1-2,1.91,2,2,0,0,1-1.94-1.92,2.07,2.07,0,0,1,2-2A1.91,1.91,0,0,1,50.39,26.45Z"/><path class="cls-4" d="M42.35,37.17a9.6,9.6,0,0,1-2.21,0,3.44,3.44,0,0,1-2-1.17c-.21-.21-.35-.47-.1-.75s.56-.19.8.05a3.33,3.33,0,0,0,2.8.79,2.57,2.57,0,0,0,1.57-.72c.27-.24.56-.5.9-.13s0,.62-.2.9c-.31.47-.92.55-1.25,1h0c-.09-.25-.19-.12-.28,0Z"/><path class="cls-8" d="M32.23,22A5.91,5.91,0,0,1,35,20.3a13.22,13.22,0,0,1,3.28-.86,1.27,1.27,0,0,1,.39,0c.19,0,.41,0,.48.27s-.1.32-.23.43a7.23,7.23,0,0,1-2.7,1.52c.16-.42.65-.57.83-1a5.69,5.69,0,0,0-1.71.46A14.79,14.79,0,0,1,32.23,22Z"/><path class="cls-3" d="M30.61,20.73V21c-.57.07-.77.61-1.15.92,0-.19-.11-.26-.27-.29l1.06-1.28C30.53,20.32,30.48,20.61,30.61,20.73Z"/><path class="cls-4" d="M42.37,37.31a.3.3,0,0,0,0-.1l0,0h0c.09.11.19.07.28,0h0c-.11,0-.21,0-.25.14Z"/><path class="cls-4" d="M42.36,37.31l-.1,0,0,0,.08-.06Z"/><path class="cls-3" d="M38.27,39.66c0-.06.09-.06.13,0h-.13Z"/><path class="cls-3" d="M30.12,37.44l.17,0c-.09.13-.12,0-.17,0Z"/><path class="cls-3" d="M30.12,37.44l-.05,0,.05,0Z"/><path class="cls-11" d="M49.84,64.66c.3-.13.33-.48.56-.68s.26-.24.46-.18a.43.43,0,0,1,.25.48,6.48,6.48,0,0,1-.08.77h0c-.25,0-.23.33-.38.48s-.35.39-.66.28-.3-.37-.28-.63c0-.09,0-.17,0-.26h0c.16,0,.15-.15.14-.27Z"/><path class="cls-11" d="M49.72,64.91a2.42,2.42,0,0,1-.31.33.58.58,0,0,1-.34.15.47.47,0,0,1-.43-.54c0-.44.52-1.12.84-1.12s.38.28.38.54,0,.26,0,.39h0c-.13,0-.14.16-.14.27Z"/><path class="cls-11" d="M30,66.05c0-.06-.09-.11-.17-.08a.21.21,0,0,0-.12-.27,3.15,3.15,0,0,1-.36-1.11c0-.21,0-.46.24-.57s.39.12.51.29.35.5.52.75h0c0,.07,0,.17.14.14h0C30.77,66.11,30.77,66.11,30,66.05Z"/><path class="cls-4" d="M31.82,64.65a2.62,2.62,0,0,0,.06.57c.09.23.16.41-.13.53s-.51.13-.67-.18c-.08-.15-.1-.34-.31-.39h0c0-.09,0-.17-.14-.14h0c.08-.23,0-.42-.09-.62s0-.46.19-.56.38.07.56.21.15.56.52.57Z"/><path class="cls-4" d="M31.83,64.66v-.07c0-.33-.22-.71.15-1a.39.39,0,0,1,.53.13c.29.38.67.77.51,1.29-.1.36-.43.37-.73.12s-.22-.44-.48-.52Z"/><path class="cls-3" d="M27.66,52.27a.27.27,0,0,1,.09.28C27.63,52.49,27.62,52.39,27.66,52.27Z"/><path class="cls-4" d="M5.69,49.77l-.15-.24c0-.14,0-.29.12-.38l.13.13.13.13.13.13v.25Z"/><path class="cls-13" d="M39.47,32.8a2.65,2.65,0,0,1-2.91-1.33,5.41,5.41,0,0,0-.07-.58A3.21,3.21,0,0,1,39,27c.55-.11,1.13-.11,1.69-.17,1.16-.1,2.3.18,3.46.12a3.11,3.11,0,0,1,1.52,2c-.32.23-.16.56-.17.85A2.23,2.23,0,0,1,44,31.8a2.65,2.65,0,0,1-2.18-.35A1.81,1.81,0,0,0,39.47,32.8ZM40,29a1,1,0,0,0-1-1,1,1,0,0,0-1,1,1,1,0,0,0,1,1A1,1,0,0,0,40,29Zm4.07,0a1,1,0,0,0-1-1,1,1,0,0,0-1,1,1,1,0,0,0,1,1A.94.94,0,0,0,44.07,29Z"/><path class="cls-12" d="M44.17,26.91c-1.16.06-2.3-.22-3.46-.12-.56.06-1.14.06-1.69.17a3.21,3.21,0,0,0-2.53,3.93,5.41,5.41,0,0,1,.07.58,3.28,3.28,0,0,1,.51-4A6,6,0,0,1,44.17,26.91Z"/><path class="cls-7" d="M39.47,32.8a1.81,1.81,0,0,1,2.34-1.35A2.65,2.65,0,0,0,44,31.8a2.23,2.23,0,0,0,1.53-2.06c0-.29-.15-.62.17-.85a3,3,0,0,1-1.88,3.83,2,2,0,0,1-2-.38.86.86,0,0,0-1.28,0A2.24,2.24,0,0,1,39.47,32.8Z"/><path class="cls-14" d="M42.62,37.18c-.09.07-.19.11-.28,0C42.43,37.06,42.53,36.93,42.62,37.18Z"/><path class="cls-13" d="M49.71,64.92c0-.11,0-.22.14-.27C49.86,64.77,49.87,64.89,49.71,64.92Z"/><path class="cls-13" d="M30.64,65.05c.12,0,.14,0,.14.14S30.66,65.12,30.64,65.05Z"/><path class="cls-11" d="M40,29A1,1,0,0,1,39,30a1,1,0,0,1-1-1,1,1,0,0,1,1-1A1,1,0,0,1,40,29Z"/><path class="cls-11" d="M44.07,29a.94.94,0,0,1-1,.94,1,1,0,0,1-1-1,1,1,0,0,1,1-1A1,1,0,0,1,44.07,29Z"/></g><text class="cls-15" transform="translate(82.14 47.01)">Pig&amp;B<tspan class="cls-16" x="71.17" y="0">r</tspan><tspan x="80.83" y="0">ead</tspan></text></g></g></svg>