<svg xmlns="http://www.w3.org/2000/svg" viewBox="0 0 479.57 174.19"><defs><style>.cls-1{opacity:0.9;}.cls-15,.cls-2{fill:#fff;}.cls-2{opacity:0.2;}.cls-3{fill:#a15679;}.cls-4{fill:#642f64;}.cls-5{fill:#a26b70;}.cls-6{fill:#a1493b;}.cls-7{fill:#bf5f51;}.cls-8{fill:#993837;}.cls-9{fill:#9b4154;}.cls-10{fill:#c46d5e;}.cls-11{fill:#6a264d;}.cls-12{fill:#f6f8ec;}.cls-13{fill:#9a4c76;}.cls-14{fill:#c08da1;}.cls-15{font-size:46.32px;font-family:Arial-Black, Arial;font-weight:800;opacity:0.3;}.cls-16{letter-spacing:0.02em;}</style></defs><g id="Шар_2" data-name="Шар 2"><g id="layer1"><g class="cls-1"><path class="cls-2" d="M84.11,174.19a95.26,95.26,0,0,1-24.22-4.55A87.36,87.36,0,0,1,22,144.52,84.57,84.57,0,0,1,2,105.35a83.18,83.18,0,0,1,.31-37.6C9.18,39.7,25.81,19.52,52,7.34A79.75,79.75,0,0,1,81.58.15q36.93-2,64.17,23a85.33,85.33,0,0,1,26.73,48.67,88.53,88.53,0,0,1,1.27,18.32,3.69,3.69,0,0,0,0,.58,92.81,92.81,0,0,1-3.73,21.3,87.49,87.49,0,0,1-32.84,45.67A84.76,84.76,0,0,1,98.11,173.4,119.09,119.09,0,0,1,84.11,174.19ZM146.76,142h0l.28-.3h0l.29-.31h0l.3-.32,5.16-6.37.31-.33,0,0c.56-.23.31-.72.37-1.12a1.61,1.61,0,0,0,.58-1.15.47.47,0,0,0,.25-.13l.35-.13c.42.16.21-.2.27-.34h0l.27-.38,1.77-3a63.81,63.81,0,0,0,6.13-12.8l1-2.16c1.42-.83.06-1.73.07-2.6h0l.3-.35a9.35,9.35,0,0,0,1.06-1.85A65.8,65.8,0,0,0,168,94.22a4.39,4.39,0,0,0,.16-1.8,99.67,99.67,0,0,0,0-11.85,1.75,1.75,0,0,0-.16-1.23l-.11-1.12a50,50,0,0,0-1.63-9.87c-.08-.43-.12-.86-.23-1.28-4.42-17-13.19-31.33-26.72-42.53C118.22,7.09,94,1.29,67.59,7.79,39.42,14.71,20.53,32.7,10.18,59.69A74.59,74.59,0,0,0,5.63,80.82c-.27,3.45-.64,6.93,0,10.4a38.23,38.23,0,0,0,.68,8c.16,1.16.1,2.41,1,3.37l.28.29h0l.29.28h0l.27.29h0V104a.63.63,0,0,0-.58.28c-.61.7-.31,2.7.56,3.78.5,1.54,1,3.08,1.5,4.6.1.26,0,1,.74.59l.36-.32,0,0c.4.12.59.29.49.81a12.61,12.61,0,0,0-.11,2,3,3,0,0,0,.48,2.11,2.91,2.91,0,0,0,.63,1.46,4.87,4.87,0,0,0,.86,2,1.87,1.87,0,0,0,.62,1c.23.39.59.32.94.28h.11l.11,0a.56.56,0,0,0,.66.26l.5.06.4.23.09,0,.09,0c1.29,1.08,3.13.84,4.47,2-1.27-.4-2.61.11-3.85-.45a2.84,2.84,0,0,0-2.35-.12l-.28.12c-.22.1-.2.19,0,.27v0c0,.29.06.52.38.58l.74,1a12.69,12.69,0,0,0,2.88,4.38l.07.75c0,.44-.06.88.58.89h0l.27.31h0c0,.42,0,.84.59.86l.27.33a5.36,5.36,0,0,0,2.17,2.35c-.26.33,0,.55.16.81s.15.52.5.52l.12,0,1.15,1.73.29.36v0L25,140h0l.29.31.27.31c0,.25.09.46.37.52l0,0,.3.32,0,0,.3.31h0l.35.3a.59.59,0,0,1,.23,0,1.47,1.47,0,0,0,0,.21l.29.33h0l.29.3h0l.29.3h0l.3.3h0l.3.29h0l.3.29h0l.3.29h0l.3.3h0l.3.3h0l.31.3h0l.3.29h0a.53.53,0,0,0,.55.33h0l.34.25a.64.64,0,0,1,.24,0l.29.27c0,.58.4.77.9.93s1.11.35,1.13,1.08c-.27.63.09.81.62.87h.13l.12,0a.45.45,0,0,1,0,.2.38.38,0,0,0,.32.37v0c0,.32.28.36.54.36h0l.32.29,0,0,.32.29v0c.07.28.29.34.54.36h0l.31.27h0l.36.28,6,4.06c.66-.06.79.66,1.28.87,2.49,1.63,5.16,2.92,7.76,4.35.11.28.34.32.6.3h0a1.33,1.33,0,0,0,1.26.57.18.18,0,0,1,.19.06l.44.22h.07l.06.05a.56.56,0,0,0,.61.28h0a.49.49,0,0,0,.62.27h0c.16.42.53.34.86.34h0a1.54,1.54,0,0,0,1.45.59h0a.59.59,0,0,0,.69.25h.1l.07.06a.62.62,0,0,0,.71.25l.08,0,.08.05a.52.52,0,0,0,.63.25l0,0c1.73,1.27,1.19-.71,1.64-1.28.64.46.12,1.17.52,1.6l.41.57c.28.48.75.31,1.15.34h0c.16.27.42.27.69.23.71.15,1.42.28,2.12.46a62.84,62.84,0,0,0,13.07,2.17c.4-.15.81-.32,1.18.07.18.66.72.54,1.18.54,3.52,0,7,.15,10.54-.06,2.11-.13,4.32-.12,6.32-1.08l1.47-.34c.76-.13,1.52-.25,2.27-.4a97.63,97.63,0,0,0,12.42-3.65.59.59,0,0,0,.64-.27l.07-.06h.1c.28,0,.55,0,.69-.29h0a.5.5,0,0,0,.61-.26l.33-.28a1.34,1.34,0,0,1,1.18-.62,61.07,61.07,0,0,0,13-7.24c2.64-1.8,5.35-3.51,7.48-6l.06-1.84c.6-.49,1.42,0,2-.51l.34-.06c.68-.12.65-1.09,1.37-1.17l.36.06c.21.15.19,0,.18-.14v0a.31.31,0,0,0,.32-.31l0,0a.31.31,0,0,0,.31-.31l0,0A.31.31,0,0,0,145,144l0,0a.31.31,0,0,0,.31-.31l0,0a.32.32,0,0,0,.31-.31h0a.29.29,0,0,0,.3-.31l0,0c.3,0,.36-.24.38-.49l.29-.32Z"/><path class="cls-3" d="M5.61,91.22c-.62-3.47-.25-7,0-10.4a74.59,74.59,0,0,1,4.55-21.13c10.35-27,29.24-45,57.41-51.9,26.45-6.5,50.63-.7,71.7,16.75,13.53,11.2,22.3,25.54,26.72,42.53.11.42.15.85.23,1.28-.74,0-1.08.61-1.49,1.05-1.79,1.95-3.54,3.93-5.33,5.88-2.44,2.66-4.93,5.28-7.35,8-5.1,5.63-10.15,11.32-15.26,16.94-3.66,4-7.46,7.93-11,12-1.22,1.39-2.83,2.49-3.59,4.27a2.9,2.9,0,0,1-.26-2.37,20.74,20.74,0,0,0,.74-4.7c.26-8-2.43-15.23-6.6-22-.64-1-.71-1.4.53-2,6.69-3.25,10.78-8.48,11.39-16a28.71,28.71,0,0,0-3.48-15.6,3.21,3.21,0,0,1-.62-1.61c1.13.43,2.13.87,3.17,1.2a8.93,8.93,0,0,0,4.68.59c2.56-.57,3.45-2.79,2-4.93-.47-.67-1-1.28-1.53-1.92.49-.45,1.1-.27,1.66-.28,5.23,0,10.47,0,15.7-.05.74,0,1.75.29,1.79-1,.89,0,1.19-.48,1.28-1.37a3.8,3.8,0,0,0-1.78-3.71,4.41,4.41,0,0,0-4.34-.84c-1.14.44-2,.36-2.48-1a3.69,3.69,0,0,0-1.76-1.84,6.33,6.33,0,0,0-7,.29c-.71.46-1,.59-1.35-.49a6.32,6.32,0,0,0-10.36-3.16,2.06,2.06,0,0,1-1.47.43,10.56,10.56,0,0,0-4.93-3.24,4.3,4.3,0,0,0-3.5-2.85,7.28,7.28,0,0,0-4.72.75c-.73.34-1.23.49-1.8-.54a16.69,16.69,0,0,0-3.17-3.9,23.55,23.55,0,0,0-12.06-6c-7.47-1.37-13.66.92-18.75,6.39-1,1-1.36,2.86-2.47,3.43s-2.92.12-4.41.22c-2.14.15-4,1.62-4.2,3.28l-2.59,2.22c-1.06-.22-1.59-1.19-2.45-1.7-2.33-1.38-4.68-2.16-7.35-.85a7.32,7.32,0,0,0-4.12,5.57c-.17.88-.41,1.24-1.29.59a11.18,11.18,0,0,0-4-1.8,7,7,0,0,0-8.39,3.55c-.4.78-.71,1.08-1.64.64a5.85,5.85,0,0,0-7.78,1.9,2.77,2.77,0,0,0-.44,3,1.88,1.88,0,0,0,2,1.27c.31,1.05,1.21.81,1.93.82,7.24,0,14.48,0,21.73.06.55,0,1.16-.2,1.67.23-.47.49-1,1-1.4,1.47-1,1.16-1.69,2.43-.76,3.93S49.56,54.2,51.15,54a22.69,22.69,0,0,0,6.93-2.33c-.35.62-.57,1-.75,1.32C54.48,58.58,53,64.45,53.92,70.73A18.7,18.7,0,0,0,63.47,84.5c.7.42.75.68.28,1.28a25.23,25.23,0,0,0-1.55,2.27c-4.29,7.11-6.85,14.65-5.84,23.1a5.53,5.53,0,0,1,0,1.15,1.13,1.13,0,0,1-.51,1c-.47.22-.65-.28-.92-.52-7.7-6.9-16.78-9.3-26.92-8.3a52.66,52.66,0,0,0-8.13,1.88,1.84,1.84,0,0,0-.7-1.06c-3.6-3.87-7.17-7.76-10.8-11.6C7.52,92.8,6.85,91.68,5.61,91.22ZM143.27,66.07c-.29,0-.58,0-.87,0-2.85,0-5.7,0-8.55,0-.5,0-1.24,0-1.24.67s.75.44,1.17.6a.71.71,0,0,0,.29,0c8.07-.06,16.14.23,24.2-.15.42,0,.93,0,.94-.61a1.07,1.07,0,0,0,1.56-.52c.39-.69-.05-1.08-.48-1.49a2.93,2.93,0,0,1-.88-1.12,4.63,4.63,0,0,0-4.68-3.18,5.31,5.31,0,0,0-4.89,2.79,1.41,1.41,0,0,1-1.47.89c-1.69-.13-3,1.19-4.55,1.42C143.61,65.47,143.45,65.85,143.27,66.07ZM32.21,66c-.44-1.66-1.92-1.88-3.2-1.93a2.47,2.47,0,0,1-2.38-1.59,6.47,6.47,0,0,0-8.06-3c-2.52.87-3.73,3.08-5,5.13-.68,1.08.15,2,1.69,2.25a2.34,2.34,0,0,0,1.62.52c9.51,0,19,0,28.55,0,.61,0,1.78.23,1.77-.69S46.05,66,45.39,66C41,66,36.6,66,32.21,66Zm6.36,24.08h0c2.76,0,5.51,0,8.26,0,.51,0,1.26.12,1.28-.59s-.77-.57-1.24-.57c-4,0-7.92,0-11.88,0-1.45,0-2.9,0-4.35.06-.53,0-1.39-.08-1.38.62s.84.46,1.34.46C33.26,90.12,35.92,90.11,38.57,90.11Zm85.54-65.23c0-.46-.32-.64-.76-.61s-.71.27-.67.74a.64.64,0,0,0,.75.66A.73.73,0,0,0,124.11,24.88Zm-69.62-.41a.7.7,0,0,0-.66-.78c-.45-.05-.75.14-.76.63a.72.72,0,0,0,.64.8C54.18,25.17,54.39,24.88,54.49,24.47Zm-20,32.61a.6.6,0,0,0,.67-.6c0-.39-.15-.68-.56-.7a.69.69,0,0,0-.77.69C33.78,56.86,34.07,57.06,34.45,57.08Z"/><path class="cls-4" d="M59.51,33.86l2.59-2.22a7.5,7.5,0,0,1,9.72,2.44c.44.59.62.68,1.31.28a35.58,35.58,0,0,1,35.19.34c.43.24.76.53,1.19-.09a8,8,0,0,1,7.67-3.71,10.56,10.56,0,0,1,4.93,3.24c2.82,3.91,5.44,8,8.75,11.52l1.32,1.49c.51.65,1.06,1.26,1.53,1.93,1.47,2.14.58,4.36-2,4.93a8.93,8.93,0,0,1-4.68-.59c-1-.33-2-.77-3.17-1.2a3.21,3.21,0,0,0,.62,1.61A28.71,28.71,0,0,1,128,69.43c-.61,7.55-4.7,12.78-11.39,16-1.24.6-1.17,1-.53,2,4.17,6.72,6.86,13.9,6.6,22a20.74,20.74,0,0,1-.74,4.7,2.9,2.9,0,0,0,.26,2.37,36.92,36.92,0,0,1,1.71,8.71c-.12,2.56-.23,5.13-.35,7.7l.27,0,.36-.75a.7.7,0,0,0,.22-.73l0-.43c.34-.24.29-.57.23-.91l0,0,.21-.08-.17-.16.08-.57a4.07,4.07,0,0,0,.82-3.21h0c1-.18.48-.94.58-1.46h0c.29-.13.32-.37.3-.64l.18-.49a.5.5,0,0,0,.17,0l.26-.27,0,0,2,0h0l.3.3h0l.24.3a.14.14,0,0,1,.08.17l.25.42a2.55,2.55,0,0,1,.62,1.35.62.62,0,0,0,.24.68,2.2,2.2,0,0,1,.34,1.32c0,.55-.29,1.19.36,1.61l-.05.08c.08.26-.36.66.22.79l.32,0c.54-.1.16-.49.24-.73a.14.14,0,0,1,0-.19.7.7,0,0,0,.24-.74l0-.07.06,0c.37-.23.31-.6.28-1a.25.25,0,0,1,.06-.23.57.57,0,0,0,.23-.61v0c.31-.15.32-.43.29-.71a.09.09,0,0,1,.05-.15s.11,0,.11-.06a1.7,1.7,0,0,0,0-.22l.18-.31a.54.54,0,0,0,.31-.59h0a.54.54,0,0,0,.31-.56h0l.25-.35,0,0,.29-.35,0,0a.32.32,0,0,0,.32-.32l0,0,.36-.25h0l1.54-.06v0c0,.33.26.37.52.39h0c0,.27,0,.5.38.53l0,0,.25.36v0l.23.32.41.6a.8.8,0,0,0-.05.21.59.59,0,0,0,.26.64.12.12,0,0,1,0,.16.62.62,0,0,0,.25.71.12.12,0,0,1,0,.16c0,.37-.14.75.28,1v0a.55.55,0,0,0,.23.6l.33.32c.41.21.22-.17.29-.29v0l.26-.31h0l.29-.32h0c.6,0,.62-.37.64-.8l.3-.32c.62,0,1.11-.15,1.12-.9h0a18,18,0,0,1,4.68-.59h0c0,1,.79.89,1.46.87h0l.37.29.51.08.88.83v.48l.3.36,0,0,.29.32h0l.27.31h0l.23.27a.19.19,0,0,1,.1.18l.29.4,0,0,.26.32h0c0,.25.07.47.35.54l0,0,.28.34h0c0,.26,0,.5.36.54h0l.28.34,0,0,.27.32h0v.31a1.61,1.61,0,0,1-.58,1.15l-.64-.25,0,0-.26-.35h0c0-.43,0-.86-.59-.87h0l-.25-.32v0c0-.24-.09-.45-.36-.53l0,0-.27-.33h0c0-.26,0-.49-.36-.54l0,0-.29-.32h0l-.29-.33,0,0-.28-.32h0l-.27-.3h0c0-.25-.08-.47-.39-.5l0,0a.29.29,0,0,0-.3-.31l0,0c0-.29-.26-.36-.5-.38l-.32-.27-.32-.28v0c0-.73-.54-.6-1-.57a.09.09,0,0,1-.14,0c-.68-1.23-1.35-.52-2,0h0c-.27,0-.5,0-.59.32l0,0-.33.28-.33.26c-.25,0-.46.09-.5.38l0,0a.72.72,0,0,0-.65.83h0l-.28.33,0,0-.28.34,0,0c-.32.06-.36.3-.35.56h0a.55.55,0,0,0-.33.55h0l-.25.34,0,0a.52.52,0,0,0-.32.57h0l-.26.34,0,0c-.31.08-.35.31-.34.58v0a.54.54,0,0,0-.32.57h0c-.8-.16-.84-.8-.86-1.42s0-1.34-.63-1.78v-.12c.15-1.78-.12-3.4-1.74-4.49l-.49-.29-.32.3h0c-.72,0-.61.53-.57,1a.12.12,0,0,1-.05.15.58.58,0,0,0-.28.59h0c-.69.3-.6.9-.56,1.48v0c-.68.48-.64,1.18-.57,1.89l0,.06-.05.06c-.17.16-.47.29-.5.47-.27,1.31-.47,2.63-.7,3.95-.31,1.84-.72,3.67-.87,5.57-.18-2.19-.55-4.32-.91-6.44s-.05-4.5-1.45-6.43v0a.57.57,0,0,0-.22-.61l-.09-.44c0-.29,0-.57-.3-.71s-.29-.69-.77-.58c-.78,0-.93.72-1,1.22-.73,3.1-2,6.11-1.88,9.37,0,.64-.14,1-.87,1h0a.51.51,0,0,0-.34-.56l0,0-.26-.33h0c0-.28-.11-.5-.43-.53-.66-.6-.66.08-.79.42-.76,2-1.75,3.83-2.67,5.72a5.66,5.66,0,0,0,.11,4.93c.15.6.64.48,1,.49h8.21a2,2,0,0,0,1.45-.51l.29-.08c.5-1.3,1-.06,1.44,0l0,0c2.46.87,5,.45,7.54.55l-.06,1.84-.46-.06a2.71,2.71,0,0,0-1.53-.33h-17c-.44,0-1-.22-1.25.41l-.27.17-1.12.27a.68.68,0,0,0-.63-.53,9.8,9.8,0,0,0-5.55,0h-1.7a2.61,2.61,0,0,0-2.92.06,2,2,0,0,1-1.22,0,12,12,0,0,0-4.54.06l-.31.1a1,1,0,0,1-1.19,0l-.28-.15c-.19-.58-.68-.43-1.09-.43H83.55c-.45,0-1-.17-1.18.5l-.07.06-1.25.29a1.31,1.31,0,0,0-1.41-.49c-4.49.43-9-.21-13.49,0-1.28-.91-2.57.14-3.86,0l-.78,0a.84.84,0,0,0-.77-.31H45.85c-.41,0-.79,0-.88.53l-.09.34a1.75,1.75,0,0,1-1.31-.33c-.1-.29-.26-.53-.6-.52-3.1.1-6.22-.32-9.31.25,0-.73-.61-.92-1.13-1.08s-.88-.35-.9-.93c3.37,0,6.74,0,10.1.27,1.29.11,2.61-.09,3.77.7a1.17,1.17,0,0,0,1.37-.05,5.31,5.31,0,0,1,3.2-.64c1.88,0,3.76.08,5.64,0,1,0,2.14.13,2.88-.87h0l.3-.29h0l.3-.29h0l.29-.3h0c.65,0,.61-.46.58-.91a.45.45,0,0,1,0-.23l.26-.31h0c.22-.08.22-.17,0-.28a.45.45,0,0,1,0-.23l-.26-.35h0a.55.55,0,0,0-.33-.56c-1.43-1.4-2-3.31-3-4.95-.32-1.44-1.16-.94-2-.53-8.47.74-16.92-.37-25.39-.34.34-.4.8-.25,1.22-.28,2.46-.22,4.92-.16,7.4-.41a51.66,51.66,0,0,1,11.6-.22,8.41,8.41,0,0,0,5.58-1.15,1.25,1.25,0,0,0,.2-1.07A32.6,32.6,0,0,1,54.23,126c0-.41-.07-.77-.57-.85-.22-.27-.41-.22-.57.07a.41.41,0,0,1-.22,0c-.34,0-.69-.1-.93.25a.55.55,0,0,1-.25,0c-.49,0-1,0-1.45,0-2.83-.21-5.66.53-8.48,0-.39-.07-1,.19-1-.45s.66-.38,1.06-.41c.8,0,1.66.15,2.3-.57h.59a12.22,12.22,0,0,0,7-.57l.53,0a.57.57,0,0,0,.63-.24.41.41,0,0,1,.24,0,.56.56,0,0,0,.63-.29l.59-.56c1.11-.34.48-1.31.65-2,.32-1.25.91-2.54.25-3.87,0-.24-.11-.46-.4-.51l0,0a.71.71,0,0,0-.57-.64l-.83-.87-.28-.3-.3-.29-.3-.29h0a4.57,4.57,0,0,0-1.84-1.22,10.14,10.14,0,0,0-3.64-2.5,31.89,31.89,0,0,0-12.74-3.29,36.59,36.59,0,0,0-11.56,1.27,2.75,2.75,0,0,0,1.59,1.48l.1.38.3.37,0,0,.29.32h0l.3.31h0c0,.58-.17,1-.85.87l0,0c0-.24-.12-.44-.39-.5l-.23-.27-.29-.32h0l-.29-.31h0l-.31-.29h0l-.26-.32-.44-.24a2,2,0,0,0-2.58-.3,21.75,21.75,0,0,1-2.15,1.1c-.9.38-.77.74-.08,1.18l.35.27h0l.38.29a.51.51,0,0,1,.46.34c-.33.84-.92.31-1.43.27h0l-.32-.26h-.31a1.37,1.37,0,0,0-2.22,0,16.31,16.31,0,0,0-3.23,3.56,12.61,12.61,0,0,1,.11-2c.1-.52-.09-.69-.49-.81.4-1,1.51-1.41,2.15-2.22.56,0,.53-.47.54-.86l.36,0c1.87-1.46,4.1-2.29,6.13-3.45A52.66,52.66,0,0,1,28,104.47c10.14-1,19.22,1.4,26.92,8.3.27.24.45.74.92.52a1.13,1.13,0,0,0,.51-1,5.53,5.53,0,0,0,0-1.15c-1-8.45,1.55-16,5.84-23.1a25.23,25.23,0,0,1,1.55-2.27c.47-.6.42-.86-.28-1.28a18.7,18.7,0,0,1-9.55-13.77c-1-6.28.56-12.15,3.41-17.73.18-.35.4-.7.75-1.32A22.69,22.69,0,0,1,51.15,54c-1.59.19-3,0-3.93-1.49S47,49.75,48,48.59c.44-.51.93-1,1.39-1.47s.8-1,1.19-1.58.84-.79,1.21-1.23C54.56,41,56.87,37.3,59.51,33.86Zm55.91,110.45h0l.28-.39c.92-1.51,1.83-3,.25-4.68a5.47,5.47,0,0,0-2.55-1.56c-4.66-1.21-10.38,2.69-11,7.46-.12.92.19,1.18,1.07,1.18,3.27,0,6.55,0,9.82,0a1.59,1.59,0,0,0,1.61-1.38v-.32H115l.15,0ZM65.85,145.5a.28.28,0,0,0,.27.31,2.53,2.53,0,0,0,1.89.48c2.8,0,5.6,0,8.4,0,1.41,0,1.59-.29,1.08-1.69a10.75,10.75,0,0,0-6-6.51,6.68,6.68,0,0,0-7,.66,2.6,2.6,0,0,0-.9,3.76A8.52,8.52,0,0,0,65.42,145C65.52,145.23,65.59,145.45,65.85,145.5ZM60,138l0,0a.59.59,0,0,0,.32.61l.51,1.2c1.84-3.71,4.84-5,8.66-4.71,1.47.1,2.72.85,4.1,1.22,2.94,1.92,5.34,4.26,6.23,7.81.15.6.69.64,1.14.72a53,53,0,0,0,17.68.09c.9-.15,1.57-.48,1.74-1.55a7.56,7.56,0,0,1,1.33-2.86c1.65-2.52,4.13-3.94,6.78-5.14,3-.54,5.82-.34,8.38,1.48l1.78,1.52c3-5.11,3.94-15.68,1.62-19.44l-1.87,3.42c-.93,1.18-1.86,2.52-3.46,2.62a12.83,12.83,0,0,0-3.17.72,6.46,6.46,0,0,1-1.85.31c-4.58,0-7.44-3.1-5.39-7.44a11,11,0,0,0,.77-2.48c.61-2.77-.14-5.35-1.22-7.87-.34-.79-.32-1.43.52-1.8s1.25.23,1.57.85a15.91,15.91,0,0,1,1.51,4.19c.74,3.39-.26,6.49-1.44,9.58,0,.22-.1.59,0,.62.33.14.24-.24.38-.37.38-.46.66-1.2,1.43-.92,1,.35.22,1.29.49,2,.58-.67.72-1.64,1.76-1.61.85,0,.7.8.91,1.32.76-.53,1.26-1.32,2.23-1,0,.62,0,1.24.09,1.94a4.86,4.86,0,0,0,2.9-2.29,22.46,22.46,0,0,0,3.95-12.09c.11-7.82-2.81-14.68-6.93-21.14-.46-.71-.93-.49-1.48-.33a67.7,67.7,0,0,1-13,2.2c-1.44.14-1.87-.33-1.79-1.84,1.84-.71,3.86-.45,5.74-1,.44,0,.89.15,1.23-.26l.48,0a28.93,28.93,0,0,0,13.47-4.4,15.54,15.54,0,0,0,7.17-10.48c1.48-8.95-1.82-16.44-7.55-23.08-.4-1-1.61-1.61-1.38-2.91,1-.65,1.65-.3,2.37.48,3,3.29,7,4.88,11.22,5.83.66.15,1.5.39,2-.36.32-.49-.16-.94-.46-1.26-3.63-3.92-6.68-8.3-10-12.49a.54.54,0,0,0-.28-.61h0l-.29-.31h0a4.41,4.41,0,0,0-1.68-2c-2.27-2.66-6.17-2-7.94,1.44h0c-.53.6-.73,1.2,0,1.8h0c0,.48.83.9.25,1.38s-.86-.17-1.25-.39-1-.65-1.55-1c-7.27-5.45-15.49-6.7-24.26-5.39-5.14.77-9.63,3.16-14,5.83-.07-1.7-.17-3.39-2-4.28l-.35-.25,0,0c-2.67-1.69-5.31-.53-7,1.7-2.34,3.07-4.54,6.24-6.8,9.37-.4.16-.29.54-.37.84a.85.85,0,0,0-.56.64c-.28.08-.66,0-.63.49h0c-.21,0-.29.11-.3.3h0a5.86,5.86,0,0,0-1.69,1.71c-.62.82-2.18,1.61-1.49,2.59s2.18.21,3.28-.19a7.86,7.86,0,0,0,.84-.19,22.9,22.9,0,0,0,8.35-4.93c1.08-1,1.62-.86,2.18.46-.19.84-1.08,1.37-1,2.33h0c-.19,0-.23.14-.24.3a29.06,29.06,0,0,0-6.66,14.93A18,18,0,0,0,67.3,83.88,54.66,54.66,0,0,0,83,87.2l.81.33c.17,1,.08,1.77-1.06,2a110.08,110.08,0,0,1-14.31-2.49,2.47,2.47,0,0,1-.68-.22c-1.22-.8-1.9-.26-2.62.8a41.65,41.65,0,0,0-5.25,10.53c-2,6.2-2.25,12.36.82,18.35l.17.28.12.29a13.76,13.76,0,0,0,4.18,5.54c.27.2.58.5.87.31s.2-.61.12-.94c.1-.38-.05-.91.6-1,1.08-.11,1.35.85,1.92,1.46.36-.52-.34-1.3.51-1.65s1.23.63,2,1c0-.69,0-1.2.54-1.54s.93.37,1.57.48c-.36-.94-.68-1.69-1-2.46a14.83,14.83,0,0,1,.57-10.86c.26-.63.56-1.25,1.57-.9s.79,1,.55,1.59a14.56,14.56,0,0,0,.3,11.38,4.44,4.44,0,0,1-2.61,5.82,8.49,8.49,0,0,1-3.68.55c-1.3,0-2.33-.93-3.59-1a4.48,4.48,0,0,1-3.15-1.54,30,30,0,0,1-3.06-4.36l-1.43-3.29a31.83,31.83,0,0,0-1.34,8.42,23.94,23.94,0,0,0,3.31,13.49h0C59.79,137.83,59.81,138,60,138Zm.92,8.16c.85-.06.87-.54.88-1.26C61.43,145.35,61,145.51,61,146.17ZM71.22,122c0,.08-.12.15-.12.22s.07.16.11.25c0-.08.11-.15.12-.23S71.26,122.12,71.22,122Zm39.68.32s-.05.08,0,.1.12.15.18,0a.11.11,0,0,0,0-.1S110.94,122.36,110.9,122.35Z"/><path class="cls-5" d="M132,130.18l-.32,0c0-.29,0-.58-.22-.79l.05-.08a3.33,3.33,0,0,0-.36-1.61,2.2,2.2,0,0,0-.34-1.32.67.67,0,0,0-.24-.68,2.55,2.55,0,0,0-.62-1.35l-.25-.42a.14.14,0,0,0-.08-.17l-.24-.3h0l-.3-.3h0a1.39,1.39,0,0,0-1.47-.53c1.57-2,3.5-3.7,5.2-5.6C137.37,111.93,142,107,146.7,102s9.28-9.78,13.8-14.78c2.43-2.68,5.09-5.12,7.48-7.83a1.75,1.75,0,0,1,.16,1.23c-.33.42-.2.92-.2,1.39q0,4.53,0,9.08c0,.46-.15,1,.23,1.38a4.39,4.39,0,0,1-.16,1.8c-.57-.1-.87.32-1.21.65-.88.89-1.69,1.85-2.54,2.77-4.74,5.12-9.56,10.19-14.33,15.29-1.22,1.3-2.33,2.69-3.55,4-2.53,2.69-5.11,5.34-7.66,8l-.41-.6-.23-.32v0l-.25-.36,0,0a.64.64,0,0,0-.38-.53h0a.59.59,0,0,0-.52-.39v0a1.15,1.15,0,0,0-1.54.06h0l-.36.25,0,0-.32.32,0,0-.29.35,0,0-.25.35h0l-.31.56h0a.7.7,0,0,0-.31.59l-.18.31-.07.28a.09.09,0,0,0-.05.15.8.8,0,0,0-.29.71v0a.55.55,0,0,0-.23.6.25.25,0,0,0-.06.23,1.13,1.13,0,0,0-.28,1l-.06,0,0,.07a.79.79,0,0,0-.24.74.14.14,0,0,0,0,.19A.83.83,0,0,0,132,130.18Z"/><path class="cls-5" d="M123.89,125.19a36.92,36.92,0,0,0-1.71-8.71c.76-1.78,2.37-2.88,3.59-4.27,3.58-4.1,7.38-8,11-12,5.11-5.62,10.16-11.31,15.26-16.94,2.42-2.68,4.91-5.3,7.35-8,1.79-2,3.54-3.93,5.33-5.88.41-.44.75-1.05,1.49-1.05a50,50,0,0,1,1.63,9.87c-.62,0-.89.53-1.25.9-3,3-5.81,6-8.63,9.16q-5.2,5.72-10.5,11.36c-5.85,6.27-11.77,12.49-17.55,18.83-1.44,1.58-3.26,2.9-4.09,5A2.53,2.53,0,0,0,123.89,125.19Z"/><path class="cls-6" d="M138.72,124.93c2.55-2.67,5.13-5.32,7.66-8,1.22-1.3,2.33-2.69,3.55-4,4.77-5.1,9.59-10.17,14.33-15.29.85-.92,1.66-1.88,2.54-2.77.34-.33.64-.75,1.21-.65a65.8,65.8,0,0,1-2.52,14.27,9.35,9.35,0,0,1-1.06,1.85l-.3.35h0c-4.91,5.07-9.46,10.47-14.17,15.73l-.51-.08-.37-.29h0a2.08,2.08,0,0,0-1.46-.87h0c-1.71-1-3.23-.51-4.68.59h0a1.86,1.86,0,0,0-1.12.9l-.3.32a1.31,1.31,0,0,0-.64.8h0c-.1.11-.2.21-.29.32h0l-.26.31v0l-.29.29-.33-.32a.59.59,0,0,0-.23-.6v0a1.31,1.31,0,0,0-.28-1,.12.12,0,0,0,0-.16.79.79,0,0,0-.25-.71.12.12,0,0,0,0-.16.63.63,0,0,0-.26-.64A.8.8,0,0,1,138.72,124.93Z"/><path class="cls-6" d="M138.31,129.42v.12c.16,1,.3,2.09.51,3.13.06.29,0,.8.42.81s.5-.39.56-.74h0l.32-.57v0a.65.65,0,0,0,.34-.58l0,0,.26-.34h0a.68.68,0,0,0,.32-.57l0,0c.09-.11.17-.22.25-.34h0l.33-.55h0a.64.64,0,0,0,.35-.56l0,0c.09-.12.19-.23.28-.34h0l.28-.32h0a1.27,1.27,0,0,0,.65-.83l0,0a.6.6,0,0,0,.5-.38l.33-.26.33-.28,0,0a.7.7,0,0,0,.59-.32h2a.09.09,0,0,0,.14,0l1,.57v0l.32.28.32.27a.59.59,0,0,0,.5.38l0,0,.3.31,0,0,.39.5h0l.27.3h0l.28.32,0,0,.29.33h0c.1.1.2.21.29.32l0,0a.6.6,0,0,0,.36.54h0l.27.33,0,0a.62.62,0,0,0,.36.53v0l.25.32h0a1.45,1.45,0,0,0,.59.87h0l.26.35,0,0c.11.45.48.85.27,1.37l0,0-.31.33-5.16,6.37-.3.32h0l-.29.31h0l-.28.3h0l-.28.28-.29.32a.57.57,0,0,0-.38.49h0l-.3.3h0c-.11.1-.21.21-.31.31l0,0L145,144l0,0-.31.31,0,0c-.1.1-.21.2-.31.31l0,0-.32.3v0a.18.18,0,0,0-.18.14l-.36-.06c-.08-1.88-.16-3.76-.23-5.64,0-.82-.31-1.23-1.16-.72-.47.37-.29.89-.29,1.34,0,1.54-.07,3.08,0,4.62,0,1-.34,1.32-1.33,1.3q-3.39-.09-6.78,0c-1,0-1.22-.33-1.23-1.25a19.28,19.28,0,0,0-.17-4.86c.1-3.25.91-6.39,1.4-9.58l.05-.06,0-.06a3.83,3.83,0,0,0,.57-1.89v0a2.64,2.64,0,0,0,.56-1.48h0a.67.67,0,0,0,.28-.59.12.12,0,0,0,.05-.15,1.81,1.81,0,0,0,.57-1h0l.32-.3.49.29A47.88,47.88,0,0,1,138.31,129.42Z"/><path class="cls-7" d="M23.79,110.74,24,111l.39.5,0,0A21.93,21.93,0,0,1,27,117.17c.22.91.74.87,1.39.45,1-.49,1-1.24.72-2.18a14.85,14.85,0,0,0-3.38-6c2.22-1,4.46-.78,6.66-.79s2.42.44,1.42,2.36c-.66,1.26-1.29,2.48-.61,3.94l-.09.4c-.93.76-.73,1.64-.27,2.55a1.5,1.5,0,0,0,1.42.3l.27-.3,0,0c.64-.6.23-1.36.33-2h0c1.68-.79,1.89-2.65,2.87-4,.41-.54.51-1.47,1.49-1.19s.52,1.09.63,1.7h0c-.31.14-.29.42-.29.69a20.06,20.06,0,0,0-.51,2.24c-.12,1.16-.78,2.37.2,3.46.4.37.79.41,1.14-.06h0c.53.07.8-.21.94-.69.69-2.29,2.41-3.84,4.06-5.41.31-.3.81-1,1.28-.54s-.08.93-.43,1.34-1,.71-1.07,1.49c.86,0,1.23-.71,1.79-1s1-1.41,1.91-.61c-.22.18-.43.36-.66.53a16.18,16.18,0,0,0-3.56,3.3c-.38.51-.68,1.11,0,1.61s1,0,1.42-.46,1-1,1.45-1.57l.42-.29h0a2.27,2.27,0,0,0,2-.54c1.34-1.29,2.38-1.35,3.6-.12.41.41.81.84,1.48.65h0c0,.32-.09.64.2.89-.26,1.37-.53,2.74-.8,4.11a65.4,65.4,0,0,0-12.63-1.11c-7.43-.19-14.87-.08-22.3-.4a12.82,12.82,0,0,0-6.3,1.28,4.87,4.87,0,0,1-.86-2c1-2.26,2.71-4.06,3.94-6.16.24-.4.66-.35,1.05-.35,2.08,1.17,3.18,3.13,4.21,5.16.19.37.25.89.79.92s.75-.49.95-.93c.71-.61.39-1.29.1-1.93a8.69,8.69,0,0,0-4-4.79c.87-.69,2.07-.33,2.5-1.37l.29-.08.6.11.31,0h0l.31.29h0l.29.31h0C23.59,110.53,23.69,110.63,23.79,110.74Z"/><path class="cls-6" d="M80.29,168.38a62.84,62.84,0,0,1-13.07-2.17c-.7-.18-1.41-.31-2.12-.46a.74.74,0,0,0-.69-.23h0a1.69,1.69,0,0,0-1.15-.34l-.41-.57q.36-6.22.73-12.44a8.14,8.14,0,0,0,2.41.31c2.54.1,5.07.25,7.6.39l7.16.37Q80.49,160.81,80.29,168.38Z"/><path class="cls-6" d="M116.48,163.14h-.1l-.07.06a.7.7,0,0,0-.64.27,97.63,97.63,0,0,1-12.42,3.65c-.75.15-1.51.27-2.27.4-.11-4.53.19-9.06.29-13.58a3,3,0,0,0,1.69.26l15,0,.1,8.1-.33.28a.63.63,0,0,0-.61.26h0A.82.82,0,0,0,116.48,163.14Z"/><path class="cls-6" d="M54.26,161.76a.18.18,0,0,0-.19-.06,2.07,2.07,0,0,0-1.26-.57h0a.71.71,0,0,0-.6-.3c-2.6-1.43-5.27-2.72-7.76-4.35.08-1.35.16-2.7.25-4.05.22-.17.25-.35,0-.54l.18-1.25,17.14,1.5c-.16,3.78-.33,7.56-.46,11.34,0,.73-.31.92-1,.79l0,0a.62.62,0,0,0-.63-.25L60,164l-.09,0a.77.77,0,0,0-.7-.25l-.07-.06H59a.75.75,0,0,0-.69-.25h0a2.56,2.56,0,0,0-1.45-.59h0a1,1,0,0,0-.86-.34h0c-.14-.24-.37-.26-.62-.27h0a.67.67,0,0,0-.61-.28l-.06-.05H54.7C54.55,161.91,54.4,161.84,54.26,161.76Z"/><path class="cls-8" d="M13,121.23a12.82,12.82,0,0,1,6.3-1.28c7.43.32,14.87.21,22.3.4a65.4,65.4,0,0,1,12.63,1.11v.84l-.59.56a.74.74,0,0,0-.63.29.41.41,0,0,0-.24,0,.68.68,0,0,0-.63.24l-.53,0c-2.31.24-4.66.08-7,.57H44.1a43.24,43.24,0,0,0-7.45.73,48,48,0,0,1-11.23.2c-3-.32-5.9-1.33-8.87-1.86l-.09,0-.09,0-.4-.23-.51-.06a.7.7,0,0,0-.65-.26l-.11,0h-.11a1.08,1.08,0,0,0-.94-.28A1.87,1.87,0,0,1,13,121.23Z"/><path class="cls-7" d="M54.7,136.55c.82-.41,1.66-.91,2,.53-.68.61,0,1.14.17,1.64a5.86,5.86,0,0,1,.29,4.08c-.2.63-.5,1.13-1.21.92a17.92,17.92,0,0,0-3-.35c-4-.47-8-1.08-12-1.29A94.42,94.42,0,0,0,27,142a.59.59,0,0,0-.23,0l-.35-.3h0l-.3-.31,0,0-.3-.32,0,0a.6.6,0,0,0-.37-.52l-.27-.31L25,140h0l-.29-.31v0l-.29-.36-1.15-1.73a3.12,3.12,0,0,1,.83-.16c8.39.82,16.79.61,25.2.41A9.93,9.93,0,0,0,54.7,136.55Z"/><path class="cls-8" d="M52.87,125.23a.41.41,0,0,0,.22,0l.57-.07c.5.08.56.44.57.85a32.6,32.6,0,0,0,1.08,7.08,1.25,1.25,0,0,1-.2,1.07,22,22,0,0,1-7.44.56c-4.12-.43-8.26-.21-12.39-.44-4.41-.25-8.85-.07-13.28-.07a3.16,3.16,0,0,1-1.69-.26l-.27-.33a1,1,0,0,0-.59-.86h0l-.27-.31h0a1.13,1.13,0,0,0-.58-.89c0-.25-.05-.5-.07-.75.39-.55,1-.33,1.47-.36,3.89-.21,7.78-.22,11.68-.09,5.15.17,10.29.5,15.43.75,1.8.09,3.7-.17,5.43.54,1.22.5,1.29-.19,1.1-1a10.33,10.33,0,0,0-2.34-4.58.44.44,0,0,0,0-.23l.39-.31a.55.55,0,0,0,.25,0A1,1,0,0,0,52.87,125.23Z"/><path class="cls-7" d="M51.31,126.05a10.33,10.33,0,0,1,2.34,4.58c.19.81.12,1.5-1.1,1-1.73-.71-3.63-.45-5.43-.54-5.14-.25-10.28-.58-15.43-.75-3.9-.13-7.79-.12-11.68.09-.5,0-1.08-.19-1.47.36a12.69,12.69,0,0,1-2.88-4.38c.05-.68.53-.42.85-.33a57.67,57.67,0,0,0,7,1.34,49.32,49.32,0,0,0,15.05.18c3.22-.48,6.36-1.6,9.69-1.25.3,0,.58,0,.69-.37l.68-.08C50.19,126.21,50.76,126,51.31,126.05Z"/><path class="cls-8" d="M27,142a94.42,94.42,0,0,1,13.87,0c4,.21,8,.82,12,1.29a17.92,17.92,0,0,1,3,.35c.71.21,1-.29,1.21-.92a5.86,5.86,0,0,0-.29-4.08c-.19-.5-.85-1-.17-1.64,1,1.64,1.62,3.55,3,4.95a.62.62,0,0,0,.33.56h0l.26.35a.45.45,0,0,0,0,.23.86.86,0,0,0,0,.28h0l-.26.31a.45.45,0,0,0,0,.23,1.16,1.16,0,0,0-.58.91h0l-.29.3h0l-.3.29h0l-.3.29h0a11.94,11.94,0,0,1-3.57.34H31.34a.64.64,0,0,0-.24,0l-.34-.25h0a.58.58,0,0,0-.55-.33h0l-.3-.29h0l-.31-.3h0l-.3-.3h0l-.3-.3h0l-.3-.29h0l-.3-.29h0l-.3-.29h0l-.3-.3h0l-.29-.3h0l-.29-.3h0l-.29-.33A1.47,1.47,0,0,1,27,142Z"/><path class="cls-6" d="M19.86,106.35c-2,1.16-4.26,2-6.13,3.45-.05-.23,0-.49-.29-.62l-.27-.31-.3-.28-.28-.31a14,14,0,0,0-2.39-2.54v0l-.31-.31,0,0-.31-.31,0,0-.3-.32,0,0-.3-.32,0,0-.32-.35a.2.2,0,0,0-.12-.19.74.74,0,0,0-.5-.57h0l-.27-.29h0l-.29-.28h0l-.28-.29c-.89-1-.83-2.21-1-3.37a38.23,38.23,0,0,1-.68-8c1.24.46,1.91,1.58,2.75,2.47,3.63,3.84,7.2,7.73,10.8,11.6A1.84,1.84,0,0,1,19.86,106.35Z"/><path class="cls-9" d="M119.24,148.7l.27-.17q9.67,0,19.37.06a1.41,1.41,0,0,0,.4-.15l.46.06c-2.13,2.45-4.84,4.16-7.49,6-.16-.08-.32-.24-.49-.24l-11.92.3c-.16,0-.33.17-.49.26C119.31,152.75,119.28,150.73,119.24,148.7Z"/><path class="cls-6" d="M150.85,127.72v-.48c.44-.43.9-.85,1.32-1.31,3.52-3.91,7-7.84,10.54-11.76l.33,1.27a63.81,63.81,0,0,1-6.13,12.8l-1.77,3-.27.38h0l-.27.34-.35.13-.24-.18h0l-.27-.32,0,0c-.09-.12-.18-.23-.28-.34h0a.62.62,0,0,0-.36-.54h0l-.28-.34,0,0-.35-.54h0l-.26-.32,0,0-.29-.4a.19.19,0,0,0-.1-.18l-.23-.27h0l-.27-.31h0l-.29-.32,0,0Z"/><path class="cls-10" d="M125.85,123.46c.83-2.09,2.65-3.41,4.09-5,5.78-6.34,11.7-12.56,17.55-18.83Q152.77,94,158,88.28c2.82-3.11,5.65-6.2,8.63-9.16.36-.37.63-.89,1.25-.9,0,.38.07.75.11,1.12-2.39,2.71-5,5.15-7.48,7.83-4.52,5-9.21,9.84-13.8,14.78s-9.33,10-13.88,15.08c-1.7,1.9-3.63,3.58-5.2,5.6l-.55.55,0,0-.26.27a.5.5,0,0,1-.17,0Z"/><path class="cls-11" d="M49.67,125.9,49,126a135.65,135.65,0,0,0-14.78,1.19c-6.68.78-13.1-.5-19.39-2.66a2.84,2.84,0,0,1,2.35.12c1.24.56,2.58.05,3.85.45-1.34-1.11-3.18-.87-4.47-2,3,.53,5.84,1.54,8.87,1.86a48,48,0,0,0,11.23-.2,43.24,43.24,0,0,1,7.45-.73c-.64.72-1.5.52-2.3.57-.4,0-1-.2-1.06.41s.63.38,1,.45c2.82.53,5.65-.21,8.48,0,.48,0,1,0,1.45,0l-.39.31Z"/><path class="cls-6" d="M119.35,154.78c.16-.09.33-.26.49-.26l11.92-.3c.17,0,.33.16.49.24a60.75,60.75,0,0,1-13,7.24c0-.29,0-.58,0-.88a.53.53,0,0,0,0-.78v-.38a7.56,7.56,0,0,0,0-3.38C119.34,155.78,119.34,155.28,119.35,154.78Z"/><path class="cls-12" d="M54.7,136.55a9.93,9.93,0,0,1-5.41,1.3c-8.41.2-16.81.41-25.2-.41a3.12,3.12,0,0,0-.83.16l-.13,0-.49-.52c-.12-.26-.42-.48-.16-.81,1.9.61,3.78-.19,5.67-.08h1.16C37.78,136.18,46.23,137.29,54.7,136.55Z"/><path class="cls-11" d="M28.15,136.21c-1.89-.11-3.77.69-5.67.08a5.36,5.36,0,0,1-2.17-2.35,3.16,3.16,0,0,0,1.69.26c4.43,0,8.87-.18,13.28.07,4.13.23,8.27,0,12.39.44a22,22,0,0,0,7.44-.56,8.41,8.41,0,0,1-5.58,1.15,51.66,51.66,0,0,0-11.6.22c-2.48.25-4.94.19-7.4.41-.42,0-.88-.12-1.22.28h-.86Q28.3,136,28.15,136.21Z"/><path class="cls-11" d="M162.71,114.17c-3.52,3.92-7,7.85-10.54,11.76-.42.46-.88.88-1.32,1.31l-.88-.83c4.71-5.26,9.26-10.66,14.17-15.73,0,.87,1.35,1.77-.07,2.6-.11-.13.28-.7-.23-.4A5.46,5.46,0,0,0,162.71,114.17Z"/><path class="cls-10" d="M43.19,155.62l-6-4.06-.36-.28h0l-.31-.27h0a.63.63,0,0,0-.54-.36v0l-.32-.29,0,0-.32-.29h0a.6.6,0,0,0-.54-.36v0l-.32-.37a.45.45,0,0,0,0-.2c0-.18,0-.37,0-.55h.64a.55.55,0,0,0,.53.56l7.85.87A24.73,24.73,0,0,1,43.19,155.62Z"/><path class="cls-13" d="M14.82,124.51c6.29,2.16,12.71,3.44,19.39,2.66A135.65,135.65,0,0,1,49,126c-.11.35-.39.4-.69.37-3.33-.35-6.47.77-9.69,1.25a49.32,49.32,0,0,1-15-.18,57.67,57.67,0,0,1-7-1.34c-.32-.09-.8-.35-.85.33-.25-.31-.49-.63-.74-1l-.38-.58v0a2.44,2.44,0,0,0,0-.27Z"/><path class="cls-11" d="M80.29,168.38q.21-7.57.43-15.15c.41-1.39,0-2.85.33-4.26l1.25-.29c.06,1.55-.39,3.08-.16,4.64l-.63,15.09,0,0C81.1,168.06,80.69,168.23,80.29,168.38Z"/><path class="cls-11" d="M101.27,153.93c-.1,4.52-.4,9-.29,13.58l-1.47.34,0,0c.42-4.63.28-9.28.31-13.92l.27-5.19a1,1,0,0,0,1.19,0C101.25,150.44,101.26,152.18,101.27,153.93Z"/><path class="cls-11" d="M60.66,164.28c.64.13.93-.06,1-.79.13-3.78.3-7.56.46-11.34.07-1.23.15-2.47.22-3.7,1.29.14,2.58-.91,3.86,0-.77.59-2.14-.44-2.53.69a9.8,9.8,0,0,0-.07,3q-.36,6.22-.73,12.44c-.4-.43.12-1.14-.52-1.6C61.85,163.57,62.39,165.55,60.66,164.28Z"/><path class="cls-10" d="M12.83,110.7c-.64.81-1.75,1.17-2.15,2.22l0,0-.36.31c-.76.46-.64-.33-.74-.59-.53-1.52-1-3.06-1.5-4.6-.18-.87-.38-1.73-.56-2.61-.13-.67.2-.57.6-.32l.57.61.28.3H9l.29.29h0l.3.29h0a2.05,2.05,0,0,0,.87.88h0a8.39,8.39,0,0,0,1.67,1.8l.42.46Z"/><path class="cls-11" d="M31.34,146.1H55a11.94,11.94,0,0,0,3.57-.34c-.74,1-1.88.82-2.88.87-1.88.1-3.76.05-5.64,0a5.31,5.31,0,0,0-3.2.64,1.17,1.17,0,0,1-1.37.05c-1.16-.79-2.48-.59-3.77-.7-3.36-.28-6.73-.28-10.1-.27Z"/><path class="cls-11" d="M119.35,154.78c0,.5,0,1,0,1.49a12,12,0,0,0,0,3.39c0,.13,0,.26,0,.38v.78c0,.3,0,.59,0,.88a1.34,1.34,0,0,0-1.18.62q0-4-.1-8.1c0-1.75.09-3.5.14-5.25l1.12-.27C119.28,150.73,119.31,152.75,119.35,154.78Z"/><path class="cls-12" d="M11.06,115.68a16.31,16.31,0,0,1,3.23-3.56,1.37,1.37,0,0,1,2.22,0,6.83,6.83,0,0,0-1.72,1.25,17.57,17.57,0,0,0-3.25,4.37A3,3,0,0,1,11.06,115.68Z"/><path class="cls-11" d="M142.14,138.56c.85-.51,1.13-.1,1.16.72.07,1.88.15,3.76.23,5.64-.72.08-.69,1.05-1.37,1.17Z"/><path class="cls-11" d="M43.19,155.62a24.73,24.73,0,0,0,.32-5.5c0-.48,0-1,0-1.43l0,0a1.75,1.75,0,0,0,1.31.33c0,.55,0,1.11,0,1.67l-.18,1.25,0,.54c-.09,1.35-.17,2.7-.25,4.05C44,156.28,43.85,155.56,43.19,155.62Z"/><path class="cls-13" d="M11.54,117.79a17.57,17.57,0,0,1,3.25-4.37,6.83,6.83,0,0,1,1.72-1.25h.31l.32.26h0v.31c-.39,0-.81,0-1.05.35-1.23,2.1-2.95,3.9-3.94,6.16A2.91,2.91,0,0,1,11.54,117.79Z"/><path class="cls-13" d="M142.14,138.56l0,7.53-.34.06-9.56,0,0,0,.12-6.39a19.28,19.28,0,0,1,.17,4.86c0,.92.27,1.28,1.23,1.25q3.39-.08,6.78,0c1,0,1.38-.27,1.33-1.3-.08-1.54,0-3.08,0-4.62C141.85,139.45,141.67,138.93,142.14,138.56Z"/><path class="cls-11" d="M99.51,167.85c-2,1-4.21,1-6.32,1.08-3.5.21-7,.06-10.54.06-.46,0-1,.12-1.18-.54l0,0c.85.1,1.71.24,2.57.27a82.68,82.68,0,0,0,15.4-.87Z"/><path class="cls-11" d="M35.13,148.69H34.5c-.79-.08-.34.31-.22.57-.53-.06-.89-.24-.62-.87,3.09-.57,6.21-.15,9.31-.25.34,0,.5.23.6.52l0,0Z"/><path class="cls-11" d="M132.26,146.11l9.56,0c-.6.46-1.42,0-2,.51C137.28,146.56,134.72,147,132.26,146.11Z"/><path class="cls-14" d="M168.17,92.42c-.38-.41-.23-.92-.23-1.38q0-4.55,0-9.08c0-.47-.13-1,.2-1.39A99.67,99.67,0,0,1,168.17,92.42Z"/><path class="cls-4" d="M8.73,105.77l-.57-.61c0-.44-.43-.55-.6-.85a.63.63,0,0,1,.58-.28h.49a.2.2,0,0,1,.12.19l.32.35,0,0,.3.32,0,0,.3.32,0,0,.31.31,0,0,.31.31v0c-.06.48.28.75.55,1.06s.19.65-.3.73h0a.78.78,0,0,0-.87-.88h0l-.3-.29h0L9,106.07H9Z"/><path class="cls-11" d="M7.56,104.31c.17.3.62.41.6.85-.4-.25-.73-.35-.6.32.18.88.38,1.74.56,2.61C7.25,107,7,105,7.56,104.31Z"/><path class="cls-10" d="M162.71,114.17a5.46,5.46,0,0,1,1.13-1.29c.51-.3.12.27.23.4l-1,2.16Z"/><path class="cls-11" d="M153.06,134.44c.21-.52-.16-.92-.27-1.37l.64.25C153.37,133.72,153.62,134.21,153.06,134.44Z"/><path class="cls-11" d="M56.87,162.88a2.56,2.56,0,0,1,1.45.59A1.54,1.54,0,0,1,56.87,162.88Z"/><path class="cls-11" d="M19.45,132.75a1,1,0,0,1,.59.86C19.45,133.59,19.45,133.17,19.45,132.75Z"/><path class="cls-11" d="M52.81,161.13a2.07,2.07,0,0,1,1.26.57A1.33,1.33,0,0,1,52.81,161.13Z"/><path class="cls-11" d="M18.61,131.54a1.13,1.13,0,0,1,.58.89C18.55,132.42,18.58,132,18.61,131.54Z"/><path class="cls-11" d="M63.23,165.17a1.69,1.69,0,0,1,1.15.34C64,165.48,63.51,165.65,63.23,165.17Z"/><path class="cls-11" d="M56,162.55a1,1,0,0,1,.86.34C56.55,162.89,56.18,163,56,162.55Z"/><path class="cls-9" d="M34.28,149.25c-.12-.26-.57-.65.22-.57l0,.55-.12,0Z"/><path class="cls-11" d="M8.63,104H8.14c0-.19,0-.37,0-.56A.74.74,0,0,1,8.63,104Z"/><path class="cls-11" d="M13.65,122.27a1.08,1.08,0,0,1,.94.28C14.24,122.59,13.88,122.66,13.65,122.27Z"/><path class="cls-11" d="M154.61,131.91l.27-.34C154.82,131.71,155,132.07,154.61,131.91Z"/><path class="cls-11" d="M22.64,137.1l.49.52C22.79,137.62,22.67,137.4,22.64,137.1Z"/><path class="cls-11" d="M25.53,140.59a.6.6,0,0,1,.37.52C25.62,141.05,25.55,140.84,25.53,140.59Z"/><path class="cls-11" d="M145.81,143.12a.57.57,0,0,1,.38-.49C146.17,142.88,146.11,143.09,145.81,143.12Z"/><path class="cls-11" d="M30.2,145.47a.58.58,0,0,1,.55.33A.53.53,0,0,1,30.2,145.47Z"/><path class="cls-11" d="M14.54,124.88l.38.58C14.6,125.4,14.53,125.17,14.54,124.88Z"/><path class="cls-11" d="M34.88,149.77a.6.6,0,0,1,.54.36C35.16,150.13,34.92,150.09,34.88,149.77Z"/><path class="cls-11" d="M36,150.66a.63.63,0,0,1,.54.36C36.31,151,36.09,150.94,36,150.66Z"/><path class="cls-11" d="M52.23,160.84a.71.71,0,0,1,.6.3C52.57,161.16,52.34,161.12,52.23,160.84Z"/><path class="cls-11" d="M54.83,162a.67.67,0,0,1,.61.28A.56.56,0,0,1,54.83,162Z"/><path class="cls-11" d="M55.42,162.29c.25,0,.48,0,.62.27A.49.49,0,0,1,55.42,162.29Z"/><path class="cls-11" d="M117.14,162.86a.63.63,0,0,1,.61-.26A.5.5,0,0,1,117.14,162.86Z"/><path class="cls-11" d="M116.48,163.14a.82.82,0,0,1,.69-.29C117,163.17,116.76,163.18,116.48,163.14Z"/><path class="cls-11" d="M115.67,163.46a.7.7,0,0,1,.64-.27A.59.59,0,0,1,115.67,163.46Z"/><path class="cls-11" d="M58.32,163.47a.75.75,0,0,1,.69.25A.59.59,0,0,1,58.32,163.47Z"/><path class="cls-11" d="M59.18,163.77a.77.77,0,0,1,.7.25A.61.61,0,0,1,59.18,163.77Z"/><path class="cls-11" d="M60.05,164.05a.62.62,0,0,1,.63.25A.52.52,0,0,1,60.05,164.05Z"/><path class="cls-11" d="M14.81,122.58a.7.7,0,0,1,.65.26A.55.55,0,0,1,14.81,122.58Z"/><path class="cls-11" d="M64.41,165.52a.74.74,0,0,1,.69.23C64.83,165.79,64.57,165.79,64.41,165.52Z"/><path class="cls-11" d="M7.28,102.58l.28.29Z"/><path class="cls-11" d="M7.56,102.88l.29.28Z"/><path class="cls-11" d="M7.85,103.17l.27.29Z"/><path class="cls-11" d="M164.13,110.69l.3-.35Z"/><path class="cls-4" d="M10.36,113.28l.36-.31Z"/><path class="cls-11" d="M16,122.9l.4.23Z"/><path class="cls-11" d="M27,142.25l.29.33Z"/><path class="cls-11" d="M27.3,142.58l.29.3Z"/><path class="cls-11" d="M27.59,142.87l.29.3Z"/><path class="cls-11" d="M27.87,143.16l.3.3Z"/><path class="cls-11" d="M145.53,143.41l.3-.3A.28.28,0,0,1,145.53,143.41Z"/><path class="cls-11" d="M28.16,143.46l.3.29Z"/><path class="cls-11" d="M19.18,132.43l.27.31Z"/><path class="cls-11" d="M145.24,143.71c.1-.1.2-.21.31-.31A.32.32,0,0,1,145.24,143.71Z"/><path class="cls-11" d="M28.45,143.75l.3.29Z"/><path class="cls-11" d="M145,144l.31-.31A.31.31,0,0,1,145,144Z"/><path class="cls-11" d="M28.74,144l.3.29Z"/><path class="cls-11" d="M144.66,144.29,145,144A.31.31,0,0,1,144.66,144.29Z"/><path class="cls-11" d="M29,144.32l.3.3Z"/><path class="cls-11" d="M144.37,144.58c.1-.11.21-.21.31-.31A.31.31,0,0,1,144.37,144.58Z"/><path class="cls-11" d="M29.32,144.61l.3.3Z"/><path class="cls-11" d="M144.07,144.86l.32-.3A.31.31,0,0,1,144.07,144.86Z"/><path class="cls-11" d="M29.61,144.9l.31.3Z"/><path class="cls-11" d="M154.87,131.58l.27-.38Z"/><path class="cls-11" d="M143.89,145a.18.18,0,0,1,.18-.14C144.08,145,144.1,145.13,143.89,145Z"/><path class="cls-11" d="M29.91,145.19l.3.29Z"/><path class="cls-11" d="M152.78,134.74l.31-.33Z"/><path class="cls-11" d="M30.76,145.81l.34.25Z"/><path class="cls-11" d="M154,131.86l.24.18a.47.47,0,0,1-.25.13Z"/><path class="cls-11" d="M24.41,139.33l.29.36Z"/><path class="cls-11" d="M24.69,139.67,25,140Z"/><path class="cls-11" d="M14.54,124.63a2.44,2.44,0,0,1,0,.27C14.34,124.82,14.32,124.73,14.54,124.63Z"/><path class="cls-11" d="M25,140l.29.31Z"/><path class="cls-11" d="M34.57,149.43l.32.37A.38.38,0,0,1,34.57,149.43Z"/><path class="cls-11" d="M35.41,150.12l.32.29Z"/><path class="cls-11" d="M35.71,150.39l.32.29Z"/><path class="cls-11" d="M36.56,151l.31.27Z"/><path class="cls-11" d="M36.86,151.28l.36.28Z"/><path class="cls-11" d="M25.88,141.09l.3.32Z"/><path class="cls-11" d="M54.26,161.76c.14.08.29.15.44.22C54.55,161.91,54.4,161.84,54.26,161.76Z"/><path class="cls-11" d="M147.32,141.43l.3-.32Z"/><path class="cls-11" d="M147,141.73l.29-.31Z"/><path class="cls-11" d="M26.44,141.69l.35.3Z"/><path class="cls-11" d="M146.77,142l.28-.3Z"/><path class="cls-11" d="M146.48,142.31l.28-.28Z"/><path class="cls-11" d="M26.16,141.39l.3.31Z"/><path class="cls-12" d="M117.18,30.9a8,8,0,0,0-7.67,3.71c-.43.62-.76.33-1.19.09a35.58,35.58,0,0,0-35.19-.34c-.69.4-.87.31-1.31-.28a7.5,7.5,0,0,0-9.72-2.44c.24-1.66,2.06-3.13,4.2-3.28,1.49-.1,3.22.4,4.41-.22s1.51-2.39,2.47-3.43c5.09-5.47,11.28-7.76,18.75-6.39a23.55,23.55,0,0,1,12.06,6,16.69,16.69,0,0,1,3.17,3.9c.57,1,1.07.88,1.8.54a7.28,7.28,0,0,1,4.72-.75A4.3,4.3,0,0,1,117.18,30.9Z"/><path class="cls-12" d="M59.51,33.86C56.87,37.3,54.56,41,51.77,44.31c-.37.44-.8.82-1.21,1.23l-25.2,0a1.61,1.61,0,0,0-1.31.5,1.88,1.88,0,0,1-2-1.27,2.77,2.77,0,0,1,.44-3,5.85,5.85,0,0,1,7.78-1.9c.93.44,1.24.14,1.64-.64a7,7,0,0,1,8.39-3.55,11.18,11.18,0,0,1,4,1.8c.88.65,1.12.29,1.29-.59a7.32,7.32,0,0,1,4.12-5.57c2.67-1.31,5-.53,7.35.85C57.92,32.67,58.45,33.64,59.51,33.86Z"/><path class="cls-12" d="M130.86,45.66c-3.31-3.54-5.93-7.61-8.75-11.52a2.06,2.06,0,0,0,1.47-.43,6.32,6.32,0,0,1,10.36,3.16c.32,1.08.64,1,1.35.49a6.33,6.33,0,0,1,7-.29A3.69,3.69,0,0,1,144,38.91c.51,1.34,1.34,1.42,2.48,1a4.41,4.41,0,0,1,4.34.84,3.8,3.8,0,0,1,1.78,3.71c-.09.89-.39,1.35-1.28,1.37a3.26,3.26,0,0,0-1.82-.33H133.3A6.9,6.9,0,0,0,130.86,45.66Z"/><path class="cls-12" d="M15.24,66.9c-1.54-.2-2.37-1.17-1.69-2.25,1.29-2.05,2.5-4.26,5-5.13a6.47,6.47,0,0,1,8.06,3A2.47,2.47,0,0,0,29,64.1c1.28.05,2.76.27,3.2,1.93l-1.73,0c-4.27,0-8.54,0-12.81.07C16.83,66.15,15.79,65.84,15.24,66.9Z"/><path class="cls-12" d="M143.27,66.07c.18-.22.34-.6.55-.64,1.6-.23,2.86-1.55,4.55-1.42a1.41,1.41,0,0,0,1.47-.89,5.31,5.31,0,0,1,4.89-2.79,4.63,4.63,0,0,1,4.68,3.18,2.93,2.93,0,0,0,.88,1.12c.43.41.87.8.48,1.49a1.07,1.07,0,0,1-1.56.52l-.28-.3c-.12-.32-.33-.33-.58-.16l-9.56,0a.77.77,0,0,0-.87,0Z"/><path class="cls-7" d="M15.24,66.9c.55-1.06,1.59-.75,2.43-.76,4.27-.07,8.54-.06,12.81-.07l1.73,0c4.39,0,8.79,0,13.18,0,.66,0,1.78-.32,1.79.65s-1.16.69-1.77.69c-9.52.06-19,0-28.55,0A2.34,2.34,0,0,1,15.24,66.9Z"/><path class="cls-10" d="M24.05,46a1.61,1.61,0,0,1,1.31-.5l25.2,0c-.39.53-.79,1.06-1.19,1.58-.5-.43-1.11-.23-1.66-.23-7.25,0-14.49,0-21.73-.06C25.26,46.82,24.36,47.06,24.05,46Z"/><path class="cls-7" d="M148.79,66.16l9.56,0,.58.16.28.3c0,.66-.52.59-.94.61-8.06.38-16.13.09-24.2.15a.71.71,0,0,1-.29,0c-.42-.16-1.16,0-1.17-.6s.74-.66,1.24-.67c2.85,0,5.7,0,8.55,0,.29,0,.58,0,.87,0l4.65.09A1,1,0,0,0,148.79,66.16Z"/><path class="cls-10" d="M130.86,45.66a6.9,6.9,0,0,1,2.44-.17h16.21a3.26,3.26,0,0,1,1.82.33c0,1.31-1.05,1-1.79,1-5.23,0-10.47,0-15.7.05-.56,0-1.17-.17-1.66.28Z"/><path class="cls-7" d="M38.57,90.11c-2.65,0-5.31,0-8,0-.5,0-1.32.18-1.34-.46s.85-.6,1.38-.62C32.09,89,33.54,89,35,89c4,0,7.92,0,11.88,0,.47,0,1.26-.21,1.24.57s-.77.58-1.28.59c-2.75,0-5.5,0-8.26,0Z"/><path class="cls-7" d="M124.11,24.88a.73.73,0,0,1-.68.79.64.64,0,0,1-.75-.66c0-.47.22-.7.67-.74S124.08,24.42,124.11,24.88Z"/><path class="cls-7" d="M54.49,24.47c-.1.41-.31.7-.78.65a.72.72,0,0,1-.64-.8c0-.49.31-.68.76-.63A.7.7,0,0,1,54.49,24.47Z"/><path class="cls-7" d="M34.45,57.08c-.38,0-.67-.22-.66-.61a.69.69,0,0,1,.77-.69c.41,0,.58.31.56.7A.6.6,0,0,1,34.45,57.08Z"/><path class="cls-14" d="M59.22,119.06a30,30,0,0,0,3.06,4.36A4.48,4.48,0,0,0,65.43,125c1.26,0,2.29.93,3.59,1a8.49,8.49,0,0,0,3.68-.55,4.44,4.44,0,0,0,2.61-5.82,14.56,14.56,0,0,1-.3-11.38c.24-.61.46-1.25-.55-1.59s-1.31.27-1.57.9a14.83,14.83,0,0,0-.57,10.86c.27.77.59,1.52,1,2.46-.64-.11-1-.88-1.57-.48s-.55.85-.54,1.54c-.75-.38-1-1.41-2-1s-.15,1.13-.51,1.65c-.57-.61-.84-1.57-1.92-1.46-.65.06-.5.59-.6,1-1.32-.2-1.89-1.17-2.34-2.27a22.62,22.62,0,0,0,5.76-8.22c2-4.3,3.75-8.63,7.4-11.92a14.79,14.79,0,0,0,3.7-5.11,4.12,4.12,0,0,1,1.56.14,46.05,46.05,0,0,0,18.19.76,57.56,57.56,0,0,0,10.74-2.74c.8-.29,1.31-.27,1.79.56a31.84,31.84,0,0,1,3.56,8.34c1.76,7,1.09,13.55-3.1,19.57-1-.35-1.47.44-2.23,1-.21-.52-.06-1.3-.91-1.32-1,0-1.18.94-1.76,1.61-.27-.76.52-1.7-.49-2-.77-.28-1,.46-1.43.92l-.34-.25c1.18-3.09,2.18-6.19,1.44-9.58a15.91,15.91,0,0,0-1.51-4.19c-.32-.62-.74-1.23-1.57-.85s-.86,1-.52,1.8c1.08,2.52,1.83,5.1,1.22,7.87a11,11,0,0,1-.77,2.48c-2.05,4.34.81,7.48,5.39,7.44a6.46,6.46,0,0,0,1.85-.31A12.83,12.83,0,0,1,115,125c1.6-.1,2.53-1.44,3.46-2.62a17.37,17.37,0,0,1,.31,9.92c-.34,1.61-.49,3.35-1.84,4.58-2.56-1.82-5.4-2-8.38-1.48-.23-.34-.58-.3-.92-.3a9.55,9.55,0,0,0-6.91,2.81,6.68,6.68,0,0,1-4.33,2.26,16.31,16.31,0,0,0-1.7.29,27.06,27.06,0,0,1-17.88-2.89c-1-.51-1.89-1.38-3.16-1.24-1.38-.37-2.63-1.12-4.1-1.22-3.82-.28-6.82,1-8.66,4.71-.22-.52-.37-.86-.51-1.2A.69.69,0,0,0,60,138l0,0-.28-.34h0c-.27-2.48-1.08-4.84-1.29-7.35A36.16,36.16,0,0,1,59.22,119.06Z"/><path class="cls-14" d="M116.36,45.45c-.23,1.3,1,1.91,1.38,2.91.08,1.44,1.13,2.41,1.76,3.58a25,25,0,0,1,3.19,8,4,4,0,0,0-.14,2.07c.17,1.55,1.06,3.13-.08,4.65-.13-.14-.31-.25-.39-.41-2-4.08-7.63-4.22-10.24-2.17a4.82,4.82,0,0,0-1.87,3c-.55,3,1.86,5.72,5.19,6a8.63,8.63,0,0,0,6.76-2.63,3.15,3.15,0,0,1-.37,2c-1.84,4.9-5.54,7.9-10.21,9.84C105,84.9,98.28,85.45,91.55,85.71a79.33,79.33,0,0,1-14.09-1.07c-6.91-1-12.8-3.8-17.34-9.15a11.06,11.06,0,0,1-2.62-8.63,33.81,33.81,0,0,1,2.27-8.92A47.17,47.17,0,0,1,65,48.34c.84-.68,1.27-1.87,2.53-2,.58,2.13,1.69,2.85,3.58,2.31,2.44-.23,4.59-1.38,6.87-2.11a13.44,13.44,0,0,1,3.78-1c-.4,1-1.48,1.36-1.84,2.28a1.48,1.48,0,0,0-.66,1.76A1.79,1.79,0,0,0,81,50.65a13,13,0,0,0,3.73-.23c8.38-1.8,15.67-5.24,20.1-13.09,1.26-.12,2.24.76,3.42,1a7.69,7.69,0,0,0,3.5,1.81c.36.1.86.12.74-.3-.21-.67.16-1.79-1.11-1.86h0v-1.8h0c1.1,0,1.44-1.2,2.34-1.59,1.41-.61,3.35-.61,4.08.19a4.62,4.62,0,0,0-2.46,3.47C114.75,40.76,115.43,43.12,116.36,45.45ZM93.42,82.3c.09-.28.32-.31.57-.31.71-1,2.06-1.17,2.75-2.19.42-.63,1.19-1.17.43-2s-1.39-.24-2,.28a5.77,5.77,0,0,1-3.48,1.6c-2.27.17-4.43,0-6.17-1.76-.53-.52-1.15-.76-1.76-.09S83.56,79,84,79.49a7.71,7.71,0,0,0,4.51,2.59A21.49,21.49,0,0,0,93.4,82s.1.07.09.1a.87.87,0,0,1,0,.22l-.16.13-.07-.08Zm-16-16.52c-.17,6.94,7.31,11.33,12.55,7.91.6-.39,1-.2,1.55.16a6.36,6.36,0,0,0,5.14.77,8.34,8.34,0,0,0,6.58-6.57,8.85,8.85,0,0,0-3-9.29c-4.18-3.71-9.1-4.45-14.35-3S77.43,61.14,77.44,65.78ZM65.48,73a7.79,7.79,0,0,0,3.5-.74,4.6,4.6,0,0,0,1.48-7.62,7.55,7.55,0,0,0-8.18-1.18c-3.38,1.84-3.8,5.53-.93,8.1A6.4,6.4,0,0,0,65.48,73Zm8.81-10.46a4.25,4.25,0,0,0,4.33-4.28A4.33,4.33,0,0,0,74.3,54,4.45,4.45,0,0,0,70,58.33,4.18,4.18,0,0,0,74.29,62.56Zm36.85-4.23A4.21,4.21,0,0,0,106.9,54a4.58,4.58,0,0,0-4.41,4.33,4.41,4.41,0,0,0,4.28,4.24A4.22,4.22,0,0,0,111.14,58.33Z"/><path class="cls-13" d="M113.41,121.13c4.19-6,4.86-12.61,3.1-19.57A31.84,31.84,0,0,0,113,93.22c-.48-.83-1-.85-1.79-.56a57.56,57.56,0,0,1-10.74,2.74,46.05,46.05,0,0,1-18.19-.76,4.12,4.12,0,0,0-1.56-.14c0-.11,0-.22,0-.33a8.73,8.73,0,0,0,2.1-4.6c1.14-.27,1.23-1.08,1.06-2l.63-.06.13,0h.14c1,.09,2,.25,3,.27a86.11,86.11,0,0,0,9.5-.18c-.08,1.51.35,2,1.79,1.84a67.7,67.7,0,0,0,13-2.2c.55-.16,1-.38,1.48.33,4.12,6.46,7,13.32,6.93,21.14a22.46,22.46,0,0,1-3.95,12.09,4.86,4.86,0,0,1-2.9,2.29C113.46,122.37,113.44,121.75,113.41,121.13Z"/><path class="cls-12" d="M97.2,87.58a86.11,86.11,0,0,1-9.5.18c-1,0-2-.18-3-.27-.08-.15-.17-.16-.27,0l-.63.06L83,87.2c-.26-.52-.75-.54-1.23-.62A63.24,63.24,0,0,1,68,83.1c-.92-.36-.61.4-.71.78A18,18,0,0,1,56.07,64.17a29.06,29.06,0,0,1,6.66-14.93.24.24,0,0,0,.24-.3h0c.66-.21.85-.94,1.42-1.25.35.07.62.23.6.64a47.17,47.17,0,0,0-5.21,9.6,33.81,33.81,0,0,0-2.27,8.92,11.06,11.06,0,0,0,2.62,8.63c4.54,5.35,10.43,8.19,17.34,9.15a79.33,79.33,0,0,0,14.09,1.07c6.73-.26,13.46-.81,19.79-3.45,4.67-1.94,8.37-4.94,10.21-9.84a3.15,3.15,0,0,0,.37-2,8.53,8.53,0,0,0,.55-3.74c1.14-1.52.25-3.1.08-4.65a4,4,0,0,1,.14-2.07c.47.52.23,1.2.39,1.8,1.89,7.06,0,13-5.4,17.86-3.45,3.08-7.72,4.67-12,6.11-.38.13-.92,0-1,.63l-.48,0c-.53-.47-.85,0-1.23.26C101.06,87.13,99,86.87,97.2,87.58Zm-30.77-5-.11-.07.12.06c.1.1.16.37.37.1Z"/><path class="cls-6" d="M119.79,146.17a5.66,5.66,0,0,1-.11-4.93c.92-1.89,1.91-3.75,2.67-5.72.13-.34.13-1,.79-.42l.43.53h0l.26.33,0,0,.34.56h0c.84,1.09,1.07.52,1.21-.43.56-3.79,1.06-7.59,2.59-11.15.48-.11.51.39.77.58l.3.71.09.44a.59.59,0,0,0,.22.61v0a78.31,78.31,0,0,1,1.47,18.83l-.29.08Z"/><path class="cls-13" d="M73.6,136.28c1.27-.14,2.17.73,3.16,1.24a27.06,27.06,0,0,0,17.88,2.89,16.31,16.31,0,0,1,1.7-.29,6.68,6.68,0,0,0,4.33-2.26,9.55,9.55,0,0,1,6.91-2.81c.34,0,.69,0,.92.3-2.65,1.2-5.13,2.62-6.78,5.14a7.56,7.56,0,0,0-1.33,2.86c-.17,1.07-.84,1.4-1.74,1.55A53,53,0,0,1,81,144.81c-.45-.08-1-.12-1.14-.72C78.94,140.54,76.54,138.2,73.6,136.28Z"/><path class="cls-10" d="M116.36,45.45c-.93-2.33-1.61-4.69-1-7.24a4.62,4.62,0,0,1,2.46-3.47l1.42.32A2.51,2.51,0,0,0,121,36.74h0l.29.31h0a.6.6,0,0,0,.28.61c3.29,4.19,6.34,8.57,10,12.49.3.32.78.77.46,1.26-.5.75-1.34.51-2,.36-4.25-.95-8.2-2.54-11.22-5.83C118,45.15,117.31,44.8,116.36,45.45Z"/><path class="cls-10" d="M64,46.62c-.57-1.32-1.11-1.51-2.19-.46a22.9,22.9,0,0,1-8.35,4.93,7.86,7.86,0,0,1-.84.19,7.76,7.76,0,0,0-1.28,0c-.47.1-1,.41-1.25-.19s.35-.7.57-1c.61-1,1.83-1.57,1.86-2.92h0l.3-.3h0c.39.06.56-.15.63-.49a.85.85,0,0,1,.56-.64.85.85,0,0,0,.87-.87,44.23,44.23,0,0,0,3.6-4.49c1.48-1.92,2.56-4.2,4.75-5.52,2.38.75,3,2.59,2.93,4.81A13.31,13.31,0,0,1,65.28,44c-.47.41-.28,1-.28,1.45C65,46.17,64.77,46.64,64,46.62Z"/><path class="cls-9" d="M118.12,149c-.05,1.75-.09,3.5-.14,5.25l-15,0a3,3,0,0,1-1.69-.26c0-1.75,0-3.49,0-5.23l.31-.1a23.75,23.75,0,0,0,4.54-.06,2,2,0,0,0,1.22,0,5.67,5.67,0,0,0,2.92-.06h1.7a16.42,16.42,0,0,0,5.55,0A.68.68,0,0,1,118.12,149Z"/><path class="cls-9" d="M100.06,148.7l-.27,5.19c-5.9.1-11.77-.23-17.65-.57-.23-1.56.22-3.09.16-4.64l.07-.06,17.41-.07Z"/><path class="cls-13" d="M104.65,86.32c.08-.62.62-.5,1-.63,4.31-1.44,8.58-3,12-6.11,5.42-4.82,7.29-10.8,5.4-17.86-.16-.6.08-1.28-.39-1.8a25,25,0,0,0-3.19-8c-.63-1.17-1.68-2.14-1.76-3.58,5.73,6.64,9,14.13,7.55,23.08a15.54,15.54,0,0,1-7.17,10.48A28.93,28.93,0,0,1,104.65,86.32Z"/><path class="cls-12" d="M108.21,38.29c-1.18-.2-2.16-1.08-3.42-1a2.1,2.1,0,0,0-1.24-.68c-11.11-3.56-21.89-3.3-32.19,2.72-.17-.42-.84-.41-.83-1,4.37-2.67,8.86-5.06,14-5.83,8.77-1.31,17-.06,24.26,5.39Z"/><path class="cls-13" d="M113.26,146.32c-3.27,0-6.55,0-9.82,0-.88,0-1.19-.26-1.07-1.18.64-4.77,6.36-8.67,11-7.46a5.47,5.47,0,0,1,2.55,1.56c1.58,1.65.67,3.17-.25,4.68l-.28.39h0l-.28.31-.15,0h-.14a9.8,9.8,0,0,0,.35-2.79c0-.29-.1-.59-.4-.7s-.55.09-.73.31c-.52.66-1,1.34-1.53,2a16.37,16.37,0,0,0,.19-1.7c0-.43-.07-.89-.56-1.06s-.7.15-1,.4c-.51.42-.59,1.19-1.25,1.49,0-.29.06-.57.06-.85,0-.59,0-1.2-.85-1.2s-1.82,1.49-1.86,2.46a1,1,0,0,0,1,1.19,1.26,1.26,0,0,0,.76-.33,5,5,0,0,0,.67-.71c0,.18,0,.37,0,.56,0,.58-.12,1.15.62,1.4s1-.21,1.45-.63.28-.94.85-1.05a.93.93,0,0,1,0,.29c-.27.95-1,2.09.91,2.15C113.58,145.89,113.33,146.17,113.26,146.32Z"/><path class="cls-9" d="M63.55,152.16a9.8,9.8,0,0,1,.07-3c.39-1.13,1.76-.1,2.53-.69,4.5-.18,9,.46,13.49,0a1.31,1.31,0,0,1,1.41.49c-.3,1.41.08,2.87-.33,4.26l-7.16-.37c-2.53-.14-5.06-.29-7.6-.39A8.14,8.14,0,0,1,63.55,152.16Z"/><path class="cls-13" d="M65.42,145a8.52,8.52,0,0,1-1.84-2.57,2.6,2.6,0,0,1,.9-3.76,6.68,6.68,0,0,1,7-.66,10.75,10.75,0,0,1,6,6.51c.51,1.4.33,1.67-1.08,1.69-2.8,0-5.6,0-8.4,0a2.53,2.53,0,0,1-1.89-.48l.12-.13c1.63.13,1.63.13,1.63-1.93.45.12.51.54.68.87.35.67.87.64,1.47.39s.49-.65.3-1.16a4.39,4.39,0,0,1-.13-1.27c.57.17.64.81,1,1.14.67.57,1.39.53,1.63-.26.34-1.13-.51-2-1.14-2.83a.87.87,0,0,0-1.16-.3c-.82.55-.29,1.4-.34,2.13a.71.71,0,0,0,0,.14c-.82,0-.71-.88-1.16-1.25s-.72-.7-1.23-.47-.51.75-.41,1.23.37.88.18,1.37c-.37-.54-.73-1.1-1.13-1.64-.27-.37-.52-.9-1.13-.63s-.53.79-.52,1.24a6.94,6.94,0,0,0,.77,2.45Z"/><path class="cls-12" d="M61,117.11l-.12-.29-.17-.28c-3.07-6-2.8-12.15-.82-18.35a41.65,41.65,0,0,1,5.25-10.53c.72-1.06,1.4-1.6,2.62-.8a2.47,2.47,0,0,0,.68.22c-.85.06-.61.84-.86,1.29a33.89,33.89,0,0,0-7,14.82A27.72,27.72,0,0,0,61,115.28a.47.47,0,0,0,.2.63l0,0C61.13,116.33,61.36,116.78,61,117.11Z"/><path class="cls-9" d="M67.56,88.37c.25-.45,0-1.23.86-1.29a110.08,110.08,0,0,0,14.31,2.49,8.73,8.73,0,0,1-2.1,4.6,55.21,55.21,0,0,1-12.24-5.64A2.19,2.19,0,0,0,67.56,88.37Z"/><path class="cls-9" d="M44.93,150.65c0-.56,0-1.12,0-1.67l.09-.34,15,0a2.56,2.56,0,0,0,1.54-.19l.78,0c-.07,1.23-.15,2.47-.22,3.7Z"/><path class="cls-14" d="M70.53,38.39c0,.57.66.56.83,1-1.74,1.84-3.35,3.76-3.85,6.35-.29-.26-.17-.9-.79-.85,0-.54,0-1-.77-.61-.32.17-.63.32-.67-.26a13.31,13.31,0,0,0,.84-4.32c0-2.22-.55-4.06-2.93-4.81.22-.58.75-.64,1.27-.76a12.39,12.39,0,0,1,3.69-.27l0,0,.35.25C70.36,35,70.46,36.69,70.53,38.39Z"/><path class="cls-12" d="M24.32,109.35a2.75,2.75,0,0,1-1.59-1.48,36.59,36.59,0,0,1,11.56-1.27A31.89,31.89,0,0,1,47,109.89a10.14,10.14,0,0,1,3.64,2.5l-.71.11c-2.18-.91-4.2-2.21-6.61-2.48-.83-1.07-1.64-.94-2.43,0A6.91,6.91,0,0,1,38.64,109c-.23-1.19-.94-.94-1.7-.57a1.24,1.24,0,0,0-.4-.16,38.54,38.54,0,0,0-11.69.52C24.52,108.8,24.41,109.07,24.32,109.35Z"/><path class="cls-13" d="M116.88,136.83c1.35-1.23,1.5-3,1.84-4.58a17.37,17.37,0,0,0-.31-9.92l1.87-3.42c2.32,3.76,1.4,14.33-1.62,19.44Z"/><path class="cls-12" d="M59.22,119.06a36.16,36.16,0,0,0-.75,11.27c.21,2.51,1,4.87,1.29,7.35a23.94,23.94,0,0,1-3.31-13.49,31.83,31.83,0,0,1,1.34-8.42Z"/><path class="cls-13" d="M24.32,109.35c.09-.28.2-.55.53-.61a38.54,38.54,0,0,1,11.69-.52,1.24,1.24,0,0,1,.4.16A17.1,17.1,0,0,0,33.18,115c-.68-1.46,0-2.68.61-3.94,1-1.92.71-2.36-1.42-2.36s-4.44-.2-6.66.79a14.85,14.85,0,0,1,3.38,6c.32.94.24,1.69-.72,2.18a10.9,10.9,0,0,0-3.09-6.94h0l-.3-.31h0l-.29-.32,0,0-.3-.37Z"/><path class="cls-11" d="M130.79,146.07a78.31,78.31,0,0,0-1.47-18.83c1.4,1.93,1.08,4.27,1.45,6.43s.73,4.25.91,6.44c.15-1.9.56-3.73.87-5.57.23-1.32.43-2.64.7-3.95,0-.18.33-.31.5-.47-.49,3.19-1.3,6.33-1.4,9.58l-.12,6.39C131.75,146,131.29,144.77,130.79,146.07Z"/><path class="cls-11" d="M50,112.5l.71-.11a4.57,4.57,0,0,1,1.84,1.22c-2,.26-3.37,1.5-4.68,2.85h0l-.42.29c-.48.52-1,1-1.45,1.57s-.78.92-1.42.46-.41-1.1,0-1.61a16.18,16.18,0,0,1,3.56-3.3c.23-.17.44-.35.66-.53A2.3,2.3,0,0,0,50,112.5Z"/><path class="cls-12" d="M68.15,33.84a12.39,12.39,0,0,0-3.69.27c-.52.12-1,.18-1.27.76-2.19,1.32-3.27,3.6-4.75,5.52a44.23,44.23,0,0,1-3.6,4.49l-.5,0c2.26-3.13,4.46-6.3,6.8-9.37C62.84,33.31,65.48,32.15,68.15,33.84Z"/><path class="cls-3" d="M67.3,83.88c.1-.38-.21-1.14.71-.78a63.24,63.24,0,0,0,13.74,3.48c.48.08,1,.1,1.23.62A54.66,54.66,0,0,1,67.3,83.88Z"/><path class="cls-11" d="M17.16,112.74v-.31c.51,0,1.1.57,1.43-.27a12.82,12.82,0,0,1,4.53,5.73c-.2.44-.32,1-.95.93s-.6-.55-.79-.92C20.34,115.87,19.24,113.91,17.16,112.74Z"/><path class="cls-5" d="M23.11,117.89a12.82,12.82,0,0,0-4.53-5.73.51.51,0,0,0-.46-.34l-.09-.26c.83-1.43,2.33-1.45,3.69-1.76-.43,1-1.63.68-2.5,1.37a8.69,8.69,0,0,1,4,4.79C23.5,116.6,23.82,117.28,23.11,117.89Z"/><path class="cls-13" d="M125.85,123.46l.77,0-.18.5-.3.63h0a2.31,2.31,0,0,0-.58,1.46h0a9.62,9.62,0,0,0-.82,3.21c0,.19-.05.38-.08.57a.21.21,0,0,0,0,.24l0,0c-.32.24-.24.59-.23.91l0,.43a.77.77,0,0,0-.22.73l-.36.75-.27,0c.12-2.57.23-5.14.35-7.7A2.53,2.53,0,0,1,125.85,123.46Z"/><path class="cls-11" d="M25.28,110.68a10.9,10.9,0,0,1,3.09,6.94c-.65.42-1.17.46-1.39-.45a21.93,21.93,0,0,0-2.55-5.62C25.11,111.65,25.29,111.26,25.28,110.68Z"/><path class="cls-11" d="M99.78,148.55l-17.41.07c.18-.67.73-.5,1.18-.5H98.69C99.1,148.12,99.59,148,99.78,148.55Z"/><path class="cls-11" d="M112.54,143.48c.51-.68,1-1.36,1.53-2,.18-.22.42-.43.73-.31s.37.41.4.7a9.8,9.8,0,0,1-.35,2.79l0,0-.21.09.21.23a1.59,1.59,0,0,1-1.61,1.38c.07-.15.32-.43.2-.43-1.93-.06-1.18-1.2-.91-2.15a.93.93,0,0,0,0-.29Z"/><path class="cls-11" d="M139.28,148.44a1.41,1.41,0,0,1-.4.15q-9.69,0-19.37-.06c.25-.63.81-.41,1.25-.41h17A2.71,2.71,0,0,1,139.28,148.44Z"/><path class="cls-11" d="M61.51,148.42a2.56,2.56,0,0,1-1.54.19l-15,0c.09-.51.47-.53.88-.53H60.74A.84.84,0,0,1,61.51,148.42Z"/><path class="cls-3" d="M119.19,35.06l-1.42-.32c-.73-.8-2.67-.8-4.08-.19-.9.39-1.24,1.54-2.34,1.59,1.77-3.4,5.67-4.1,7.94-1.44C119.26,34.82,119.22,34.94,119.19,35.06Z"/><path class="cls-13" d="M47.83,116.46c1.31-1.35,2.7-2.59,4.68-2.85h0l.3.29.3.29.28.3.83.87c0,.36.17.62.57.64l0,0c.05.16.09.32.14.49-.67.19-1.07-.24-1.48-.65-1.22-1.23-2.26-1.17-3.6.12A2.27,2.27,0,0,1,47.83,116.46Z"/><path class="cls-11" d="M128,124.93c-1.53,3.56-2,7.36-2.59,11.15-.14.95-.37,1.52-1.21.43.73.06.88-.35.87-1-.07-3.26,1.15-6.27,1.88-9.37C127,125.65,127.17,125,128,124.93Z"/><path class="cls-12" d="M21.72,109.8c-1.36.31-2.86.33-3.69,1.76l-.29,0h0a.32.32,0,0,0-.35-.27c-.69-.44-.82-.8.08-1.18a21.75,21.75,0,0,0,2.15-1.1,2,2,0,0,1,2.58.3c0,.08,0,.16.05.24l-.26.19Z"/><path class="cls-3" d="M61,117.11c.38-.33.15-.78.24-1.17.2.47.39,1,.59,1.42.44,1,.77,2.07,2,2.39.45,1.1,1,2.07,2.34,2.27.08.33.16.75-.12.94s-.6-.11-.87-.31A13.76,13.76,0,0,1,61,117.11Z"/><path class="cls-11" d="M119.79,146.17l10.71,0a2,2,0,0,1-1.45.51h-8.21C120.43,146.65,119.94,146.77,119.79,146.17Z"/><path class="cls-13" d="M65.28,44c0,.58.35.43.67.26.75-.41.78.07.77.61L64.38,47.7c-.57.31-.76,1-1.42,1.25-.08-1,.81-1.49,1-2.33.81,0,1-.45,1-1.17C65,45,64.81,44.41,65.28,44Z"/><path class="cls-13" d="M52.49,47.17c0,1.35-1.25,1.94-1.86,2.92-.22.34-.81.54-.57,1s.78.29,1.25.19a7.76,7.76,0,0,1,1.28,0c-1.1.4-2.55,1.23-3.28.19s.87-1.77,1.49-2.59A5.86,5.86,0,0,1,52.49,47.17Z"/><path class="cls-3" d="M108.21,38.29l.58-.34c.52.33,1,.68,1.55,1s.81.75,1.25.39-.21-.9-.25-1.38c1.27.07.9,1.19,1.11,1.86.12.42-.38.4-.74.3A7.69,7.69,0,0,1,108.21,38.29Z"/><path class="cls-11" d="M44.69,124.05c2.29-.49,4.64-.33,7-.57A12.22,12.22,0,0,1,44.69,124.05Z"/><path class="cls-11" d="M117.49,148.44a16.42,16.42,0,0,1-5.55,0A9.8,9.8,0,0,1,117.49,148.44Z"/><path class="cls-11" d="M54.26,122.3v-.84c.27-1.37.54-2.74.8-4.11l0-.84,0,0c.66,1.33.07,2.62-.25,3.87C54.74,121,55.37,122,54.26,122.3Z"/><path class="cls-11" d="M138.31,129.42a47.88,47.88,0,0,0-1.74-4.49C138.19,126,138.46,127.64,138.31,129.42Z"/><path class="cls-11" d="M143,125.77c1.45-1.1,3-1.56,4.68-.59A18,18,0,0,0,143,125.77Z"/><path class="cls-11" d="M139.8,132.74c-.06.35-.2.74-.56.74s-.36-.52-.42-.81c-.21-1-.35-2.09-.51-3.13.63.44.61,1.11.63,1.78S139,132.58,139.8,132.74Z"/><path class="cls-11" d="M110.24,148.45a5.67,5.67,0,0,1-2.92.06A2.61,2.61,0,0,1,110.24,148.45Z"/><path class="cls-5" d="M119.19,35.06c0-.12.07-.24.1-.36a4.41,4.41,0,0,1,1.68,2A2.51,2.51,0,0,1,119.19,35.06Z"/><path class="cls-11" d="M106.1,148.54a23.75,23.75,0,0,1-4.54.06A12,12,0,0,1,106.1,148.54Z"/><path class="cls-11" d="M124.76,129.26a9.62,9.62,0,0,1,.82-3.21A4.07,4.07,0,0,1,124.76,129.26Z"/><path class="cls-11" d="M146.76,126.68h-2C145.41,126.16,146.08,125.45,146.76,126.68Z"/><path class="cls-11" d="M61,146.17c0-.66.47-.82.88-1.26C61.83,145.63,61.81,146.11,61,146.17Z"/><path class="cls-11" d="M147.65,125.18a2.08,2.08,0,0,1,1.46.87C148.44,126.07,147.7,126.19,147.65,125.18Z"/><path class="cls-11" d="M127.07,123.18l.55-.55a1.39,1.39,0,0,1,1.47.53Z"/><path class="cls-3" d="M111.35,36.15V38C110.62,37.35,110.82,36.75,111.35,36.15Z"/><path class="cls-11" d="M141.86,126.66a1.86,1.86,0,0,1,1.12-.9C143,126.51,142.48,126.67,141.86,126.66Z"/><path class="cls-13" d="M54.34,44.91l.5,0a.85.85,0,0,1-.87.87C54.05,45.45,53.94,45.07,54.34,44.91Z"/><path class="cls-11" d="M125.57,126.06a2.31,2.31,0,0,1,.58-1.46C126.05,125.12,126.55,125.88,125.57,126.06Z"/><path class="cls-11" d="M134.33,128.11a3.83,3.83,0,0,1-.57,1.89C133.69,129.29,133.65,128.59,134.33,128.11Z"/><path class="cls-11" d="M12.83,110.7l-.29-.91v0l.81,0v0C13.36,110.23,13.39,110.65,12.83,110.7Z"/><path class="cls-11" d="M134.88,126.65a2.64,2.64,0,0,1-.56,1.48C134.28,127.55,134.19,127,134.88,126.65Z"/><path class="cls-13" d="M102.94,86.61c.38-.22.7-.73,1.23-.26C103.83,86.76,103.38,86.66,102.94,86.61Z"/><path class="cls-11" d="M147.9,127.27l-1-.57C147.36,126.67,147.87,126.54,147.9,127.27Z"/><path class="cls-11" d="M59.45,144.9A1.16,1.16,0,0,1,60,144C60.06,144.44,60.1,144.89,59.45,144.9Z"/><path class="cls-11" d="M140.92,127.78a1.31,1.31,0,0,1,.64-.8C141.54,127.41,141.52,127.82,140.92,127.78Z"/><path class="cls-11" d="M135.78,124.93a1.81,1.81,0,0,1-.57,1C135.17,125.46,135.06,125,135.78,124.93Z"/><path class="cls-11" d="M131.14,127.68a3.33,3.33,0,0,1,.36,1.61C130.85,128.87,131.18,128.23,131.14,127.68Z"/><path class="cls-11" d="M152.55,132.75a1.45,1.45,0,0,1-.59-.87C152.58,131.89,152.57,132.32,152.55,132.75Z"/><path class="cls-11" d="M135.42,122.86a1.15,1.15,0,0,1,1.54-.06Z"/><path class="cls-13" d="M53.41,46.39c-.07.34-.24.55-.63.49C52.75,46.41,53.13,46.47,53.41,46.39Z"/><path class="cls-11" d="M143.07,127.86a1.27,1.27,0,0,1-.65.83A.72.72,0,0,1,143.07,127.86Z"/><path class="cls-11" d="M139.27,126.81a1.31,1.31,0,0,1,.28,1C139.13,127.56,139.24,127.18,139.27,126.81Z"/><path class="cls-11" d="M54.78,116c-.4,0-.54-.28-.57-.64A.71.71,0,0,1,54.78,116Z"/><path class="cls-11" d="M132,130.18a.83.83,0,0,1,.24-.73C132.15,129.69,132.53,130.08,132,130.18Z"/><path class="cls-11" d="M132.53,128.4a1.13,1.13,0,0,1,.28-1C132.84,127.8,132.9,128.17,132.53,128.4Z"/><path class="cls-11" d="M131.45,129.37c.26.21.22.5.22.79C131.09,130,131.53,129.63,131.45,129.37Z"/><path class="cls-11" d="M52.87,125.23a1,1,0,0,1-.93.25C52.18,125.13,52.53,125.21,52.87,125.23Z"/><path class="cls-11" d="M124.44,131c0-.32-.09-.67.23-.91C124.73,130.43,124.78,130.76,124.44,131Z"/><path class="cls-11" d="M124.17,132.16a.77.77,0,0,1,.22-.73A.7.7,0,0,1,124.17,132.16Z"/><path class="cls-5" d="M121.52,37.65a.6.6,0,0,1-.28-.61A.54.54,0,0,1,121.52,37.65Z"/><path class="cls-11" d="M140.45,131.61a.65.65,0,0,1-.34.58C140.1,131.92,140.14,131.69,140.45,131.61Z"/><path class="cls-11" d="M140.12,132.17l-.32.57A.54.54,0,0,1,140.12,132.17Z"/><path class="cls-11" d="M130.56,125.68a.67.67,0,0,1,.24.68A.62.62,0,0,1,130.56,125.68Z"/><path class="cls-11" d="M123.57,135.63l-.43-.53C123.46,135.13,123.55,135.35,123.57,135.63Z"/><path class="cls-11" d="M124.14,136.51l-.34-.56A.51.51,0,0,1,124.14,136.51Z"/><path class="cls-11" d="M129,126.22l-.3-.71C129.06,125.65,129.06,125.93,129,126.22Z"/><path class="cls-11" d="M138.67,125.14a.63.63,0,0,1,.26.64A.59.59,0,0,1,138.67,125.14Z"/><path class="cls-12" d="M60,138a.69.69,0,0,1,.32.61A.59.59,0,0,1,60,138Z"/><path class="cls-11" d="M141.91,129.3a.64.64,0,0,1-.35.56C141.55,129.6,141.59,129.36,141.91,129.3Z"/><path class="cls-11" d="M132.27,129.26a.79.79,0,0,1,.24-.74A.7.7,0,0,1,132.27,129.26Z"/><path class="cls-11" d="M60.06,142.59a.62.62,0,0,1-.33-.56A.55.55,0,0,1,60.06,142.59Z"/><path class="cls-11" d="M54.9,116.45c0-.17-.09-.33-.14-.49.29.05.35.27.4.51l0,0a.53.53,0,0,0-.25-.05Z"/><path class="cls-11" d="M149.67,129l-.39-.5C149.59,128.48,149.65,128.7,149.67,129Z"/><path class="cls-13" d="M65.85,145.5c-.26-.05-.33-.27-.43-.47l.16-.13a.45.45,0,0,1,.27.6Z"/><path class="cls-11" d="M13.44,109.18c.25.13.24.39.29.62l-.36,0v-.57Z"/><path class="cls-11" d="M140.1,128.7l.29-.29C140.32,128.53,140.51,128.91,140.1,128.7Z"/><path class="cls-11" d="M149,128.18a.59.59,0,0,1-.5-.38C148.77,127.82,149,127.89,149,128.18Z"/><path class="cls-11" d="M53.66,125.15l-.57.07C53.25,124.93,53.44,124.88,53.66,125.15Z"/><path class="cls-11" d="M139.54,127.78a.59.59,0,0,1,.23.6A.55.55,0,0,1,139.54,127.78Z"/><path class="cls-11" d="M133.68,125.19a.7.7,0,0,1,.31-.59A.54.54,0,0,1,133.68,125.19Z"/><path class="cls-11" d="M143.54,127.51a.6.6,0,0,1-.5.38C143.08,127.6,143.29,127.53,143.54,127.51Z"/><path class="cls-11" d="M24.41,111.51,24,111C24.29,111.07,24.37,111.27,24.41,111.51Z"/><path class="cls-11" d="M134,124.61l.31-.56A.54.54,0,0,1,134,124.61Z"/><path class="cls-11" d="M126.14,124.61l.3-.63A.55.55,0,0,1,126.14,124.61Z"/><path class="cls-14" d="M106.59,121.26c-.14.13,0,.51-.38.37-.06,0,0-.4,0-.62Z"/><path class="cls-11" d="M53,123.15a.74.74,0,0,1,.63-.29A.56.56,0,0,1,53,123.15Z"/><path class="cls-11" d="M137,122.78a.59.59,0,0,1,.52.39C137.23,123.15,137,123.11,137,122.78Z"/><path class="cls-11" d="M52.17,123.43a.68.68,0,0,1,.63-.24A.57.57,0,0,1,52.17,123.43Z"/><path class="cls-11" d="M137.49,123.16a.64.64,0,0,1,.38.53C137.54,123.66,137.49,123.43,137.49,123.16Z"/><path class="cls-11" d="M133.09,126.64a.8.8,0,0,1,.29-.71C133.41,126.21,133.4,126.49,133.09,126.64Z"/><path class="cls-11" d="M135.16,126.07a.67.67,0,0,1-.28.59A.58.58,0,0,1,135.16,126.07Z"/><path class="cls-11" d="M139,125.94a.79.79,0,0,1,.25.71A.62.62,0,0,1,139,125.94Z"/><path class="cls-11" d="M129.33,127.27a.59.59,0,0,1-.22-.61A.57.57,0,0,1,129.33,127.27Z"/><path class="cls-11" d="M132.87,127.22a.55.55,0,0,1,.23-.6A.56.56,0,0,1,132.87,127.22Z"/><path class="cls-11" d="M144.77,126.68a.7.7,0,0,1-.59.32C144.27,126.7,144.5,126.66,144.77,126.68Z"/><path class="cls-11" d="M141.57,129.85l-.33.55A.55.55,0,0,1,141.57,129.85Z"/><path class="cls-11" d="M152.56,129.85l.35.54C152.63,130.32,152.57,130.1,152.56,129.85Z"/><path class="cls-14" d="M71.22,122c0,.09.11.17.11.24s-.08.15-.12.23c0-.09-.11-.17-.11-.25S71.18,122.11,71.22,122Z"/><path class="cls-11" d="M151.1,130.72a.6.6,0,0,1-.36-.54C151.06,130.23,151.1,130.46,151.1,130.72Z"/><path class="cls-11" d="M141,130.73a.68.68,0,0,1-.32.57A.52.52,0,0,1,141,130.73Z"/><path class="cls-11" d="M153.16,130.69a.62.62,0,0,1,.36.54C153.19,131.19,153.15,131,153.16,130.69Z"/><path class="cls-11" d="M151.71,131.55a.62.62,0,0,1-.36-.53C151.62,131.1,151.68,131.31,151.71,131.55Z"/><path class="cls-5" d="M121.25,37l-.29-.31Z"/><path class="cls-13" d="M52.79,46.88l-.3.3C52.5,47,52.58,46.87,52.79,46.88Z"/><path class="cls-13" d="M63,48.94a.24.24,0,0,1-.24.3C62.74,49.08,62.78,49,63,48.94Z"/><path class="cls-11" d="M22.27,109.53c0-.08,0-.16-.05-.24l.44.24-.07.06Z"/><path class="cls-11" d="M22.92,109.85l-.31,0c0-.08,0-.16,0-.24l.07-.06C22.75,109.64,22.84,109.74,22.92,109.85Z"/><path class="cls-11" d="M23.22,110.13l-.31-.29Z"/><path class="cls-11" d="M24.42,109.73l.3.37Z"/><path class="cls-11" d="M23.51,110.43l-.29-.31Z"/><path class="cls-11" d="M24.7,110.07l.29.32Z"/><path class="cls-11" d="M23.79,110.74c-.1-.11-.2-.21-.29-.32Z"/><path class="cls-11" d="M25,110.38l.3.31Z"/><path class="cls-11" d="M17.41,111.27a.32.32,0,0,1,.35.27Z"/><path class="cls-11" d="M17.74,111.53l.29,0,.09.26Z"/><path class="cls-11" d="M17.14,112.42l-.32-.26Z"/><path class="cls-11" d="M52.8,113.89l-.3-.29Z"/><path class="cls-11" d="M53.38,114.48l-.28-.3Z"/><path class="cls-12" d="M68.54,34.11l-.35-.25Z"/><path class="cls-3" d="M60.69,116.54l.17.28Z"/><path class="cls-14" d="M110.9,122.36s.08,0,.1,0a.11.11,0,0,1,0,.1c-.06.14-.13.13-.18,0S110.89,122.39,110.9,122.36Z"/><path class="cls-11" d="M60.32,143l-.26-.35Z"/><path class="cls-11" d="M152.81,133.09l-.26-.35Z"/><path class="cls-11" d="M153.75,131.54l.27.32Z"/><path class="cls-11" d="M60.32,143.46a.86.86,0,0,1,0-.28C60.54,143.29,60.54,143.38,60.32,143.46Z"/><path class="cls-11" d="M60.07,143.76l.26-.31Z"/><path class="cls-11" d="M140.68,131.29l-.26.34Z"/><path class="cls-11" d="M115.41,144.32l.28-.39Z"/><path class="cls-11" d="M115.14,144.62l.28-.31Z"/><path class="cls-13" d="M114.87,144.94l-.21-.23.21-.09Z"/><path class="cls-11" d="M59.17,145.2l.29-.3Z"/><path class="cls-11" d="M151.37,131.05l-.27-.33Z"/><path class="cls-11" d="M58.87,145.49l.3-.29Z"/><path class="cls-11" d="M152.89,130.36l.28.34Z"/><path class="cls-11" d="M58.58,145.77l.3-.29Z"/><path class="cls-13" d="M66.12,145.81a.28.28,0,0,1-.27-.31h0c.19-.08.3,0,.39.18Z"/><path class="cls-12" d="M59.76,137.67,60,138C59.81,138,59.79,137.83,59.76,137.67Z"/><path class="cls-11" d="M151.13,128.06l.29.32Z"/><path class="cls-11" d="M149.31,128.47l-.3-.31A.29.29,0,0,1,149.31,128.47Z"/><path class="cls-11" d="M140.4,128.39l.26-.31Z"/><path class="cls-11" d="M141.23,130.41c-.08.12-.16.23-.25.34C141.07,130.64,141.15,130.53,141.23,130.41Z"/><path class="cls-11" d="M150.76,130.2c-.09-.11-.19-.22-.29-.32C150.57,130,150.67,130.09,150.76,130.2Z"/><path class="cls-11" d="M150.85,127.72l.3.36Z"/><path class="cls-11" d="M124.64,130.07a.21.21,0,0,1,0-.24l.17.16Z"/><path class="cls-11" d="M152,131.89l-.25-.32Z"/><path class="cls-11" d="M152.29,129.52l.26.32Z"/><path class="cls-11" d="M140.65,128.09c.09-.11.19-.21.29-.32C140.84,127.88,140.74,128,140.65,128.09Z"/><path class="cls-11" d="M150.23,129.58l-.28-.32Z"/><path class="cls-11" d="M150.5,129.89l-.29-.33Z"/><path class="cls-11" d="M134.52,123.72l.29-.35Z"/><path class="cls-11" d="M152,129.14l.29.4Z"/><path class="cls-11" d="M136.08,124.64l-.32.3Z"/><path class="cls-11" d="M148.21,127.53l-.32-.28Z"/><path class="cls-11" d="M144.2,127l-.33.28Z"/><path class="cls-11" d="M150,129.26l-.27-.3Z"/><path class="cls-11" d="M123.83,136l-.26-.33Z"/><path class="cls-11" d="M138.08,124l.23.32Z"/><path class="cls-11" d="M142.16,129c-.09.11-.19.22-.28.34C142,129.21,142.07,129.1,142.16,129Z"/><path class="cls-11" d="M151.69,128.69l.23.27Z"/><path class="cls-11" d="M129.69,123.91l.25.42Z"/><path class="cls-11" d="M142.42,128.68l-.28.32Z"/><path class="cls-11" d="M137.84,123.67l.25.36Z"/><path class="cls-11" d="M149.09,126l.37.29Z"/><path class="cls-11" d="M134.3,124l.25-.35Z"/><path class="cls-11" d="M129.37,123.44l.24.3Z"/><path class="cls-11" d="M151.41,128.37l.27.31Z"/><path class="cls-11" d="M134.78,123.4l.32-.32A.32.32,0,0,1,134.78,123.4Z"/><path class="cls-11" d="M129.08,123.15l.3.3Z"/><path class="cls-11" d="M153.49,131.22c.1.11.19.22.28.34C153.68,131.44,153.59,131.33,153.49,131.22Z"/><path class="cls-11" d="M133.43,125.78l.07-.28a1.7,1.7,0,0,1,0,.22S133.46,125.76,133.43,125.78Z"/><path class="cls-11" d="M126.79,123.47l.26-.27Z"/><path class="cls-11" d="M135.08,123.1l.36-.25Z"/><path class="cls-10" d="M50,112.5a2.3,2.3,0,0,1-1.2.85c-.94-.8-1.33.32-1.91.61s-.93,1-1.79,1c.07-.78.7-1,1.07-1.49s.9-.9.43-1.34-1,.24-1.28.54c-1.65,1.57-3.37,3.12-4.06,5.41-.14.48-.41.76-.94.69.4-3.13,1-6.2,3.07-8.75C45.76,110.29,47.78,111.59,50,112.5Z"/><path class="cls-11" d="M43.35,110c-2.08,2.55-2.67,5.62-3.07,8.75h0l-1.14.06c-1-1.09-.32-2.3-.2-3.46a20.06,20.06,0,0,1,.51-2.24c.1-.23.2-.46.29-.69h0l1.15-2.4C41.71,109.08,42.52,109,43.35,110Z"/><path class="cls-11" d="M33.18,115a17.1,17.1,0,0,1,3.76-6.58c.76-.37,1.47-.62,1.7.57a13.23,13.23,0,0,0-3.86,7h0c-.47.62-.3,1.35-.33,2l0,0-.27.3a1.5,1.5,0,0,1-1.42-.3,9.15,9.15,0,0,1,.27-2.55Z"/><path class="cls-13" d="M34.78,115.91a13.23,13.23,0,0,1,3.86-7,6.91,6.91,0,0,0,2.28,1.11l-1.15,2.4c-.11-.61.28-1.45-.63-1.7s-1.08.65-1.49,1.19C36.67,113.26,36.46,115.12,34.78,115.91Z"/><path class="cls-13" d="M33.09,115.36a9.15,9.15,0,0,0-.27,2.55C32.36,117,32.16,116.12,33.09,115.36Z"/><path class="cls-13" d="M34.48,117.94c0-.69-.14-1.42.33-2C34.71,116.58,35.12,117.34,34.48,117.94Z"/><path class="cls-10" d="M39.18,118.84l1.14-.06C40,119.25,39.58,119.21,39.18,118.84Z"/><path class="cls-13" d="M54.86,116.46a.53.53,0,0,1,.25.05l0,.84C54.77,117.1,54.82,116.78,54.86,116.46Z"/><path class="cls-5" d="M22.59,109.59c0,.08,0,.16,0,.24l-.6-.11.26-.19Z"/><path class="cls-13" d="M39.78,112.45c-.09.23-.19.46-.29.69C39.49,112.87,39.47,112.59,39.78,112.45Z"/><path class="cls-13" d="M47.44,116.76l.42-.29Z"/><path class="cls-13" d="M34.24,118.21l.27-.3Z"/><path class="cls-9" d="M44.72,152.44l0-.54C45,152.09,44.94,152.27,44.72,152.44Z"/><path class="cls-13" d="M49.67,125.9l1.63-.08a.44.44,0,0,1,0,.23C50.76,126,50.19,126.21,49.67,125.9Z"/><path class="cls-11" d="M10.45,107.53c.49-.08.67-.3.3-.73s-.61-.58-.55-1.06a14,14,0,0,1,2.39,2.54l-.11.13c-.34.19-.26.52-.26.83l-.1.09A8.39,8.39,0,0,1,10.45,107.53Z"/><path class="cls-11" d="M9.07,104.58l-.32-.35Z"/><path class="cls-11" d="M9.63,105.18l-.3-.32Z"/><path class="cls-11" d="M9.92,105.47l-.31-.31Z"/><path class="cls-11" d="M10.21,105.76l-.31-.31Z"/><path class="cls-11" d="M12.59,108.28l.28.31-.1.09-.29-.27Z"/><path class="cls-11" d="M12.87,108.59l.3.28-.11.1-.29-.29Z"/><path class="cls-11" d="M13.17,108.87l.27.31-.09.09-.29-.3Z"/><path class="cls-11" d="M9.35,104.88l-.3-.32Z"/><path class="cls-9" d="M119.32,159.66a12,12,0,0,1,0-3.39A7.61,7.61,0,0,1,119.32,159.66Z"/><path class="cls-9" d="M119.31,160.82V160A.53.53,0,0,1,119.31,160.82Z"/><path class="cls-4" d="M28.15,136.21q.15-.24.3,0Z"/><path class="cls-9" d="M35.13,148.69h8.4c0,.48,0,.95,0,1.43l-7.85-.87A.55.55,0,0,1,35.13,148.69Z"/><path class="cls-6" d="M82.14,153.32c5.88.34,11.75.67,17.65.57,0,4.64.11,9.29-.31,13.92a82.68,82.68,0,0,1-15.4.87c-.86,0-1.72-.17-2.57-.27Z"/><path class="cls-11" d="M9.58,106.65a.78.78,0,0,1,.87.88A2.05,2.05,0,0,1,9.58,106.65Z"/><path class="cls-11" d="M12.54,109.79l-.42-.46.1-.09.33.53Z"/><path class="cls-11" d="M8.73,105.77l.28.3Z"/><path class="cls-11" d="M9,106.07l.29.29Z"/><path class="cls-11" d="M9.29,106.36l.3.29Z"/><path class="cls-3" d="M148.79,66.16a1,1,0,0,1-.87,0A.75.75,0,0,1,148.79,66.16Z"/><path class="cls-3" d="M158.93,66.34l-.58-.16C158.6,66,158.81,66,158.93,66.34Z"/><path class="cls-10" d="M63.81,119.75c-1.23-.32-1.56-1.41-2-2.39-.2-.47-.39-1-.59-1.42l0,0a.62.62,0,0,0-.2-.63,27.72,27.72,0,0,1-.39-12.09,33.89,33.89,0,0,1,7-14.82,2.19,2.19,0,0,1,.83.16,55.21,55.21,0,0,0,12.24,5.64c0,.11,0,.22,0,.33A14.79,14.79,0,0,1,77,99.61c-3.65,3.29-5.44,7.62-7.4,11.92A22.62,22.62,0,0,1,63.81,119.75Z"/><path class="cls-10" d="M67.51,45.72c.5-2.59,2.11-4.51,3.85-6.35,10.3-6,21.08-6.28,32.19-2.72a2.1,2.1,0,0,1,1.24.68c-4.43,7.85-11.72,11.29-20.1,13.09a13,13,0,0,1-3.73.23,1.79,1.79,0,0,1-1.72-1.12,1.48,1.48,0,0,1,.66-1.76,16.08,16.08,0,0,0,6-3.34c.28-.25.65-.52.5-1s-.64-.54-1.07-.59a3.1,3.1,0,0,0-.86,0,28.47,28.47,0,0,0-7.22,1.89c-2.22,1-4.63,1.7-6.13,3.85-1.89.54-3-.18-3.58-2.31Z"/><path class="cls-4" d="M77.44,65.78c0-4.64,3.23-8.58,8.52-10s10.17-.7,14.35,3a8.85,8.85,0,0,1,3,9.29,8.34,8.34,0,0,1-6.58,6.57,6.36,6.36,0,0,1-5.14-.77c-.53-.36-1-.55-1.55-.16C84.75,77.11,77.27,72.72,77.44,65.78Zm3.2,3.62c1.18,2.29,3.52,3.37,6.4,2.95a5.29,5.29,0,0,0,2.32-1.12,1.9,1.9,0,0,1,2.82.1,4.27,4.27,0,0,0,4.45.83,6.55,6.55,0,0,0,4.14-8.45,6.79,6.79,0,0,0-3.35-4.35c-4.29-3.12-12-2.54-15.66,1.17A7.22,7.22,0,0,0,80.64,69.4Z"/><path class="cls-13" d="M122.47,66.64a8.53,8.53,0,0,1-.55,3.74A8.63,8.63,0,0,1,115.16,73c-3.33-.24-5.74-2.94-5.19-6a4.82,4.82,0,0,1,1.87-3c2.61-2.05,8.28-1.91,10.24,2.17C122.16,66.39,122.34,66.5,122.47,66.64Z"/><path class="cls-13" d="M65.48,73a6.4,6.4,0,0,1-4.13-1.44c-2.87-2.57-2.45-6.26.93-8.1a7.55,7.55,0,0,1,8.18,1.18A4.6,4.6,0,0,1,69,72.28,7.79,7.79,0,0,1,65.48,73Z"/><path class="cls-4" d="M74.29,62.56A4.18,4.18,0,0,1,70,58.33,4.45,4.45,0,0,1,74.3,54a4.33,4.33,0,0,1,4.32,4.31A4.25,4.25,0,0,1,74.29,62.56Z"/><path class="cls-4" d="M111.14,58.33a4.22,4.22,0,0,1-4.37,4.22,4.41,4.41,0,0,1-4.28-4.24A4.58,4.58,0,0,1,106.9,54,4.21,4.21,0,0,1,111.14,58.33Z"/><path class="cls-4" d="M93.4,82a21.49,21.49,0,0,1-4.88.11A7.71,7.71,0,0,1,84,79.49c-.45-.46-.78-1-.22-1.65s1.23-.43,1.76.09c1.74,1.73,3.9,1.93,6.17,1.76a5.77,5.77,0,0,0,3.48-1.6c.58-.52,1.22-1.1,2-.28s0,1.36-.43,2c-.69,1-2,1.2-2.75,2.19h0c-.2-.55-.4-.26-.6,0Z"/><path class="cls-8" d="M71.09,48.62c1.5-2.15,3.91-2.88,6.13-3.85a28.47,28.47,0,0,1,7.22-1.89,3.1,3.1,0,0,1,.86,0c.43,0,.9.11,1.07.59s-.22.71-.5,1a16.08,16.08,0,0,1-6,3.34c.36-.92,1.44-1.26,1.84-2.28a13.44,13.44,0,0,0-3.78,1C75.68,47.24,73.53,48.39,71.09,48.62Z"/><path class="cls-3" d="M67.51,45.72v.59c-1.26.16-1.69,1.35-2.53,2,0-.41-.25-.57-.6-.64l2.34-2.83C67.34,44.82,67.22,45.46,67.51,45.72Z"/><path class="cls-4" d="M93.44,82.29a.87.87,0,0,0,0-.22s0-.07-.09-.1v0c.2.24.4.16.6,0h0c-.25,0-.48,0-.57.31Z"/><path class="cls-4" d="M93.42,82.3l-.21,0,.07.08.16-.13Z"/><path class="cls-3" d="M84.42,87.47c.1-.14.19-.13.27,0h-.14Z"/><path class="cls-3" d="M66.43,82.58l.38.09c-.21.27-.27,0-.37-.1Z"/><path class="cls-3" d="M66.44,82.57l-.12-.06.11.07Z"/><path class="cls-11" d="M109.92,142.61c.66-.3.74-1.07,1.25-1.49.3-.25.57-.55,1-.4s.57.63.56,1.06a16.37,16.37,0,0,1-.19,1.7l0,0c-.57.11-.53.73-.85,1.05s-.76.86-1.45.63-.66-.82-.62-1.4c0-.19,0-.38,0-.56l0,0c.35-.08.35-.33.31-.6Z"/><path class="cls-11" d="M109.65,143.17a5,5,0,0,1-.67.71,1.26,1.26,0,0,1-.76.33,1,1,0,0,1-1-1.19c0-1,1.15-2.46,1.86-2.46s.85.61.85,1.2c0,.28,0,.56-.06.85l0,0c-.29.1-.3.35-.31.6Z"/><path class="cls-11" d="M66.24,145.68c-.09-.14-.2-.26-.39-.18a.45.45,0,0,0-.27-.6,6.94,6.94,0,0,1-.77-2.45c0-.45,0-1,.52-1.24s.86.26,1.13.63c.4.54.76,1.1,1.13,1.64v0c0,.17,0,.38.32.31l0,0C67.87,145.81,67.87,145.81,66.24,145.68Z"/><path class="cls-4" d="M70.19,142.58a4.39,4.39,0,0,0,.13,1.27c.19.51.34.9-.3,1.16s-1.12.28-1.47-.39c-.17-.33-.23-.75-.68-.87l0,0c0-.19-.06-.36-.32-.31v0c.19-.49-.09-.91-.18-1.37s-.12-1,.41-1.23.85.17,1.23.47.34,1.25,1.16,1.25Z"/><path class="cls-4" d="M70.21,142.6a.71.71,0,0,1,0-.14c0-.73-.48-1.58.34-2.13a.87.87,0,0,1,1.16.3c.63.84,1.48,1.7,1.14,2.83-.24.79-1,.83-1.63.26-.4-.33-.47-1-1-1.14Z"/><path class="cls-3" d="M61,115.28a.62.62,0,0,1,.2.63A.47.47,0,0,1,61,115.28Z"/><path class="cls-4" d="M12.55,109.77l-.33-.53c0-.31-.08-.64.26-.83l.29.27.29.29.29.3c0,.18,0,.37,0,.55Z"/><path class="cls-13" d="M87,72.35c-2.88.42-5.22-.66-6.4-2.95,0-.43-.08-.86-.17-1.28a7.08,7.08,0,0,1,5.59-8.67,35.66,35.66,0,0,1,3.73-.35c2.55-.24,5.08.39,7.63.26a6.79,6.79,0,0,1,3.35,4.35c-.7.51-.34,1.24-.38,1.87A4.94,4.94,0,0,1,97,70.14c-1.79.67-3.28-.06-4.81-.77A4,4,0,0,0,87,72.35ZM88.22,64a2.17,2.17,0,0,0-2.13-2.25,2.26,2.26,0,0,0-2.24,2.18,2.22,2.22,0,0,0,2.24,2.16A2.12,2.12,0,0,0,88.22,64Zm9,0a2.19,2.19,0,0,0-2.14-2.25,2.22,2.22,0,0,0-2.14,2.11,2.14,2.14,0,0,0,2.16,2.2A2.05,2.05,0,0,0,97.2,64Z"/><path class="cls-12" d="M97.42,59.36c-2.55.13-5.08-.5-7.63-.26a35.66,35.66,0,0,0-3.73.35,7.08,7.08,0,0,0-5.59,8.67c.09.42.12.85.17,1.28a7.22,7.22,0,0,1,1.12-8.87C85.44,56.82,93.13,56.24,97.42,59.36Z"/><path class="cls-7" d="M87,72.35a4,4,0,0,1,5.17-3c1.53.71,3,1.44,4.81.77a4.94,4.94,0,0,0,3.37-4.56c0-.63-.32-1.36.38-1.87a6.55,6.55,0,0,1-4.14,8.45,4.27,4.27,0,0,1-4.45-.83,1.9,1.9,0,0,0-2.82-.1A5.29,5.29,0,0,1,87,72.35Z"/><path class="cls-14" d="M94,82c-.2.16-.4.24-.6,0C93.59,81.74,93.79,81.45,94,82Z"/><path class="cls-13" d="M109.63,143.19c0-.25,0-.5.31-.6C110,142.86,110,143.11,109.63,143.19Z"/><path class="cls-13" d="M67.58,143.46c.26-.05.3.12.32.31C67.62,143.84,67.62,143.63,67.58,143.46Z"/><path class="cls-11" d="M88.22,64a2.12,2.12,0,0,1-2.13,2.09,2.22,2.22,0,0,1-2.24-2.16,2.26,2.26,0,0,1,2.24-2.18A2.17,2.17,0,0,1,88.22,64Z"/><path class="cls-11" d="M97.2,64a2.05,2.05,0,0,1-2.12,2.06,2.14,2.14,0,0,1-2.16-2.2,2.22,2.22,0,0,1,2.14-2.11A2.19,2.19,0,0,1,97.2,64Z"/></g><text class="cls-15" transform="translate(181.16 103.68)">Pig&amp;B<tspan class="cls-16" x="156.97" y="0">r</tspan><tspan x="178.27" y="0">ead</tspan></text></g></g></svg>